<?xml version="1.0" encoding="utf-8"?>
<!-- Generator: Adobe Illustrator 27.6.1, SVG Export Plug-In . SVG Version: 6.00 Build 0)  -->
<svg version="1.1" id="Layer_1" xmlns="http://www.w3.org/2000/svg" xmlns:xlink="http://www.w3.org/1999/xlink" x="0px" y="0px"
	 viewBox="0 0 1080 1080" style="enable-background:new 0 0 1080 1080;" xml:space="preserve">
<style type="text/css">
	.st0{fill:#E8EFF4;}
	.st1{fill:#CDAC64;}
	.st2{fill:#D1DEE8;}
	.st3{fill:#FFFFFF;}
	.st4{fill:#1A5C8D;}
	.st5{fill:#BACEDD;}
	.st6{fill:#487DA4;}
	.st7{fill:#C8A455;}
</style>
<g>
	<g>
		<circle class="st0" cx="578.28" cy="542.47" r="334.86"/>
		
			<ellipse transform="matrix(0.7071 -0.7071 0.7071 0.7071 164.7749 731.0232)" class="st1" cx="964.81" cy="166.61" rx="16.96" ry="16.96"/>
		<circle class="st1" cx="921.04" cy="271.58" r="28.41"/>
		
			<ellipse transform="matrix(0.1602 -0.9871 0.9871 0.1602 -86.5999 462.3642)" class="st1" cx="228.42" cy="282.08" rx="18.97" ry="18.97"/>
		<circle class="st1" cx="102.46" cy="659.15" r="37.14"/>
	</g>
	<g>
		<path class="st2" d="M820.84,772.15L562.61,618.85c-14.48-8.59-19.29-27.47-10.7-41.95l147.62-248.68
			c8.59-14.48,27.47-19.29,41.95-10.7l258.23,153.29c14.48,8.59,19.29,27.47,10.7,41.95L862.79,761.45
			C854.2,775.93,835.32,780.74,820.84,772.15z"/>
		<path class="st3" d="M826.4,728.67L595.21,591.42c-5.75-3.42-7.67-10.92-4.25-16.67L713.57,368.2c3.42-5.75,10.92-7.67,16.67-4.25
			L961.44,501.2c5.75,3.42,7.67,10.92,4.25,16.67L843.07,724.42C839.66,730.17,832.15,732.08,826.4,728.67z"/>
		
			<ellipse transform="matrix(0.2336 -0.9723 0.9723 0.2336 122.2377 1101.9891)" class="st0" cx="760.19" cy="473.45" rx="16.17" ry="16.17"/>
		<polygon class="st0" points="683.19,535.98 748.95,513.49 764.07,583.99 		"/>
		<polygon class="st0" points="813.44,523.86 717.73,556.49 833.15,625.01 		"/>
	</g>
	<g>
		<path class="st2" d="M596.91,638.11L346.16,803.35c-14.06,9.26-33.14,5.34-42.41-8.72L144.63,553.16
			c-9.26-14.06-5.34-33.14,8.72-42.41l250.75-165.24c14.06-9.26,33.14-5.34,42.41,8.72l159.13,241.48
			C614.9,609.76,610.97,628.85,596.91,638.11z"/>
		<path class="st3" d="M560.24,614.11l-224.5,147.94c-5.59,3.68-13.17,2.12-16.85-3.46L186.72,558.01
			c-3.68-5.59-2.12-13.17,3.46-16.85l224.5-147.94c5.59-3.68,13.17-2.12,16.85,3.46L563.7,597.25
			C567.38,602.84,565.82,610.42,560.24,614.11z"/>
		<circle class="st0" cx="301.75" cy="562.09" r="16.17"/>
		<polygon class="st0" points="324.33,658.68 332.86,589.7 402.87,606.93 		"/>
		<polygon class="st0" points="370.37,536.24 357.88,636.58 469.96,562.72 		"/>
	</g>
	<g>
		<path class="st4" d="M723.1,630.69l-295.02,56.09c-16.54,3.14-32.65-7.82-35.79-24.36l-54.01-284.1
			c-3.14-16.54,7.82-32.65,24.36-35.79l295.02-56.09c16.54-3.14,32.65,7.82,35.79,24.36l54.01,284.1
			C750.61,611.44,739.64,627.55,723.1,630.69z"/>
		<path class="st5" d="M698.48,594.42l-264.13,50.22c-6.57,1.25-12.97-3.11-14.22-9.68l-44.86-235.98
			c-1.25-6.57,3.11-12.97,9.68-14.22l264.13-50.22c6.57-1.25,12.97,3.11,14.22,9.68l44.86,235.98
			C709.41,586.77,705.06,593.18,698.48,594.42z"/>
		
			<ellipse transform="matrix(0.471 -0.8821 0.8821 0.471 -140.4548 659.7714)" class="st6" cx="479.89" cy="447" rx="16.17" ry="16.17"/>
		<polygon class="st6" points="463.58,544.84 497.98,484.45 555.98,527.27 		"/>
		<polygon class="st6" points="553.17,449.52 503.04,537.34 634.91,512.27 		"/>
	</g>
	<g>
		<circle class="st7" cx="583.31" cy="699.32" r="141.97"/>
		<path class="st3" d="M630.55,686.79h-34.7v-34.7c0-6.92-5.61-12.53-12.53-12.53c-6.92,0-12.53,5.61-12.53,12.53v34.7h-34.7
			c-6.92,0-12.53,5.61-12.53,12.53c0,6.92,5.61,12.53,12.53,12.53h34.7v34.7c0,6.92,5.61,12.53,12.53,12.53
			c6.92,0,12.53-5.61,12.53-12.53v-34.7h34.7c6.92,0,12.53-5.61,12.53-12.53C643.08,692.4,637.47,686.79,630.55,686.79z"/>
	</g>
</g>
</svg>
