<svg width="32" height="32" viewBox="0 0 32 32" fill="none" xmlns="http://www.w3.org/2000/svg">
<path d="M13.5 7.5H15.5C15.6326 7.5 15.7598 7.44732 15.8536 7.35355C15.9473 7.25979 16 7.13261 16 7V4C16 3.86739 15.9473 3.74021 15.8536 3.64645C15.7598 3.55268 15.6326 3.5 15.5 3.5H13.5C13.3674 3.5 13.2402 3.55268 13.1464 3.64645C13.0527 3.74021 13 3.86739 13 4V7C13 7.13261 13.0527 7.25979 13.1464 7.35355C13.2402 7.44732 13.3674 7.5 13.5 7.5ZM14 4.5H15V6.5H14V4.5Z" fill="#034C82"/>
<path d="M17.5 7.5H19.5C19.6326 7.5 19.7598 7.44732 19.8536 7.35355C19.9473 7.25979 20 7.13261 20 7V4C20 3.86739 19.9473 3.74021 19.8536 3.64645C19.7598 3.55268 19.6326 3.5 19.5 3.5H17.5C17.3674 3.5 17.2402 3.55268 17.1464 3.64645C17.0527 3.74021 17 3.86739 17 4V7C17 7.13261 17.0527 7.25979 17.1464 7.35355C17.2402 7.44732 17.3674 7.5 17.5 7.5ZM18 4.5H19V6.5H18V4.5Z" fill="#034C82"/>
<path d="M21.5 7.5H23.5C23.6326 7.5 23.7598 7.44732 23.8536 7.35355C23.9473 7.25979 24 7.13261 24 7V4C24 3.86739 23.9473 3.74021 23.8536 3.64645C23.7598 3.55268 23.6326 3.5 23.5 3.5H21.5C21.3674 3.5 21.2402 3.55268 21.1464 3.64645C21.0527 3.74021 21 3.86739 21 4V7C21 7.13261 21.0527 7.25979 21.1464 7.35355C21.2402 7.44732 21.3674 7.5 21.5 7.5ZM22 4.5H23V6.5H22V4.5Z" fill="#034C82"/>
<path d="M13.5 12.5H15.5C15.6326 12.5 15.7598 12.4473 15.8536 12.3536C15.9473 12.2598 16 12.1326 16 12V9C16 8.86739 15.9473 8.74021 15.8536 8.64645C15.7598 8.55268 15.6326 8.5 15.5 8.5H13.5C13.3674 8.5 13.2402 8.55268 13.1464 8.64645C13.0527 8.74021 13 8.86739 13 9V12C13 12.1326 13.0527 12.2598 13.1464 12.3536C13.2402 12.4473 13.3674 12.5 13.5 12.5ZM14 9.5H15V11.5H14V9.5Z" fill="#034C82"/>
<path d="M17.5 12.5H19.5C19.6326 12.5 19.7598 12.4473 19.8536 12.3536C19.9473 12.2598 20 12.1326 20 12V9C20 8.86739 19.9473 8.74021 19.8536 8.64645C19.7598 8.55268 19.6326 8.5 19.5 8.5H17.5C17.3674 8.5 17.2402 8.55268 17.1464 8.64645C17.0527 8.74021 17 8.86739 17 9V12C17 12.1326 17.0527 12.2598 17.1464 12.3536C17.2402 12.4473 17.3674 12.5 17.5 12.5ZM18 9.5H19V11.5H18V9.5Z" fill="#034C82"/>
<path d="M21.5 12.5H23.5C23.6326 12.5 23.7598 12.4473 23.8536 12.3536C23.9473 12.2598 24 12.1326 24 12V9C24 8.86739 23.9473 8.74021 23.8536 8.64645C23.7598 8.55268 23.6326 8.5 23.5 8.5H21.5C21.3674 8.5 21.2402 8.55268 21.1464 8.64645C21.0527 8.74021 21 8.86739 21 9V12C21 12.1326 21.0527 12.2598 21.1464 12.3536C21.2402 12.4473 21.3674 12.5 21.5 12.5ZM22 9.5H23V11.5H22V9.5Z" fill="#034C82"/>
<path d="M9.5 7.5H11.5C11.6326 7.5 11.7598 7.44732 11.8536 7.35355C11.9473 7.25979 12 7.13261 12 7V4C12 3.86739 11.9473 3.74021 11.8536 3.64645C11.7598 3.55268 11.6326 3.5 11.5 3.5H9.5C9.36739 3.5 9.24021 3.55268 9.14645 3.64645C9.05268 3.74021 9 3.86739 9 4V7C9 7.13261 9.05268 7.25979 9.14645 7.35355C9.24021 7.44732 9.36739 7.5 9.5 7.5ZM10 4.5H11V6.5H10V4.5Z" fill="#034C82"/>
<path d="M9.5 12.5H11.5C11.6326 12.5 11.7598 12.4473 11.8536 12.3536C11.9473 12.2598 12 12.1326 12 12V9C12 8.86739 11.9473 8.74021 11.8536 8.64645C11.7598 8.55268 11.6326 8.5 11.5 8.5H9.5C9.36739 8.5 9.24021 8.55268 9.14645 8.64645C9.05268 8.74021 9 8.86739 9 9V12C9 12.1326 9.05268 12.2598 9.14645 12.3536C9.24021 12.4473 9.36739 12.5 9.5 12.5ZM10 9.5H11V11.5H10V9.5Z" fill="#034C82"/>
<path d="M13.5 17.5H15.5C15.6326 17.5 15.7598 17.4473 15.8536 17.3536C15.9473 17.2598 16 17.1326 16 17V14C16 13.8674 15.9473 13.7402 15.8536 13.6464C15.7598 13.5527 15.6326 13.5 15.5 13.5H13.5C13.3674 13.5 13.2402 13.5527 13.1464 13.6464C13.0527 13.7402 13 13.8674 13 14V17C13 17.1326 13.0527 17.2598 13.1464 17.3536C13.2402 17.4473 13.3674 17.5 13.5 17.5ZM14 14.5H15V16.5H14V14.5Z" fill="#034C82"/>
<path d="M9.5 17.5H11.5C11.6326 17.5 11.7598 17.4473 11.8536 17.3536C11.9473 17.2598 12 17.1326 12 17V14C12 13.8674 11.9473 13.7402 11.8536 13.6464C11.7598 13.5527 11.6326 13.5 11.5 13.5H9.5C9.36739 13.5 9.24021 13.5527 9.14645 13.6464C9.05268 13.7402 9 13.8674 9 14V17C9 17.1326 9.05268 17.2598 9.14645 17.3536C9.24021 17.4473 9.36739 17.5 9.5 17.5ZM10 14.5H11V16.5H10V14.5Z" fill="#034C82"/>
<path d="M17.5 17.5H19.5C19.6326 17.5 19.7598 17.4473 19.8536 17.3536C19.9473 17.2598 20 17.1326 20 17V14C20 13.8674 19.9473 13.7402 19.8536 13.6464C19.7598 13.5527 19.6326 13.5 19.5 13.5H17.5C17.3674 13.5 17.2402 13.5527 17.1464 13.6464C17.0527 13.7402 17 13.8674 17 14V17C17 17.1326 17.0527 17.2598 17.1464 17.3536C17.2402 17.4473 17.3674 17.5 17.5 17.5ZM18 14.5H19V16.5H18V14.5Z" fill="#034C82"/>
<path d="M21.5 17.5H23.5C23.6326 17.5 23.7598 17.4473 23.8536 17.3536C23.9473 17.2598 24 17.1326 24 17V14C24 13.8674 23.9473 13.7402 23.8536 13.6464C23.7598 13.5527 23.6326 13.5 23.5 13.5H21.5C21.3674 13.5 21.2402 13.5527 21.1464 13.6464C21.0527 13.7402 21 13.8674 21 14V17C21 17.1326 21.0527 17.2598 21.1464 17.3536C21.2402 17.4473 21.3674 17.5 21.5 17.5ZM22 14.5H23V16.5H22V14.5Z" fill="#034C82"/>
<path d="M13.5 22.5H15.5C15.6326 22.5 15.7598 22.4473 15.8536 22.3536C15.9473 22.2598 16 22.1326 16 22V19C16 18.8674 15.9473 18.7402 15.8536 18.6464C15.7598 18.5527 15.6326 18.5 15.5 18.5H13.5C13.3674 18.5 13.2402 18.5527 13.1464 18.6464C13.0527 18.7402 13 18.8674 13 19V22C13 22.1326 13.0527 22.2598 13.1464 22.3536C13.2402 22.4473 13.3674 22.5 13.5 22.5ZM14 19.5H15V21.5H14V19.5Z" fill="#034C82"/>
<path d="M9.5 22.5H11.5C11.6326 22.5 11.7598 22.4473 11.8536 22.3536C11.9473 22.2598 12 22.1326 12 22V19C12 18.8674 11.9473 18.7402 11.8536 18.6464C11.7598 18.5527 11.6326 18.5 11.5 18.5H9.5C9.36739 18.5 9.24021 18.5527 9.14645 18.6464C9.05268 18.7402 9 18.8674 9 19V22C9 22.1326 9.05268 22.2598 9.14645 22.3536C9.24021 22.4473 9.36739 22.5 9.5 22.5ZM10 19.5H11V21.5H10V19.5Z" fill="#034C82"/>
<path d="M17.5 22.5H19.5C19.6326 22.5 19.7598 22.4473 19.8536 22.3536C19.9473 22.2598 20 22.1326 20 22V19C20 18.8674 19.9473 18.7402 19.8536 18.6464C19.7598 18.5527 19.6326 18.5 19.5 18.5H17.5C17.3674 18.5 17.2402 18.5527 17.1464 18.6464C17.0527 18.7402 17 18.8674 17 19V22C17 22.1326 17.0527 22.2598 17.1464 22.3536C17.2402 22.4473 17.3674 22.5 17.5 22.5ZM18 19.5H19V21.5H18V19.5Z" fill="#034C82"/>
<path d="M21.5 22.5H23.5C23.6326 22.5 23.7598 22.4473 23.8536 22.3536C23.9473 22.2598 24 22.1326 24 22V19C24 18.8674 23.9473 18.7402 23.8536 18.6464C23.7598 18.5527 23.6326 18.5 23.5 18.5H21.5C21.3674 18.5 21.2402 18.5527 21.1464 18.6464C21.0527 18.7402 21 18.8674 21 19V22C21 22.1326 21.0527 22.2598 21.1464 22.3536C21.2402 22.4473 21.3674 22.5 21.5 22.5ZM22 19.5H23V21.5H22V19.5Z" fill="#034C82"/>
<path d="M30.5002 19.5H26.0002V2C26.0002 1.86739 25.9475 1.74021 25.8537 1.64645C25.76 1.55268 25.6328 1.5 25.5002 1.5H7.50017C7.36756 1.5 7.24038 1.55268 7.14661 1.64645C7.05285 1.74021 7.00017 1.86739 7.00017 2V19.942C6.57975 19.6716 6.09422 19.5194 5.59465 19.5017C5.09508 19.4839 4.59995 19.6011 4.16136 19.8409C3.72277 20.0807 3.35694 20.4344 3.10235 20.8646C2.84777 21.2948 2.71384 21.7856 2.71467 22.2855C2.71519 22.5632 2.75819 22.8393 2.84217 23.104C2.22546 23.325 1.70665 23.7568 1.37729 24.3231C1.04793 24.8895 0.929195 25.5539 1.04203 26.1992C1.15487 26.8446 1.49203 27.4293 1.99402 27.8503C2.496 28.2712 3.13054 28.5013 3.78567 28.5C4.20769 28.4974 4.62339 28.3971 5.00017 28.207V30C5.00017 30.1326 5.05285 30.2598 5.14661 30.3536C5.24038 30.4473 5.36756 30.5 5.50017 30.5C5.63278 30.5 5.75995 30.4473 5.85372 30.3536C5.94749 30.2598 6.00017 30.1326 6.00017 30V28.207C6.31295 28.3614 6.65238 28.4546 7.00017 28.4815V30C7.00017 30.1326 7.05285 30.2598 7.14661 30.3536C7.24038 30.4473 7.36756 30.5 7.50017 30.5H29.5002C29.6328 30.5 29.76 30.4473 29.8537 30.3536C29.9475 30.2598 30.0002 30.1326 30.0002 30V22.5H30.5002C30.6328 22.5 30.76 22.4473 30.8537 22.3536C30.9475 22.2598 31.0002 22.1326 31.0002 22V20C31.0002 19.8674 30.9475 19.7402 30.8537 19.6464C30.76 19.5527 30.6328 19.5 30.5002 19.5ZM5.50017 25.5C5.36756 25.5 5.24038 25.5527 5.14661 25.6464C5.05285 25.7402 5.00017 25.8674 5.00017 26V27C4.67599 27.3186 4.2402 27.498 3.78567 27.5C3.3286 27.5018 2.88838 27.3276 2.55625 27.0136C2.22413 26.6996 2.02556 26.2698 2.00171 25.8134C1.97786 25.3569 2.13055 24.9088 2.42815 24.5619C2.72574 24.215 3.14541 23.9959 3.60017 23.95C3.68356 23.9411 3.76336 23.9113 3.83223 23.8634C3.9011 23.8156 3.95683 23.7511 3.99427 23.6761C4.03172 23.6011 4.04969 23.5178 4.04653 23.434C4.04336 23.3502 4.01917 23.2685 3.97617 23.1965C3.808 22.9223 3.71841 22.6072 3.71717 22.2855C3.71717 21.812 3.90528 21.3578 4.24013 21.023C4.57497 20.6881 5.02912 20.5 5.50267 20.5C5.97621 20.5 6.43036 20.6881 6.76521 21.023C7.10005 21.3578 7.28817 21.812 7.28817 22.2855C7.28693 22.6072 7.19733 22.9223 7.02917 23.1965C6.98617 23.2685 6.96197 23.3502 6.95881 23.434C6.95565 23.5178 6.97361 23.6011 7.01106 23.6761C7.04851 23.7511 7.10423 23.8156 7.1731 23.8634C7.24197 23.9113 7.32178 23.9411 7.40517 23.95C7.86017 23.9959 8.28004 24.2151 8.57768 24.5623C8.87532 24.9095 9.02787 25.358 9.00368 25.8146C8.9795 26.2713 8.78044 26.7011 8.44779 27.0149C8.11515 27.3287 7.67447 27.5024 7.21717 27.5C6.76177 27.4987 6.32497 27.3192 6.00017 27V26C6.00017 25.8674 5.94749 25.7402 5.85372 25.6464C5.75995 25.5527 5.63278 25.5 5.50017 25.5ZM19.0002 29.5H14.0002V24.5H19.0002V29.5ZM25.0002 29.5H20.0002V24C20.0002 23.8674 19.9475 23.7402 19.8537 23.6464C19.76 23.5527 19.6328 23.5 19.5002 23.5H13.5002C13.3676 23.5 13.2404 23.5527 13.1466 23.6464C13.0528 23.7402 13.0002 23.8674 13.0002 24V29.5H8.00017V28.3855C8.56345 28.2212 9.06023 27.8827 9.41926 27.4186C9.77828 26.9545 9.98111 26.3887 9.99866 25.8022C10.0162 25.2157 9.84756 24.6387 9.51692 24.154C9.18628 23.6692 8.71062 23.3017 8.15817 23.104C8.24215 22.8393 8.28514 22.5632 8.28567 22.2855C8.28524 21.8622 8.18756 21.4446 8.00017 21.065V2.5H25.0002V29.5ZM29.0002 29.5H26.0002V22.5H29.0002V29.5ZM30.0002 21.5H26.0002V20.5H30.0002V21.5Z" fill="#034C82"/>
</svg>
