<svg width="16" height="17" viewBox="0 0 16 17" fill="none" xmlns="http://www.w3.org/2000/svg">
<g clip-path="url(#clip0_1_56)">
<path d="M6.57188 4.32433C6.5568 3.71374 6.37755 3.16106 5.95875 2.69939C5.61868 2.32377 5.20825 2.05406 4.69228 1.98787C4.31201 1.93988 3.92671 1.90017 3.54308 1.8952C2.38551 1.88031 1.22961 1.88362 0.0720343 1.88031C0.0519317 1.88031 0.0335043 1.88693 0 1.89355V2.04744C0 3.20739 0 4.36569 0 5.52565C0 5.5604 0.0117265 5.60508 0 5.6299V6.26531C0.00167522 6.2802 0.00335043 6.29675 0.00335043 6.31329C0 6.95698 0 7.60232 0 8.246V8.28737C0 8.92609 0 9.56481 0 10.2052C0 10.2548 0 10.3028 0 10.3657H0.152445C0.623181 10.3657 1.09224 10.3657 1.56298 10.3657C1.67913 10.3657 1.7372 10.31 1.7372 10.1986C1.7372 9.24876 1.7372 8.29895 1.7372 7.34915C1.7372 7.2962 1.7372 7.2449 1.7372 7.18202C1.80756 7.18202 1.85949 7.18202 1.90975 7.18202C2.65019 7.16216 3.39064 7.14065 4.13109 7.1208C4.6504 7.1059 5.12784 6.95532 5.55 6.65913C5.9621 6.36955 6.24856 5.98235 6.42111 5.51241C6.5635 5.12686 6.58193 4.72973 6.5702 4.32598L6.57188 4.32433ZM3.86473 5.63321C3.54308 5.69112 3.20972 5.7027 2.88137 5.71429C2.50613 5.72752 2.1292 5.7176 1.74223 5.7176V3.33977C1.79081 3.33646 1.83436 3.3315 1.87959 3.3315C2.43242 3.33646 2.98691 3.33481 3.53973 3.35466C3.72568 3.36128 3.92001 3.40265 4.09256 3.47215C4.56497 3.66244 4.78275 4.03144 4.7794 4.52786C4.77604 5.09708 4.43262 5.52896 3.8664 5.63155L3.86473 5.63321Z" fill="#034C82"/>
<path d="M15.9983 16.2796C16 15.1462 15.9983 14.0127 16 12.8792C16 12.401 15.7269 12.1197 15.3333 11.9046C15.015 11.7308 14.7034 11.5472 14.3868 11.3651C14.3449 11.3271 14.3064 11.2774 14.303 11.2427C14.3499 11.1186 14.4152 11.0375 14.5225 11.016C14.5292 11.016 14.5359 11.016 14.5442 11.016C14.6649 11.0276 14.7871 11.0259 14.9094 11.016C14.9128 11.016 14.9161 11.016 14.9212 11.016C15.2864 11.0359 15.3751 10.8174 15.3601 10.4699C15.35 10.2383 15.2411 10.0563 15.0116 9.97518C15.0032 9.97187 14.9932 9.96856 14.9848 9.96525C14.7771 9.85273 14.556 9.78654 14.3131 9.78158C14.2276 9.77331 14.1623 9.78158 14.1104 9.8064C14.0249 9.83949 13.9663 9.90899 13.9462 10.0232C13.9261 10.1324 13.9026 10.2416 13.8758 10.369C13.8507 10.3425 13.8323 10.326 13.8222 10.3028C13.5023 9.59956 13.1823 8.89465 12.869 8.18809C12.7786 7.98456 12.6445 7.88031 12.41 7.88031C11.2273 7.88196 10.0429 7.88197 8.86022 7.88197C7.67752 7.88197 6.49314 7.88196 5.31044 7.88031C5.07591 7.88031 4.94189 7.98456 4.85143 8.18809C4.53816 8.89465 4.21652 9.59791 3.89823 10.3028C3.88818 10.3243 3.86975 10.3425 3.84463 10.369C3.81782 10.2416 3.79437 10.1324 3.77427 10.0232C3.75416 9.91065 3.69553 9.84115 3.61009 9.8064C3.55816 9.78158 3.49283 9.77331 3.40739 9.78158C3.16449 9.78654 2.94336 9.85273 2.73563 9.96525C2.72726 9.96856 2.7172 9.97187 2.70883 9.97518C2.47932 10.0546 2.37043 10.2366 2.36038 10.4699C2.34363 10.8174 2.43409 11.0342 2.79929 11.016C2.80264 11.016 2.80599 11.016 2.81102 11.016C2.93331 11.0259 3.0556 11.0292 3.17621 11.016C3.18291 11.016 3.19129 11.016 3.19799 11.016C3.30521 11.0375 3.37221 11.1186 3.41744 11.2427C3.41409 11.2774 3.37556 11.3287 3.33368 11.3651C3.01707 11.5472 2.70548 11.7325 2.38719 11.9046C1.99351 12.118 1.71877 12.3993 1.72045 12.8792C1.7238 14.0127 1.72045 15.1462 1.72212 16.2796C1.71877 16.3177 1.71877 16.3591 1.72715 16.3988C1.75898 16.69 1.95833 16.8605 2.27327 16.8638C2.52288 16.8654 2.77416 16.8555 3.02377 16.8638C3.1025 16.8969 3.19464 16.8803 3.28008 16.8621C3.29348 16.8605 3.30688 16.8571 3.32028 16.8522C3.33033 16.8505 3.33871 16.8472 3.34876 16.8456C3.54476 16.8025 3.70056 16.6702 3.72904 16.455C3.73071 16.4385 3.73239 16.4236 3.73406 16.4071C3.74076 16.3707 3.74244 16.3326 3.74076 16.2945C3.74244 16.2052 3.74076 16.1142 3.73741 16.0248C3.73574 15.9338 3.76421 15.8875 3.84127 15.8809C3.8731 15.8809 3.90326 15.8809 3.93174 15.8809C4.06575 15.8842 4.19977 15.8809 4.33546 15.8809C5.84483 15.8809 7.3542 15.8809 8.86358 15.8809C10.3729 15.8809 11.8823 15.8809 13.3917 15.8809C13.5257 15.8809 13.6597 15.8842 13.7954 15.8809C13.8239 15.8809 13.854 15.8809 13.8859 15.8809C13.9646 15.8891 13.9931 15.9338 13.9897 16.0248C13.9881 16.1142 13.9847 16.2052 13.9864 16.2945C13.9847 16.3326 13.9864 16.369 13.9931 16.4071C13.9931 16.4236 13.9964 16.4385 13.9981 16.455C14.0266 16.6702 14.1824 16.8025 14.3784 16.8456C14.3884 16.8472 14.3968 16.8505 14.4069 16.8522C14.4203 16.8555 14.4337 16.8588 14.4471 16.8621C14.5325 16.882 14.623 16.8969 14.7034 16.8638C14.953 16.8571 15.2043 16.8671 15.4539 16.8638C15.7671 16.8605 15.9682 16.6884 16 16.3988C16.0084 16.3607 16.0084 16.3177 16.005 16.2796H15.9983ZM14.958 13.8373C14.9111 13.8555 14.8592 13.872 14.8005 13.8886C14.231 14.0524 13.658 14.203 13.0851 14.3552C13.0851 14.3552 13.0834 14.3552 13.0818 14.3552C13.0566 14.3602 13.0298 14.3651 13.0047 14.3701C12.9427 14.3784 12.8791 14.38 12.8171 14.3867C12.8171 14.385 12.8171 14.3817 12.8171 14.38C12.8137 14.38 12.8087 14.38 12.8054 14.38C12.8054 14.3784 12.8054 14.3767 12.8054 14.3751C12.7601 14.3751 12.7149 14.3784 12.6713 14.3784C12.477 14.3635 12.4234 14.2808 12.4686 14.0706C12.5105 13.8787 12.5641 13.6884 12.6211 13.4981C12.6579 13.3756 12.7333 13.2962 12.8807 13.2796C13.0617 13.2581 13.2392 13.2085 13.4185 13.1704C13.71 13.1076 14.0015 13.0447 14.293 12.9835C14.4806 12.9437 14.6682 12.904 14.8575 12.8643C14.9044 12.856 14.9496 12.8511 14.9965 12.8511C15.1389 12.8643 15.2663 12.9686 15.2964 13.1142C15.2998 13.1307 15.2998 13.1473 15.3014 13.1638C15.3316 13.4799 15.2964 13.647 15.1172 13.7612C15.0652 13.7876 15.0133 13.8141 14.9614 13.8373H14.958ZM12.1001 10.7479H11.3077C11.296 10.743 11.2843 10.738 11.2742 10.7347C11.2709 10.7397 11.2692 10.7446 11.2658 10.7479H10.842C10.7934 10.7446 10.7415 10.7446 10.6896 10.7446C10.0781 10.7463 9.46833 10.7479 8.85687 10.7479C8.24542 10.7479 7.63564 10.7463 7.02419 10.7446C6.97226 10.7446 6.92032 10.7446 6.87174 10.7479H6.44791C6.44791 10.7479 6.44289 10.738 6.43954 10.7347C6.42781 10.7397 6.41608 10.7446 6.40603 10.7479H5.61365C5.38247 10.7479 5.15129 10.7479 4.92011 10.7479C4.8397 10.7479 4.75929 10.7479 4.67888 10.7479C4.6169 10.7479 4.55324 10.743 4.47953 10.7397C4.47451 10.6999 4.46948 10.6884 4.47283 10.6817C4.74087 10.0761 5.0156 9.47215 5.27359 8.86321C5.36405 8.6481 5.49639 8.54882 5.70077 8.52234C5.73092 8.52069 5.76275 8.51903 5.79793 8.51903C6.81646 8.51903 7.83667 8.51903 8.8552 8.51903C9.87373 8.51903 10.8939 8.51903 11.9125 8.51903C11.9477 8.51903 11.9795 8.51903 12.0096 8.52234C12.214 8.54882 12.3464 8.64975 12.4368 8.86321C12.6948 9.4738 12.9695 10.0761 13.2376 10.6817C13.2409 10.69 13.2376 10.7016 13.2309 10.7397C13.1555 10.7446 13.0935 10.7479 13.0315 10.7479C12.9511 10.7479 12.8707 10.7479 12.7903 10.7479C12.5591 10.7479 12.3279 10.7463 12.0967 10.7479H12.1001ZM4.91509 14.3751C4.91509 14.3751 4.91509 14.3784 4.91509 14.38C4.91174 14.38 4.90671 14.38 4.90336 14.38C4.90336 14.3817 4.90336 14.385 4.90336 14.3867C4.84138 14.38 4.77772 14.3784 4.71574 14.3701C4.69061 14.3651 4.66381 14.3602 4.63868 14.3552C4.63868 14.3552 4.637 14.3552 4.63533 14.3552C4.0624 14.203 3.48948 14.0524 2.91991 13.8886C2.86127 13.872 2.80934 13.8555 2.76243 13.8373C2.70883 13.8141 2.6569 13.7876 2.60664 13.7612C2.42739 13.6453 2.39221 13.4799 2.42237 13.1638C2.42237 13.1473 2.42237 13.1307 2.42739 13.1142C2.45755 12.9686 2.58486 12.866 2.72726 12.8511C2.77249 12.8511 2.81939 12.856 2.8663 12.8643C3.05392 12.904 3.24155 12.9437 3.43085 12.9835C3.72233 13.0463 4.01382 13.1092 4.30531 13.1704C4.48456 13.2085 4.66213 13.2581 4.84305 13.2796C4.9888 13.2978 5.06586 13.3756 5.10271 13.4981C5.15967 13.6867 5.21328 13.877 5.25516 14.0706C5.30206 14.2808 5.24678 14.3618 5.05246 14.3784C5.00723 14.3784 4.96199 14.3751 4.91844 14.3751H4.91509Z" fill="#034C82"/>
</g>
<defs>
<clipPath id="clip0_1_56">
<rect width="16" height="16" fill="white" transform="translate(0 0.88031)"/>
</clipPath>
</defs>
</svg>
