<svg width="16" height="17" viewBox="0 0 16 17" fill="none" xmlns="http://www.w3.org/2000/svg">
<g clip-path="url(#clip0_1_65)">
<path d="M16 16.8803V15.1025C15.4933 15.1025 15.1133 14.9544 14.86 14.6581C14.6067 14.3618 14.1067 14.2136 13.36 14.2136C12.6133 14.2136 12.1 14.3618 11.82 14.6581C11.54 14.9544 11.16 15.1025 10.68 15.1025C10.2 15.1025 9.82 14.9544 9.54 14.6581C9.26 14.3618 8.74667 14.2136 8 14.2136C7.25333 14.2136 6.74 14.3618 6.46 14.6581C6.18 14.9544 5.8 15.1025 5.32 15.1025C4.84 15.1025 4.46 14.9544 4.18 14.6581C3.9 14.3618 3.38667 14.2136 2.64 14.2136C1.89333 14.2136 1.39333 14.3618 1.14 14.6581C0.886666 14.9544 0.506666 15.1025 -2.38419e-07 15.1025V16.8803C0.786666 16.8803 1.30347 16.7322 1.5504 16.4359C1.7968 16.1396 2.16 15.9914 2.64 15.9914C3.12 15.9914 3.5 16.1396 3.78 16.4359C4.06 16.7322 4.57333 16.8803 5.32 16.8803C6.06667 16.8803 6.58 16.7322 6.86 16.4359C7.14 16.1396 7.52 15.9914 8 15.9914C8.48 15.9914 8.86 16.1396 9.14 16.4359C9.42 16.7322 9.93333 16.8803 10.68 16.8803C11.4267 16.8803 11.94 16.7322 12.22 16.4359C12.5 16.1396 12.88 15.9914 13.36 15.9914C13.84 15.9914 14.2032 16.1396 14.4496 16.4359C14.6965 16.7322 15.2133 16.8803 16 16.8803ZM16 12.8803V11.1025C15.4933 11.1025 15.1133 10.9544 14.86 10.6581C14.6067 10.3618 14.1067 10.2136 13.36 10.2136C12.6133 10.2136 12.0965 10.3618 11.8096 10.6581C11.5232 10.9544 11.1467 11.1025 10.68 11.1025C10.2 11.1025 9.82 10.9544 9.54 10.6581C9.26 10.3618 8.74667 10.2136 8 10.2136C7.25333 10.2136 6.74 10.3618 6.46 10.6581C6.18 10.9544 5.8 11.1025 5.32 11.1025C4.84 11.1025 4.46 10.9544 4.18 10.6581C3.9 10.3618 3.38667 10.2136 2.64 10.2136C1.89333 10.2136 1.39333 10.3618 1.14 10.6581C0.886666 10.9544 0.506666 11.1025 -2.38419e-07 11.1025V12.8803C0.786666 12.8803 1.30347 12.7322 1.5504 12.4359C1.7968 12.1396 2.16 11.9914 2.64 11.9914C3.12 11.9914 3.49013 12.1396 3.7504 12.4359C4.01013 12.7322 4.53333 12.8803 5.32 12.8803C6.08 12.8803 6.59653 12.7322 6.8696 12.4359C7.1432 12.1396 7.52 11.9914 8 11.9914C8.50667 11.9914 8.8832 12.1396 9.1296 12.4359C9.37653 12.7322 9.89333 12.8803 10.68 12.8803C11.4667 12.8803 11.9899 12.7322 12.2496 12.4359C12.5099 12.1396 12.88 11.9914 13.36 11.9914C13.84 11.9914 14.2032 12.1396 14.4496 12.4359C14.6965 12.7322 15.2133 12.8803 16 12.8803ZM12.08 8.34698L9.42 5.39142L10.22 4.50253C10.66 4.01364 11.1267 3.65809 11.62 3.43587C12.1133 3.21364 12.72 3.10253 13.44 3.10253V0.88031C12.44 0.88031 11.6133 1.00238 10.96 1.24653C10.3067 1.49127 9.66667 1.96179 9.04 2.65809L3.92 8.34698C4.14667 8.50994 4.36667 8.63942 4.58 8.73542C4.79333 8.83201 5.04 8.88031 5.32 8.88031C5.8 8.88031 6.18 8.73216 6.46 8.43587C6.74 8.13957 7.25333 7.99142 8 7.99142C8.74667 7.99142 9.26 8.13957 9.54 8.43587C9.82 8.73216 10.2 8.88031 10.68 8.88031C10.96 8.88031 11.2067 8.83201 11.42 8.73542C11.6333 8.63942 11.8533 8.50994 12.08 8.34698ZM4.24 0.88031C3.68 0.88031 3.20667 1.09868 2.82 1.53542C2.43333 1.97275 2.24 2.49512 2.24 3.10253C2.24 3.72475 2.43333 4.25068 2.82 4.68031C3.20667 5.10994 3.68 5.32475 4.24 5.32475C4.8 5.32475 5.27333 5.10994 5.66 4.68031C6.04667 4.25068 6.24 3.72475 6.24 3.10253C6.24 2.49512 6.04667 1.97275 5.66 1.53542C5.27333 1.09868 4.8 0.88031 4.24 0.88031Z" fill="#034C82"/>
</g>
<defs>
<clipPath id="clip0_1_65">
<rect width="16" height="16" fill="white" transform="matrix(-1 0 0 1 16 0.88031)"/>
</clipPath>
</defs>
</svg>
