<svg width="10" height="16" viewBox="0 0 10 16" fill="none" xmlns="http://www.w3.org/2000/svg">
<path d="M0.692289 0C0.692289 0 0.0769043 4.30769 0.0769043 4.92308C0.0769043 5.53846 1.46152 6.76923 1.46152 6.76923L1.30767 14.9809C1.30767 15.6603 1.85906 16 2.53844 16C3.21783 16 3.76921 15.6603 3.76921 14.9809L3.61537 6.76923C3.61537 6.76923 4.99998 5.51262 4.99998 4.92308C4.99998 4.33354 4.3846 0 4.3846 0H3.76921V4C3.76921 4.08161 3.73679 4.15987 3.67909 4.21757C3.62139 4.27527 3.54312 4.30769 3.46152 4.30769C3.37991 4.30769 3.30165 4.27527 3.24395 4.21757C3.18624 4.15987 3.15383 4.08161 3.15383 4C3.15383 3.94277 2.94214 0 2.94214 0H2.13475C2.13475 0 1.92306 3.94277 1.92306 4C1.92306 4.08161 1.89064 4.15987 1.83294 4.21757C1.77523 4.27527 1.69697 4.30769 1.61537 4.30769C1.53376 4.30769 1.4555 4.27527 1.39779 4.21757C1.34009 4.15987 1.30767 4.08161 1.30767 4V0H0.692289ZM7.2886 0.0387692C6.92614 0.125538 6.84614 0.513846 6.84614 0.941538V14.9803C6.84614 15.6597 7.39752 15.9994 8.0769 15.9994C8.75629 15.9994 9.2886 15.6591 9.2886 14.9803C9.2886 11.8498 8.67321 10.1809 8.67321 8.61477C8.67321 7.90831 9.92306 6.99877 9.92306 3.71077C9.92306 1.69969 8.1409 0.0381538 7.46152 0.0381538C7.39752 0.0381538 7.34029 0.0258462 7.2886 0.0381538V0.0387692Z" fill="#034C82"/>
</svg>
