<svg width="22" height="28" viewBox="0 0 22 28" fill="none" xmlns="http://www.w3.org/2000/svg">
<g filter="url(#filter0_d_31449_38651)">
<path d="M7.5 15.5935H14.5V13.7291H7.5V15.5935ZM7.5 11.8648H14.5V10.0005H7.5V11.8648ZM5.75 19.3222C5.26875 19.3222 4.85692 19.1398 4.5145 18.775C4.1715 18.4096 4 17.9705 4 17.4578V2.54306C4 2.03036 4.1715 1.59131 4.5145 1.2259C4.85692 0.861106 5.26875 0.678711 5.75 0.678711H12.75L18 6.27175V17.4578C18 17.9705 17.8288 18.4096 17.4864 18.775C17.1434 19.1398 16.7312 19.3222 16.25 19.3222H5.75ZM11.875 7.20393V2.54306H5.75V17.4578H16.25V7.20393H11.875ZM5.75 2.54306V7.20393V2.54306V17.4578V2.54306Z" fill="#034C82"/>
</g>
<defs>
<filter id="filter0_d_31449_38651" x="0" y="0.678711" width="22" height="26.6436" filterUnits="userSpaceOnUse" color-interpolation-filters="sRGB">
<feFlood flood-opacity="0" result="BackgroundImageFix"/>
<feColorMatrix in="SourceAlpha" type="matrix" values="0 0 0 0 0 0 0 0 0 0 0 0 0 0 0 0 0 0 127 0" result="hardAlpha"/>
<feOffset dy="4"/>
<feGaussianBlur stdDeviation="2"/>
<feComposite in2="hardAlpha" operator="out"/>
<feColorMatrix type="matrix" values="0 0 0 0 0 0 0 0 0 0 0 0 0 0 0 0 0 0 0.25 0"/>
<feBlend mode="normal" in2="BackgroundImageFix" result="effect1_dropShadow_31449_38651"/>
<feBlend mode="normal" in="SourceGraphic" in2="effect1_dropShadow_31449_38651" result="shape"/>
</filter>
</defs>
</svg>
