<svg width="16" height="16" viewBox="0 0 16 16" fill="none" xmlns="http://www.w3.org/2000/svg">
<g clip-path="url(#clip0_1_43)">
<path d="M14.2222 0H4.44446C3.46402 0 2.66669 0.7176 2.66669 1.6V4C2.66669 4.8824 3.46402 5.6 4.44446 5.6H14.2222C15.2027 5.6 16 4.8824 16 4V1.6C16 0.7176 15.2027 0 14.2222 0Z" fill="#034C82"/>
<path d="M9.77778 10.4V8.79999C9.77778 7.91759 8.98044 7.19999 8 7.19999H1.77778V2.39999C0.797333 2.39999 0 3.11759 0 3.99999V7.19999C0 8.08239 0.797333 8.79999 1.77778 8.79999H8V10.4C7.76425 10.4 7.53816 10.4843 7.37146 10.6343C7.20476 10.7843 7.11111 10.9878 7.11111 11.2V15.2C7.11111 15.4122 7.20476 15.6157 7.37146 15.7657C7.53816 15.9157 7.76425 16 8 16H9.77778C10.0135 16 10.2396 15.9157 10.4063 15.7657C10.573 15.6157 10.6667 15.4122 10.6667 15.2V11.2C10.6667 10.9878 10.573 10.7843 10.4063 10.6343C10.2396 10.4843 10.0135 10.4 9.77778 10.4Z" fill="#034C82"/>
</g>
<defs>
<clipPath id="clip0_1_43">
<rect width="16" height="16" fill="white"/>
</clipPath>
</defs>
</svg>
