<svg width="16" height="16" viewBox="0 0 16 16" fill="none" xmlns="http://www.w3.org/2000/svg">
<g clip-path="url(#clip0_1_168)">
<path d="M12.9685 8.46437L12.0219 7.33006C11.4131 6.59934 11.5048 6.00032 11.5299 5.04869C11.534 4.85326 11.4089 4.67908 11.2255 4.62385L10.1288 4.30522C9.9036 4.2415 9.66591 4.37319 9.6117 4.60261C9.42822 5.4098 8.77355 6.1745 7.99377 6.1745C7.21399 6.1745 6.55515 5.42254 6.37584 4.62385C6.3258 4.39444 6.08812 4.26274 5.86711 4.32221L4.75791 4.62385C4.57026 4.67483 4.441 4.85326 4.44933 5.04869C4.47435 5.93235 4.55358 6.61633 3.95728 7.33431L3.00654 8.48136C2.5687 9.00816 2.32684 9.6794 2.32684 10.3719V12.7807C2.32684 13.4477 2.86059 13.9915 3.51527 13.9915H12.4514C13.1228 13.9915 13.669 13.435 13.669 12.751V10.4016C13.669 9.6879 13.4188 8.99966 12.9685 8.45587V8.46437ZM7.99794 11.8631C6.86789 11.8631 5.95051 10.9284 5.95051 9.77712C5.95051 8.62581 6.86789 7.69117 7.99794 7.69117C9.12799 7.69117 10.0454 8.62581 10.0454 9.77712C10.0454 10.9284 9.12799 11.8631 7.99794 11.8631Z" fill="#034C82"/>
<path d="M15.3872 3.21765C13.8485 1.9134 10.9921 1 8.00226 1C5.01242 1 2.15185 1.9134 0.613149 3.21765C0.0877385 3.66373 -0.245856 5.08693 0.229516 6.02157C0.57145 6.70131 0.980102 6.9902 1.70567 6.76503L2.91495 6.25948C3.39032 6.13627 3.50708 5.8219 3.407 5.2781C3.18599 4.07582 3.51542 3.69346 4.57458 3.41732C5.56285 3.16242 6.93475 3.13268 7.99809 3.13268C9.06142 3.13268 10.4333 3.16242 11.4216 3.41732C12.4808 3.69346 12.8102 4.07582 12.5892 5.2781C12.4891 5.82614 12.61 6.13627 13.0812 6.25948L14.2905 6.76503C15.0161 6.9902 15.4206 6.70131 15.7667 6.02157C16.242 5.08268 15.9043 3.65948 15.3789 3.2134L15.3872 3.21765Z" fill="#034C82"/>
</g>
<defs>
<clipPath id="clip0_1_168">
<rect width="16" height="13" fill="white" transform="translate(0 1)"/>
</clipPath>
</defs>
</svg>
