<svg width="11" height="14" viewBox="0 0 11 14" fill="none" xmlns="http://www.w3.org/2000/svg">
<path d="M0 2.09981V11.8998C0 12.0855 0.0772618 12.2635 0.214789 12.3948C0.352315 12.5261 0.538841 12.5998 0.733333 12.5998H2.93333V11.1998H1.46667V2.79981H2.93333V1.39981H0.733333C0.538841 1.39981 0.352315 1.47356 0.214789 1.60483C0.0772618 1.73611 0 1.91415 0 2.09981ZM10.4441 1.42081L4.57747 0.0208067C4.46939 -0.0049248 4.35659 -0.00681561 4.24762 0.0152778C4.13866 0.0373713 4.03641 0.0828682 3.94862 0.148316C3.86083 0.213763 3.78981 0.29744 3.74096 0.392997C3.6921 0.488554 3.6667 0.593478 3.66667 0.699806V13.2998C3.66641 13.4062 3.69163 13.5113 3.7404 13.607C3.78916 13.7027 3.86019 13.7865 3.94805 13.852C4.03592 13.9175 4.1383 13.963 4.24738 13.9849C4.35646 14.0069 4.46936 14.0048 4.57747 13.9788L10.4441 12.5788C10.6029 12.541 10.7438 12.4537 10.8445 12.3306C10.9452 12.2076 11 12.0559 11 11.8998V2.09981C11 1.94366 10.9452 1.79202 10.8445 1.66898C10.7438 1.54595 10.6029 1.45859 10.4441 1.42081ZM7.33333 7.1314C7.32489 7.31164 7.24394 7.48182 7.10733 7.60651C6.97073 7.7312 6.78901 7.80079 6.6 7.80079C6.41099 7.80079 6.22927 7.7312 6.09267 7.60651C5.95606 7.48182 5.87511 7.31164 5.86667 7.1314V6.8675C5.86676 6.68185 5.94412 6.50384 6.08171 6.37263C6.21931 6.24142 6.40587 6.16776 6.60037 6.16785C6.79486 6.16795 6.98135 6.24178 7.1188 6.37313C7.25626 6.50447 7.33343 6.68255 7.33333 6.8682V7.1314Z" fill="#034C82"/>
</svg>
