<svg width="16" height="16" viewBox="0 0 16 16" fill="none" xmlns="http://www.w3.org/2000/svg">
<path d="M8 0C3.58116 0 0 3.58116 0 8C0 12.4188 3.58116 16 8 16C12.4188 16 16 12.4188 16 8C16 3.58116 12.4188 0 8 0ZM10.3435 11.3942C9.89565 11.9 9.29275 12.2072 8.53333 12.3145V13.4391H7.51159V12.3449C6.07101 12.1797 5.22899 11.2652 4.98551 9.6L6.6942 9.42464C6.83043 10.087 7.1029 10.5188 7.51159 10.7232V8.38696C5.99275 7.94928 5.23478 7.03913 5.23478 5.65652C5.23478 4.97536 5.44928 4.4029 5.87681 3.94058C6.30435 3.47826 6.84928 3.21739 7.51159 3.15942V2.56087H8.53333V3.15942C9.8087 3.3058 10.5623 4.04927 10.7957 5.39275L9.11739 5.61159C9.02029 5.11594 8.82609 4.80435 8.53333 4.67681V6.83768C9.47681 7.0913 10.1275 7.43188 10.4826 7.85942C10.8377 8.28841 11.0159 8.83768 11.0159 9.5087C11.0159 10.258 10.7913 10.8855 10.3449 11.3913L10.3435 11.3942Z" fill="#034C82"/>
</svg>
