<svg width="24" height="24" viewBox="0 0 24 24" fill="none" xmlns="http://www.w3.org/2000/svg">
<g clip-path="url(#clip0_30763_90477)" filter="url(#filter0_d_30763_90477)">
<path d="M4 1.77778V14.2222C4 15.2027 4.79733 16 5.77778 16H18.2222C19.2027 16 20 15.2027 20 14.2222V1.77778C20 0.797333 19.2027 0 18.2222 0H5.77778C4.79733 0 4 0.797333 4 1.77778ZM18.224 14.2222H5.77778V1.77778H18.2222L18.224 14.2222Z" fill="#034C82"/>
<path d="M14.6658 8.00011H16.4436V3.55566H11.9991V5.33344H14.6658V8.00011ZM11.9991 10.6668H9.33247V8.00011H7.55469V12.4446H11.9991V10.6668Z" fill="#034C82"/>
</g>
<defs>
<filter id="filter0_d_30763_90477" x="0" y="0" width="24" height="24" filterUnits="userSpaceOnUse" color-interpolation-filters="sRGB">
<feFlood flood-opacity="0" result="BackgroundImageFix"/>
<feColorMatrix in="SourceAlpha" type="matrix" values="0 0 0 0 0 0 0 0 0 0 0 0 0 0 0 0 0 0 127 0" result="hardAlpha"/>
<feOffset dy="4"/>
<feGaussianBlur stdDeviation="2"/>
<feComposite in2="hardAlpha" operator="out"/>
<feColorMatrix type="matrix" values="0 0 0 0 0 0 0 0 0 0 0 0 0 0 0 0 0 0 0.25 0"/>
<feBlend mode="normal" in2="BackgroundImageFix" result="effect1_dropShadow_30763_90477"/>
<feBlend mode="normal" in="SourceGraphic" in2="effect1_dropShadow_30763_90477" result="shape"/>
</filter>
<clipPath id="clip0_30763_90477">
<rect width="16" height="16" fill="white" transform="translate(4)"/>
</clipPath>
</defs>
</svg>
