<svg width="16" height="16" viewBox="0 0 16 16" fill="none" xmlns="http://www.w3.org/2000/svg">
<path d="M14.6627 5.30031C14.6616 5.25218 14.6551 5.20432 14.6433 5.15764C14.6387 5.14098 14.6293 5.12498 14.6233 5.10831C14.6093 5.07031 14.5967 5.03298 14.5767 4.99831C14.566 4.98031 14.5513 4.96564 14.5386 4.94831C14.5173 4.91831 14.4967 4.88764 14.4707 4.86164C14.4553 4.84698 14.4353 4.83498 14.4187 4.82098C14.3927 4.79964 14.3687 4.77631 14.3387 4.75831C14.336 4.75631 14.3327 4.75631 14.3293 4.75431L14.324 4.75031L8.33798 1.42364C8.23907 1.36879 8.12784 1.33996 8.01474 1.33984C7.90163 1.33973 7.79035 1.36833 7.69132 1.42298L1.67732 4.74964C1.67532 4.75164 1.67332 4.75431 1.66998 4.75631L1.66332 4.75898C1.63998 4.77231 1.62265 4.79164 1.60065 4.80764C1.57665 4.82564 1.55132 4.84164 1.52998 4.86231C1.50998 4.88298 1.49465 4.90698 1.47732 4.93031C1.45932 4.95364 1.43932 4.97431 1.42465 4.99964C1.40732 5.02831 1.39798 5.06098 1.38532 5.09231C1.37598 5.11431 1.36398 5.13498 1.35798 5.15898C1.34647 5.2048 1.33999 5.25175 1.33865 5.29898C1.33798 5.31031 1.33398 5.32031 1.33398 5.33231V10.667C1.33398 10.909 1.46532 11.1323 1.67732 11.2496L7.66265 14.5743L7.66332 14.575L7.66465 14.5756L7.67798 14.583C7.70665 14.599 7.73798 14.6076 7.76798 14.619C7.78932 14.6276 7.80998 14.639 7.83265 14.645C7.94328 14.6735 8.05935 14.6735 8.16998 14.645C8.19198 14.639 8.21265 14.6276 8.23465 14.619C8.26465 14.6076 8.29598 14.5996 8.32465 14.583L8.33798 14.5756L8.33932 14.575L8.33998 14.5743L14.3253 11.2496C14.536 11.1323 14.6673 10.909 14.6673 10.667V5.33231C14.6673 5.32098 14.6633 5.31164 14.6627 5.30031V5.30031ZM7.98198 7.91498L3.37265 5.33698L5.21398 4.31831L9.76998 6.92164L7.98198 7.91498V7.91498ZM8.01398 2.76898L12.628 5.33364L11.132 6.16498L6.57865 3.56298L8.01398 2.76898V2.76898ZM8.66732 12.8676L8.66865 9.08164L10.6673 7.96298V10.0003L12.0007 9.33364V7.21698L13.334 6.47098V10.2743L8.66732 12.8676Z" fill="#034C82"/>
</svg>
