<svg width="32" height="32" viewBox="0 0 32 32" fill="none" xmlns="http://www.w3.org/2000/svg">
<path d="M31.8436 14.4541L16.247 2.37112C16.1015 2.25846 15.8984 2.25846 15.7529 2.37112L7.05954 9.10607V8.13486H7.09315C7.31585 8.13486 7.49648 7.95423 7.49648 7.73153V6.11822C7.49648 5.89552 7.31585 5.7149 7.09315 5.7149H3.26155C3.03884 5.7149 2.85822 5.89552 2.85822 6.11822V7.73153C2.85822 7.95423 3.03884 8.13486 3.26155 8.13486H3.29516V12.0224L0.156336 14.4541C0.0200111 14.5597 -0.0341019 14.7403 0.0217589 14.9035C0.0775524 15.0667 0.230884 15.1763 0.403306 15.1763H1.64824V16.4031H1.14408C0.921379 16.4031 0.740756 16.5837 0.740756 16.8064V19.3608C0.740756 19.5835 0.921379 19.7641 1.14408 19.7641H1.64824V29.3095C1.64824 29.5322 1.8288 29.7128 2.05157 29.7128H29.9483C30.1711 29.7128 30.3517 29.5322 30.3517 29.3095V19.7641H30.8558C31.0785 19.7641 31.2591 19.5835 31.2591 19.3608V16.8064C31.2591 16.5837 31.0785 16.4031 30.8558 16.4031H30.3517V15.1763H31.5966C31.769 15.1763 31.9224 15.0666 31.9782 14.9034C32.0341 14.7403 31.9799 14.5598 31.8436 14.4541ZM3.66487 6.52155H6.68982V7.3282H3.66487V6.52155ZM4.10181 8.13486H6.25289V9.73096L4.10181 11.3974V8.13486ZM6.01761 17.2097V17.6803H1.54741V17.2097H6.01761ZM17.3444 16.4031H14.6555V11.9665H17.3444V16.4031ZM18.7896 17.2097V17.6803H13.2103V17.2097H18.7896ZM19.5963 18.9575V18.4869H25.1756V18.9575H19.5963ZM6.82427 18.9575V18.4869H12.4036V18.9575H6.82427ZM13.2103 18.4869H18.7896V18.9575H13.2103V18.4869ZM19.5963 17.6803V17.2097H25.1756V17.6803H19.5963ZM12.4036 17.6803H6.82427V17.2097H12.4036V17.6803ZM1.54741 18.4869H6.01761V18.9575H1.54741V18.4869ZM8.95854 28.9062H6.26969V22.3185H8.95854V28.9062ZM29.545 28.9062H9.76519V21.9152C9.76519 21.6925 9.58457 21.5119 9.36186 21.5119H5.86636C5.64366 21.5119 5.46304 21.6925 5.46304 21.9152V28.9062H2.45489V19.7641H29.545V28.9062ZM25.9823 18.9575V18.4869H30.4525V18.9575H25.9823ZM30.4525 17.6803H25.9823V17.2097H30.4525V17.6803ZM25.9823 16.4031V16.1342C25.9823 15.9115 25.8017 15.7308 25.579 15.7308C25.3563 15.7308 25.1756 15.9115 25.1756 16.1342V16.4031H19.5963V16.1342C19.5963 15.9115 19.4157 15.7308 19.1929 15.7308C18.9702 15.7308 18.7896 15.9115 18.7896 16.1342V16.4031H18.151V11.5631C18.151 11.3404 17.9704 11.1598 17.7477 11.1598H14.2522C14.0295 11.1598 13.8489 11.3404 13.8489 11.5631V16.4031H13.2103V16.1342C13.2103 15.9115 13.0296 15.7308 12.8069 15.7308C12.5842 15.7308 12.4036 15.9115 12.4036 16.1342V16.4031H6.82427V16.1342C6.82427 15.9115 6.64364 15.7308 6.42094 15.7308C6.19824 15.7308 6.01761 15.9115 6.01761 16.1342V16.4031H2.45489V15.2563L15.9999 4.76305L29.545 15.2564V16.4031H25.9823V16.4031ZM29.7711 14.4112L16.247 3.93401C16.1016 3.82135 15.8984 3.82135 15.753 3.93401L2.2289 14.4112C1.79976 14.3868 1.58257 14.3697 1.58257 14.3697L15.9999 3.20016L30.4174 14.3696C30.4174 14.3696 30.1839 14.3867 29.7711 14.4112Z" fill="#034C82"/>
<path d="M17.7475 8.13477H14.252C14.0293 8.13477 13.8486 8.31539 13.8486 8.53809V10.0842C13.8486 10.3069 14.0293 10.4875 14.252 10.4875H17.7475C17.9702 10.4875 18.1508 10.3069 18.1508 10.0842V8.53809C18.1508 8.31539 17.9702 8.13477 17.7475 8.13477ZM17.3441 9.68085H14.6553V8.94142H17.3441V9.68085Z" fill="#034C82"/>
<path d="M12.1664 11.1597H8.24415C8.02144 11.1597 7.84082 11.3403 7.84082 11.563V15.4618C7.84082 15.6845 8.02144 15.8651 8.24415 15.8651H12.1664C12.3891 15.8651 12.5697 15.6845 12.5697 15.4618V11.563C12.5697 11.3403 12.3891 11.1597 12.1664 11.1597ZM8.64747 11.9663H9.80193V15.0585H8.64747V11.9663ZM11.763 15.0585H10.6086V11.9663H11.763V15.0585Z" fill="#034C82"/>
<path d="M23.7557 11.1597H19.8335C19.6108 11.1597 19.4302 11.3403 19.4302 11.563V15.4618C19.4302 15.6845 19.6108 15.8651 19.8335 15.8651H23.7557C23.9784 15.8651 24.159 15.6845 24.159 15.4618V11.563C24.159 11.3403 23.9784 11.1597 23.7557 11.1597ZM20.2368 11.9663H21.3913V15.0585H20.2368V11.9663ZM23.3523 15.0585H22.1979V11.9663H23.3523V15.0585Z" fill="#034C82"/>
<path d="M11.7817 26.2172H15.704C15.9267 26.2172 16.1073 26.0366 16.1073 25.8139V21.915C16.1073 21.6923 15.9267 21.5117 15.704 21.5117H11.7817C11.559 21.5117 11.3784 21.6923 11.3784 21.915V25.8139C11.3784 26.0366 11.559 26.2172 11.7817 26.2172ZM15.3006 25.4105H14.1462V22.3184H15.3006V25.4105ZM12.1851 22.3184H13.3395V25.4105H12.1851V22.3184Z" fill="#034C82"/>
<path d="M17.9663 26.2172H21.8885C22.1112 26.2172 22.2919 26.0366 22.2919 25.8139V21.915C22.2919 21.6923 22.1112 21.5117 21.8885 21.5117H17.9663C17.7436 21.5117 17.563 21.6923 17.563 21.915V25.8139C17.563 26.0366 17.7436 26.2172 17.9663 26.2172ZM21.4852 25.4105H20.3308V22.3184H21.4852V25.4105ZM18.3696 22.3184H19.5241V25.4105H18.3696V22.3184Z" fill="#034C82"/>
<path d="M24.1504 26.2172H28.0726C28.2953 26.2172 28.4759 26.0366 28.4759 25.8139V21.915C28.4759 21.6923 28.2953 21.5117 28.0726 21.5117H24.1504C23.9277 21.5117 23.7471 21.6923 23.7471 21.915V25.8139C23.7471 26.0366 23.9277 26.2172 24.1504 26.2172ZM27.6693 25.4105H26.5148V22.3184H27.6693V25.4105ZM24.5537 22.3184H25.7082V25.4105H24.5537V22.3184Z" fill="#034C82"/>
</svg>
