<svg width="21" height="20" viewBox="0 0 21 20" fill="none" xmlns="http://www.w3.org/2000/svg">
<path d="M11.375 9H5.375C5.10978 9 4.85543 9.10536 4.66789 9.29289C4.48036 9.48043 4.375 9.73478 4.375 10C4.375 10.2652 4.48036 10.5196 4.66789 10.7071C4.85543 10.8946 5.10978 11 5.375 11H11.375C11.6402 11 11.8946 10.8946 12.0821 10.7071C12.2696 10.5196 12.375 10.2652 12.375 10C12.375 9.73478 12.2696 9.48043 12.0821 9.29289C11.8946 9.10536 11.6402 9 11.375 9ZM15.375 5H5.375C5.10978 5 4.85543 5.10536 4.66789 5.29289C4.48036 5.48043 4.375 5.73478 4.375 6C4.375 6.26522 4.48036 6.51957 4.66789 6.70711C4.85543 6.89464 5.10978 7 5.375 7H15.375C15.6402 7 15.8946 6.89464 16.0821 6.70711C16.2696 6.51957 16.375 6.26522 16.375 6C16.375 5.73478 16.2696 5.48043 16.0821 5.29289C15.8946 5.10536 15.6402 5 15.375 5ZM17.375 0H3.375C2.57935 0 1.81629 0.316071 1.25368 0.87868C0.691071 1.44129 0.375 2.20435 0.375 3V13C0.375 13.7956 0.691071 14.5587 1.25368 15.1213C1.81629 15.6839 2.57935 16 3.375 16H14.965L18.665 19.71C18.7584 19.8027 18.8693 19.876 18.9911 19.9258C19.1129 19.9755 19.2434 20.0008 19.375 20C19.5062 20.0034 19.6363 19.976 19.755 19.92C19.9376 19.845 20.0939 19.7176 20.2043 19.5539C20.3146 19.3901 20.374 19.1974 20.375 19V3C20.375 2.20435 20.0589 1.44129 19.4963 0.87868C18.9337 0.316071 18.1706 0 17.375 0ZM18.375 16.59L16.085 14.29C15.9916 14.1973 15.8807 14.124 15.7589 14.0742C15.6371 14.0245 15.5066 13.9992 15.375 14H3.375C3.10978 14 2.85543 13.8946 2.66789 13.7071C2.48036 13.5196 2.375 13.2652 2.375 13V3C2.375 2.73478 2.48036 2.48043 2.66789 2.29289C2.85543 2.10536 3.10978 2 3.375 2H17.375C17.6402 2 17.8946 2.10536 18.0821 2.29289C18.2696 2.48043 18.375 2.73478 18.375 3V16.59Z" fill="#034C82"/>
</svg>
