<svg width="32" height="32" viewBox="0 0 32 32" fill="none" xmlns="http://www.w3.org/2000/svg">
<g clip-path="url(#clip0_31174_34363)">
<path d="M31 28.9998H29.5V16.9998H30C30.1326 16.9998 30.2598 16.9472 30.3536 16.8534C30.4473 16.7596 30.5 16.6325 30.5 16.4998V14.9998C30.5 14.8672 30.4473 14.7401 30.3536 14.6463C30.2598 14.5525 30.1326 14.4998 30 14.4998H29.5V6.60797L30.2994 6.95797C30.3755 6.99131 30.4587 7.00516 30.5415 6.99826C30.6243 6.99136 30.7041 6.96394 30.7736 6.91846C30.8432 6.87299 30.9003 6.8109 30.9398 6.73781C30.9793 6.66472 31 6.58294 31 6.49984V4.49984C31 4.40265 30.9717 4.30755 30.9186 4.22619C30.8654 4.14482 30.7897 4.08072 30.7006 4.04172L22.7006 0.54172C22.6373 0.514201 22.569 0.5 22.5 0.5C22.431 0.5 22.3627 0.514201 22.2994 0.54172L14.2994 4.04172C14.2103 4.08072 14.1346 4.14482 14.0814 4.22619C14.0283 4.30755 14 4.40265 14 4.49984V6.49984C14 6.58294 14.0207 6.66472 14.0602 6.73781C14.0997 6.8109 14.1568 6.87299 14.2264 6.91846C14.2959 6.96394 14.3757 6.99136 14.4585 6.99826C14.5413 7.00516 14.6245 6.99131 14.7006 6.95797L15.5 6.60797V9.49984H2C1.86739 9.49984 1.74021 9.55252 1.64645 9.64629C1.55268 9.74006 1.5 9.86724 1.5 9.99984V11.4998C1.5 11.6325 1.55268 11.7596 1.64645 11.8534C1.74021 11.9472 1.86739 11.9998 2 11.9998H3.5V14.4998H2C1.86739 14.4998 1.74021 14.5525 1.64645 14.6463C1.55268 14.7401 1.5 14.8672 1.5 14.9998V16.4998C1.5 16.6325 1.55268 16.7596 1.64645 16.8534C1.74021 16.9472 1.86739 16.9998 2 16.9998H2.5V28.9998H1C0.867392 28.9998 0.740215 29.0525 0.646447 29.1463C0.552678 29.2401 0.5 29.3672 0.5 29.4998V30.9998C0.5 31.1325 0.552678 31.2596 0.646447 31.3534C0.740215 31.4472 0.867392 31.4998 1 31.4998H31C31.1326 31.4998 31.2598 31.4472 31.3536 31.3534C31.4473 31.2596 31.5 31.1325 31.5 30.9998V29.4998C31.5 29.3672 31.4473 29.2401 31.3536 29.1463C31.2598 29.0525 31.1326 28.9998 31 28.9998ZM15 5.73547V4.82672L22.5 1.54547L30 4.82672V5.73547L29.1963 5.38359C29.1953 5.38344 29.1944 5.383 29.1938 5.38234L22.7006 2.54172C22.6373 2.5141 22.569 2.49985 22.5 2.49985C22.431 2.49985 22.3627 2.5141 22.2994 2.54172L15.8062 5.38234C15.8056 5.383 15.8047 5.38344 15.8038 5.38359L15 5.73547ZM28.5 6.17047V14.4998H16.5V6.17047L22.5 3.54547L28.5 6.17047ZM2.5 10.9998V10.4998H15.5V10.9998H2.5ZM15.5 11.9998V14.4998H13.5V11.9998H15.5ZM12.5 11.9998V14.4998H10.5V11.9998H12.5ZM9.5 11.9998V14.4998H7.5V11.9998H9.5ZM6.5 11.9998V14.4998H4.5V11.9998H6.5ZM2.5 15.4998H29.5V15.9998H2.5V15.4998ZM22 21.9998H17.5C17.3674 21.9998 17.2402 22.0525 17.1464 22.1463C17.0527 22.2401 17 22.3672 17 22.4998V28.9998H16.5V16.9998H28.5V28.9998H22.5V22.4998C22.5 22.3672 22.4473 22.2401 22.3536 22.1463C22.2598 22.0525 22.1326 21.9998 22 21.9998ZM21.5 22.9998V28.9998H18V22.9998H21.5ZM14.5 19.4998H4.5C4.36739 19.4998 4.24021 19.5525 4.14645 19.6463C4.05268 19.7401 4 19.8672 4 19.9998V21.4998C4 21.6325 4.05268 21.7596 4.14645 21.8534C4.24021 21.9472 4.36739 21.9998 4.5 21.9998V28.9998H3.5V16.9998H15.5V28.9998H14.5V21.9998C14.6326 21.9998 14.7598 21.9472 14.8536 21.8534C14.9473 21.7596 15 21.6325 15 21.4998V19.9998C15 19.8672 14.9473 19.7401 14.8536 19.6463C14.7598 19.5525 14.6326 19.4998 14.5 19.4998ZM5 20.9998V20.4998H14V20.9998H5ZM13.5 21.9998V28.9998H5.5V21.9998H13.5ZM30.5 30.4998H1.5V29.9998H30.5V30.4998Z" fill="#034C82"/>
<path d="M23.5 26.5H27.5C27.6326 26.5 27.7598 26.4473 27.8536 26.3536C27.9473 26.2598 28 26.1326 28 26V22.5C28 22.3674 27.9473 22.2402 27.8536 22.1464C27.7598 22.0527 27.6326 22 27.5 22H23.5C23.3674 22 23.2402 22.0527 23.1464 22.1464C23.0527 22.2402 23 22.3674 23 22.5V26C23 26.1326 23.0527 26.2598 23.1464 26.3536C23.2402 26.4473 23.3674 26.5 23.5 26.5ZM24 23H27V25.5H24V23Z" fill="#034C82"/>
<path d="M23.5 11.5H27.5C27.6326 11.5 27.7598 11.4473 27.8536 11.3536C27.9473 11.2598 28 11.1326 28 11V7.5C28 7.36739 27.9473 7.24021 27.8536 7.14645C27.7598 7.05268 27.6326 7 27.5 7H23.5C23.3674 7 23.2402 7.05268 23.1464 7.14645C23.0527 7.24021 23 7.36739 23 7.5V11C23 11.1326 23.0527 11.2598 23.1464 11.3536C23.2402 11.4473 23.3674 11.5 23.5 11.5ZM24 8H27V10.5H24V8Z" fill="#034C82"/>
<path d="M17.5 11.5H21.5C21.6326 11.5 21.7598 11.4473 21.8536 11.3536C21.9473 11.2598 22 11.1326 22 11V7.5C22 7.36739 21.9473 7.24021 21.8536 7.14645C21.7598 7.05268 21.6326 7 21.5 7H17.5C17.3674 7 17.2402 7.05268 17.1464 7.14645C17.0527 7.24021 17 7.36739 17 7.5V11C17 11.1326 17.0527 11.2598 17.1464 11.3536C17.2402 11.4473 17.3674 11.5 17.5 11.5ZM18 8H21V10.5H18V8Z" fill="#034C82"/>
<path d="M20.5 27C20.6326 27 20.7598 26.9473 20.8536 26.8536C20.9473 26.7598 21 26.6326 21 26.5V25.5C21 25.3674 20.9473 25.2402 20.8536 25.1464C20.7598 25.0527 20.6326 25 20.5 25C20.3674 25 20.2402 25.0527 20.1464 25.1464C20.0527 25.2402 20 25.3674 20 25.5V26.5C20 26.6326 20.0527 26.7598 20.1464 26.8536C20.2402 26.9473 20.3674 27 20.5 27Z" fill="#034C82"/>
</g>
<defs>
<clipPath id="clip0_31174_34363">
<rect width="32" height="32" fill="white"/>
</clipPath>
</defs>
</svg>
