<svg width="24" height="23" viewBox="0 0 24 23" fill="none" xmlns="http://www.w3.org/2000/svg">
<path d="M21 6H17V3C17 1.3 15.7 0 14 0H3C1.3 0 0 1.3 0 3V22C0 22.6 0.4 23 1 23H16H23C23.6 23 24 22.6 24 22V9C24 7.3 22.7 6 21 6ZM11 14H6C5.4 14 5 13.6 5 13C5 12.4 5.4 12 6 12H11C11.6 12 12 12.4 12 13C12 13.6 11.6 14 11 14ZM11 10H6C5.4 10 5 9.6 5 9C5 8.4 5.4 8 6 8H11C11.6 8 12 8.4 12 9C12 9.6 11.6 10 11 10ZM11 6H6C5.4 6 5 5.6 5 5C5 4.4 5.4 4 6 4H11C11.6 4 12 4.4 12 5C12 5.6 11.6 6 11 6Z" fill="#064D82"/>
</svg>
