<?xml version="1.0" encoding="utf-8"?>
<!-- Generator: Adobe Illustrator 27.6.1, SVG Export Plug-In . SVG Version: 6.00 Build 0)  -->
<svg version="1.1" id="Layer_1" xmlns="http://www.w3.org/2000/svg" xmlns:xlink="http://www.w3.org/1999/xlink" x="0px" y="0px"
	 viewBox="0 0 1080 1080" style="enable-background:new 0 0 1080 1080;" xml:space="preserve">
<style type="text/css">
	.st0{fill:#F6F5F7;}
	.st1{fill:#064D82;}
	.st2{fill:#EDE0C8;}
	.st3{fill:#40B58E;}
	.st4{fill:#36916F;}
	.st5{fill:#59C09D;}
	.st6{fill:#3FB48E;}
	.st7{fill:#92D3D3;}
	.st8{fill:#FFFFFF;}
	.st9{fill:#D0DAEB;}
	.st10{filter:url(#Adobe_OpacityMaskFilter);}
	.st11{filter:url(#Adobe_OpacityMaskFilter_00000120548179938686220300000015663967422565358781_);}
	.st12{mask:url(#SVGID_1_);fill:url(#SVGID_00000085969881178517960170000016148261667638340515_);}
	.st13{fill:url(#SVGID_00000072983444251434275040000005835641886821706171_);}
	.st14{fill:#C9A457;}
	.st15{fill:#014E81;}
	.st16{opacity:0.21;fill:#1B2551;}
	.st17{fill:#1B2551;}
	.st18{fill:#F8A89D;}
	.st19{fill:#8CADC6;}
	.st20{fill:#5F8CAE;}
	.st21{fill:#F79D92;}
	.st22{fill:#203669;}
	.st23{fill:#C9A556;}
</style>
<g>
	<g>
		<path class="st0" d="M920.59,949.76H433.37c-42.3,0-76.59-34.29-76.59-76.59v0c0-42.3,34.29-76.59,76.59-76.59h487.21
			c42.3,0,76.59,34.29,76.59,76.59v0C997.18,915.47,962.89,949.76,920.59,949.76z"/>
		<path class="st0" d="M876.17,721.79H166.09c-43.88,0-79.45-35.57-79.45-79.45v0c0-43.88,35.57-79.45,79.45-79.45h710.08
			c43.88,0,79.45,35.57,79.45,79.45v0C955.62,686.22,920.05,721.79,876.17,721.79z"/>
		<path class="st0" d="M800.44,443.03H205.33c-80.22,0-145.26-65.03-145.26-145.26v0c0-80.22,65.03-145.26,145.26-145.26h595.11
			c80.22,0,145.26,65.03,145.26,145.26v0C945.69,378,880.66,443.03,800.44,443.03z"/>
		<path class="st0" d="M823.63,562.89H174.61c16.66,0,31.73-6.75,42.65-17.66c10.91-10.92,17.66-25.99,17.66-42.65
			c0-33.3-27-60.31-60.31-60.31h649.02c-16.66,0-31.73,6.75-42.65,17.66c-10.91,10.92-17.66,25.99-17.66,42.64
			C763.32,535.89,790.32,562.89,823.63,562.89z"/>
	</g>
</g>
<g>
	<g>
		<g>
			<path class="st1" d="M834.65,353.89H658.43c-10.3,0-19.73-3.73-27.01-9.92c-9.01-7.66-14.72-19.07-14.72-31.82v0
				c0-11.52,4.67-21.96,12.22-29.51c7.55-7.55,17.99-12.22,29.51-12.22h176.21c11.52,0,21.96,4.67,29.51,12.22
				c7.55,7.55,12.22,17.99,12.22,29.51v0c0,11.52-4.67,21.96-12.22,29.51C856.6,349.22,846.17,353.89,834.65,353.89z"/>
		</g>
		<g>
			
				<ellipse transform="matrix(0.2357 -0.9718 0.9718 0.2357 283.0428 927.7295)" class="st1" cx="731.36" cy="283.91" rx="63.23" ry="63.23"/>
		</g>
	</g>
</g>
<g>
	<path class="st2" d="M298.43,262.39H125.38c-11.32,0-21.56-4.59-28.98-12c-7.42-7.42-12-17.66-12-28.98v0
		c0-8.07,2.33-15.6,6.36-21.94c7.27-11.45,20.06-19.05,34.63-19.05h173.05c11.32,0,21.56,4.59,28.98,12c7.42,7.42,12,17.66,12,28.98
		v0c0,10.56-3.99,20.18-10.55,27.45C321.37,257.17,310.51,262.39,298.43,262.39z"/>
	<circle class="st2" cx="197" cy="193.67" r="62.1"/>
</g>
<g>
	<g>
		<g>
			<path class="st3" d="M391.89,846.17c-1.44,7.21,7.21,8.65,8.65,18.74c1.44,10.09-2.88,12.97-1.44,18.74
				c1.44,5.77,10.09,7.21,11.53,21.62c1.44,14.42-4.32,12.97-2.88,21.62c1.44,8.65,10.09,8.65,11.53,15.86
				c1.44,7.21,1.44,17.3,4.32,25.95c2.88,8.65,11.53,21.62,15.86,21.62c4.32,0,15.86-24.51,12.97-31.72
				c-2.88-7.21-7.21-8.65-7.21-14.42s5.77-20.18,4.32-30.27c-1.44-10.09-14.42-14.42-15.86-21.62c-1.44-7.21,2.88-25.95-7.21-34.6
				C416.39,849.06,393.33,838.96,391.89,846.17z"/>
			<path class="st4" d="M438.8,987.86c-0.4,0-0.72-0.32-0.72-0.72c0-0.19-0.12-18.92-5.61-24.41c-5.57-5.57-8.75-22.61-10.3-55.26
				c-1.41-29.66-22.67-54.09-22.89-54.34c-0.26-0.3-0.24-0.75,0.06-1.02c0.3-0.26,0.76-0.24,1.02,0.06
				c0.22,0.25,21.81,25.05,23.24,55.22c1.52,31.82,4.66,49.08,9.88,54.31c5.91,5.91,6.03,24.63,6.04,25.43
				C439.52,987.53,439.2,987.86,438.8,987.86C438.8,987.86,438.8,987.86,438.8,987.86z"/>
		</g>
		<g>
			<path class="st5" d="M523.84,867.99c5.1,5.1-11.53,7.21-12.97,17.3c-1.44,10.09-1.44,14.42-7.21,20.18s-14.42,7.21-12.97,15.86
				c1.44,8.65,4.32,17.3,0,21.62c-4.32,4.32-14.42,4.32-17.3,11.53c-2.88,7.21-1.44,15.86-7.21,23.07
				c-5.77,7.21-14.42,21.62-21.62,18.74c-7.21-2.88-2.88-36.04,0-41.81c2.88-5.77,5.77-10.09,5.77-14.42s-1.44-11.53,1.44-18.74
				c2.88-7.21,18.74-10.09,20.18-14.42s2.88-27.39,11.53-33.16C492.13,867.99,515.19,859.34,523.84,867.99z"/>
			<path class="st6" d="M446.79,993.82c-0.13,0-0.25-0.03-0.37-0.1c-0.34-0.2-0.45-0.65-0.25-0.99c0.06-0.1,5.83-9.75,7.05-14.63
				c0.31-1.26,0.69-3.16,1.13-5.37c1.59-8,4-20.1,7.71-23.8c5.38-5.38,13.98-21.85,20-42.94c7.42-25.97,31.95-33.58,32.2-33.65
				c0.39-0.11,0.78,0.1,0.9,0.48c0.11,0.38-0.1,0.78-0.48,0.9c-0.24,0.07-24.03,7.47-31.23,32.66
				c-6.09,21.32-14.86,38.05-20.37,43.56c-3.4,3.4-5.85,15.71-7.31,23.06c-0.44,2.22-0.82,4.14-1.15,5.43
				c-1.27,5.09-6.97,14.62-7.21,15.02C447.27,993.69,447.03,993.82,446.79,993.82z"/>
		</g>
		<g>
			<path class="st7" d="M444.95,884.5c-17.3,1.44-11.53,53.34-11.53,53.34c4.32,44.69,10.09,64.87,14.42,66.31
				c4.32,1.44,12.97-63.43,12.97-79.29C460.81,924.86,462.25,883.06,444.95,884.5z"/>
			<path class="st8" d="M447.11,996.94c-0.03,0-0.06,0-0.09,0c-0.39-0.05-0.68-0.41-0.63-0.8c5.69-46.94-1.37-105.91-1.44-106.5
				c-0.05-0.39,0.23-0.75,0.63-0.8c0.38-0.06,0.75,0.23,0.8,0.63c0.07,0.59,7.15,59.74,1.44,106.85
				C447.78,996.67,447.47,996.94,447.11,996.94z"/>
		</g>
		<path class="st9" d="M468.6,1029.76h-43.87c-1.47,0-2.7-0.89-2.86-2.07l-6.37-45.48c-0.29-2.05,1.3-3.88,3.37-3.88h55.6
			c2.07,0,3.66,1.83,3.37,3.88l-6.37,45.48C471.3,1028.87,470.07,1029.76,468.6,1029.76z"/>
	</g>
	<defs>
		<filter id="Adobe_OpacityMaskFilter" filterUnits="userSpaceOnUse" x="321.67" y="1025.42" width="516.01" height="12.21">
			<feFlood  style="flood-color:white;flood-opacity:1" result="back"/>
			<feBlend  in="SourceGraphic" in2="back" mode="normal"/>
		</filter>
	</defs>
	<mask maskUnits="userSpaceOnUse" x="321.67" y="1025.42" width="516.01" height="12.21" id="SVGID_1_">
		<g class="st10">
			<defs>
				
					<filter id="Adobe_OpacityMaskFilter_00000154426172512854833930000011160505465516417681_" filterUnits="userSpaceOnUse" x="321.67" y="1025.42" width="516.01" height="12.21">
					<feFlood  style="flood-color:white;flood-opacity:1" result="back"/>
					<feBlend  in="SourceGraphic" in2="back" mode="normal"/>
				</filter>
			</defs>
			<mask maskUnits="userSpaceOnUse" x="321.67" y="1025.42" width="516.01" height="12.21" id="SVGID_1_">
				<g style="filter:url(#Adobe_OpacityMaskFilter_00000154426172512854833930000011160505465516417681_);">
				</g>
			</mask>
			
				<radialGradient id="SVGID_00000036947319015432919950000012604120785879680149_" cx="515.9905" cy="1031.5251" r="269.8475" gradientTransform="matrix(0.9906 0 0 1 68.5376 0)" gradientUnits="userSpaceOnUse">
				<stop  offset="0" style="stop-color:#FFFFFF"/>
				<stop  offset="0.9872" style="stop-color:#000000"/>
			</radialGradient>
			<path style="mask:url(#SVGID_1_);fill:url(#SVGID_00000036947319015432919950000012604120785879680149_);" d="M837.68,1031.53
				c0,3.37-115.51,6.1-258.01,6.1c-142.49,0-258.01-2.73-258.01-6.1c0-3.37,115.51-6.1,258.01-6.1
				C722.17,1025.42,837.68,1028.15,837.68,1031.53z"/>
		</g>
	</mask>
	
		<radialGradient id="SVGID_00000106868464505978882170000005816868786185257882_" cx="515.9905" cy="1031.5251" r="269.8475" gradientTransform="matrix(0.9906 0 0 1 68.5376 0)" gradientUnits="userSpaceOnUse">
		<stop  offset="0" style="stop-color:#D0DEF2"/>
		<stop  offset="0.9872" style="stop-color:#D0DEF2"/>
	</radialGradient>
	<path style="fill:url(#SVGID_00000106868464505978882170000005816868786185257882_);" d="M837.68,1031.53
		c0,3.37-115.51,6.1-258.01,6.1c-142.49,0-258.01-2.73-258.01-6.1c0-3.37,115.51-6.1,258.01-6.1
		C722.17,1025.42,837.68,1028.15,837.68,1031.53z"/>
	<g>
		<g>
			<path class="st14" d="M308.16,228.83l-2.94,1.52l-13.12,6.73l-8.09,4.17L270.86,248l-2.38,1.23l-5.72,2.94l-13.12,6.73
				l-8.09,4.17l-13.12,6.73l-21.51,11.06c-3.5,1.79-7.77-0.09-8.8-3.9l-6.34-23.48l-3.88-14.3l-2.39-8.83l-3.86-14.29l-2.39-8.83
				l-3.87-14.32l-2.39-8.83l-3.86-14.29l-0.87-3.19c-0.86-3.17,0.92-6.45,4.03-7.47l43.71-14.36l48.8-16.04
				c3.02-1,6.32,0.46,7.59,3.4L311,220.87C312.29,223.86,311.05,227.34,308.16,228.83z"/>
			<polygon class="st15" points="305.22,230.35 292.1,237.09 173.02,184.09 169.16,169.8 			"/>
			<polygon class="st15" points="284.01,241.26 270.86,248 179.28,207.24 175.41,192.92 			"/>
			<polygon class="st15" points="262.77,252.17 249.66,258.91 185.53,230.37 181.67,216.07 			"/>
			<polygon class="st15" points="241.56,263.08 228.45,269.81 191.8,253.5 187.92,239.2 			"/>
			<path class="st16" d="M304.11,221.05l-62.4-27.77l22.78-51.18c0.21-0.48,0-1.04-0.48-1.25c-0.48-0.21-1.04,0-1.25,0.48
				l-22.78,51.18l-62.39-27.77c-0.48-0.21-1.04,0-1.25,0.48c-0.21,0.48,0,1.04,0.48,1.25l62.39,27.77l-34.54,77.61
				c-0.21,0.48,0,1.04,0.48,1.25c0.48,0.21,1.04,0,1.25-0.48l34.54-77.61l62.4,27.77c0.48,0.21,1.04,0,1.25-0.48
				C304.81,221.82,304.59,221.26,304.11,221.05z"/>
			<path class="st17" d="M184.99,323.5c-0.2-0.09-0.36-0.24-0.47-0.45c-11.29-22.98-12.54-27.87-8.36-32.68
				c2.06-2.37,5.62-2.07,9.38-1.75c4.11,0.35,8.76,0.74,12.32-2.16c2.59-2.11,4.22-5.49,4.85-10.05c0.07-0.52,0.55-0.88,1.07-0.81
				c0.51,0.06,0.88,0.55,0.81,1.07c-0.69,5.04-2.55,8.83-5.53,11.26c-4.15,3.39-9.22,2.96-13.68,2.58
				c-3.41-0.29-6.36-0.54-7.79,1.11c-3.27,3.76-2.59,7.75,8.63,30.6c0.23,0.47,0.04,1.04-0.43,1.27
				C185.53,323.61,185.23,323.61,184.99,323.5z"/>
		</g>
		<path class="st17" d="M306.76,365.74c-0.32,0-0.63-0.16-0.81-0.46c-28.04-46.56-50.58-104.33-66.97-171.72
			c-0.12-0.51,0.19-1.02,0.7-1.15c0.52-0.13,1.03,0.19,1.15,0.7c16.35,67.2,38.81,124.8,66.75,171.19c0.27,0.45,0.12,1.03-0.32,1.3
			C307.09,365.69,306.92,365.74,306.76,365.74z"/>
	</g>
	<g>
		<g>
			<path class="st18" d="M469.23,554.67c0,0-19.89-19.63-21.57-18.6c-1.67,1.03-0.02,11.43-0.02,11.43s-13.55-11.9-20.2-6.34
				c-6.65,5.56,8.64,47.26,26.38,53.55L469.23,554.67z"/>
			<path class="st19" d="M468.52,552.83c0,0-29.03,32.3-28.42,37.09c0.61,4.79,35.99,57.96,100.65,59.62
				c64.67,1.66,120.21-32.71,118.85-73.25c-1.07-32.04-56.62-7.76-76.7,2.08S528.03,595.55,468.52,552.83z"/>
		</g>
		<g>
			<polygon class="st15" points="706.66,701.62 759.49,994.33 690.16,994.33 593.46,701.62 			"/>
			<polygon class="st17" points="700.3,1012.02 759.58,1012.02 764.01,1030.45 688.83,1030.45 			"/>
			<polygon class="st18" points="756.26,994.33 759.58,1012.02 700.3,1012.02 693.38,994.33 			"/>
			<polygon class="st18" points="638.69,994.33 642.01,1012.02 582.74,1012.02 575.81,994.33 			"/>
			<polygon class="st17" points="582.74,1012.02 643.58,1012.02 646.38,1030.45 564.35,1030.45 			"/>
			<path class="st15" d="M642.01,994.33c0,0-10.75-86.55-10.96-93.32c-0.35-11.64,3.91-33.65,11.66-46.3
				c12.8-20.88,58.23-65.21,69.27-90.46c12.81-29.3,0-62.64,0-62.64H610.57c0,0-56.92,87.87-56.92,138.55
				c0,64.22,12.1,148.53,15.52,154.16H642.01z"/>
		</g>
		<path class="st20" d="M578.34,751.29c6.3,8.41,139.71,3.06,142.78-18.43c3.07-21.48-23.29-156.31-51.29-175.2
			c-26.2-17.67-44.45-14.26-61.34-10.24c-16.89,4.02-27.03,36.05-28.67,66.21C578.17,643.78,571.86,742.64,578.34,751.29z"/>
		<g>
			<path class="st18" d="M591.23,510.4l-2.93,21.03l3.16,0.29c0,0,0.35,17.75,13.01,16.53c3.64-0.35,8.52-2.78,9.75-2.02
				c1.46,0.9,1.53,5.76,1.71,7.18c0.68,5.44,19.82,2.41,17.5-3.37c-2.2-5.49-5.57-13.03-4.43-14.86c3.97-6.4,6.96-23.16-9.32-30.9
				C606.7,498.09,592.28,503.21,591.23,510.4z"/>
			<path class="st21" d="M633.41,550.03c-2.2-5.49-5.57-13.03-4.43-14.86c0,0-8.49,10.08-15.28,10.92c-0.01,0-0.02,0.01-0.04,0.01
				c0.21,0.01,0.41,0.04,0.54,0.13c1.46,0.9,1.53,5.76,1.71,7.18C616.6,558.85,635.74,555.82,633.41,550.03z"/>
			<path class="st22" d="M618.44,524.28c8.1-0.37,0.98,16.7,9.79,17.19c8.82,0.5,17.29-17.85,12.7-33.39
				c-4.58-15.53-16.89-16.23-28.77-15.67c-11.88,0.56-26.79,4.05-27.87,12.84c-2.61,21.16,24.64,6.52,25.5,13.09
				c0.67,5.08,0.87,19.56-4.28,19.25c-5.14-0.31-9.81-5.16-13.98-4.58c-2.4,0.33-12.24,27.29,4.34,30.3
				c16.4,2.97,22.39-11.08,20.39-23.42C614.36,528.17,614.48,524.46,618.44,524.28z"/>
		</g>
		<path class="st17" d="M509.99,786.67c-0.01,0-0.03,0-0.04,0c-0.52-0.03-0.93-0.47-0.9-0.99c4.18-88.26-1.14-197.57-80.03-260.01
			c-26.82-21.23-81.91-74.96-98.44-126.39c-0.16-0.5,0.11-1.03,0.61-1.19c0.5-0.16,1.03,0.11,1.19,0.61
			c16.4,50.99,71.15,104.37,97.82,125.48c79.56,62.97,84.94,172.88,80.74,261.59C510.91,786.27,510.49,786.67,509.99,786.67z"/>
		<g>
			<path class="st18" d="M525.82,654.53c0,0-26.96-7.37-27.91-5.65c-0.95,1.71,5.58,9.97,5.58,9.97s-17.64-3.74-20.72,4.37
				c-3.08,8.11,30.68,36.97,49.23,33.77L525.82,654.53z"/>
			<path class="st19" d="M523.48,650.37c0,0-15.64,31.53-10.37,43.66c5.27,12.14,93.76,52.75,125.57,28.33
				c31.82-24.42,44.13-118.16,1.48-153.51c-42.65-35.35-51.92,81.66-44.27,96.02C595.9,664.86,530.52,649.01,523.48,650.37z"/>
		</g>
	</g>
	<path class="st17" d="M327.96,379.41c-0.07,0-0.14-0.01-0.22-0.02c-0.51-0.12-0.83-0.63-0.71-1.14l1.91-8.23
		c0.12-0.51,0.63-0.83,1.14-0.71c0.51,0.12,0.83,0.63,0.71,1.14l-1.91,8.23C328.78,379.11,328.39,379.41,327.96,379.41z"/>
	<path class="st17" d="M341.02,387.85c-0.02,0-0.05,0-0.07,0l-9.54-0.72c-0.52-0.04-0.92-0.5-0.88-1.02
		c0.04-0.52,0.51-0.93,1.02-0.88l9.54,0.72c0.52,0.04,0.92,0.49,0.88,1.02C341.92,387.47,341.51,387.85,341.02,387.85z"/>
	<path class="st17" d="M319.79,383.48c-0.06,0-0.13-0.01-0.19-0.02l-8.28-1.67c-0.51-0.1-0.85-0.6-0.74-1.12
		c0.1-0.51,0.62-0.85,1.12-0.74l8.28,1.67c0.51,0.1,0.85,0.6,0.74,1.12C320.63,383.16,320.23,383.48,319.79,383.48z"/>
	<path class="st17" d="M320.38,399.94c-0.11,0-0.22-0.02-0.33-0.06c-0.49-0.18-0.74-0.73-0.56-1.22l3.3-8.98
		c0.18-0.49,0.73-0.74,1.22-0.56c0.49,0.18,0.74,0.73,0.56,1.22l-3.3,8.98C321.13,399.7,320.76,399.94,320.38,399.94z"/>
</g>
<polygon class="st23" points="466.79,416.72 477.68,422.68 466.79,428.63 460.84,439.52 454.88,428.63 444,422.68 454.88,416.72 
	460.84,405.84 "/>
<polygon class="st23" points="327.63,562.88 338.51,568.83 327.63,574.78 321.67,585.67 315.72,574.78 304.83,568.83 315.72,562.88 
	321.67,551.99 "/>
</svg>
