<svg width="140" height="158" viewBox="0 0 140 158" fill="none" xmlns="http://www.w3.org/2000/svg">
<g filter="url(#filter0_d_30760_78411)">
<path d="M13.7117 144.284C13.3122 143.942 12.4216 142.857 13.1017 141.597C13.3549 141.133 13.8886 140.905 14.3736 140.7C14.8722 140.531 15.3422 140.288 15.7674 139.977C16.5208 139.337 16.7312 138.269 17.2314 137.412C17.8079 136.427 18.8815 135.689 20.0161 135.741C21.3154 135.799 22.4012 136.863 22.8923 138.071C23.3833 139.279 23.4016 140.627 23.4108 141.935C23.4108 142.658 23.3833 143.46 22.8526 143.961C22.3219 144.461 21.6418 144.409 20.9647 144.409L13.8612 144.189" fill="#F5F5F5"/>
<path d="M27.2938 124.749H8.60938L11.9644 144.818C12.0342 145.236 12.2212 145.625 12.5035 145.941C12.7859 146.257 13.1521 146.486 13.5595 146.602C13.5805 146.61 13.6019 146.616 13.6236 146.621C13.6786 146.638 13.7347 146.652 13.7913 146.663C13.9159 146.689 14.0424 146.705 14.1696 146.709V146.727L14.2611 146.712H22.5876C23.1535 146.711 23.7004 146.508 24.1307 146.14C24.5609 145.773 24.8464 145.264 24.9361 144.705L26.5587 130.88L26.6319 130.331L27.2755 124.856L27.2938 124.749ZM23.7771 137.55H21.8525L22.0447 131.727H24.2651L23.7771 137.55ZM24.4603 131.727H26.2903L25.6071 137.55H23.954L24.4603 131.727ZM18.9703 144.007L18.8544 138.947H21.5994L21.4316 144.007H18.9703ZM15.9874 138.947H18.6683L18.7873 144.007H16.3839L15.9874 138.947ZM16.1948 144.007H13.9469C13.7334 142.64 13.4558 140.865 13.1539 138.947H15.8044L16.1948 144.007ZM15.8898 137.55L15.4384 131.727H18.5067L18.6409 137.55H15.8898ZM18.8361 137.55L18.7019 131.727H21.8586L21.6665 137.55H18.8361ZM18.6683 130.331L18.5433 124.938H22.0843L21.9044 130.331H18.6683ZM18.4823 130.331H15.3194L14.9016 124.938H18.3511L18.4823 130.331ZM15.1273 130.331H11.7966C11.6777 129.586 11.5679 128.879 11.4672 128.244C11.1165 126.064 10.9853 125.246 10.9152 124.938H14.7155L15.1273 130.331ZM15.2371 131.727L15.6885 137.55H12.9434C12.8519 136.958 12.7574 136.36 12.6628 135.763C12.4463 134.39 12.2297 133.018 12.0284 131.727H15.2371ZM12.7421 137.55H10.9457L9.96968 131.727H11.8302C12.1138 133.527 12.431 135.531 12.7482 137.55H12.7421ZM12.9617 138.947C13.2362 140.698 13.5077 142.424 13.7547 144.007H12.0284L11.1805 138.947H12.9617ZM21.6421 144.007L21.8098 138.947H23.6398L23.2067 144.007H21.6421ZM22.0965 130.331L22.2765 124.938H24.8507L24.3871 130.331H22.0965ZM10.7383 124.938C10.8115 125.325 11.1531 127.448 11.6106 130.331H9.74703L8.83203 124.938H10.7383ZM24.8477 144.007H23.4019L23.835 138.947H25.4394L24.8477 144.007ZM26.452 130.331H24.5701L25.0337 124.938H27.0833L26.452 130.331Z" fill="#E0E0E0"/>
<path d="M87.7211 110.697H39.7383V132.828H87.7211V110.697Z" fill="#F5F5F5"/>
<path d="M86.5803 131.782H40.8301V111.859H86.5803V131.782ZM41.1351 131.477H86.2753V112.158H41.1351V131.477Z" fill="#E0E0E0"/>
<path d="M99.4458 110.697H87.7246V132.828H99.4458V110.697Z" fill="#E0E0E0"/>
<path d="M40.9848 118.026H86.43C86.4462 118.026 86.4617 118.02 86.4732 118.008C86.4846 117.997 86.491 117.981 86.491 117.965C86.491 117.949 86.4846 117.934 86.4732 117.922C86.4617 117.911 86.4462 117.904 86.43 117.904H40.9848C40.9686 117.904 40.9531 117.911 40.9417 117.922C40.9303 117.934 40.9238 117.949 40.9238 117.965C40.9238 117.981 40.9303 117.997 40.9417 118.008C40.9531 118.02 40.9686 118.026 40.9848 118.026Z" fill="#E0E0E0"/>
<path d="M63.8568 117.965C63.9839 115.963 63.989 113.956 63.8721 111.954C63.8721 111.937 63.8656 111.922 63.8542 111.91C63.8428 111.899 63.8272 111.893 63.8111 111.893C63.7949 111.893 63.7794 111.899 63.7679 111.91C63.7565 111.922 63.7501 111.937 63.7501 111.954C63.6331 113.956 63.6382 115.963 63.7653 117.965C63.7653 117.977 63.7701 117.989 63.7787 117.998C63.7873 118.006 63.7989 118.011 63.8111 118.011C63.8232 118.011 63.8348 118.006 63.8434 117.998C63.852 117.989 63.8568 117.977 63.8568 117.965Z" fill="#E0E0E0"/>
<path d="M76.0911 114.962C76.0911 115.082 76.0553 115.2 75.9883 115.3C75.9213 115.401 75.826 115.479 75.7145 115.525C75.6031 115.571 75.4804 115.583 75.3621 115.56C75.2438 115.536 75.1351 115.478 75.0498 115.393C74.9644 115.308 74.9064 115.199 74.8828 115.081C74.8593 114.962 74.8714 114.84 74.9175 114.728C74.9637 114.617 75.0419 114.521 75.1422 114.454C75.2425 114.387 75.3604 114.352 75.4811 114.352C75.6429 114.352 75.798 114.416 75.9124 114.53C76.0268 114.645 76.0911 114.8 76.0911 114.962Z" fill="#E0E0E0"/>
<path d="M52.2395 114.962C52.2395 115.082 52.2038 115.2 52.1367 115.3C52.0697 115.401 51.9744 115.479 51.863 115.525C51.7515 115.571 51.6289 115.583 51.5105 115.56C51.3922 115.536 51.2835 115.478 51.1982 115.393C51.1129 115.308 51.0548 115.199 51.0313 115.081C51.0077 114.962 51.0198 114.84 51.066 114.728C51.1121 114.617 51.1903 114.521 51.2906 114.454C51.391 114.387 51.5089 114.352 51.6295 114.352C51.7913 114.352 51.9465 114.416 52.0609 114.53C52.1753 114.645 52.2395 114.8 52.2395 114.962Z" fill="#E0E0E0"/>
<path d="M64.3431 121.821C64.3431 121.942 64.3073 122.06 64.2402 122.16C64.1732 122.26 64.0779 122.338 63.9665 122.385C63.855 122.431 63.7324 122.443 63.614 122.419C63.4957 122.396 63.387 122.338 63.3017 122.252C63.2164 122.167 63.1583 122.058 63.1348 121.94C63.1112 121.822 63.1233 121.699 63.1695 121.587C63.2156 121.476 63.2938 121.381 63.3941 121.314C63.4945 121.247 63.6124 121.211 63.733 121.211C63.8948 121.211 64.05 121.275 64.1644 121.39C64.2788 121.504 64.3431 121.659 64.3431 121.821Z" fill="#E0E0E0"/>
<path d="M45.4744 132.825L43.0039 146.718H44.3947L48.9484 132.825H45.4744Z" fill="#E0E0E0"/>
<path d="M84.3294 132.825L86.3943 146.742H85.0035L80.8555 132.825H84.3294Z" fill="#E0E0E0"/>
<path d="M93.6048 132.825L95.9442 146.742H94.5564L90.1309 132.825H93.6048Z" fill="#E0E0E0"/>
<path d="M64.2864 128.086C64.2864 128.206 64.2506 128.324 64.1836 128.424C64.1166 128.525 64.0213 128.603 63.9098 128.649C63.7984 128.695 63.6757 128.707 63.5574 128.684C63.4391 128.66 63.3304 128.602 63.2451 128.517C63.1598 128.432 63.1017 128.323 63.0781 128.205C63.0546 128.086 63.0667 127.964 63.1128 127.852C63.159 127.741 63.2372 127.645 63.3375 127.578C63.4378 127.511 63.5558 127.476 63.6764 127.476C63.8382 127.476 63.9933 127.54 64.1077 127.654C64.2221 127.769 64.2864 127.924 64.2864 128.086Z" fill="#E0E0E0"/>
<path d="M40.9848 124.89H86.43C86.4462 124.89 86.4617 124.883 86.4732 124.872C86.4846 124.86 86.491 124.845 86.491 124.829C86.491 124.812 86.4846 124.797 86.4732 124.785C86.4617 124.774 86.4462 124.768 86.43 124.768H40.9848C40.9686 124.768 40.9531 124.774 40.9417 124.785C40.9303 124.797 40.9238 124.812 40.9238 124.829C40.9238 124.845 40.9303 124.86 40.9417 124.872C40.9531 124.883 40.9686 124.89 40.9848 124.89Z" fill="#E0E0E0"/>
<path d="M73.2362 103.179L73.2207 100.227L58.712 100.303L58.7274 103.255L73.2362 103.179Z" fill="#E0E0E0"/>
<path d="M74.9811 110.63L74.957 106.04L58.7861 106.125L58.8101 110.715L74.9811 110.63Z" fill="#F5F5F5"/>
<path d="M71.8691 110.603C71.7888 109.841 71.7623 109.075 71.7898 108.309C71.7623 107.543 71.7888 106.775 71.8691 106.013C71.9456 106.776 71.9711 107.543 71.9454 108.309C71.971 109.075 71.9455 109.841 71.8691 110.603Z" fill="#E0E0E0"/>
<path d="M72.5469 110.603C72.4704 109.841 72.445 109.075 72.4706 108.309C72.4449 107.543 72.4704 106.776 72.5469 106.013C72.6254 106.776 72.6519 107.543 72.6262 108.309C72.6518 109.075 72.6253 109.841 72.5469 110.603Z" fill="#E0E0E0"/>
<path d="M61.247 110.603C61.1685 109.841 61.1421 109.075 61.1677 108.309C61.142 107.543 61.1685 106.776 61.247 106.013C61.3255 106.776 61.352 107.543 61.3263 108.309C61.3519 109.075 61.3254 109.841 61.247 110.603Z" fill="#E0E0E0"/>
<path d="M61.9258 110.603C61.8455 109.841 61.819 109.075 61.8465 108.309C61.8189 107.543 61.8454 106.775 61.9258 106.013C62.0022 106.776 62.0277 107.543 62.002 108.309C62.0277 109.075 62.0022 109.841 61.9258 110.603Z" fill="#E0E0E0"/>
<path d="M63.4082 108.383C63.4082 108.34 65.0369 108.304 67.0499 108.304C69.0629 108.304 70.7099 108.34 70.7099 108.383C70.7099 108.426 69.0782 108.462 67.0499 108.462C65.0217 108.462 63.4082 108.42 63.4082 108.383Z" fill="#E0E0E0"/>
<path d="M81.0526 106.016L81.0371 103.063L61.0842 103.168L61.0996 106.12L81.0526 106.016Z" fill="#EBEBEB"/>
<path d="M78.1993 105.652C78.01 105.655 77.8242 105.601 77.6656 105.497C77.507 105.394 77.3828 105.246 77.3086 105.072C77.2345 104.897 77.2139 104.705 77.2493 104.519C77.2847 104.333 77.3747 104.162 77.5077 104.027C77.6407 103.892 77.8108 103.8 77.9963 103.762C78.1818 103.725 78.3744 103.743 78.5495 103.815C78.7247 103.887 78.8745 104.009 78.98 104.166C79.0854 104.323 79.1417 104.508 79.1417 104.698C79.1425 104.822 79.1188 104.946 79.0719 105.061C79.0249 105.177 78.9557 105.282 78.8682 105.37C78.7807 105.459 78.6766 105.529 78.5618 105.578C78.447 105.626 78.3238 105.652 78.1993 105.652Z" fill="#E0E0E0"/>
<path d="M75.6055 104.994V104.402H62.2495V104.994H75.6055Z" fill="#E0E0E0"/>
<path d="M93.3381 68.8477C106.013 56.1732 106.013 35.6237 93.3381 22.9491C80.6636 10.2746 60.1141 10.2746 47.4395 22.9491C34.765 35.6237 34.765 56.1732 47.4395 68.8477C60.1141 81.5223 80.6636 81.5223 93.3381 68.8477Z" fill="#E0E0E0"/>
<path d="M88.7476 64.2583C98.8874 54.1184 98.8874 37.6784 88.7476 27.5386C78.6077 17.3987 62.1677 17.3987 52.0278 27.5386C41.888 37.6784 41.888 54.1184 52.0278 64.2583C62.1677 74.3982 78.6077 74.3982 88.7476 64.2583Z" fill="#FAFAFA"/>
<path d="M88.9627 51.7319C92.1857 41.4725 86.4816 30.5429 76.2222 27.32C65.9628 24.097 55.0332 29.8011 51.8103 40.0605C48.5873 50.3199 54.2915 61.2494 64.5508 64.4724C74.8102 67.6954 85.7398 61.9912 88.9627 51.7319Z" fill="#E0E0E0"/>
<path d="M82.2477 51.1878C85.1671 44.64 82.2256 36.9654 75.6778 34.046C69.13 31.1266 61.4554 34.068 58.536 40.6158C55.6166 47.1636 58.558 54.8383 65.1058 57.7577C71.6536 60.6771 79.3283 57.7356 82.2477 51.1878Z" fill="#FAFAFA"/>
<path d="M73.3288 51.6853C76.5241 50.0607 77.7974 46.1534 76.1729 42.9582C74.5483 39.7629 70.641 38.4895 67.4457 40.1141C64.2505 41.7387 62.9771 45.646 64.6017 48.8412C66.2263 52.0365 70.1335 53.3099 73.3288 51.6853Z" fill="#E0E0E0"/>
<path d="M71.3886 46.8542L62.3788 44.4782L64.6847 42.1114L46.043 26.8034L47.0739 25.7969L65.8132 41.0134L67.6218 38.5398L71.3886 46.8542Z" fill="#EBEBEB"/>
<path d="M46.0431 26.8042L45.7625 26.9628C45.0762 27.3506 44.2992 27.5494 43.511 27.5387C42.7227 27.5279 41.9514 27.3082 41.2759 26.9018L33.4648 22.2108L38.7231 21.3843L38.1558 15.8516L45.3447 20.7743C46.1346 21.3152 46.7294 22.0961 47.0409 23.0014C47.3524 23.9067 47.364 24.8883 47.074 25.8007L46.0431 26.8042Z" fill="#EBEBEB"/>
<path d="M123.482 124.108C123.518 122.216 124.248 120.403 125.535 119.015C126.154 121.571 123.482 124.108 123.482 124.108Z" fill="#EBEBEB"/>
<path d="M126.459 122.669C128.208 121.944 130.163 121.89 131.949 122.516C129.854 124.102 126.459 122.669 126.459 122.669Z" fill="#EBEBEB"/>
<path d="M126.801 121.009C126.516 119.543 126.781 118.023 127.545 116.739C128.445 118.615 126.801 121.009 126.801 121.009Z" fill="#EBEBEB"/>
<path d="M115.277 115.034C119.639 116.193 121.987 119.978 121.987 119.978C118.251 119.978 115.277 115.034 115.277 115.034Z" fill="#EBEBEB"/>
<path d="M122.239 116.818C122.013 112.127 126.597 106.817 126.597 106.817C125.905 112.643 122.239 116.818 122.239 116.818Z" fill="#EBEBEB"/>
<path d="M122.213 103.457C122.301 105.804 121.731 108.128 120.566 110.167C119.919 107.16 122.213 103.457 122.213 103.457Z" fill="#EBEBEB"/>
<path d="M120.462 112.994C117.031 112.628 115.164 109.215 115.164 109.215C119.297 110.371 120.462 112.994 120.462 112.994Z" fill="#EBEBEB"/>
<path d="M113.049 127.329C114.658 126.332 116.577 125.962 118.441 126.289C116.63 128.198 113.049 127.329 113.049 127.329Z" fill="#EBEBEB"/>
<path d="M121.936 128.872C121.498 129.982 120.683 130.901 119.633 131.468C119.779 129.885 121.936 128.872 121.936 128.872Z" fill="#EBEBEB"/>
<path d="M121.497 128.366C120.258 129.084 118.805 129.343 117.395 129.098C118.715 127.723 121.497 128.366 121.497 128.366Z" fill="#EBEBEB"/>
<path d="M123.25 134.683C123.247 134.66 123.247 134.637 123.25 134.613C123.25 134.555 123.25 134.488 123.25 134.409C123.25 134.214 123.25 133.951 123.25 133.622C123.25 133.293 123.25 132.863 123.25 132.378C123.25 131.893 123.25 131.341 123.216 130.731C123.186 129.511 123.1 128.062 122.975 126.461C122.85 124.859 122.64 123.09 122.365 121.248C121.807 117.57 121.072 114.267 120.462 111.9C120.157 110.716 119.91 109.765 119.727 109.106C119.639 108.786 119.572 108.533 119.52 108.347L119.471 108.148C119.468 108.125 119.468 108.101 119.471 108.078C119.484 108.099 119.493 108.122 119.498 108.145L119.562 108.337L119.794 109.088C119.999 109.74 120.267 110.692 120.581 111.872C121.393 114.954 122.034 118.078 122.503 121.23C122.771 123.06 122.963 124.841 123.094 126.451C123.225 128.062 123.286 129.517 123.302 130.74C123.323 131.35 123.317 131.902 123.302 132.387C123.286 132.872 123.302 133.302 123.283 133.631C123.265 133.961 123.262 134.226 123.256 134.418C123.256 134.5 123.256 134.567 123.256 134.622L123.25 134.683Z" fill="#E0E0E0"/>
<path d="M116.955 124.752C116.98 124.715 118.365 125.624 120.051 126.78C121.738 127.936 123.083 128.9 123.058 128.937C123.034 128.973 121.649 128.064 119.963 126.908C118.276 125.752 116.931 124.786 116.955 124.752Z" fill="#E0E0E0"/>
<path d="M123.059 125.252C123.12 125.166 123.192 125.087 123.272 125.018L123.882 124.423L125.944 122.489C126.734 121.748 127.448 121.077 128.006 120.559L128.616 119.97C128.689 119.894 128.771 119.826 128.86 119.769C128.803 119.858 128.736 119.94 128.658 120.013C128.524 120.165 128.32 120.376 128.067 120.623C127.56 121.141 126.847 121.843 126.035 122.59C125.224 123.337 124.486 124.014 123.943 124.493C123.672 124.731 123.449 124.92 123.29 125.051C123.221 125.127 123.143 125.195 123.059 125.252Z" fill="#E0E0E0"/>
<path d="M112.551 122.528C112.551 122.528 116.095 122.461 117.596 125.249C116.601 125.22 115.626 124.959 114.75 124.487C113.875 124.015 113.121 123.344 112.551 122.528Z" fill="#EBEBEB"/>
<path d="M117.391 121.104C117.391 121.104 120.276 123.163 119.831 126.29C119.048 125.675 118.42 124.886 117.996 123.986C117.573 123.086 117.365 122.099 117.391 121.104Z" fill="#EBEBEB"/>
<path d="M132.592 116.044C132.592 116.044 131.454 120.009 127.834 120.726C128.208 119.629 128.832 118.634 129.658 117.821C130.484 117.008 131.489 116.4 132.592 116.044Z" fill="#EBEBEB"/>
<path d="M115.816 101.282C115.816 101.282 120.34 104.232 119.852 109.029C118.621 108.142 117.616 106.98 116.915 105.634C116.214 104.289 115.838 102.799 115.816 101.282Z" fill="#EBEBEB"/>
<path d="M130.868 127.521C130.775 127.61 130.673 127.689 130.563 127.756C130.368 127.897 130.09 128.107 129.752 128.366C128.877 129.066 128.061 129.836 127.312 130.669C126.565 131.506 125.888 132.403 125.287 133.35C125.058 133.713 124.878 134.012 124.759 134.222C124.702 134.331 124.633 134.433 124.555 134.527C124.593 134.408 124.643 134.292 124.704 134.183C124.808 133.963 124.976 133.655 125.195 133.268C126.352 131.318 127.882 129.615 129.697 128.257C130.045 127.997 130.334 127.799 130.539 127.674C130.643 127.612 130.754 127.561 130.868 127.521Z" fill="#E0E0E0"/>
<path d="M126.931 130.468C126.603 128.603 126.973 126.684 127.971 125.075C128.456 128.436 126.931 130.468 126.931 130.468Z" fill="#EBEBEB"/>
<path d="M129.975 128.809C131.171 128.129 132.575 127.912 133.921 128.199C131.747 129.355 129.975 128.809 129.975 128.809Z" fill="#EBEBEB"/>
<path d="M116.656 135.049L118.352 146.2H128.21L130.497 135.21L116.656 135.049Z" fill="#EBEBEB"/>
<path d="M129.118 142.195C129.118 142.228 126.593 142.253 123.478 142.253C120.364 142.253 117.836 142.228 117.836 142.195C117.836 142.161 120.361 142.137 123.478 142.137C126.596 142.137 129.118 142.164 129.118 142.195Z" fill="#FAFAFA"/>
<path d="M129.158 141.664C129.158 141.695 126.614 141.722 123.479 141.722C120.344 141.722 117.797 141.695 117.797 141.664C117.797 141.634 120.341 141.606 123.479 141.606C126.618 141.606 129.158 141.616 129.158 141.664Z" fill="#FAFAFA"/>
<path d="M129.138 141.03C129.138 141.06 126.597 141.088 123.458 141.088C120.32 141.088 117.779 141.06 117.779 141.03C117.779 140.999 120.323 140.972 123.458 140.972C126.594 140.972 129.138 140.996 129.138 141.03Z" fill="#FAFAFA"/>
<path d="M119.484 145.566C119.347 145.105 119.245 144.635 119.179 144.16C119.08 143.691 119.017 143.216 118.99 142.738C119.233 143.665 119.397 144.611 119.481 145.566H119.484Z" fill="#FAFAFA"/>
<path d="M120.157 145.446C120.087 144.993 120.046 144.535 120.035 144.077C119.983 143.62 119.962 143.161 119.971 142.701C120.148 143.605 120.211 144.527 120.157 145.446Z" fill="#FAFAFA"/>
<path d="M121.377 145.447C121.244 144.988 121.158 144.517 121.12 144.041C121.045 143.57 121.02 143.092 121.044 142.616C121.135 143.083 121.198 143.554 121.233 144.028C121.307 144.498 121.355 144.972 121.377 145.447Z" fill="#FAFAFA"/>
<path d="M122.234 145.504C122.14 145.034 122.094 144.556 122.096 144.077C122.061 143.599 122.077 143.118 122.142 142.644C122.192 143.119 122.216 143.596 122.212 144.074C122.247 144.55 122.254 145.028 122.234 145.504Z" fill="#FAFAFA"/>
<path d="M123.754 145.447C123.682 144.999 123.647 144.546 123.65 144.093C123.611 143.64 123.611 143.185 123.65 142.732C123.723 143.181 123.757 143.635 123.754 144.09C123.793 144.541 123.793 144.995 123.754 145.447Z" fill="#FAFAFA"/>
<path d="M124.864 145.504C124.808 145.04 124.793 144.571 124.819 144.104C124.804 143.636 124.826 143.168 124.886 142.704C124.942 143.169 124.957 143.637 124.932 144.104C124.946 144.572 124.924 145.04 124.864 145.504Z" fill="#FAFAFA"/>
<path d="M125.903 145.355C125.891 144.866 125.919 144.376 125.985 143.891C126.013 143.403 126.08 142.917 126.187 142.439C126.196 142.929 126.167 143.418 126.101 143.903C126.072 144.392 126.005 144.877 125.903 145.355Z" fill="#FAFAFA"/>
<path d="M127.246 145.209C127.245 144.789 127.301 144.37 127.411 143.964C127.481 143.55 127.604 143.146 127.777 142.763C127.715 143.174 127.631 143.581 127.524 143.983C127.454 144.396 127.361 144.805 127.246 145.209Z" fill="#FAFAFA"/>
<path d="M115.525 132.844V134.93C115.525 135.148 115.612 135.356 115.766 135.51C115.92 135.664 116.128 135.75 116.346 135.75H130.62C130.838 135.75 131.047 135.664 131.201 135.51C131.355 135.357 131.443 135.148 131.443 134.93V132.844H115.525Z" fill="#EBEBEB"/>
<path d="M116.764 135.75L116.88 136.415L130.053 137.354L130.385 135.75H116.764Z" fill="#E0E0E0"/>
<path d="M130.727 146.487C130.727 146.532 103.462 146.566 69.836 146.566C36.2096 146.566 8.93945 146.544 8.93945 146.487C8.93945 146.429 36.1974 146.407 69.836 146.407C103.475 146.407 130.727 146.444 130.727 146.487Z" fill="#263238"/>
<path d="M4.0625 56.1847C4.0625 56.1847 7.18876 68.9947 21.1822 66.0545C21.1822 66.0545 17.1288 53.0889 4.0625 56.1847Z" fill="#455A64"/>
<path d="M10.8242 75.5773C10.8242 75.5773 17.2475 85.1543 27.8616 78.5297C27.8616 78.5297 20.6239 69.0991 10.8242 75.5773Z" fill="#455A64"/>
<path d="M21.0605 90.1894C21.0605 90.1894 30.4332 98.1591 39.4094 88.2801C39.4094 88.2893 29.2437 80.6948 21.0605 90.1894Z" fill="#455A64"/>
<path d="M30.7468 59.4453C30.7468 59.4453 20.3524 64.4412 25.3971 75.891C26.1383 75.4792 35.6726 69.8489 30.7468 59.4453Z" fill="#455A64"/>
<path d="M33.0036 73.25C33.0036 73.25 27.8185 80.2498 35.5442 86.2614C36.0261 85.5111 40.5524 78.8346 33.0036 73.25Z" fill="#455A64"/>
<path d="M8.96054 41.4473C8.96054 41.4473 7.76799 51.8173 18.9768 53.4887C18.9768 53.4887 19.5227 42.7344 8.96054 41.4473Z" fill="#455A64"/>
<path d="M25.0371 30.9492C25.0371 30.9492 15.9694 34.7343 19.907 45.3605C19.907 45.3605 28.993 40.8282 25.0371 30.9492Z" fill="#455A64"/>
<path d="M30.5094 46.1104C30.5094 46.1104 18.5045 47.4798 19.5599 60.5339C19.5599 60.5339 31.8209 58.3501 30.5094 46.1104Z" fill="#455A64"/>
<path d="M47.5956 91.7204L47.4431 91.6746L46.9917 91.5557C46.5983 91.452 46.0096 91.3117 45.2715 91.0707C43.1783 90.4249 41.1543 89.5728 39.2295 88.527C36.3789 86.9721 33.7472 85.046 31.4031 82.7991C30.0125 81.4692 28.7181 80.0423 27.5296 78.5291L26.6146 77.3091C26.4621 77.1077 26.3096 76.9034 26.1601 76.6991C26.0107 76.4947 25.8765 76.272 25.7362 76.0585L24.8852 74.7531L24.1044 73.3867L23.714 72.6974L23.3663 71.9929C23.1376 71.5262 22.9027 71.0626 22.6801 70.596L22.0701 69.1869C21.9725 68.952 21.8688 68.7202 21.7651 68.4854C21.6614 68.2505 21.5943 68.0157 21.5119 67.7808L21.0117 66.3839C20.8714 65.9142 20.7342 65.4506 20.6 64.99C20.5329 64.7582 20.4627 64.5295 20.3956 64.3038C20.3285 64.0781 20.2828 63.8432 20.2279 63.6175C20.1211 63.16 20.0144 62.7025 19.9229 62.2603C19.2472 59.088 18.9563 55.8458 19.0567 52.6039C19.1275 50.4145 19.3712 48.2341 19.7856 46.083C19.9473 45.3236 20.0906 44.738 20.1821 44.3414C20.2248 44.1432 20.2584 43.9937 20.2828 43.887C20.3072 43.7802 20.3133 43.7314 20.3133 43.7314C20.3133 43.7314 20.295 43.7802 20.2675 43.8839C20.2401 43.9876 20.2035 44.1371 20.1547 44.3323C20.0571 44.7319 19.9046 45.3144 19.7338 46.0708C18.6356 51.4286 18.6626 56.9562 19.8131 62.303C19.9168 62.7513 20.0235 63.2027 20.1181 63.6633C20.176 63.892 20.2187 64.1238 20.2858 64.3526C20.3529 64.5813 20.42 64.8101 20.4902 65.0419C20.6244 65.5024 20.7616 65.9569 20.9019 66.4388L21.4021 67.8418C21.4845 68.0767 21.5699 68.3146 21.6553 68.5494C21.7407 68.7843 21.8505 69.0161 21.9603 69.2509L22.5703 70.6692C22.7899 71.1358 23.0247 71.5994 23.2565 72.0691C23.3724 72.307 23.4883 72.5419 23.6073 72.7767C23.7262 73.0116 23.8665 73.2373 23.9977 73.4691L24.7815 74.8416L25.6355 76.15C25.7789 76.3635 25.9131 76.5831 26.0595 76.7936L26.517 77.4036L27.432 78.6236C28.6241 80.1375 29.9227 81.5644 31.3177 82.8936C33.6746 85.1471 36.3221 87.0755 39.1898 88.6277C41.1237 89.6681 43.1583 90.5091 45.2624 91.1378C46.0035 91.3727 46.5952 91.5008 46.9917 91.5984L47.4462 91.7021L47.5956 91.7204Z" fill="#263238"/>
<path d="M34.127 78.8926C34.1139 78.9938 34.1139 79.0963 34.127 79.1976C34.127 79.3867 34.1697 79.6581 34.2124 79.9906C34.2917 80.6616 34.432 81.5827 34.6272 82.5892C34.8224 83.5957 35.045 84.5046 35.2189 85.1543C35.3073 85.4806 35.3836 85.7429 35.4415 85.9229C35.4627 86.0184 35.4966 86.1108 35.5422 86.1974C35.5389 86.094 35.5225 85.9916 35.4934 85.8924L35.3134 85.1177C35.1609 84.4619 34.9596 83.556 34.7614 82.5495C34.5631 81.543 34.4137 80.628 34.3069 79.9631C34.2581 79.6581 34.2154 79.3897 34.1788 79.1762C34.1726 79.08 34.1552 78.9848 34.127 78.8926Z" fill="#263238"/>
<path d="M31.5742 89.2863C31.6766 89.2906 31.7792 89.2814 31.8792 89.2589L32.6783 89.143C33.3493 89.0423 34.2796 88.9112 35.3074 88.7922C36.3353 88.6733 37.2716 88.5848 37.9488 88.5269L38.7509 88.4567C38.8539 88.4552 38.9564 88.4408 39.0559 88.414C38.9546 88.4024 38.8522 88.4024 38.7509 88.414C38.5588 88.414 38.2843 88.414 37.9457 88.4415C37.2655 88.475 36.3261 88.5482 35.2952 88.6672C34.2643 88.7861 33.3341 88.9356 32.6631 89.0606C32.3306 89.1216 32.0531 89.1765 31.8731 89.2192C31.7711 89.2293 31.6707 89.2518 31.5742 89.2863Z" fill="#263238"/>
<path d="M18.9414 76.583C19.0535 76.6211 19.1689 76.6487 19.2861 76.6654L20.2346 76.8545C21.0368 77.01 22.1439 77.2418 23.3548 77.5346C24.5656 77.8274 25.6545 78.1294 26.4383 78.3551L27.3533 78.6235C27.4659 78.6641 27.5825 78.6927 27.701 78.7089C27.5963 78.6525 27.4859 78.6076 27.3716 78.5747C27.1551 78.4954 26.8409 78.3886 26.4566 78.2697C25.6789 78.0196 24.5931 77.7024 23.3761 77.4096C22.1592 77.1168 21.052 76.8972 20.2438 76.763C19.8412 76.6959 19.5118 76.6471 19.2861 76.6196C19.1728 76.5951 19.0573 76.5828 18.9414 76.583Z" fill="#263238"/>
<path d="M28.1145 66.7686C28.0323 66.862 27.9607 66.9643 27.901 67.0736C27.7699 67.281 27.596 67.5921 27.3917 67.9886C26.3372 70.0391 25.6938 72.2761 25.4976 74.5735C25.461 75.0127 25.4458 75.3665 25.4458 75.6136C25.4347 75.7415 25.4347 75.87 25.4458 75.9979C25.4713 75.8724 25.4846 75.7447 25.4854 75.6166C25.4854 75.3726 25.5342 75.0066 25.58 74.5827C25.8289 72.3071 26.4665 70.0912 27.4649 68.0313C27.654 67.6348 27.8187 67.3176 27.9346 67.1163C28.0059 67.0066 28.0662 66.8901 28.1145 66.7686Z" fill="#263238"/>
<path d="M14.1914 60.7969C14.276 60.8712 14.3679 60.9366 14.4659 60.9921L15.2376 61.4923C15.8842 61.9223 16.7626 62.5384 17.6776 63.2826C18.5926 64.0268 19.3825 64.7558 19.9346 65.2987L20.5842 65.9453C20.659 66.0314 20.7428 66.1091 20.8343 66.1771C20.7738 66.0814 20.7033 65.9925 20.6239 65.9118C20.4836 65.744 20.2731 65.5122 20.0139 65.2316C19.3111 64.5005 18.5634 63.8139 17.7752 63.1759C16.9867 62.5379 16.1596 61.9491 15.2986 61.413C14.9692 61.2056 14.6886 61.047 14.5056 60.9463C14.4063 60.8857 14.301 60.8356 14.1914 60.7969Z" fill="#263238"/>
<path d="M27.2996 51.3174C27.2996 51.3174 27.2599 51.3418 27.1989 51.3936L26.9366 51.6285C26.7079 51.8359 26.3846 52.1439 25.9911 52.5282C25.2073 53.2999 24.1611 54.4009 23.0662 55.6789C21.9712 56.9569 21.0562 58.1677 20.4218 59.0675C20.1168 59.5158 19.8514 59.8818 19.6837 60.1411L19.4915 60.4461C19.4668 60.4784 19.4473 60.5145 19.4336 60.5528C19.4336 60.5528 19.4671 60.5254 19.5159 60.4613L19.7264 60.1777L20.498 59.1285C21.1538 58.247 22.0841 57.0484 23.1699 55.7735C24.2557 54.4985 25.3049 53.3883 26.0613 52.6014L26.9763 51.6864L27.2203 51.4333C27.2526 51.3991 27.2794 51.3599 27.2996 51.3174Z" fill="#263238"/>
<path d="M12.8398 44.8242C12.916 44.939 13.0017 45.0472 13.096 45.1475L13.825 46.0076C14.435 46.7366 15.2555 47.7644 16.1003 48.9417C16.9452 50.119 17.6497 51.2323 18.1438 52.0467C18.3787 52.4371 18.5708 52.7634 18.7203 53.0135C18.7854 53.135 18.8599 53.2512 18.9429 53.3612C18.8954 53.2316 18.8373 53.1061 18.7691 52.9861C18.6471 52.7482 18.4641 52.4096 18.2262 51.9978C17.7534 51.1682 17.058 50.0489 16.2101 48.8624C15.3622 47.676 14.5296 46.6603 13.8982 45.9436C13.5932 45.5867 13.3217 45.3031 13.1357 45.1109C13.0471 45.0055 12.948 44.9094 12.8398 44.8242Z" fill="#263238"/>
<path d="M23.6955 34.9688C23.6212 35.0899 23.5579 35.2175 23.5064 35.35C23.3935 35.5971 23.2349 35.96 23.0428 36.4084C22.6615 37.3081 22.1583 38.5434 21.6428 39.9555C21.1274 41.3677 20.6912 42.6334 20.3954 43.5637C20.249 44.0273 20.1331 44.4055 20.0568 44.6678C20.01 44.8017 19.9753 44.9395 19.9531 45.0795C20.0201 44.9495 20.0752 44.8138 20.1178 44.6739C20.2154 44.3933 20.3435 44.0273 20.496 43.585C20.8163 42.67 21.2616 41.3921 21.7801 39.9952C22.2986 38.5983 22.7744 37.3539 23.1343 36.4389C23.3051 36.0027 23.4393 35.6398 23.5552 35.3622C23.6125 35.2351 23.6594 35.1035 23.6955 34.9688Z" fill="#263238"/>
<path d="M135.938 54.3643C135.938 54.3643 132.812 67.1743 118.818 64.2372C118.818 64.2372 122.875 51.2685 135.938 54.3643Z" fill="#455A64"/>
<path d="M129.178 73.756C129.178 73.756 122.755 83.3361 112.141 76.7114C112.141 76.6992 119.378 67.2808 129.178 73.756Z" fill="#455A64"/>
<path d="M118.938 88.3693C118.938 88.3693 109.568 96.3421 100.592 86.46C100.592 86.46 110.757 78.8777 118.938 88.3693Z" fill="#455A64"/>
<path d="M109.254 57.6279C109.254 57.6279 119.648 62.6239 114.604 74.0706C113.866 73.6497 104.343 68.0315 109.254 57.6279Z" fill="#455A64"/>
<path d="M106.997 71.4287C106.997 71.4287 112.182 78.4285 104.456 84.4431C103.974 83.6928 99.4477 77.0041 106.997 71.4287Z" fill="#455A64"/>
<path d="M131.044 39.6289C131.044 39.6289 132.236 49.999 121.024 51.6704C121.024 51.6704 120.478 40.916 131.044 39.6289Z" fill="#455A64"/>
<path d="M114.972 29.1191C114.972 29.1191 124.04 32.9073 120.102 43.5335C120.093 43.5427 111.007 39.0073 114.972 29.1191Z" fill="#455A64"/>
<path d="M109.484 44.293C109.484 44.293 121.488 45.6624 120.433 58.7287C120.442 58.7287 108.181 56.5327 109.484 44.293Z" fill="#455A64"/>
<path d="M92.4023 89.8996L92.5548 89.8569L93.0032 89.7349C93.3997 89.6312 93.9853 89.4939 94.7234 89.253C96.8162 88.6058 98.84 87.7538 100.765 86.7093C103.62 85.1503 106.256 83.2201 108.604 80.9691C109.99 79.6444 111.282 78.2247 112.471 76.7205L113.371 75.5004L113.829 74.8904C113.975 74.68 114.109 74.4634 114.25 74.2469C114.533 73.8168 114.814 73.3807 115.101 72.9445L115.881 71.5751C116.013 71.3463 116.144 71.1176 116.272 70.8888L116.619 70.1843C116.851 69.7146 117.086 69.2693 117.306 68.7874L117.916 67.3752C118.013 67.1404 118.117 66.9116 118.221 66.6768C118.324 66.4419 118.392 66.204 118.474 65.9692L118.974 64.5753C119.114 64.1056 119.252 63.6389 119.386 63.1784C119.456 62.9496 119.523 62.7209 119.59 62.4921C119.657 62.2634 119.703 62.0346 119.758 61.8059C119.868 61.3484 119.974 60.897 120.078 60.4517C120.755 57.2723 121.047 54.0231 120.947 50.774C120.876 48.5834 120.631 46.402 120.215 44.25C120.054 43.4936 119.91 42.908 119.822 42.5084C119.776 42.3132 119.743 42.1607 119.718 42.054C119.694 41.9472 119.691 41.8984 119.691 41.8984L119.734 42.0509L119.846 42.5023C119.944 42.8988 120.096 43.4844 120.27 44.2408C120.703 46.3942 120.961 48.579 121.042 50.774C121.149 54.0322 120.858 57.2914 120.176 60.4791L119.871 61.8364C119.816 62.0651 119.77 62.3 119.703 62.5257C119.636 62.7514 119.569 62.9862 119.499 63.215C119.364 63.6786 119.227 64.1452 119.087 64.6149C118.922 65.0785 118.758 65.5299 118.587 66.0149C118.504 66.2528 118.419 66.4877 118.334 66.7256C118.248 66.9635 118.138 67.1922 118.029 67.4271L117.419 68.8453C117.196 69.312 116.961 69.7603 116.729 70.2453L116.382 70.9529L115.988 71.6422L115.204 73.0147L114.35 74.3231C114.21 74.5397 114.073 74.7593 113.926 74.9667L113.469 75.5767L112.554 76.7967C111.361 78.3106 110.061 79.7376 108.665 81.0667C106.31 83.3227 103.662 85.2523 100.793 86.8038C98.8593 87.844 96.8246 88.6841 94.7204 89.3109C93.9792 89.5458 93.3875 89.6769 92.991 89.7715L92.5396 89.8782C92.4942 89.8874 92.4484 89.8945 92.4023 89.8996Z" fill="#263238"/>
<path d="M105.874 77.0742C105.887 77.1755 105.887 77.278 105.874 77.3792C105.859 77.5653 105.831 77.8367 105.792 78.1722C105.709 78.8402 105.572 79.7613 105.374 80.7708C105.176 81.7804 104.959 82.6862 104.782 83.3359C104.694 83.6623 104.618 83.9215 104.56 84.1014C104.537 84.1976 104.503 84.2908 104.459 84.379C104.464 84.2806 104.481 84.1833 104.511 84.0893C104.56 83.8758 104.618 83.6165 104.688 83.3115C104.84 82.6588 105.045 81.7499 105.24 80.7434C105.435 79.7369 105.591 78.8219 105.694 78.157C105.746 77.852 105.789 77.5866 105.822 77.3731C105.827 77.2717 105.844 77.1712 105.874 77.0742Z" fill="#263238"/>
<path d="M108.432 87.4693C108.329 87.4735 108.227 87.4642 108.127 87.4419L107.331 87.326C106.657 87.2253 105.729 87.0942 104.699 86.9722C103.668 86.8502 102.734 86.7648 102.057 86.7068L101.258 86.6367C101.155 86.6367 101.052 86.6223 100.953 86.594C101.054 86.582 101.157 86.582 101.258 86.594C101.447 86.594 101.722 86.594 102.063 86.6214C102.74 86.655 103.68 86.7251 104.711 86.8471C105.742 86.9691 106.672 87.1155 107.343 87.2406C107.675 87.3016 107.953 87.3565 108.133 87.3992C108.235 87.4109 108.335 87.4345 108.432 87.4693Z" fill="#263238"/>
<path d="M121.073 74.7627C120.96 74.8026 120.844 74.8312 120.725 74.8481L119.777 75.0341C118.974 75.1927 117.87 75.4246 116.656 75.7174C115.443 76.0102 114.357 76.3121 113.573 76.5378L112.643 76.8062C112.53 76.8451 112.413 76.8727 112.295 76.8886C112.402 76.836 112.514 76.7911 112.627 76.7544C112.841 76.6751 113.155 76.5714 113.542 76.4494C114.32 76.1993 115.409 75.8821 116.623 75.5862C117.837 75.2904 118.947 75.0769 119.755 74.9427C120.158 74.8756 120.487 74.8267 120.713 74.7962C120.832 74.7738 120.952 74.7625 121.073 74.7627Z" fill="#263238"/>
<path d="M111.887 64.9473C111.968 65.0468 112.04 65.1541 112.1 65.2675C112.234 65.4749 112.405 65.786 112.613 66.1825C113.664 68.234 114.307 70.4706 114.504 72.7675C114.54 73.2067 114.559 73.5636 114.555 73.8106C114.569 73.9374 114.569 74.0651 114.555 74.1919C114.532 74.0671 114.518 73.9406 114.516 73.8137C114.516 73.5666 114.47 73.2037 114.421 72.7767C114.171 70.4991 113.532 68.2812 112.533 66.2191C112.344 65.8257 112.183 65.5085 112.064 65.3041C111.994 65.1909 111.935 65.0714 111.887 64.9473Z" fill="#263238"/>
<path d="M125.814 58.9756C125.729 59.0508 125.636 59.1162 125.536 59.1708L124.768 59.674C124.121 60.101 123.243 60.7171 122.328 61.4613C121.413 62.2055 120.623 62.9345 120.071 63.4774L119.421 64.1271C119.346 64.2112 119.263 64.2878 119.174 64.3558C119.232 64.2596 119.302 64.1705 119.381 64.0905C119.522 63.9258 119.732 63.6909 119.991 63.4103C120.695 62.68 121.442 61.9935 122.23 61.3546C123.017 60.716 123.843 60.1272 124.704 59.5917C125.033 59.3873 125.314 59.2287 125.497 59.125C125.597 59.0649 125.703 59.0149 125.814 58.9756Z" fill="#263238"/>
<path d="M112.703 49.499C112.74 49.5191 112.772 49.5448 112.801 49.5753L113.066 49.8101C113.295 50.0175 113.615 50.3225 114.009 50.7099C114.792 51.4785 115.839 52.5795 116.933 53.8575C118.028 55.1354 118.943 56.3494 119.581 57.2461C119.886 57.6944 120.148 58.0635 120.316 58.3197L120.508 58.6247C120.533 58.6583 120.552 58.6953 120.566 58.7345C120.535 58.7062 120.507 58.6745 120.484 58.6399L120.273 58.3563L119.502 57.3101C118.846 56.4287 117.916 55.23 116.83 53.9551C115.744 52.6802 114.695 51.573 113.938 50.7861L113.023 49.8711L112.776 49.6149C112.746 49.5804 112.721 49.5413 112.703 49.499Z" fill="#263238"/>
<path d="M127.173 43.0029C127.098 43.1185 127.012 43.2267 126.917 43.3262L126.188 44.1863C125.578 44.9183 124.758 45.9431 123.913 47.1235C123.068 48.3039 122.364 49.4141 121.872 50.2254L121.293 51.1922C121.226 51.3137 121.152 51.4309 121.07 51.543C121.118 51.4127 121.177 51.2871 121.247 51.1678C121.366 50.9299 121.552 50.5914 121.787 50.1766C122.26 49.35 122.955 48.2276 123.803 47.0442C124.651 45.8608 125.484 44.839 126.115 44.1253C126.42 43.7685 126.691 43.4818 126.878 43.2927C126.969 43.1889 127.068 43.092 127.173 43.0029Z" fill="#263238"/>
<path d="M116.307 33.1514C116.381 33.2712 116.445 33.3978 116.496 33.5296C116.612 33.7797 116.77 34.1396 116.959 34.591C117.341 35.4877 117.844 36.726 118.359 38.1381C118.875 39.5503 119.311 40.813 119.607 41.7433C119.756 42.2099 119.869 42.5851 119.945 42.8504C119.991 42.9834 120.026 43.1202 120.049 43.2591C119.986 43.1329 119.935 43.0012 119.897 42.8657L119.515 41.7738C119.195 40.8588 118.75 39.5808 118.231 38.1839C117.713 36.787 117.228 35.5334 116.871 34.6276L116.447 33.5509C116.392 33.4209 116.345 33.2874 116.307 33.1514Z" fill="#263238"/>
<path d="M85.9398 108.786C85.9398 108.786 87.5197 115.096 85.9398 117.655C85.8757 117.762 85.8056 117.869 85.7324 117.96C84.7049 119.437 83.2218 120.538 81.5099 121.092C79.798 121.647 77.9515 121.625 76.2529 121.031L58.4805 114.931L59.8377 110.161L71.2478 111.57L83.4235 108.255L85.9398 108.786Z" fill="#FFBE9D"/>
<path d="M78.0157 99.041C78.0157 99.041 83.7071 115.624 83.4234 119.601C83.1398 123.578 72.1384 144.416 72.1384 144.416L67.3193 142.202C67.3193 142.202 69.1677 136.355 70.3999 131.24C71.0099 128.657 71.2661 125.518 71.7419 124.249C73.1876 120.458 74.8773 118.485 74.8773 118.485L67.1211 102.542L78.0157 99.041Z" fill="#FFBE9D"/>
<path d="M62.4221 87.9853C62.4221 87.9853 60.7416 92.6091 61.9036 96.9768C63.0657 101.344 74.003 119.242 74.003 119.242L86.6606 111.922C86.6606 111.922 86.1726 95.9703 81.7623 87.0703L62.4221 87.9853Z" fill="#263238"/>
<path d="M83.3237 113.818C83.3237 113.818 83.3542 113.864 83.3969 113.959C83.4396 114.053 83.5006 114.194 83.5647 114.38C83.7479 114.907 83.8697 115.453 83.9276 116.008C84.0091 116.833 83.9875 117.665 83.8636 118.485C83.7934 118.948 83.7111 119.427 83.586 119.921C83.461 120.416 83.2963 120.916 83.1163 121.419C82.3935 123.444 81.6188 125.222 81.0545 126.509C80.7709 127.153 80.536 127.668 80.3682 128.034C80.2889 128.196 80.2249 128.339 80.173 128.44C80.1521 128.489 80.1255 128.535 80.0938 128.577C80.1035 128.526 80.1199 128.475 80.1425 128.428L80.3103 128.01L80.9508 126.485C81.4876 125.186 82.2471 123.402 82.9669 121.385C83.1438 120.882 83.3054 120.385 83.4335 119.903C83.5616 119.421 83.647 118.939 83.7202 118.482C83.8501 117.675 83.8838 116.856 83.8209 116.042C83.7766 115.492 83.6744 114.948 83.5159 114.419C83.3939 114.023 83.3085 113.824 83.3237 113.818Z" fill="#EB996E"/>
<path d="M70.8463 129.063C70.8431 128.92 70.8523 128.777 70.8738 128.636C70.8982 128.358 70.947 127.962 71.0141 127.474C71.1793 126.192 71.4705 124.931 71.8833 123.707C72.3332 122.494 72.9174 121.336 73.6249 120.254C73.8902 119.839 74.1129 119.504 74.2715 119.278C74.3468 119.156 74.4336 119.042 74.5307 118.937C74.4731 119.068 74.4037 119.193 74.3233 119.312C74.1647 119.574 73.9634 119.922 73.7133 120.312C73.0393 121.403 72.4743 122.557 72.0267 123.759C71.617 124.974 71.3109 126.222 71.1117 127.489C71.0324 127.952 70.9683 128.34 70.9195 128.642C70.9106 128.784 70.886 128.925 70.8463 129.063Z" fill="#EB996E"/>
<path d="M83.2538 110.347C83.2282 110.301 83.2087 110.252 83.1958 110.201L83.0586 109.777C82.9396 109.384 82.7749 108.862 82.5767 108.212C82.171 106.889 81.5946 105.068 80.9114 103.073C80.2282 101.078 79.5663 99.285 79.0813 97.9888L78.5018 96.4638C78.4408 96.296 78.392 96.1588 78.3493 96.0459C78.3279 95.9985 78.3135 95.9481 78.3066 95.8965C78.3379 95.9382 78.3626 95.9845 78.3798 96.0337L78.5598 96.4424C78.7153 96.7962 78.9288 97.3147 79.185 97.9674C79.7005 99.2515 80.3776 101.042 81.0639 103.04C81.7501 105.037 82.3083 106.867 82.6895 108.197C82.8786 108.862 83.0281 109.417 83.1226 109.78C83.1653 109.951 83.2019 110.085 83.2294 110.21C83.244 110.255 83.2522 110.301 83.2538 110.347Z" fill="#455A64"/>
<path d="M75.8045 97.9732C75.7862 97.9946 75.408 97.6835 74.734 97.2778C74.3404 97.0421 73.933 96.8302 73.514 96.6434C72.9977 96.4204 72.4667 96.2329 71.9249 96.0822C71.3799 95.9407 70.8254 95.8387 70.2657 95.7772C69.809 95.7266 69.3496 95.7052 68.8901 95.7131C68.1032 95.7284 67.6213 95.8077 67.6152 95.7772C67.7236 95.7385 67.8363 95.7129 67.9507 95.7009C68.2603 95.6471 68.5731 95.6135 68.8871 95.6003C69.3518 95.5766 69.8177 95.5868 70.2809 95.6308C70.8494 95.6873 71.4124 95.7893 71.9646 95.9358C72.5153 96.0878 73.0536 96.2815 73.575 96.5153C73.997 96.7109 74.4047 96.9362 74.795 97.1894C75.06 97.3575 75.3138 97.5429 75.5544 97.7445C75.6467 97.8103 75.7307 97.8871 75.8045 97.9732Z" fill="#455A64"/>
<path d="M80.4627 80.0544C80.5542 77.962 83.0248 75.3329 82.3873 69.3976C81.7163 63.1725 80.7708 57.6855 80.7708 57.6855L76.0768 58.8293L75.2716 57.6855L67.5215 59.5156L66.3015 60.6654L60.9244 62.8645C60.6063 62.9952 60.3179 63.1888 60.0763 63.4335C59.8347 63.6782 59.6449 63.9691 59.5183 64.2888L55.7729 73.814L47.6324 68.3392L44.5488 72.5208C44.5488 72.5208 54.7969 81.924 57.4748 81.6526C59.8751 81.4086 61.8851 77.7668 62.8825 75.5861L64.4258 82.0186C64.4258 82.0186 61.9858 86.3191 61.4947 93.6086L77.5927 94.2186C78.0893 94.238 78.5837 94.1417 79.0367 93.9374C79.4898 93.7331 79.8892 93.4263 80.2035 93.0413L83.2535 89.3172C83.2535 89.3172 80.3712 82.1345 80.4627 80.0544Z" fill="#034C82"/>
<path d="M78.5781 58.8356L80.6552 57.884L88.814 50.7744L91.7481 38.373L96.9331 40.5416C96.9331 40.5416 96.436 49.8594 95.7863 53.0467C95.1367 56.2339 82.0338 66.6345 82.0338 66.6345L78.5781 58.8356Z" fill="#034C82"/>
<path d="M81.4233 60.7354C81.4924 61.0851 81.5423 61.4385 81.5727 61.7937C81.6612 62.4922 81.774 63.3767 81.896 64.3527C82.018 65.3287 82.1217 66.262 82.1766 66.9177C82.2071 67.2471 82.2254 67.5277 82.2346 67.6985C82.249 67.7946 82.249 67.8922 82.2346 67.9883C82.158 67.6393 82.104 67.2858 82.0729 66.9299C81.9845 66.2315 81.8716 65.35 81.7466 64.374C81.6215 63.398 81.5209 62.4647 81.469 61.8059C81.4416 61.4765 81.4263 61.2112 81.4202 61.0251C81.4058 60.929 81.4069 60.8312 81.4233 60.7354Z" fill="#263238"/>
<path d="M75.8526 77.3924C75.7975 77.345 75.7464 77.2929 75.7001 77.2368L75.2884 76.7671C74.9224 76.3432 74.41 75.7515 73.7878 75.0256L68.8834 69.2305L66.1871 66.025L66.1536 65.9853L66.181 65.9426L66.7819 64.8965L66.8551 64.9971C66.5013 65.0703 66.1688 65.0886 65.8638 65.1527L65.7754 65.174V65.0825C65.9401 63.7893 66.0804 62.7187 66.1719 61.9532C66.2207 61.5933 66.2603 61.3066 66.2908 61.0931C66.2992 60.9899 66.3176 60.8877 66.3457 60.7881C66.3478 60.8901 66.3417 60.9921 66.3274 61.0931C66.3061 61.3096 66.2786 61.5963 66.242 61.9593C66.1597 62.7248 66.0438 63.7893 65.9035 65.0947L65.8242 65.0276C66.1292 64.9544 66.4799 64.9331 66.8154 64.8599L66.9649 64.8263L66.8917 64.9605C66.7056 65.296 66.5104 65.6468 66.3061 66.0097V65.9274C67.1326 66.9095 68.0507 67.9922 69.0115 69.1299L73.8915 74.9493L75.3524 76.7244L75.7428 77.2124C75.7858 77.2683 75.8226 77.3286 75.8526 77.3924Z" fill="#263238"/>
<path d="M77.058 76.511C77.0559 76.4434 77.0621 76.3758 77.0763 76.3097L77.1587 75.7332C77.2349 75.233 77.3569 74.5132 77.5155 73.6195C77.6741 72.7259 77.8602 71.6706 78.034 70.4902C78.2309 69.2139 78.344 67.9261 78.3726 66.635C78.4084 65.2386 78.3063 63.842 78.0676 62.4656L78.1225 62.5205L77.058 62.2674L76.8964 62.2277L77.0397 62.1423L77.8175 61.6848L77.7992 61.7733C77.4606 61.2914 77.2105 60.8308 76.9757 60.4282C76.7408 60.0256 76.5487 59.684 76.384 59.3912C76.2193 59.0984 76.079 58.888 75.9966 58.7385C75.9446 58.6662 75.8986 58.5897 75.8594 58.5098C75.878 58.5247 75.8944 58.5421 75.9082 58.5616C75.9506 58.6124 75.9903 58.6653 76.0271 58.7202C76.1278 58.8605 76.2681 59.0771 76.4419 59.3546L77.0519 60.3794C77.2929 60.7729 77.5552 61.2334 77.8907 61.7001L77.9303 61.755L77.8724 61.7916L77.1007 62.2582L77.0824 62.1362L78.1469 62.3802H78.1926V62.426C78.4502 63.8136 78.5657 65.2239 78.5373 66.635C78.507 67.935 78.3867 69.2313 78.1774 70.5146C77.9974 71.698 77.7931 72.7564 77.6253 73.6439C77.4576 74.5315 77.3203 75.2299 77.2197 75.7454C77.1739 75.9802 77.1373 76.1693 77.1068 76.3158C77.0971 76.3823 77.0808 76.4477 77.058 76.511Z" fill="#263238"/>
<path d="M78.0673 79.792C77.9964 79.8548 77.9162 79.9063 77.8294 79.9445C77.6708 80.0329 77.439 80.1519 77.1493 80.2922C75.6337 81.0179 74.0447 81.5793 72.4096 81.9666C72.1046 82.0398 71.8423 82.0948 71.6654 82.1253C71.5741 82.1504 71.4793 82.1607 71.3848 82.1558C71.7112 82.0354 72.0442 81.9336 72.3821 81.8508C72.9921 81.6769 73.8492 81.4207 74.7703 81.0943C75.6914 80.768 76.5149 80.4325 77.1035 80.1793C77.4164 80.0302 77.7383 79.9008 78.0673 79.792Z" fill="#263238"/>
<path d="M78.3268 82.2877C78.0757 82.3167 77.8226 82.3238 77.5704 82.309C77.1037 82.309 76.4602 82.309 75.7404 82.3456C75.0206 82.3822 74.3892 82.428 73.9256 82.4676C73.681 82.5005 73.4338 82.5097 73.1875 82.4951C73.4294 82.4177 73.6789 82.3666 73.9317 82.3426C74.3953 82.2755 75.0419 82.2053 75.7617 82.1748C76.4815 82.1443 77.1251 82.1565 77.5917 82.1748C77.8403 82.1833 78.0871 82.2212 78.3268 82.2877Z" fill="#263238"/>
<path d="M77.1531 79.8566C77.0611 79.3044 77.0203 78.7449 77.0311 78.1852C76.9907 77.6271 77.0029 77.0665 77.0677 76.5107C77.1614 77.0627 77.2023 77.6224 77.1897 78.1821C77.2319 78.7402 77.2197 79.301 77.1531 79.8566Z" fill="#263238"/>
<path d="M76.9057 82.1375C76.7861 81.8642 76.7149 81.5721 76.6952 81.2744C76.6238 80.9832 76.6052 80.6815 76.6403 80.3838C76.8316 80.9481 76.9214 81.5419 76.9057 82.1375Z" fill="#263238"/>
<path d="M78.8115 94.0392C78.7811 93.8896 78.7647 93.7374 78.7627 93.5848C78.7414 93.2798 78.7109 92.865 78.6621 92.3434C78.5736 91.2942 78.415 89.8485 78.1802 88.2625C77.9453 86.6765 77.6678 85.2399 77.4573 84.2212C77.3506 83.7058 77.253 83.291 77.1889 83.0012C77.1445 82.8542 77.1159 82.7029 77.1035 82.5498C77.1639 82.691 77.2129 82.8369 77.2499 82.986C77.3323 83.2666 77.4451 83.6783 77.5549 84.1907C77.805 85.2155 78.0978 86.646 78.3357 88.235C78.5736 89.8241 78.7139 91.285 78.7749 92.3312C78.8085 92.8589 78.8207 93.2828 78.8237 93.5787C78.835 93.7322 78.8309 93.8865 78.8115 94.0392Z" fill="#263238"/>
<g opacity="0.3">
<path d="M65.7886 65.1312L66.1485 65.2807L65.752 66.1957C65.752 66.1957 71.852 73.656 73.5203 75.0987C75.5333 76.8494 75.5913 77.0751 75.5913 77.0751L66.243 65.97L66.8317 64.9238L65.7886 65.1312Z" fill="black"/>
</g>
<g opacity="0.3">
<path d="M70.1719 82.5255L79.1511 79.7256C79.204 79.987 79.1839 80.2579 79.093 80.5086C79.0021 80.7594 78.8438 80.9802 78.6357 81.1469C78.2128 81.4735 77.7235 81.7036 77.2022 81.8209C75.0397 82.431 72.4319 82.8092 70.2054 82.5255" fill="black"/>
</g>
<path d="M57.9903 75.7849C57.4834 74.7655 56.5927 73.9888 55.5137 73.6255C55.6846 73.6204 55.8545 73.6537 56.0108 73.7231C56.7952 73.9989 57.4445 74.5641 57.8256 75.303C57.9143 75.45 57.9704 75.6144 57.9903 75.7849Z" fill="#263238"/>
<path d="M61.1836 67.4492C61.2068 67.4944 61.2232 67.5427 61.2324 67.5926C61.2629 67.7085 61.2995 67.8457 61.3422 68.0135C61.4337 68.4069 61.5587 68.9285 61.7112 69.572C62.0162 70.8866 62.4311 72.7074 62.8764 74.7174C63.3217 76.7274 63.706 78.533 63.9988 79.875C64.133 80.5185 64.2428 81.0492 64.3221 81.4427C64.3556 81.6135 64.3831 81.7477 64.4044 81.8697C64.4163 81.9187 64.4235 81.9688 64.4258 82.0191C64.3555 81.8361 64.3014 81.6473 64.2641 81.4549C64.1696 81.0645 64.0415 80.5399 63.889 79.8994C63.584 78.5848 63.1661 76.767 62.7208 74.754C62.2755 72.741 61.879 70.9049 61.5984 69.5964C61.4672 68.9529 61.3574 68.4222 61.2934 68.0287C61.2629 67.8579 61.2354 67.7237 61.2141 67.5987C61.1977 67.5503 61.1875 67.5001 61.1836 67.4492Z" fill="#263238"/>
<path d="M45.8725 72.1244C45.8421 72.2496 45.8485 72.3809 45.8908 72.5026C45.9147 72.5633 45.9518 72.618 45.9992 72.6628C46.0466 72.7076 46.1033 72.7414 46.1653 72.7618C46.2401 72.7791 46.3184 72.7732 46.3898 72.7448C46.4611 72.7165 46.5222 72.6671 46.5648 72.6032C46.6136 72.5444 46.6437 72.4723 46.6513 72.3963C46.6589 72.3202 46.6437 72.2436 46.6075 72.1762C46.5697 72.123 46.5211 72.0784 46.4649 72.0453C46.4086 72.0122 46.346 71.9913 46.2812 71.9841C46.1522 71.9771 46.0239 72.0078 45.9121 72.0725C45.9121 72.0725 45.9121 72.0237 45.9792 71.9719C46.0666 71.9051 46.1743 71.8706 46.2842 71.8743C46.3698 71.8744 46.4541 71.8946 46.5304 71.9333C46.6066 71.972 46.6728 72.028 46.7234 72.0969C46.7769 72.1904 46.8017 72.2975 46.7948 72.4049C46.7879 72.5123 46.7495 72.6153 46.6845 72.7011C46.6195 72.787 46.5307 72.8518 46.4292 72.8875C46.3276 72.9232 46.2178 72.9283 46.1134 72.9021C46.0329 72.8733 45.9604 72.8255 45.902 72.7629C45.8436 72.7003 45.8011 72.6246 45.7779 72.5422C45.7381 72.4371 45.7381 72.321 45.7779 72.2159C45.8267 72.1457 45.8664 72.1244 45.8725 72.1244Z" fill="#263238"/>
<path d="M92.4302 40.0997C92.4302 40.0997 92.4546 40.0539 92.543 40.0295C92.6043 40.0213 92.6667 40.0254 92.7264 40.0416C92.7861 40.0579 92.842 40.0859 92.8907 40.1241C93.0418 40.2333 93.1438 40.3977 93.1744 40.5816C93.183 40.7012 93.1513 40.8202 93.0845 40.9197C93.0176 41.0192 92.9193 41.0934 92.8053 41.1306C92.6973 41.1756 92.5787 41.1886 92.4635 41.1681C92.3483 41.1475 92.2414 41.0943 92.1557 41.0147C92.0922 40.9438 92.0488 40.8572 92.03 40.7639C92.0112 40.6706 92.0178 40.5739 92.0489 40.484C92.1465 40.179 92.3173 40.0875 92.3265 40.0997C92.2585 40.2317 92.2023 40.3695 92.1587 40.5114C92.1395 40.581 92.1387 40.6544 92.1564 40.7245C92.174 40.7945 92.2095 40.8588 92.2594 40.911C92.3267 40.9669 92.4081 41.0033 92.4947 41.0162C92.5812 41.0291 92.6697 41.018 92.7504 40.9842C92.8324 40.9584 92.9038 40.9067 92.9539 40.8368C93.0039 40.767 93.0299 40.6827 93.028 40.5968C93.0073 40.448 92.9336 40.3115 92.8206 40.2125C92.7475 40.1413 92.651 40.099 92.5491 40.0936C92.4759 40.0997 92.4363 40.1271 92.4302 40.0997Z" fill="#263238"/>
<path d="M49.364 61.0346C51.3648 58.4818 54.0672 56.4596 57.3307 55.9411C59.0143 55.6697 60.646 55.9411 62.2442 56.4932C63.94 57.0696 65.5657 57.7528 67.3561 57.9877C69.4118 58.2591 71.4766 58.07 73.5262 57.8352C73.9227 57.7894 75.3898 57.4173 75.3898 56.9842C75.3898 56.6182 73.9258 56.3071 73.5262 56.3529C71.6657 56.5664 69.7839 56.7524 67.9112 56.5725C66.0812 56.3956 64.4189 55.6727 62.7017 55.0871C61.0265 54.4692 59.2309 54.2479 57.4557 54.4405C55.6796 54.6675 53.9735 55.275 52.4537 56.2217C50.8638 57.2249 49.4629 58.4999 48.3148 59.9885C48.1828 60.1307 48.1094 60.3175 48.1094 60.5116C48.1094 60.7056 48.1828 60.8925 48.3148 61.0346C48.4546 61.1725 48.6431 61.2497 48.8394 61.2497C49.0358 61.2497 49.2242 61.1725 49.364 61.0346Z" fill="#455A64"/>
<g opacity="0.3">
<path d="M49.371 61.0566C51.3719 58.5037 54.0742 56.4815 57.3377 55.963C58.997 55.7376 60.6863 55.9273 62.2543 56.5151C63.9501 57.0885 65.5758 57.7748 67.3631 58.0096C69.4188 58.2811 71.4867 58.092 73.5333 57.8571C73.9328 57.8114 75.3907 57.5521 75.3907 57.1221C75.3907 56.7561 73.9328 56.329 73.5333 56.3748C71.6728 56.5883 69.7909 56.7744 67.9182 56.5914C66.0882 56.4175 64.429 55.6946 62.7118 55.109C61.0353 54.4918 59.2391 54.2695 57.4627 54.4594C55.6866 54.6879 53.9805 55.2965 52.4607 56.2436C50.8718 57.2468 49.4718 58.5219 48.3249 60.0104C48.1915 60.1519 48.1172 60.339 48.1172 60.5335C48.1172 60.728 48.1915 60.9151 48.3249 61.0566C48.4642 61.1942 48.6521 61.2714 48.848 61.2714C49.0438 61.2714 49.2317 61.1942 49.371 61.0566Z" fill="black"/>
</g>
<path d="M78.3729 43.0306C79.0683 42.6372 79.2056 41.5788 78.7328 40.9292C78.4773 40.6191 78.1346 40.3929 77.7491 40.2798C77.3635 40.1667 76.9529 40.1719 76.5704 40.2948C76.6524 40.0633 76.6575 39.8115 76.585 39.5768C76.5125 39.3422 76.3661 39.1372 76.1678 38.9924C75.763 38.7123 75.2779 38.572 74.7861 38.5928C74.1304 38.5928 73.3801 38.7972 73.1117 39.395C73.008 39.0046 72.5657 38.8063 72.1631 38.785C71.6225 38.7665 71.0941 38.9479 70.6788 39.2945C70.2636 39.6411 69.9906 40.1286 69.9122 40.6638C69.5516 40.458 69.1358 40.3696 68.7227 40.4107C68.5172 40.4363 68.3259 40.5292 68.1786 40.6748C68.0313 40.8204 67.9363 41.0106 67.9083 41.2159C67.7702 41.0661 67.5969 40.9534 67.404 40.8878C67.2111 40.8223 67.005 40.8061 66.8042 40.8407C66.5082 40.8492 66.2218 40.9482 65.9838 41.1244C65.8671 41.2146 65.7806 41.3382 65.7359 41.4788C65.6913 41.6194 65.6905 41.7702 65.7337 41.9113C65.4528 41.8634 65.1642 41.9215 64.9238 42.0743C64.6834 42.227 64.5082 42.4636 64.4322 42.7382C64.3563 43.0128 64.385 43.3058 64.5127 43.5604C64.6405 43.815 64.8582 44.0132 65.1237 44.1164C64.9309 44.2751 64.7818 44.4801 64.6903 44.7124C64.5987 44.9446 64.5678 45.1963 64.6005 45.4438C64.6331 45.6912 64.7282 45.9263 64.8769 46.1268C65.0255 46.3274 65.2228 46.4868 65.45 46.59C65.3945 46.6144 65.3452 46.6511 65.306 46.6974C65.2667 46.7437 65.2385 46.7983 65.2236 46.8571C65.2086 46.9159 65.2072 46.9773 65.2194 47.0367C65.2317 47.0961 65.2574 47.152 65.2945 47.2C65.4409 47.4013 65.3433 47.4135 65.5995 47.4074C65.6483 48.2614 65.7154 48.9171 65.7642 49.7712C65.7977 50.3232 65.7855 51.0461 65.9868 51.5585C66.1378 51.8454 66.3441 52.0996 66.5938 52.3063C66.8435 52.5131 67.1316 52.6684 67.4417 52.7632L77.6135 48.9446C77.9508 48.5862 78.1797 48.1396 78.2736 47.6565C78.3675 47.1733 78.3227 46.6735 78.1442 46.2148C78.1116 46.174 78.0888 46.1263 78.0774 46.0753C78.066 46.0243 78.0663 45.9714 78.0784 45.9206C78.0904 45.8698 78.1139 45.8223 78.1469 45.7819C78.18 45.7415 78.2218 45.7091 78.2692 45.6872C78.4754 45.5286 78.6471 45.3297 78.774 45.1027C78.9008 44.8757 78.9802 44.6252 79.0073 44.3665C79.0266 44.1079 78.9782 43.8488 78.867 43.6146C78.7557 43.3804 78.5855 43.1791 78.3729 43.0306Z" fill="#263238"/>
<path d="M77.4585 46.5046C77.2297 44.4458 74.9117 42.4877 72.8834 42.8019L66.2832 44.3696L66.3595 45.4798L68.0431 60.4249L75.177 64.6766L74.7592 57.3291C74.7592 57.3291 77.3639 56.7679 77.7421 53.297C77.9312 51.5859 77.7086 48.7799 77.4585 46.5046Z" fill="#FFBE9D"/>
<path d="M76.1864 49.4962C76.1923 49.6106 76.1537 49.7228 76.0786 49.8093C76.0035 49.8957 75.8978 49.9497 75.7838 49.9598C75.673 49.9709 75.5623 49.9376 75.476 49.8673C75.3897 49.797 75.3348 49.6954 75.3232 49.5847C75.3156 49.4696 75.3536 49.3562 75.4289 49.2688C75.5043 49.1815 75.6109 49.1274 75.7258 49.118C75.8369 49.1078 75.9475 49.1417 76.0338 49.2125C76.12 49.2833 76.1748 49.3852 76.1864 49.4962Z" fill="#263238"/>
<path d="M76.919 47.9806C76.8671 48.0416 76.5194 47.8098 76.0466 47.8342C75.5739 47.8586 75.2384 48.1117 75.1865 48.0568C75.1347 48.0019 75.2079 47.9257 75.3543 47.8067C75.5525 47.6563 75.792 47.5701 76.0405 47.5597C76.2878 47.5448 76.5331 47.6112 76.739 47.7488C76.8885 47.8525 76.9434 47.9562 76.919 47.9806Z" fill="#263238"/>
<path d="M72.0432 49.6277C72.0508 49.742 72.0131 49.8546 71.9384 49.9414C71.8636 50.0281 71.7578 50.082 71.6436 50.0913C71.5878 50.0985 71.5312 50.0945 71.477 50.0794C71.4227 50.0644 71.3721 50.0386 71.328 50.0036C71.284 49.9686 71.2473 49.9252 71.2203 49.8758C71.1934 49.8264 71.1765 49.7722 71.1709 49.7162C71.1633 49.6016 71.2008 49.4886 71.2755 49.4014C71.3502 49.3142 71.4561 49.2596 71.5704 49.2495C71.6265 49.2423 71.6834 49.2465 71.7378 49.2617C71.7922 49.277 71.8429 49.303 71.8871 49.3383C71.9312 49.3736 71.9677 49.4174 71.9946 49.4672C72.0214 49.5169 72.0379 49.5715 72.0432 49.6277Z" fill="#263238"/>
<path d="M72.2889 48.3927C72.2371 48.4537 71.8924 48.2219 71.4197 48.2463C70.9469 48.2707 70.6114 48.5238 70.5565 48.4658C70.5016 48.4079 70.5809 48.3377 70.7273 48.2188C70.9231 48.0671 71.1611 47.9799 71.4085 47.9689C71.6559 47.958 71.9006 48.024 72.109 48.1578C72.2737 48.2645 72.3133 48.3652 72.2889 48.3927Z" fill="#263238"/>
<path d="M74.158 51.7356C74.4034 51.6437 74.6598 51.5842 74.9205 51.5587C75.0395 51.5404 75.1524 51.5099 75.1707 51.4276C75.1741 51.3016 75.1401 51.1774 75.073 51.0707L74.6704 50.1557C74.1092 48.8625 73.6975 47.798 73.7554 47.7767C73.8134 47.7553 74.3044 48.7832 74.8656 50.0764C74.9999 50.3814 75.1279 50.6864 75.253 50.9914C75.335 51.1345 75.3652 51.3014 75.3384 51.4642C75.323 51.5083 75.2977 51.5483 75.2644 51.5811C75.231 51.6139 75.1906 51.6386 75.1463 51.6533C75.081 51.6742 75.0134 51.6865 74.945 51.6899C74.6854 51.7365 74.4212 51.7519 74.158 51.7356Z" fill="#263238"/>
<path d="M74.7587 57.3407C73.1443 57.4422 71.5335 57.0916 70.1074 56.3281C70.1074 56.3281 71.5104 58.8871 74.9265 58.4021L74.7587 57.3407Z" fill="#EB996E"/>
<path d="M74.0143 52.8883C73.9185 52.7792 73.7966 52.6963 73.6601 52.6472C73.5235 52.5981 73.3767 52.5845 73.2335 52.6077C73.1304 52.6205 73.031 52.6541 72.9413 52.7065C72.8517 52.759 72.7736 52.8291 72.7119 52.9127C72.6541 52.9959 72.623 53.0949 72.623 53.1963C72.623 53.2977 72.6541 53.3967 72.7119 53.48C72.7915 53.5622 72.8941 53.6184 73.0062 53.6413C73.1184 53.6642 73.2348 53.6526 73.3402 53.6081C73.5606 53.5188 73.7608 53.386 73.9289 53.2177C73.9802 53.1771 74.0236 53.1275 74.057 53.0713C74.0734 53.0447 74.0822 53.0141 74.0822 52.9828C74.0822 52.9516 74.0734 52.9209 74.057 52.8944" fill="#EB996E"/>
<path d="M72.7828 52.1289C72.859 52.1289 72.8865 52.6352 73.344 52.9829C73.8015 53.3306 74.3444 53.2452 74.3505 53.3154C74.3566 53.3855 74.2346 53.4221 74.0028 53.4404C73.7024 53.4586 73.4053 53.37 73.164 53.1903C72.9315 53.0162 72.7744 52.7598 72.7248 52.4736C72.6974 52.257 72.7462 52.1289 72.7828 52.1289Z" fill="#263238"/>
<path d="M72.3495 46.6876C72.3068 46.8187 71.8341 46.7821 71.282 46.8736C70.73 46.9651 70.2877 47.142 70.2084 47.0292C70.1718 46.9743 70.245 46.8492 70.4189 46.7242C70.6536 46.5605 70.9224 46.4522 71.205 46.4073C71.4876 46.3624 71.7767 46.3821 72.0506 46.4649C72.2733 46.529 72.3648 46.6266 72.3495 46.6876Z" fill="#263238"/>
<path d="M76.678 46.6139C76.5987 46.7268 76.2663 46.6139 75.8759 46.6444C75.4855 46.6749 75.1561 46.7512 75.0737 46.6444C75.0371 46.5895 75.0737 46.4797 75.2232 46.3699C75.4119 46.2375 75.6362 46.1652 75.8667 46.1625C76.0973 46.1561 76.3242 46.2211 76.5164 46.3486C76.6597 46.4523 76.7116 46.559 76.678 46.6139Z" fill="#263238"/>
<path d="M75.8469 42.5916L75.6333 42.5031C75.9658 41.7589 75.4046 40.8043 74.6116 40.6182C74.2092 40.549 73.7953 40.6117 73.4314 40.7969C73.0676 40.9822 72.7733 41.28 72.5925 41.6461C72.4097 41.3267 72.1243 41.0785 71.7827 40.9417C71.4411 40.805 71.0633 40.7877 70.7106 40.8927C70.1342 41.0849 69.7224 41.579 69.3259 42.0426C69.2375 42.1463 69.1246 42.2591 68.9874 42.2439C68.8897 42.218 68.8023 42.1626 68.7373 42.0853C68.3938 41.802 67.973 41.6287 67.5296 41.5879C67.0863 41.5471 66.6409 41.6407 66.2515 41.8565C65.8679 42.0817 65.5334 42.3815 65.2678 42.7383C65.0022 43.0951 64.8108 43.5015 64.7051 43.9336C64.5945 44.2828 64.5756 44.6546 64.6502 45.0133C64.689 45.1911 64.774 45.3555 64.8966 45.4899C65.0193 45.6243 65.1752 45.724 65.3487 45.7788C65.1938 45.9963 65.091 46.2465 65.0483 46.51C65.0055 46.7735 65.0239 47.0434 65.102 47.2987C65.1801 47.5539 65.3159 47.7879 65.4988 47.9823C65.6817 48.1768 65.9069 48.3266 66.157 48.4201C66.1936 48.5364 66.2438 48.648 66.3064 48.7526C66.2485 49.3791 66.2271 50.0085 66.2424 50.6375C66.2331 50.9092 66.2896 51.1792 66.4071 51.4244C66.4696 51.5443 66.5685 51.6414 66.6896 51.7017C66.8107 51.7619 66.9477 51.7823 67.0811 51.7599C67.3648 51.6806 67.7613 51.5342 67.8467 51.2506C67.9961 50.7443 67.8314 50.0458 67.8711 49.5182C68.1648 49.4744 68.4399 49.3472 68.6634 49.1516C68.8869 48.9559 69.0494 48.7002 69.1317 48.4148C69.214 48.1294 69.2125 47.8264 69.1274 47.5418C69.0424 47.2573 68.8773 47.0031 68.6519 46.8097C68.8981 46.9124 69.1652 46.9551 69.4311 46.9344C69.6971 46.9136 69.9543 46.8299 70.1816 46.6902C70.4089 46.5505 70.5997 46.3588 70.7383 46.1309C70.877 45.9029 70.9595 45.6453 70.979 45.3793C71.2223 45.6066 71.5117 45.7787 71.8275 45.884C72.1433 45.9892 72.4781 46.0252 72.809 45.9893C73.1273 45.9719 73.4262 45.8307 73.6417 45.5958C73.7439 45.4744 73.7978 45.3197 73.7933 45.1611C73.7888 45.0025 73.7262 44.8511 73.6173 44.7357C73.9209 44.8714 74.2577 44.9148 74.5858 44.8606C74.9139 44.8064 75.2188 44.6569 75.4625 44.4307C75.698 44.1944 75.8597 43.8948 75.928 43.5683C75.9962 43.2417 75.968 42.9024 75.8469 42.5916Z" fill="#263238"/>
<path d="M67.2427 50.0582C67.1909 50.0368 65.1962 49.5153 65.3243 51.5374C65.4524 53.5596 67.444 53.0197 67.444 52.9618C67.444 52.9038 67.2427 50.0582 67.2427 50.0582Z" fill="#FFBE9D"/>
<path d="M66.7824 52.233C66.7824 52.233 66.7488 52.2604 66.6909 52.2909C66.6096 52.3321 66.5154 52.3398 66.4286 52.3123C66.2934 52.2363 66.1805 52.1262 66.1013 51.9929C66.022 51.8596 65.9792 51.7079 65.9772 51.5528C65.9626 51.3802 65.9854 51.2064 66.0443 51.0435C66.0595 50.9794 66.0899 50.9199 66.1329 50.87C66.1759 50.8202 66.2302 50.7813 66.2913 50.7568C66.3312 50.7432 66.3747 50.7444 66.4138 50.76C66.453 50.7757 66.4852 50.8048 66.5048 50.8422C66.5353 50.8971 66.5262 50.9367 66.5353 50.9398C66.5445 50.9428 66.578 50.9032 66.5567 50.8208C66.5418 50.7713 66.5106 50.7283 66.4682 50.6988C66.4399 50.6797 66.4081 50.6663 66.3746 50.6595C66.3411 50.6527 66.3066 50.6526 66.273 50.6592C66.1911 50.6804 66.116 50.7224 66.055 50.7812C65.9941 50.84 65.9494 50.9135 65.9253 50.9947C65.8496 51.1747 65.8203 51.3707 65.8399 51.565C65.84 51.7458 65.8936 51.9226 65.994 52.0729C66.0944 52.2233 66.2372 52.3406 66.4042 52.4099C66.4573 52.4196 66.5119 52.4181 66.5644 52.4055C66.6169 52.3929 66.6662 52.3695 66.7092 52.3367C66.7824 52.2818 66.7824 52.236 66.7824 52.233Z" fill="#EB996E"/>
<path d="M70.8789 45.0376C70.8972 45.0396 70.9156 45.0396 70.9338 45.0376L71.0955 45.0559C71.2993 45.0714 71.5042 45.0611 71.7055 45.0254C71.8518 44.9971 71.9942 44.951 72.1294 44.8882C72.2898 44.816 72.434 44.7123 72.5534 44.5832C72.6883 44.4296 72.7836 44.2453 72.8309 44.0464C72.884 43.8217 72.8537 43.5854 72.7455 43.3815L72.6906 43.4333C73.1122 43.7028 73.6099 43.8281 74.1089 43.7902C74.3812 43.7734 74.648 43.7062 74.8958 43.5919C75.0257 43.5314 75.1468 43.4534 75.2557 43.3601C75.3665 43.2587 75.4477 43.129 75.4905 42.985C75.5336 42.8185 75.5389 42.6444 75.5058 42.4756C75.4791 42.3131 75.4393 42.1529 75.3868 41.9968C75.3388 41.8428 75.2701 41.6961 75.1825 41.5606C75.1391 41.4909 75.0808 41.4317 75.0116 41.3874C74.9425 41.3431 74.8644 41.3147 74.7829 41.3044V41.3868C75.0821 41.4631 75.3985 41.4352 75.6796 41.3075C75.938 41.1974 76.16 41.0166 76.3201 40.7859C76.4592 40.5835 76.5365 40.3451 76.5428 40.0997C76.5444 39.8433 76.4788 39.5909 76.3525 39.3677C76.2262 39.1446 76.0437 38.9584 75.823 38.8278C75.7287 38.772 75.6255 38.7328 75.518 38.7119C75.6138 38.7539 75.7075 38.8007 75.7986 38.8522C76.0456 39.0084 76.2392 39.2361 76.3537 39.5049C76.435 39.6924 76.4745 39.8954 76.4696 40.0997C76.4645 40.3364 76.3879 40.566 76.25 40.7585C76.0966 40.9753 75.8852 41.1444 75.64 41.2465C75.3744 41.3646 75.0766 41.3893 74.7951 41.3166L74.7799 41.402C74.8489 41.4115 74.915 41.4365 74.9731 41.475C75.0312 41.5136 75.0798 41.5647 75.1154 41.6247C75.199 41.7515 75.2627 41.8904 75.3045 42.0364C75.4263 42.3326 75.4622 42.6571 75.4082 42.9728C75.3628 43.0986 75.2905 43.213 75.1961 43.3079C75.1018 43.4027 74.9878 43.4758 74.8622 43.5218C74.6239 43.6318 74.3676 43.6979 74.1058 43.717C73.6252 43.7549 73.1451 43.6373 72.7364 43.3815L72.6052 43.2961L72.6815 43.4333C72.7832 43.6195 72.8126 43.8368 72.7638 44.0433C72.7212 44.2318 72.6344 44.4074 72.5107 44.5557C72.3984 44.6835 72.2615 44.7873 72.1081 44.8607C71.9783 44.9246 71.841 44.9717 71.6994 45.001C71.4988 45.0426 71.294 45.06 71.0894 45.0529C71.0196 45.0435 70.9493 45.0384 70.8789 45.0376Z" fill="white"/>
<path d="M76.2383 44.0099C76.2383 44.0099 76.2779 44.0373 76.3572 44.0587C76.5027 44.0958 76.655 44.0977 76.8014 44.0643C76.9477 44.0309 77.0841 43.9631 77.199 43.8665C77.2427 43.8281 77.2781 43.7813 77.3032 43.7289C77.3284 43.6765 77.3428 43.6196 77.3454 43.5615C77.3482 43.4995 77.3333 43.4379 77.3025 43.3839C77.2718 43.33 77.2264 43.2858 77.1716 43.2565L77.1411 43.3419H77.1716C77.3687 43.3872 77.5733 43.3885 77.771 43.3458C77.9686 43.3031 78.1545 43.2174 78.3153 43.0949C78.4122 43.0215 78.4975 42.9342 78.5685 42.8356C78.597 42.8014 78.6187 42.762 78.6325 42.7197C78.5239 42.8373 78.4056 42.9454 78.2787 43.043C78.1222 43.1515 77.945 43.2265 77.7582 43.2632C77.5713 43.3 77.3789 43.2977 77.1929 43.2565H77.1655L76.7415 43.162L77.135 43.3389C77.1756 43.3618 77.2089 43.3957 77.231 43.4367C77.2531 43.4777 77.2632 43.5242 77.26 43.5707C77.2529 43.6627 77.2115 43.7486 77.1441 43.8116C77.0201 43.9235 76.8666 43.9976 76.7019 44.0251C76.5474 44.0427 76.3912 44.0376 76.2383 44.0099Z" fill="white"/>
<path d="M92.6322 38.6267L92.8549 37.364C92.8549 37.364 92.1168 34.6189 92.193 34.2224C92.2693 33.8259 92.3516 31.9441 92.3516 31.9441L94.2487 29.8091C94.3824 29.804 94.5146 29.8387 94.6286 29.9088C94.7426 29.9788 94.8333 30.081 94.8892 30.2025C94.8892 30.2025 95.7554 30.1324 95.9506 30.718C96.0251 30.678 96.1085 30.6577 96.193 30.6589C96.2775 30.6601 96.3603 30.6829 96.4336 30.725C96.5069 30.7671 96.5682 30.8273 96.6118 30.8997C96.6553 30.9721 96.6797 31.0544 96.6826 31.1389C96.7216 31.3192 96.739 31.5035 96.7345 31.6879C96.8596 31.7153 97.5793 31.8861 97.5854 32.243C97.5634 32.7918 97.4606 33.3345 97.2804 33.8534C97.2427 33.9456 97.1829 34.0272 97.1064 34.091C97.0298 34.1548 96.9388 34.1989 96.8412 34.2194L96.6277 35.1923C96.6277 35.1923 96.4417 36.7906 96.0848 37.5348L95.8134 37.977L95.731 39.9687L92.6322 38.6267Z" fill="#FFBE9D"/>
<path d="M95.4531 31.5384C95.3499 31.0286 95.1422 30.5457 94.8431 30.1201L94.1172 30.5837C94.2017 30.8306 94.3036 31.0711 94.4222 31.3035C94.4727 31.4407 94.5539 31.5646 94.6596 31.6656C94.7653 31.7665 94.8928 31.842 95.0322 31.8861C95.1938 31.9257 95.4012 31.8861 95.4531 31.7275C95.4683 31.6654 95.4683 31.6005 95.4531 31.5384Z" fill="#FFBE9D"/>
<path d="M94.1211 30.5833C94.1245 30.6346 94.1358 30.685 94.1546 30.7328C94.1977 30.8643 94.2497 30.9927 94.3102 31.1171C94.3468 31.1994 94.3834 31.2879 94.4261 31.3824C94.4726 31.4838 94.5343 31.5774 94.6091 31.66C94.6939 31.7541 94.7979 31.829 94.9141 31.8796C94.9782 31.9069 95.0472 31.9209 95.1169 31.9209C95.1866 31.9209 95.2556 31.9069 95.3197 31.8796C95.3541 31.8654 95.3851 31.8443 95.4108 31.8175C95.4365 31.7907 95.4564 31.7589 95.4692 31.724C95.4859 31.657 95.4859 31.5868 95.4692 31.5197C95.4497 31.3978 95.4212 31.2775 95.3838 31.1598C95.3228 30.963 95.2442 30.7721 95.1489 30.5894C95.0666 30.4308 94.9903 30.3119 94.9385 30.2295C94.9116 30.1853 94.881 30.1435 94.847 30.1045C94.867 30.1519 94.8904 30.1978 94.9171 30.2417C94.9659 30.3271 95.033 30.4491 95.1093 30.6077C95.1996 30.7912 95.2741 30.982 95.3319 31.1781C95.3644 31.2936 95.3908 31.4107 95.4112 31.5288C95.4251 31.586 95.4251 31.6456 95.4112 31.7027C95.4015 31.73 95.3862 31.755 95.3662 31.776C95.3463 31.797 95.3221 31.8136 95.2954 31.8247C95.2389 31.8488 95.1782 31.8612 95.1169 31.8612C95.0556 31.8612 94.9949 31.8488 94.9385 31.8247C94.8303 31.7792 94.7335 31.7105 94.6548 31.6234C94.5817 31.544 94.52 31.4547 94.4718 31.358C94.4291 31.2696 94.3925 31.1781 94.3529 31.0988C94.2882 30.977 94.2302 30.8517 94.179 30.7236C94.1635 30.6754 94.1441 30.6285 94.1211 30.5833Z" fill="#EB996E"/>
<path d="M95.2758 31.8646C95.2758 31.8646 95.2758 31.8646 95.2758 31.9073C95.2727 31.9489 95.2727 31.9907 95.2758 32.0323C95.2863 32.1851 95.3268 32.3343 95.3947 32.4715C95.4988 32.6745 95.6506 32.8493 95.837 32.9809C95.8934 33.0222 95.9578 33.0511 96.0261 33.0658C96.0945 33.0806 96.1651 33.0807 96.2335 33.0663C96.3087 33.0521 96.3766 33.0122 96.4256 32.9534C96.4744 32.8906 96.5012 32.8134 96.5019 32.7338C96.4937 32.5904 96.4701 32.4483 96.4317 32.3099C96.3982 32.1757 96.3616 32.0476 96.325 31.9256L96.1267 31.2851C96.0718 31.1051 96.0291 30.9557 96.0047 30.855C95.9944 30.7995 95.978 30.7453 95.9559 30.6934C95.9581 30.749 95.9663 30.8042 95.9803 30.8581C96.0017 30.9648 96.0352 31.1143 96.0871 31.2973C96.1389 31.4803 96.203 31.7029 96.2731 31.9408C96.3067 32.0628 96.3402 32.1909 96.3738 32.3221C96.4097 32.4557 96.4322 32.5926 96.4409 32.7308C96.4423 32.797 96.4208 32.8616 96.3799 32.9138C96.3385 32.962 96.283 32.9962 96.2213 33.0114C96.1602 33.0229 96.0974 33.022 96.0367 33.0089C95.9759 32.9958 95.9184 32.9707 95.8675 32.9351C95.6873 32.8178 95.5369 32.6601 95.4283 32.4746C95.3577 32.3439 95.3121 32.2011 95.2941 32.0537C95.2788 31.9378 95.2819 31.8646 95.2758 31.8646Z" fill="#EB996E"/>
<path d="M95.74 32.9042C95.74 32.9042 95.74 32.9042 95.7217 32.953C95.7034 33.0018 95.7034 33.0323 95.6912 33.0964C95.6628 33.2752 95.6628 33.4574 95.6912 33.6362C95.7267 33.9074 95.8524 34.1587 96.048 34.3499C96.1675 34.4657 96.3269 34.5312 96.4933 34.5329C96.5386 34.5321 96.5832 34.5223 96.6246 34.5039C96.666 34.4856 96.7033 34.4592 96.7343 34.4262C96.7934 34.3553 96.8296 34.268 96.838 34.1761C96.8613 33.8491 96.8613 33.5209 96.838 33.194C96.8136 32.889 96.7922 32.6297 96.7739 32.4009C96.7556 32.1722 96.7495 31.9922 96.7434 31.8672C96.7473 31.8012 96.7473 31.735 96.7434 31.6689C96.7434 31.6689 96.7434 31.6872 96.7434 31.7208C96.7434 31.7543 96.7434 31.8031 96.7434 31.8672C96.7434 31.9922 96.7434 32.1722 96.7434 32.404C96.7434 32.6358 96.777 32.9012 96.7953 33.2001C96.8168 33.522 96.8168 33.845 96.7953 34.1669C96.7882 34.2463 96.7574 34.3218 96.7068 34.3835C96.6819 34.4116 96.6514 34.4343 96.6173 34.45C96.5832 34.4658 96.5461 34.4743 96.5086 34.475C96.3572 34.4713 96.2126 34.4115 96.1029 34.3072C95.9135 34.1259 95.7901 33.8865 95.7522 33.6271C95.7059 33.3887 95.7017 33.144 95.74 32.9042Z" fill="#EB996E"/>
<path d="M76.51 31.9014L76.5405 31.8252L76.5863 31.8923C76.6226 31.9445 76.6735 31.9848 76.7327 32.0082L76.8059 32.0387L76.7418 32.0844C76.6877 32.1195 76.6461 32.1707 76.6229 32.2308L76.5924 32.304L76.5497 32.2369C76.5126 32.1855 76.4619 32.1453 76.4033 32.121L76.3301 32.0905L76.3941 32.0448C76.4455 32.0089 76.4857 31.9592 76.51 31.9014Z" fill="#E0E0E0"/>
<path d="M96.822 23.4776L96.8738 23.3525L96.9531 23.4623C97.015 23.5525 97.1019 23.6225 97.2032 23.6636L97.3283 23.7155L97.2185 23.7948C97.1276 23.8558 97.0574 23.943 97.0172 24.0449L96.9653 24.1699L96.886 24.0601C96.8242 23.97 96.7372 23.9 96.6359 23.8588L96.5078 23.807L96.6207 23.7277C96.71 23.6649 96.7798 23.5783 96.822 23.4776Z" fill="#E0E0E0"/>
<path d="M95.9289 18.9233L96.0143 18.7129L96.1485 18.8989C96.2525 19.0507 96.3989 19.1684 96.5694 19.2375L96.7799 19.3229L96.5938 19.4571C96.4428 19.5619 96.3252 19.708 96.2553 19.878L96.1699 20.0884L96.0387 19.9024C95.9328 19.7512 95.7857 19.6336 95.6147 19.5638L95.4043 19.4784L95.5904 19.3473C95.7416 19.2414 95.8591 19.0942 95.9289 18.9233Z" fill="#E0E0E0"/>
<path d="M85.6407 37.858L85.5645 37.6415L85.7871 37.6964C85.9658 37.7387 86.1528 37.7302 86.327 37.672L86.5435 37.5957L86.4917 37.8184C86.4462 37.9968 86.4547 38.1846 86.5161 38.3582L86.5893 38.5748L86.3666 38.5199C86.1879 38.4775 86.0009 38.486 85.8268 38.5443L85.6102 38.6205L85.6651 38.3979C85.7075 38.2191 85.699 38.0322 85.6407 37.858Z" fill="#E0E0E0"/>
<path d="M81.9378 30.0348C81.5505 30.5015 81.1509 30.9498 80.7758 31.4317C80.6093 31.6326 80.4887 31.8674 80.4223 32.1197C80.3559 32.3721 80.3454 32.6359 80.3915 32.8927C80.45 33.1536 80.5613 33.3997 80.7187 33.6158C80.8761 33.832 81.0761 34.0135 81.3065 34.1493C82.7308 35.1253 84.4754 35.9488 86.2444 35.7322C87.4468 35.562 88.5382 34.9377 89.2945 33.9876C89.3563 33.9096 89.3852 33.8106 89.375 33.7116C89.3648 33.6126 89.3163 33.5215 89.2399 33.4578C89.1634 33.394 89.0651 33.3628 88.9658 33.3706C88.8666 33.3784 88.7744 33.4247 88.7089 33.4996C88.1414 34.221 87.3436 34.7259 86.4488 34.9301C85.6768 35.0642 84.8835 35.0001 84.143 34.744C83.4334 34.5091 82.7569 34.1842 82.13 33.7772C81.7975 33.6125 81.5042 33.3785 81.2699 33.0909C81.1615 32.9104 81.112 32.7006 81.1284 32.4907C81.1448 32.2808 81.2262 32.0812 81.3614 31.9197C81.7365 31.4439 82.1391 31.0047 82.5265 30.5228C82.5912 30.4447 82.6222 30.3442 82.6128 30.2432C82.6034 30.1423 82.5542 30.0492 82.4761 29.9845C82.3981 29.9198 82.2975 29.8887 82.1966 29.8981C82.0956 29.9076 82.0025 29.9567 81.9378 30.0348Z" fill="#C8A455"/>
<path d="M89.8683 21.6196C90.2343 21.1804 90.5972 20.7412 90.9632 20.3051C91.0581 20.1715 91.1821 20.0612 91.3258 19.9825C91.4695 19.9037 91.6292 19.8587 91.7928 19.8506C92.2442 19.8506 92.5279 20.1556 92.8176 20.4606C93.8424 21.5159 94.7941 22.8701 94.8978 24.3829C94.9429 25.3993 94.5956 26.394 93.9278 27.1615C93.866 27.2395 93.8371 27.3385 93.8473 27.4375C93.8575 27.5366 93.906 27.6276 93.9824 27.6914C94.0589 27.7551 94.1572 27.7864 94.2565 27.7786C94.3557 27.7707 94.4479 27.7244 94.5135 27.6495C95.2237 26.8304 95.6364 25.7954 95.6847 24.7123C95.6824 23.7736 95.4353 22.8516 94.9679 22.0375C94.5449 21.2804 94.0206 20.5847 93.4093 19.9696C93.1065 19.5838 92.6972 19.2954 92.232 19.14C91.9575 19.0716 91.6704 19.0705 91.3953 19.1369C91.1203 19.2033 90.8653 19.3351 90.6521 19.5212C90.156 20.0209 89.6983 20.5572 89.2827 21.1255C89.2504 21.164 89.2261 21.2084 89.211 21.2563C89.1959 21.3041 89.1904 21.3545 89.1948 21.4045C89.1992 21.4545 89.2134 21.5031 89.2366 21.5476C89.2598 21.5921 89.2915 21.6316 89.3299 21.6639C89.3684 21.6961 89.4128 21.7205 89.4607 21.7355C89.5086 21.7506 89.5589 21.7561 89.6089 21.7517C89.6589 21.7473 89.7075 21.7331 89.752 21.7099C89.7965 21.6868 89.836 21.655 89.8683 21.6166V21.6196Z" fill="#C8A455"/>
<path d="M95.3433 32.3496L94.5411 32.9596V32.984H94.5198L94.0684 33.899C94.0684 33.899 95.4744 35.2441 96.0722 36.705L97.2617 35.2807L97.2922 35.241L98.4817 33.8167C96.9201 33.4934 95.3433 32.3496 95.3433 32.3496Z" fill="#C8A455"/>
<path d="M95.6875 32.1699L93.9429 34.2622C93.8893 34.3268 93.8235 34.3803 93.7493 34.4194C93.675 34.4585 93.5937 34.4826 93.5101 34.4903C93.4265 34.4979 93.3422 34.489 93.2621 34.464C93.1819 34.439 93.1075 34.3984 93.0431 34.3445C92.9762 34.2908 92.9209 34.2242 92.8803 34.1486C92.8398 34.073 92.8149 33.99 92.8073 33.9045C92.7996 33.8191 92.8092 33.733 92.8356 33.6514C92.862 33.5698 92.9045 33.4943 92.9608 33.4295L94.7054 31.3372C94.7589 31.2726 94.8247 31.2191 94.899 31.18C94.9733 31.1408 95.0545 31.1168 95.1381 31.1091C95.2218 31.1014 95.306 31.1104 95.3862 31.1354C95.4663 31.1604 95.5407 31.201 95.6051 31.2549C95.672 31.3086 95.7274 31.3752 95.7679 31.4508C95.8085 31.5264 95.8333 31.6094 95.841 31.6948C95.8487 31.7803 95.8391 31.8664 95.8127 31.948C95.7863 32.0296 95.7437 32.1051 95.6875 32.1699Z" fill="#C8A455"/>
<path d="M88.4382 19.5088L84.3206 24.4559L84.101 24.7182L80.2031 29.3878C80.2733 29.5037 89.5911 38.0925 93.9678 32.4988C98.6954 27.1704 88.5693 19.5606 88.4382 19.5088Z" fill="#C8A455"/>
<path d="M88.4387 19.5088C88.4738 19.5247 88.5067 19.5452 88.5363 19.5698C88.6004 19.6125 88.6919 19.6765 88.8078 19.768C89.0457 19.9449 89.3873 20.2164 89.8143 20.5854C91.0214 21.6208 92.1218 22.7744 93.0991 24.0289C93.7782 24.8976 94.3411 25.8511 94.7736 26.8654C95.305 28.0345 95.4275 29.3484 95.1213 30.5956C94.9315 31.2614 94.5984 31.8777 94.1453 32.4012C93.716 32.9794 93.1771 33.4676 92.5593 33.8378C91.9049 34.2047 91.1738 34.4136 90.4243 34.4478C89.6587 34.4823 88.8923 34.399 88.152 34.2007C86.5798 33.7536 85.0853 33.0686 83.7204 32.1694C83.0585 31.7485 82.4302 31.3062 81.8324 30.8518C81.5274 30.623 81.2468 30.3912 80.9692 30.1594L80.5544 29.8056C80.4172 29.6806 80.2952 29.583 80.1488 29.4305L80.1152 29.3939L80.1549 29.3451C82.5949 26.4323 84.6659 23.9679 86.1268 22.2233L87.8287 20.2103L88.2801 19.6826L88.3991 19.5515C88.4109 19.536 88.4242 19.5217 88.4387 19.5088C88.4286 19.5275 88.4163 19.5449 88.4021 19.5606L88.2862 19.704L87.844 20.253L86.1726 22.2935L80.2677 29.4244L80.2189 29.3756L80.2738 29.342L80.2921 29.3603L80.3409 29.403L80.4385 29.4945L80.6368 29.6684L81.0607 30.0344C81.3413 30.2662 81.628 30.4919 81.9239 30.7176C82.5187 31.169 83.1439 31.6082 83.8027 32.026C85.1558 32.9173 86.6368 33.5971 88.1947 34.0421C88.9192 34.236 89.6689 34.3182 90.4182 34.2861C91.1429 34.251 91.8497 34.0485 92.483 33.6944C93.0848 33.3331 93.6109 32.8587 94.0325 32.2975C94.473 31.79 94.7978 31.1925 94.9841 30.5468C95.2841 29.3302 95.1682 28.0481 94.6547 26.9051C94.2305 25.9031 93.679 24.96 93.0137 24.0991C92.0467 22.8428 90.9621 21.6816 89.7746 20.6312C89.3537 20.2743 89.0213 19.9693 88.7925 19.7924L88.5302 19.582L88.4387 19.5088Z" fill="#263238"/>
<g opacity="0.3">
<path d="M88.4381 19.5088C89.0481 20.009 89.6246 20.4573 90.1644 20.9484C93.8092 24.2577 96.1577 28.0031 94.8431 31.1812L93.8366 32.7062C93.8366 32.7062 94.898 28.8083 92.9216 25.9962C90.9452 23.1841 88.2246 19.9846 88.2246 19.9846L88.4381 19.5088Z" fill="black"/>
</g>
<path d="M100.986 33.0299L95.8466 39.1849C95.6464 39.0181 95.481 38.8136 95.3599 38.5829C95.2388 38.3522 95.1644 38.0999 95.1409 37.8404C95.1174 37.5809 95.1453 37.3194 95.2229 37.0707C95.3005 36.822 95.4264 36.591 95.5934 36.391L98.1981 33.2831C98.3648 33.0829 98.5694 32.9175 98.8001 32.7964C99.0308 32.6754 99.2831 32.6009 99.5425 32.5774C99.802 32.5539 100.064 32.5818 100.312 32.6594C100.561 32.7371 100.792 32.863 100.992 33.0299H100.986Z" fill="#C8A455"/>
<path d="M101.751 31.9536L94.8535 40.2324L98.8371 43.5514L105.735 35.2726L101.751 31.9536Z" fill="#263238"/>
<path d="M101.754 34.0455L96.875 39.9014L98.8269 41.5277L103.706 35.6718L101.754 34.0455Z" fill="#455A64"/>
<path d="M86.8549 26.4235L88.7764 26.8871L90.2495 25.5664L90.402 27.5367L92.1161 28.528L90.2861 29.2844L89.8744 31.2211L88.5903 29.7144L86.623 29.9188L87.657 28.2321L86.8549 26.4235Z" fill="white"/>
<path d="M91.872 33.4261L91.8476 33.4474L91.7775 33.5023C91.6814 33.5704 91.5793 33.6296 91.4725 33.6792C91.3083 33.7571 91.1352 33.8145 90.957 33.85C90.7223 33.8982 90.4829 33.9197 90.2433 33.9141C89.9526 33.9099 89.6627 33.8803 89.3771 33.8256L88.8983 33.7341C88.7366 33.6975 88.5719 33.6518 88.4011 33.6121C87.6675 33.4085 86.9531 33.1411 86.2661 32.813C85.5767 32.4865 84.9075 32.1188 84.2622 31.712C83.6522 31.3399 83.1398 30.98 82.7037 30.678C82.2675 30.3761 81.9198 30.1168 81.6819 29.9399L81.4227 29.7294L81.3495 29.6776L81.3281 29.6562L81.3525 29.6745L81.4227 29.7294L81.7002 29.9277C81.9442 30.1016 82.295 30.3517 82.7311 30.6536C83.1673 30.9556 83.6919 31.3124 84.2897 31.6815C84.9314 32.0862 85.5965 32.4529 86.2813 32.7795C86.9688 33.1057 87.6831 33.3721 88.4164 33.5755C88.5872 33.6182 88.7519 33.664 88.9135 33.7006L89.3893 33.7951C89.6741 33.8481 89.9628 33.8777 90.2525 33.8836C90.4908 33.8911 90.7292 33.8717 90.9631 33.8256C91.1399 33.7914 91.3119 33.7361 91.4755 33.6609C91.582 33.6131 91.6841 33.5559 91.7805 33.4901L91.8537 33.4383L91.872 33.4261Z" fill="white"/>
<path d="M93.1402 33.6426C93.1229 33.6856 93.1116 33.7307 93.1066 33.7768C93.1033 33.8337 93.1128 33.8907 93.1345 33.9435C93.1561 33.9963 93.1893 34.0435 93.2317 34.0818C93.3163 34.154 93.415 34.2079 93.5214 34.2404C93.6007 34.2678 93.6526 34.2831 93.6526 34.2861C93.6048 34.2859 93.5573 34.2776 93.5123 34.2617C93.3998 34.2344 93.2954 34.1811 93.2073 34.1062C93.1662 34.0669 93.1339 34.0195 93.1124 33.967C93.0908 33.9144 93.0805 33.8579 93.0822 33.8012C93.0867 33.7658 93.0981 33.7316 93.1158 33.7005L93.1402 33.6426Z" fill="white"/>
<path d="M95.8946 36.3724C95.8946 36.3724 95.8733 36.3999 95.8367 36.4517C95.7815 36.5222 95.7315 36.5966 95.6872 36.6744C95.5375 36.9308 95.4469 37.2173 95.4219 37.5131C95.4005 37.8095 95.4431 38.107 95.5469 38.3854C95.5795 38.469 95.6172 38.5505 95.6598 38.6294C95.677 38.6574 95.6913 38.687 95.7025 38.7179L95.6872 38.6996L95.6476 38.6355C95.6019 38.5579 95.5611 38.4774 95.5256 38.3946C95.4127 38.1152 95.3658 37.8136 95.3883 37.5131C95.4215 37.1202 95.5737 36.7468 95.8245 36.4426L95.8763 36.3877C95.8763 36.3877 95.8946 36.3694 95.8946 36.3724Z" fill="white"/>
<path d="M94.2138 34.2648C94.5681 33.9181 94.8483 33.503 95.0373 33.0448C95.1295 32.8167 95.153 32.5667 95.1047 32.3255C95.0565 32.0843 94.9387 31.8625 94.7659 31.6875L92.6309 34.1275L95.0221 37.2477C95.7144 36.0582 95.1471 34.646 94.2138 34.2648Z" fill="#FFBE9D"/>
<path d="M95.4538 36.7447C95.4538 36.7447 95.4538 36.7263 95.4538 36.6897C95.4538 36.6531 95.4782 36.6013 95.4873 36.5281C95.521 36.321 95.521 36.1099 95.4873 35.9028C95.4356 35.5852 95.3159 35.2825 95.1366 35.0153C94.9123 34.6738 94.5947 34.4039 94.2216 34.2375V34.2833C94.3971 34.0954 94.5621 33.8978 94.7157 33.6916C94.8838 33.4704 95.0099 33.2202 95.0878 32.9535C95.144 32.722 95.144 32.4804 95.0878 32.2489C95.0404 32.0274 94.924 31.8267 94.7553 31.6755L94.734 31.6572L94.7157 31.6786L93.1907 33.4476L92.7545 33.96L92.6386 34.1003C92.6112 34.1338 92.599 34.1491 92.602 34.1521L92.6447 34.1064L92.7667 33.9752L93.2181 33.4689L94.7584 31.7182H94.7187C94.8744 31.863 94.981 32.0528 95.0237 32.2611C95.0724 32.484 95.0661 32.7153 95.0054 32.9352C94.931 33.1953 94.809 33.4394 94.6455 33.655C94.4942 33.8595 94.3324 34.056 94.1606 34.2436L94.1331 34.2711H94.1697C94.5404 34.4297 94.858 34.6911 95.0847 35.0244C95.2622 35.2854 95.3837 35.5804 95.4416 35.8906C95.4787 36.0918 95.4859 36.2974 95.4629 36.5006C95.4782 36.6684 95.4538 36.7447 95.4538 36.7447Z" fill="#EB996E"/>
<path d="M95.5664 36.5709C96.4357 35.4271 97.5062 34.2376 98.3755 33.0908L95.5664 36.5709Z" fill="#034C82"/>
<path d="M98.3755 33.085C97.9853 33.7233 97.5349 34.3228 97.0304 34.8753C96.6553 35.3237 96.3137 35.7263 96.0117 36.0953C95.8825 36.2727 95.7331 36.4344 95.5664 36.5772C95.9557 35.9391 96.4051 35.3396 96.9084 34.7869L97.9302 33.5669C98.0615 33.3912 98.2107 33.2297 98.3755 33.085Z" fill="#263238"/>
<path d="M59.3324 116.206L58.9511 116.112C58.9511 116.112 54.7329 121.959 53.4824 121.724L56.7459 108.844L60.9855 110.106C59.613 111.796 59.006 113.776 59.3324 116.206Z" fill="#455A64"/>
<path d="M59.2865 111.061C59.28 110.928 59.2244 110.801 59.1304 110.706C59.0364 110.611 58.9107 110.554 58.7772 110.546C58.6438 110.548 58.5162 110.601 58.4204 110.694C58.3247 110.787 58.2679 110.913 58.2617 111.046C58.2683 111.187 58.3272 111.321 58.427 111.422C58.5268 111.522 58.6603 111.582 58.8016 111.589C58.9407 111.573 59.0683 111.504 59.1575 111.396C59.2468 111.288 59.2908 111.149 59.2804 111.009" fill="white"/>
<path d="M56.7455 108.844L57.7642 109.149L54.278 121.379C54.278 121.379 53.8815 121.889 53.4941 121.724L56.7455 108.844Z" fill="#263238"/>
<path d="M58.9018 116.148C58.8408 116.13 58.9018 115.807 58.7676 115.447C58.6334 115.087 58.4199 114.855 58.4626 114.803C58.5053 114.752 58.8438 114.938 58.9841 115.377C59.1244 115.816 58.9567 116.176 58.9018 116.148Z" fill="#263238"/>
<path d="M58.0027 117.356C57.9387 117.356 57.899 117.051 57.6977 116.777C57.4964 116.502 57.2189 116.362 57.2372 116.301C57.2555 116.24 57.6215 116.301 57.8777 116.643C58.1339 116.984 58.0637 117.372 58.0027 117.356Z" fill="#263238"/>
<path d="M56.1897 117.714C56.1897 117.656 56.5282 117.647 56.8302 117.897C57.1321 118.147 57.1962 118.473 57.1352 118.485C57.0742 118.497 56.9369 118.272 56.6838 118.07C56.4306 117.869 56.1805 117.778 56.1897 117.714Z" fill="#263238"/>
<path d="M72.6821 143.757L72.5357 144.096C72.5357 144.096 77.2601 148.872 76.8514 149.986L65.5176 145.02L67.3293 141.317C67.9947 142.084 68.817 142.698 69.7405 143.119C70.664 143.54 71.6671 143.758 72.6821 143.757Z" fill="#455A64"/>
<path d="M67.9485 143.01C67.8249 142.994 67.7 143.026 67.598 143.097C67.496 143.169 67.4242 143.276 67.3965 143.397C67.3773 143.52 67.4057 143.645 67.476 143.748C67.5463 143.851 67.6531 143.923 67.7747 143.949C67.9058 143.964 68.0376 143.929 68.1451 143.853C68.2525 143.776 68.328 143.663 68.3572 143.534C68.3641 143.404 68.3202 143.277 68.2349 143.178C68.1496 143.08 68.0294 143.018 67.8997 143.007" fill="white"/>
<path d="M65.5176 145.02L65.9537 144.13L76.6562 149.23C76.6562 149.23 77.0649 149.669 76.8514 150.001L65.5176 145.02Z" fill="#263238"/>
<path d="M72.5778 144.145C72.5504 144.2 72.2728 144.106 71.9129 144.164C71.553 144.222 71.3029 144.389 71.2724 144.347C71.2419 144.304 71.4554 144.017 71.8824 143.953C72.3094 143.889 72.5961 144.106 72.5778 144.145Z" fill="#263238"/>
<path d="M73.5323 145.16C73.5323 145.218 73.2426 145.206 72.9498 145.358C72.657 145.511 72.4984 145.733 72.4435 145.706C72.3886 145.678 72.4923 145.352 72.8552 145.172C73.2182 144.992 73.5567 145.105 73.5323 145.16Z" fill="#263238"/>
<path d="M73.5837 146.878C73.5288 146.878 73.5837 146.573 73.846 146.317C74.1083 146.06 74.4347 146.069 74.4377 146.127C74.4408 146.185 74.209 146.274 73.9863 146.475C73.7637 146.676 73.6417 146.899 73.5837 146.878Z" fill="#263238"/>
<path d="M67.0872 53.0253C67.0664 52.9122 67.0044 52.8109 66.9131 52.741C66.8217 52.6711 66.7077 52.6376 66.5931 52.6471H66.5626C66.4779 52.664 66.4 52.7054 66.3385 52.7661C66.2771 52.8268 66.2347 52.9041 66.2167 52.9886C66.1987 53.0731 66.2059 53.161 66.2373 53.2415C66.2687 53.322 66.323 53.3915 66.3934 53.4415C66.4639 53.4915 66.5474 53.5197 66.6338 53.5227C66.7201 53.5258 66.8054 53.5034 66.8792 53.4585C66.953 53.4136 67.012 53.3481 67.049 53.27C67.086 53.1919 67.0993 53.1047 67.0872 53.0192V53.0253Z" fill="#455A64"/>
<path d="M67.5176 59.5194L70.2016 66.9309L76.6402 77.3924L76.8323 66.2934L74.981 57.7168H74.8315L73.5017 63.3868L71.7357 61.2518L67.7189 58.4549L67.5176 59.5194Z" fill="#FAFAFA"/>
<path d="M76.0097 62.4836C75.8567 62.3324 75.7197 62.1658 75.601 61.9864C75.479 61.8309 75.3326 61.6448 75.1618 61.4435C74.9851 61.2223 74.78 61.0254 74.5518 60.8579L74.6707 60.8061C74.6456 60.9096 74.614 61.0115 74.5762 61.1111C74.3139 61.7668 74.0119 62.3158 73.8167 62.7276C73.6215 63.1393 73.527 63.3986 73.5117 63.3955C73.5338 63.146 73.6054 62.9034 73.7222 62.6818C73.8899 62.2579 74.1797 61.6936 74.4328 61.0562C74.4683 60.9667 74.4978 60.875 74.5213 60.7817L74.5487 60.6719L74.6402 60.7329C74.8832 60.9089 75.0981 61.1208 75.2777 61.3612C75.4454 61.5716 75.5827 61.7699 75.6955 61.9346C75.8238 62.1031 75.9294 62.2876 76.0097 62.4836Z" fill="#263238"/>
<path d="M76.6397 77.392C76.5841 77.2201 76.5443 77.0435 76.5207 76.8643C76.4475 76.4983 76.3499 76.0103 76.234 75.4217C75.987 74.2017 75.624 72.5272 75.2123 70.6759C74.8005 68.8245 74.4223 67.1744 74.1448 65.9361C74.0136 65.3505 73.9069 64.8656 73.8398 64.4996C73.7925 64.3247 73.7599 64.1461 73.7422 63.9658C73.8066 64.1346 73.8586 64.3079 73.8977 64.4843C73.9892 64.8198 74.1143 65.3078 74.2668 65.9117C74.5718 67.1317 74.9652 68.7879 75.377 70.6393C75.7887 72.4906 76.1365 74.1773 76.3561 75.4003C76.4628 76.0103 76.5482 76.5105 76.594 76.8552C76.6206 77.033 76.6359 77.2123 76.6397 77.392Z" fill="#263238"/>
<path d="M75.3904 57.1212C73.6061 58.4236 69.7051 58.6615 68.0551 58.5547C65.8316 58.3992 63.4282 57.4842 61.2932 56.9108C59.0697 56.3282 57.0232 56.3648 54.8058 56.682C52.5884 56.9992 49.9441 58.512 48.6387 60.3054L49.5537 61.2845C49.5537 61.2845 52.6037 58.7499 55.3853 58.3778C58.051 58.0271 59.698 58.5944 62.8273 59.4209C66.3898 60.3634 70.6964 60.156 72.0536 59.79C73.3595 59.4232 74.6078 58.8761 75.7625 58.1643L75.3904 57.1212Z" fill="#455A64"/>
<path d="M68.1582 61.2852C68.2539 61.3361 68.343 61.3986 68.4236 61.4712C68.5852 61.5963 68.817 61.7762 69.1037 62.0172C69.6741 62.4838 70.4549 63.1396 71.3089 63.8685L71.3546 63.9082L71.2265 63.9509C71.3729 63.2707 71.5132 62.6333 71.6352 62.0751L71.6596 61.9623L71.745 62.0324C72.233 62.4289 72.6356 62.7614 72.9162 62.9962C73.0695 63.1127 73.2115 63.2434 73.3402 63.3866C73.1717 63.293 73.0124 63.1838 72.8644 63.0603C72.5594 62.8437 72.1537 62.5265 71.6596 62.1453L71.7694 62.1056L71.3821 63.9875L71.3546 64.1186L71.2509 64.0302L71.2052 63.9905C70.3512 63.2616 69.5826 62.5936 69.0305 62.1056C68.753 61.8616 68.5334 61.6603 68.3809 61.52C68.2969 61.4516 68.222 61.3727 68.1582 61.2852Z" fill="#263238"/>
<path d="M46.2694 68.5958C46.2877 68.4768 45.6594 66.0765 45.6594 66.0765L42.6094 64.6826L43.1462 67.4642C43.4932 67.8081 43.8576 68.1338 44.2381 68.4402C44.2899 68.4219 46.2694 68.5958 46.2694 68.5958Z" fill="#EB996E"/>
<path d="M50.8532 63.4812C50.9215 64.2831 50.7505 65.0872 50.3618 65.7919C49.973 66.4965 49.3841 67.0701 48.6694 67.44C47.9546 67.8099 47.1463 67.9595 46.3465 67.87C45.5467 67.7805 44.7915 67.4558 44.1763 66.937C43.561 66.4182 43.1135 65.7286 42.8902 64.9554C42.6669 64.1822 42.6779 63.3602 42.9219 62.5933C43.1658 61.8264 43.6317 61.149 44.2606 60.6469C44.8895 60.1448 45.6532 59.8405 46.4551 59.7724C47.5301 59.6812 48.5974 60.0206 49.4221 60.7161C50.2469 61.4116 50.7617 62.4062 50.8532 63.4812Z" fill="#034C82"/>
<g opacity="0.3">
<path d="M50.8532 63.4812C50.9215 64.2831 50.7505 65.0872 50.3618 65.7919C49.973 66.4965 49.3841 67.0701 48.6694 67.44C47.9546 67.8099 47.1463 67.9595 46.3465 67.87C45.5467 67.7805 44.7915 67.4558 44.1763 66.937C43.561 66.4182 43.1135 65.7286 42.8902 64.9554C42.6669 64.1822 42.6779 63.3602 42.9219 62.5933C43.1658 61.8264 43.6317 61.149 44.2606 60.6469C44.8895 60.1448 45.6532 59.8405 46.4551 59.7724C47.5301 59.6812 48.5974 60.0206 49.4221 60.7161C50.2469 61.4116 50.7617 62.4062 50.8532 63.4812Z" fill="black"/>
</g>
<path d="M50.8532 62.9529C50.9215 63.7548 50.7505 64.5589 50.3618 65.2635C49.973 65.9682 49.3841 66.5417 48.6694 66.9117C47.9546 67.2816 47.1463 67.4312 46.3465 67.3417C45.5467 67.2521 44.7915 66.9274 44.1763 66.4086C43.561 65.8898 43.1135 65.2002 42.8902 64.4271C42.6669 63.6539 42.6779 62.8319 42.9219 62.065C43.1658 61.298 43.6317 60.6207 44.2606 60.1186C44.8895 59.6165 45.6532 59.3121 46.4551 59.2441C47.5301 59.1528 48.5974 59.4923 49.4221 60.1878C50.2469 60.8833 50.7617 61.8779 50.8532 62.9529Z" fill="#034C82"/>
<g opacity="0.3">
<path d="M43.9563 63.7102C43.8862 62.8811 44.1482 62.0581 44.6847 61.4221C45.2211 60.7861 45.9882 60.3892 46.8172 60.3185H46.9484C46.5231 60.2943 46.0973 60.357 45.6971 60.5028C45.2968 60.6486 44.9305 60.8745 44.6204 61.1665C44.3103 61.4586 44.063 61.8108 43.8935 62.2017C43.7241 62.5925 43.636 63.0137 43.6348 63.4397C43.6335 63.8657 43.7191 64.2875 43.8863 64.6793C44.0534 65.0711 44.2987 65.4248 44.6071 65.7186C44.9154 66.0125 45.2805 66.2405 45.6799 66.3886C46.0793 66.5368 46.5047 66.602 46.9301 66.5802C46.1707 66.5437 45.4505 66.2325 44.9034 65.7045C44.3564 65.1765 44.0198 64.4678 43.9563 63.7102Z" fill="black"/>
</g>
<g opacity="0.3">
<path d="M48.4941 60.8026L49.1621 59.9883L49.6714 60.4214L48.9547 61.1656L48.4941 60.8026Z" fill="white"/>
</g>
<path d="M49.9214 63.1755C49.8731 62.924 49.8099 62.6755 49.7323 62.4313C49.4919 61.7742 49.0403 61.2153 48.4483 60.8423C48.0129 60.5702 47.5165 60.4112 47.0041 60.3797C46.4916 60.3483 45.9795 60.4454 45.5142 60.6623C45.2464 60.7852 44.9986 60.9477 44.7791 61.1442C44.5462 61.3459 44.3475 61.5838 44.1905 61.8488C43.8506 62.4033 43.6969 63.0519 43.7518 63.6999C43.8067 64.3479 44.0672 64.9614 44.4955 65.4508C44.6956 65.6845 44.9313 65.8852 45.1939 66.0456C45.4436 66.2035 45.7163 66.3218 46.0022 66.3963C46.4175 66.5078 46.8515 66.5317 47.2766 66.4664C47.7017 66.4012 48.1085 66.2483 48.4714 66.0174C48.8342 65.7865 49.145 65.4827 49.3842 65.1253C49.6233 64.7678 49.7855 64.3646 49.8604 63.9411C49.897 63.6875 49.9174 63.4318 49.9214 63.1755C49.963 63.4331 49.963 63.6957 49.9214 63.9533C49.8541 64.395 49.6942 64.8174 49.4522 65.193C49.2102 65.5685 48.8916 65.8887 48.5173 66.1326C48.1429 66.3765 47.7213 66.5386 47.28 66.6082C46.8387 66.6778 46.3876 66.6535 45.9564 66.5366C45.343 66.3737 44.7919 66.0318 44.3735 65.5545C43.9188 65.0395 43.6424 64.3916 43.5853 63.7069C43.5281 63.0223 43.6933 62.3375 44.0563 61.7542C44.2202 61.479 44.426 61.231 44.6663 61.0192C44.8972 60.8136 45.1585 60.6448 45.441 60.519C45.9616 60.2805 46.5366 60.1857 47.1063 60.2445C47.7115 60.3086 48.2854 60.5458 48.7592 60.9277C49.2331 61.3096 49.5868 61.82 49.7781 62.3978C49.8693 62.6471 49.9178 62.9101 49.9214 63.1755Z" fill="#263238"/>
<path d="M45.305 59.8574C45.305 59.8849 45.0793 59.9459 44.7682 60.1624C44.3739 60.4602 44.029 60.8184 43.7465 61.2238C43.4526 61.6197 43.2448 62.0726 43.1365 62.5536C43.0511 62.9227 43.048 63.1636 43.0236 63.1636C42.9765 62.9558 42.9765 62.7401 43.0236 62.5323C43.1086 62.0216 43.3181 61.5397 43.6336 61.1293C43.9256 60.7083 44.2964 60.3478 44.7255 60.0679C44.8959 59.9461 45.0963 59.8734 45.305 59.8574Z" fill="white"/>
<path d="M46.0796 59.5831C46.0796 59.6258 46.0186 59.6807 45.9149 59.7112C45.8112 59.7417 45.7166 59.7112 45.7044 59.6838C45.6922 59.6563 45.7685 59.5831 45.8722 59.5557C45.9759 59.5282 46.0704 59.5404 46.0796 59.5831Z" fill="white"/>
<path d="M48.1233 65.7619C47.8131 65.9699 47.4593 66.1039 47.0891 66.1536C46.719 66.2033 46.3424 66.1674 45.9883 66.0486C45.9883 66.0028 46.4854 66.0791 47.0741 65.9967C47.6627 65.9144 48.105 65.7192 48.1233 65.7619Z" fill="white"/>
<path d="M49.9323 64.7343C49.8957 64.7099 49.9628 64.533 50.0207 64.3103C50.0787 64.0877 50.1031 63.8986 50.1488 63.8955C50.1946 63.8925 50.2403 64.0999 50.1732 64.35C50.1061 64.6001 49.9689 64.7587 49.9323 64.7343Z" fill="white"/>
<g opacity="0.3">
<path d="M47.2178 62.2578V65.0699H46.5651V62.7794H46.0039V62.2578H47.2178Z" fill="black"/>
</g>
<path d="M46.4576 68.2388C45.875 67.9979 43.7979 67.7447 43.7979 67.7447L43.9626 66.787C43.9626 66.787 45.1278 66.4393 45.4419 65.933C45.5309 65.7727 45.5796 65.5932 45.5839 65.4099C45.5881 65.2266 45.5478 65.045 45.4663 64.8808L44.8228 65.0638C45.1461 64.7344 44.96 64.0908 44.96 64.0908L44.2433 64.2433C44.3063 64.1963 44.3587 64.1365 44.397 64.0679C44.4353 63.9992 44.4587 63.9232 44.4656 63.8449C44.4725 63.7666 44.4628 63.6877 44.4371 63.6134C44.4114 63.5391 44.3703 63.471 44.3165 63.4137L43.7614 63.5937C44.0969 63.2277 43.499 62.8281 43.499 62.8281C43.499 62.8281 40.9736 64.7984 40.8089 65.0699C40.6442 65.3413 41.0072 66.0642 41.0072 66.0642C40.8057 66.2978 40.6764 66.585 40.6351 66.8907C40.6198 67.3116 41.1536 67.4672 41.1536 67.4672C41.1214 67.6904 41.136 67.9179 41.1963 68.1351C41.3 68.4828 42.9775 69.4528 42.9775 69.4528L45.1827 71.6762L47.4 68.6445C47.4 68.6445 47.0401 68.4798 46.4576 68.2388Z" fill="#FFBE9D"/>
<path d="M45.4325 64.9111C45.2652 65.0193 45.0789 65.0948 44.8835 65.1338C44.4295 65.2471 43.9832 65.3898 43.5476 65.5608C43.3162 65.6605 43.102 65.7964 42.9132 65.9634C42.7394 66.122 42.6082 66.2684 42.471 66.4148C42.2209 66.6832 42.0226 66.8052 42.0104 66.7869C41.9982 66.7686 42.1629 66.6252 42.3886 66.3416C42.5199 66.1714 42.6615 66.0095 42.8126 65.8566C43.0076 65.6712 43.2337 65.5215 43.4805 65.4144C43.9254 65.2401 44.386 65.1094 44.8561 65.024C45.0446 64.97 45.2375 64.9322 45.4325 64.9111Z" fill="#EB996E"/>
<path d="M45.0064 67.9616C45.0064 68.0012 44.4818 67.8853 43.7864 67.9158H43.6797L43.7102 67.8121C43.7498 67.6718 43.7895 67.5071 43.82 67.3607C43.8633 67.1505 43.8919 66.9375 43.9054 66.7233V66.6592H43.9725C44.2156 66.6322 44.4527 66.5652 44.674 66.461C44.8448 66.3908 44.9424 66.339 44.9515 66.3542C44.9607 66.3695 44.8783 66.4427 44.7167 66.5403C44.4908 66.68 44.2385 66.7714 43.9755 66.8087L44.0457 66.7385C44.0383 66.9609 44.0128 67.1822 43.9694 67.4004C43.9392 67.5572 43.8994 67.712 43.8505 67.864L43.7742 67.7633C44.1948 67.7324 44.6168 67.8003 45.0064 67.9616Z" fill="#EB996E"/>
<path d="M41.7148 65.8145C41.8164 65.6649 41.9386 65.5303 42.0778 65.4149L42.5048 64.994C42.5877 64.9041 42.6809 64.8243 42.7823 64.7561C42.893 64.6865 43.0093 64.6263 43.1301 64.5761C43.5467 64.4143 43.9762 64.2877 44.4141 64.1979C44.5916 64.1452 44.775 64.1144 44.9601 64.1064C44.8002 64.2008 44.6261 64.2688 44.4446 64.3077C44.1213 64.4114 43.6638 64.5304 43.1941 64.7225C43.0809 64.7682 42.9717 64.8233 42.8677 64.8872C42.7729 64.9488 42.685 65.0204 42.6054 65.1007L42.1571 65.4942C42.0255 65.6212 41.8766 65.7291 41.7148 65.8145Z" fill="#EB996E"/>
<path d="M41.2941 65.1678C41.2788 65.1495 41.4191 65.0062 41.657 64.7896L42.078 64.4175L42.3311 64.1979L42.4653 64.0851L42.5355 64.0271C42.5633 64.0062 42.5928 63.9879 42.6239 63.9722C43.0079 63.7991 43.4033 63.6524 43.8073 63.533C43.9696 63.4664 44.1416 63.4262 44.3167 63.4141C44.1704 63.5083 44.0125 63.5832 43.847 63.6367C43.542 63.7618 43.1272 63.9112 42.7002 64.1125L42.6331 64.1522L42.5629 64.2071L42.4287 64.3199L42.1695 64.5304L41.7272 64.8781C41.5976 64.995 41.4517 65.0926 41.2941 65.1678Z" fill="#EB996E"/>
<path d="M50.6505 47.5921L50.7633 47.3115L50.9372 47.5586C51.0768 47.7574 51.2705 47.9119 51.4953 48.0039L51.7759 48.1198L51.5289 48.2936C51.3293 48.4311 51.1745 48.6241 51.0836 48.8487L50.9677 49.1293L50.7938 48.8823C50.6542 48.6835 50.4605 48.5289 50.2357 48.437L49.9551 48.3211L50.2052 48.1472C50.4031 48.008 50.5575 47.8155 50.6505 47.5921Z" fill="#034C82"/>
<path d="M88.672 79.8285L88.7848 79.5479L88.9587 79.7949C89.0983 79.9937 89.292 80.1483 89.5168 80.2402L89.7974 80.3561L89.5473 80.53C89.3493 80.6704 89.195 80.8639 89.102 81.0881L88.9892 81.3657L88.8153 81.1186C88.6757 80.9198 88.482 80.7653 88.2572 80.6733L87.9766 80.5574L88.2267 80.3836C88.4245 80.2443 88.5789 80.0518 88.672 79.8285Z" fill="#034C82"/>
<path d="M95.2325 66.8166L95.3454 66.5391L95.5192 66.7861C95.6595 66.9842 95.853 67.1386 96.0774 67.2314L96.358 67.3473L96.1109 67.5212C95.9122 67.6596 95.7576 67.8523 95.6656 68.0763L95.5497 68.3569L95.3759 68.1098C95.2363 67.911 95.0426 67.7565 94.8177 67.6645L94.5371 67.5486L94.7872 67.3748C94.986 67.2352 95.1406 67.0415 95.2325 66.8166Z" fill="#034C82"/>
<path d="M39.7171 46.0591L39.7842 45.8975L39.8848 46.0408C39.9652 46.1567 40.0775 46.2467 40.2081 46.3001L40.3698 46.3672L40.2264 46.4678C40.1105 46.5482 40.0205 46.6605 39.9672 46.7911L39.9001 46.9528L39.7994 46.8094C39.719 46.6935 39.6067 46.6035 39.4761 46.5502L39.3145 46.4831L39.4578 46.3824C39.5737 46.302 39.6637 46.1897 39.7171 46.0591Z" fill="#034C82"/>
<path d="M89.0667 70.312L89.1338 70.1504L89.2344 70.2937C89.3147 70.4097 89.4271 70.4998 89.5577 70.553L89.7224 70.6201L89.576 70.7207C89.4617 70.8021 89.3729 70.9142 89.3198 71.044L89.2527 71.2057L89.1521 71.0623C89.0702 70.9478 88.9583 70.8581 88.8288 70.8031L88.6641 70.739L88.8074 70.6353C88.924 70.5557 89.0143 70.4432 89.0667 70.312Z" fill="#034C82"/>
<path d="M44.8573 37.4728L45.1287 37.0488L45.3605 37.5033C45.5465 37.8657 45.8322 38.1673 46.184 38.3725L46.6232 38.6287L46.1718 38.8605C45.8091 39.0471 45.5067 39.3327 45.2995 39.684L45.0433 40.1232L44.8115 39.6718C44.626 39.3083 44.3403 39.0056 43.988 38.7995L43.5488 38.5433L44.0033 38.3115C44.3628 38.1201 44.6594 37.8288 44.8573 37.4728Z" fill="#034C82"/>
</g>
<defs>
<filter id="filter0_d_30760_78411" x="0.0625" y="13.4434" width="139.875" height="144.558" filterUnits="userSpaceOnUse" color-interpolation-filters="sRGB">
<feFlood flood-opacity="0" result="BackgroundImageFix"/>
<feColorMatrix in="SourceAlpha" type="matrix" values="0 0 0 0 0 0 0 0 0 0 0 0 0 0 0 0 0 0 127 0" result="hardAlpha"/>
<feOffset dy="4"/>
<feGaussianBlur stdDeviation="2"/>
<feComposite in2="hardAlpha" operator="out"/>
<feColorMatrix type="matrix" values="0 0 0 0 0 0 0 0 0 0 0 0 0 0 0 0 0 0 0.25 0"/>
<feBlend mode="normal" in2="BackgroundImageFix" result="effect1_dropShadow_30760_78411"/>
<feBlend mode="normal" in="SourceGraphic" in2="effect1_dropShadow_30760_78411" result="shape"/>
</filter>
</defs>
</svg>
