<svg width="16" height="8" viewBox="0 0 16 8" fill="none" xmlns="http://www.w3.org/2000/svg">
<path d="M16.0001 4.46033C16.0001 4.46033 14.3682 4.40527 11.8123 6.60105C9.25641 8.79683 6.19494 7.89131 4.99634 7.32877C4.99634 7.32877 6.9057 7.63143 10.0506 4.92712C12.4766 2.84111 16.0001 4.46033 16.0001 4.46033Z" fill="#034C82"/>
<path d="M14.5992 3.08763C14.5992 3.08763 13.2275 1.9075 11.0181 1.9075C9.03974 1.9075 7.52487 3.51374 6.71116 2.46092C6.45949 2.13546 6.40081 1.70374 6.59603 1.34497C6.72925 1.10052 6.98646 0.878173 7.48022 0.878173C8.13008 0.878173 8.36109 1.39968 8.36109 1.39968C8.36109 1.39968 8.62089 0 7.00344 0C3.9833 0 2.68579 4.19938 0 4.22673C0 4.22673 2.27137 6.14265 4.40436 6.27136C7.86586 6.48073 10.166 1.59186 14.5992 3.08763Z" fill="#034C82"/>
</svg>
