<svg width="25" height="24" viewBox="0 0 25 24" fill="none" xmlns="http://www.w3.org/2000/svg">
<path fill-rule="evenodd" clip-rule="evenodd" d="M19.4571 8.79633C19.4571 10.0523 19.789 10.7925 20.5195 11.6456C21.0731 12.2741 21.25 13.0808 21.25 13.956C21.25 14.8302 20.9628 15.6601 20.3873 16.3339C19.634 17.1417 18.5715 17.6573 17.4872 17.747C15.9159 17.8809 14.3437 17.9937 12.7505 17.9937C11.1563 17.9937 9.58505 17.9263 8.01375 17.747C6.92846 17.6573 5.86602 17.1417 5.11367 16.3339C4.53822 15.6601 4.25 14.8302 4.25 13.956C4.25 13.0808 4.4279 12.2741 4.98049 11.6456C5.73384 10.7925 6.04392 10.0523 6.04392 8.79633V8.3703C6.04392 6.68834 6.46333 5.58852 7.327 4.51186C8.61106 2.9417 10.6694 2 12.7058 2H12.7952C14.8754 2 17.0002 2.98702 18.2625 4.62466C19.0814 5.67916 19.4571 6.73265 19.4571 8.3703V8.79633ZM9.82367 20.0608C9.82367 19.5573 10.2858 19.3266 10.7132 19.2279C11.2131 19.1222 14.2593 19.1222 14.7592 19.2279C15.1866 19.3266 15.6487 19.5573 15.6487 20.0608C15.6238 20.5402 15.3426 20.9653 14.954 21.2352C14.4501 21.628 13.8588 21.8767 13.2406 21.9664C12.8987 22.0107 12.5628 22.0117 12.2328 21.9664C11.6136 21.8767 11.0223 21.628 10.5194 21.2342C10.1298 20.9653 9.84852 20.5402 9.82367 20.0608Z" fill="#034C82"/>
</svg>
