<svg width="16" height="14" viewBox="0 0 16 14" fill="none" xmlns="http://www.w3.org/2000/svg">
<path d="M6.77016 9.08813H13.4303C13.7281 9.08813 13.9883 8.9043 14.0795 8.62985L15.9678 2.85093C16.0322 2.65156 15.9946 2.43408 15.8686 2.26578C15.7398 2.09749 15.536 1.9991 15.3214 1.9991L3.72842 2.00169L3.18391 0.797749C3.13831 0.699363 3.03906 0.637224 2.92909 0.637224H0.759095C0.678625 0.554372 0.565968 0.5 0.437217 0.5C0.195809 0.5 0 0.689006 0 0.924617C0 1.15764 0.195809 1.34664 0.437217 1.34664C0.582062 1.34664 0.710813 1.27933 0.7886 1.17317H2.74401L6.1425 8.69199C6.15054 8.71012 6.16396 8.72306 6.172 8.7386L5.62481 10.0332C5.54702 10.0228 5.46924 10.0176 5.39145 10.0176C4.39631 10.0176 3.58894 10.7995 3.58894 11.7601C3.58894 12.7207 4.39899 13.5 5.39145 13.5C6.29271 13.5 7.03839 12.8605 7.17251 12.0268H11.711C11.8451 12.8605 12.5908 13.5 13.492 13.5C14.4872 13.5 15.2946 12.7181 15.2946 11.7601C15.2946 10.8021 14.4845 10.0176 13.492 10.0176C12.5908 10.0176 11.8451 10.6571 11.711 11.4908H7.17787C7.08399 10.9135 6.69774 10.4293 6.16664 10.1859L6.63873 9.07001C6.68164 9.07777 6.72456 9.08813 6.77016 9.08813ZM12.8644 7.53465H7.17787C7.02498 7.53465 6.89891 7.41555 6.89891 7.26539C6.89891 7.1178 7.0223 6.99612 7.17787 6.99612H12.8644C13.0173 6.99612 13.1433 7.11522 13.1433 7.26539C13.1407 7.41555 13.0173 7.53465 12.8644 7.53465ZM13.3499 5.83878H6.69237C6.53948 5.83878 6.41341 5.71968 6.41341 5.56951C6.41341 5.42193 6.5368 5.30024 6.69237 5.30024H13.3499C13.5028 5.30024 13.6288 5.41934 13.6288 5.56951C13.6262 5.71968 13.5028 5.83878 13.3499 5.83878ZM6.01375 3.87622C6.01375 3.72864 6.13713 3.60695 6.29271 3.60695H13.7469C13.8997 3.60695 14.0258 3.72605 14.0258 3.87622C14.0258 4.0238 13.9024 4.14549 13.7469 4.14549H6.29271C6.13981 4.14549 6.01375 4.0238 6.01375 3.87622Z" fill="#034C82"/>
</svg>
