<svg width="390" height="16" viewBox="0 0 390 16" fill="none" xmlns="http://www.w3.org/2000/svg">
<g clip-path="url(#clip0_18_36232)">
<path d="M227.5 16L162.5 16L162.5 8.00001C162.5 3.58173 166.082 5.36936e-06 170.5 4.9831e-06L219.5 6.99382e-07C223.918 3.13124e-07 227.5 3.58172 227.5 8L227.5 16Z" fill="#034C82"/>
<path d="M198.333 8.94L195.473 6.11334C195.411 6.05085 195.338 6.00125 195.256 5.96741C195.175 5.93356 195.088 5.91614 195 5.91614C194.912 5.91614 194.825 5.93356 194.743 5.96741C194.662 6.00125 194.589 6.05085 194.527 6.11334L191.7 8.94C191.637 9.00198 191.588 9.07571 191.554 9.15695C191.52 9.23819 191.503 9.32533 191.503 9.41334C191.503 9.50134 191.52 9.58848 191.554 9.66972C191.588 9.75096 191.637 9.82469 191.7 9.88667C191.825 10.0108 191.994 10.0805 192.17 10.0805C192.346 10.0805 192.515 10.0108 192.64 9.88667L195 7.52667L197.36 9.88667C197.484 10.0098 197.652 10.0793 197.827 10.08C197.914 10.0805 198.001 10.0637 198.082 10.0305C198.164 9.99734 198.238 9.94846 198.3 9.88667C198.365 9.82692 198.417 9.75495 198.454 9.6749C198.49 9.59485 198.511 9.50831 198.514 9.42029C198.517 9.33226 198.503 9.2445 198.472 9.16206C198.441 9.07963 198.394 9.00415 198.333 8.94Z" fill="white"/>
</g>
<defs>
<clipPath id="clip0_18_36232">
<rect width="390" height="16" fill="white" transform="translate(390 16) rotate(180)"/>
</clipPath>
</defs>
</svg>
