<svg width="14" height="16" viewBox="0 0 14 16" fill="none" xmlns="http://www.w3.org/2000/svg">
<g clip-path="url(#clip0_31018_85427)">
<path d="M11.8517 4.71967L12.2455 4.08368L12.2813 4.01674L12.6752 4.21757C12.8184 4.28452 12.9974 4.25105 13.0691 4.11715L13.3197 3.71548C13.3913 3.58159 13.3555 3.41423 13.2123 3.34728L11.601 2.51046C11.4578 2.44351 11.2788 2.47699 11.2072 2.61088L10.9565 3.01255C10.8849 3.14644 10.9207 3.28033 11.0639 3.38075L11.4578 3.58159L11.0997 4.15063C10.0972 3.4477 8.87979 3.01255 7.55499 2.91213V2.17573V2.04184H8.52174C8.62916 2.04184 8.70077 2.00837 8.77238 1.94142C8.87979 1.841 8.98721 1.67364 8.98721 1.4728V0.502092C8.98721 0.23431 8.77238 0 8.52174 0H5.47826C5.22762 0 5.01279 0.267782 5.01279 0.569038V1.53975C5.01279 1.77406 5.1202 1.9749 5.29923 2.04184C5.29923 2.04184 5.29923 2.04184 5.33504 2.04184C5.37084 2.04184 5.37084 2.07531 5.40665 2.07531C5.44245 2.07531 5.47826 2.07531 5.51407 2.07531H6.48082V2.91213C2.82864 3.17992 0 5.99163 0 9.43933C0 13.0544 3.15089 16 7.0179 16C10.8849 16 14.0358 13.0544 14.0358 9.43933C14 7.59833 13.1765 5.92469 11.8517 4.71967ZM7.0179 14.5272C4.01023 14.5272 1.57545 12.251 1.57545 9.43933C1.57545 6.62761 4.01023 4.35146 7.0179 4.35146C10.0256 4.35146 12.4604 6.62761 12.4604 9.43933C12.4604 12.251 10.0256 14.5272 7.0179 14.5272Z" fill="#034C82"/>
<path d="M2.72124 9.57324H2.21997C2.14835 9.57324 2.11255 9.60672 2.11255 9.64019C2.11255 9.67366 2.14835 9.70713 2.21997 9.70713H2.72124C2.79286 9.70713 2.82866 9.67366 2.82866 9.64019C2.82866 9.60672 2.79286 9.57324 2.72124 9.57324Z" fill="#034C82"/>
<path d="M3.36578 11.5479L2.93611 11.7822C2.8645 11.8156 2.8645 11.8826 2.8645 11.9161C2.90031 11.9495 2.93611 11.9495 3.00772 11.9495L3.43739 11.7152C3.4732 11.6817 3.509 11.6483 3.4732 11.5813C3.4732 11.5479 3.40159 11.5479 3.36578 11.5479Z" fill="#034C82"/>
<path d="M4.97696 12.9878L4.72632 13.3895C4.69051 13.423 4.72632 13.4899 4.76212 13.5234C4.79793 13.5569 4.86954 13.5234 4.90535 13.4899L5.12018 13.0548C5.15599 13.0213 5.15599 12.9544 5.08437 12.9209C5.08437 12.9209 5.01276 12.9209 4.97696 12.9878Z" fill="#034C82"/>
<path d="M7.23274 13.3555C7.19694 13.3555 7.16113 13.3889 7.16113 13.4559V13.9245C7.16113 13.9915 7.19694 14.0249 7.23274 14.0249C7.26855 14.0249 7.30436 13.9915 7.30436 13.9245V13.4559C7.30436 13.3889 7.26855 13.3555 7.23274 13.3555Z" fill="#034C82"/>
<path d="M9.41686 12.7861C9.38106 12.7192 9.34525 12.6857 9.30945 12.7192C9.23784 12.7527 9.23784 12.7861 9.27364 12.8531L9.52428 13.2548C9.56009 13.2882 9.59589 13.3217 9.6675 13.2882C9.70331 13.2882 9.70331 13.2213 9.6675 13.1878L9.41686 12.7861Z" fill="#034C82"/>
<path d="M11.3146 11.4144L10.8849 11.2136C10.8133 11.1801 10.7775 11.1801 10.7417 11.2136C10.7059 11.2471 10.7417 11.314 10.7775 11.3475L11.2072 11.5818C11.243 11.6153 11.3146 11.6153 11.3504 11.5483C11.3862 11.5148 11.3504 11.4479 11.3146 11.4144Z" fill="#034C82"/>
<path d="M11.78 9.1377H11.2787C11.2071 9.1377 11.1713 9.17117 11.1713 9.20464C11.1713 9.23811 11.2071 9.27159 11.2787 9.27159H11.78C11.8516 9.27159 11.8874 9.23811 11.8874 9.20464C11.8874 9.17117 11.8516 9.1377 11.78 9.1377Z" fill="#034C82"/>
<path d="M11.1356 6.9626C11.0997 6.92913 11.0639 6.92913 10.9923 6.9626L10.5627 7.19691C10.5269 7.23039 10.491 7.26386 10.5269 7.29733C10.5627 7.33081 10.5985 7.33081 10.6701 7.29733L11.0997 7.0965C11.1356 7.06302 11.1714 6.99608 11.1356 6.9626Z" fill="#034C82"/>
<path d="M9.02304 5.89123L9.27368 5.48955C9.30949 5.45608 9.30949 5.38913 9.27368 5.35566C9.23788 5.32219 9.16627 5.35566 9.13046 5.38913L8.87982 5.82428C8.84402 5.85775 8.87982 5.9247 8.91563 5.95817C8.95143 5.95817 8.98724 5.95817 9.02304 5.89123Z" fill="#034C82"/>
<path d="M6.76729 5.52297C6.8031 5.52297 6.8389 5.4895 6.8389 5.42255V4.95393C6.8389 4.88699 6.8031 4.85352 6.76729 4.85352C6.73148 4.85352 6.69568 4.88699 6.69568 4.95393V5.42255C6.69568 5.4895 6.73148 5.52297 6.76729 5.52297Z" fill="#034C82"/>
<path d="M4.72632 6.15907C4.76213 6.1256 4.76213 6.09213 4.72632 6.02518L4.47568 5.62351C4.47568 5.59004 4.40407 5.55656 4.36826 5.59004C4.33246 5.59004 4.33246 5.65698 4.33246 5.72393L4.5831 6.1256C4.6189 6.15907 4.69051 6.19255 4.72632 6.15907Z" fill="#034C82"/>
<path d="M2.72128 7.46466L3.15095 7.69897C3.18675 7.69897 3.25836 7.69897 3.25836 7.6655C3.29417 7.63202 3.25836 7.56508 3.22256 7.53161L2.79289 7.33077C2.72128 7.2973 2.68547 7.2973 2.64967 7.33077C2.61386 7.36424 2.64967 7.43119 2.72128 7.46466Z" fill="#034C82"/>
<path d="M9.16624 7.16334C9.09463 7.09639 8.95141 7.09639 8.87979 7.16334L7.08951 8.97087C6.94629 8.9374 6.80307 8.97087 6.69565 9.07129L4.4399 7.09639C4.40409 7.06292 4.40409 7.06292 4.36829 7.09639C4.36829 7.09639 4.36829 7.12987 4.36829 7.16334L6.62404 9.10476C6.48082 9.3056 6.51662 9.57338 6.69565 9.74075C6.80307 9.84116 6.9821 9.87464 7.12532 9.84116L8.45013 10.9792C8.52174 11.0462 8.66496 11.0462 8.73657 10.9792L8.77238 10.9458C8.84399 10.8788 8.84399 10.7449 8.77238 10.678L7.44757 9.57338C7.48338 9.47296 7.48338 9.33907 7.44757 9.20518L9.20205 7.43112C9.27366 7.36418 9.27366 7.23029 9.16624 7.16334Z" fill="#034C82"/>
</g>
<defs>
<clipPath id="clip0_31018_85427">
<rect width="14" height="16" fill="white"/>
</clipPath>
</defs>
</svg>
