<svg width="14" height="14" viewBox="0 0 14 14" fill="none" xmlns="http://www.w3.org/2000/svg">
<path d="M2.34267 1.02349C2.30987 0.794244 2.36968 0.56139 2.50894 0.376149C2.5779 0.284427 2.66428 0.207156 2.76316 0.148747C2.86205 0.0903371 2.97149 0.0519335 3.08525 0.0357287C3.19901 0.019524 3.31485 0.0258356 3.42616 0.0543026C3.53748 0.0827696 3.64208 0.132835 3.734 0.20164C3.91965 0.340597 4.04237 0.54745 4.07517 0.776693L4.46717 3.52402H8.533L8.176 1.02698C8.15529 0.911566 8.15809 0.793173 8.18423 0.678863C8.21037 0.564552 8.25932 0.456666 8.32815 0.36164C8.39698 0.266615 8.48429 0.186397 8.58487 0.125772C8.68545 0.0651468 8.79723 0.0253565 8.91356 0.00877503C9.02988 -0.00780645 9.14836 -0.000839467 9.26193 0.0292602C9.3755 0.0593599 9.48182 0.111976 9.57457 0.183969C9.66731 0.255962 9.74458 0.345857 9.80175 0.448292C9.85892 0.550727 9.89483 0.663603 9.90733 0.780186L10.3017 3.52286H11.9583C12.1904 3.52271 12.413 3.61454 12.5772 3.77817C12.7414 3.9418 12.8338 4.16381 12.8339 4.39537C12.8341 4.62693 12.742 4.84906 12.578 5.01291C12.4141 5.17676 12.1916 5.26889 11.9595 5.26904H10.5513L11.0507 8.76141H13.125C13.3571 8.76141 13.5796 8.8534 13.7437 9.01714C13.9078 9.18087 14 9.40295 14 9.63451C14 9.86606 13.9078 10.0881 13.7437 10.2519C13.5796 10.4156 13.3571 10.5076 13.125 10.5076H11.2992L11.6562 13.0035C11.6724 13.117 11.6661 13.2326 11.6376 13.3436C11.609 13.4547 11.5588 13.5591 11.4899 13.6508C11.4209 13.7425 11.3346 13.8198 11.2357 13.8782C11.1368 13.9366 11.0273 13.975 10.9136 13.9912C10.7998 14.0074 10.684 14.0011 10.5727 13.9727C10.4614 13.9442 10.3568 13.8941 10.2648 13.8253C10.1729 13.7565 10.0955 13.6703 10.0369 13.5717C9.97839 13.473 9.93991 13.3638 9.92367 13.2503L9.53167 10.5076H5.46583L5.82283 13.0035C5.83907 13.117 5.83275 13.2326 5.80422 13.3436C5.77569 13.4547 5.72552 13.5591 5.65656 13.6508C5.58761 13.7425 5.50122 13.8198 5.40234 13.8782C5.30345 13.9366 5.19401 13.975 5.08025 13.9912C4.96649 14.0074 4.85065 14.0011 4.73934 13.9727C4.62802 13.9442 4.52342 13.8941 4.4315 13.8253C4.33958 13.7565 4.26213 13.6703 4.2036 13.5717C4.14506 13.473 4.10657 13.3638 4.09033 13.2503L3.69717 10.5076H2.04167C1.8096 10.5076 1.58704 10.4156 1.42295 10.2519C1.25885 10.0881 1.16667 9.86606 1.16667 9.63451C1.16667 9.40295 1.25885 9.18087 1.42295 9.01714C1.58704 8.8534 1.8096 8.76141 2.04167 8.76141H3.44867L2.94933 5.26904L0.875 5.27021C0.642936 5.27021 0.420377 5.17822 0.256282 5.01449C0.0921882 4.85075 4.76837e-07 4.62867 4.76837e-07 4.39712C4.76837e-07 4.16556 0.0921882 3.94348 0.256282 3.77975C0.420377 3.61601 0.642936 3.52402 0.875 3.52402H2.69967L2.34267 1.02349ZM4.71683 5.27021L5.21617 8.76141H9.282L8.78267 5.26904H4.71683V5.27021Z" fill="#034C82"/>
</svg>
