<svg width="16" height="13" viewBox="0 0 16 13" fill="none" xmlns="http://www.w3.org/2000/svg">
<path d="M3.13905 0C2.6749 0 2.32167 0.174858 2.02349 0.476497C1.72536 0.778171 1.49166 1.21614 1.33439 1.71792C1.13566 2.35204 1.06592 3.08461 1.1019 3.73259C1.12955 3.72971 1.15725 3.72748 1.18498 3.72587C1.46786 3.71133 1.73579 3.76515 1.97806 3.87789C2.46263 4.10338 2.83669 4.53388 3.12771 5.03691C3.63757 5.91813 3.91042 7.03848 3.97027 7.93032C7.8218 7.41965 8.17821 7.41965 12.0298 7.93032C12.0896 7.03844 12.3624 5.91813 12.8723 5.03688C13.1633 4.53388 13.5374 4.10338 14.022 3.87786C14.2878 3.7542 14.5847 3.702 14.8981 3.73259C14.9341 3.08461 14.8643 2.35204 14.6656 1.71792C14.5084 1.21611 14.2747 0.778171 13.9765 0.476497C13.6783 0.174858 13.3251 0 12.861 0H3.13905ZM1.28139 4.36254C1.25823 4.36225 1.2348 4.36276 1.21111 4.36398C1.02136 4.37418 0.812779 4.435 0.57439 4.56178C-0.215954 4.98212 -0.315063 6.92028 1.07466 7.413L1.22674 7.46693L2.28805 11.4178H13.712L14.7733 7.46693L14.9253 7.413C16.3151 6.92028 16.216 4.98212 15.4256 4.56178C14.9489 4.30825 14.5911 4.31852 14.2655 4.47004C13.9399 4.62156 13.6388 4.94507 13.3897 5.37557C12.8915 6.23672 12.6247 7.50417 12.6247 8.29408V8.66013L12.2831 8.61471C7.9623 8.04023 8.03771 8.04023 3.71686 8.61471L3.37535 8.66013V8.29408C3.37535 7.50417 3.10847 6.23672 2.61029 5.3756C2.36116 4.94507 2.06012 4.62156 1.73454 4.47008C1.59208 4.40376 1.44342 4.36452 1.28139 4.36254V4.36254ZM2.18465 12.0641L1.39906 12.8997C1.80394 13.016 2.53835 13.0348 2.83524 12.8398C2.94569 12.6713 3.06826 12.3179 3.18759 12.0641H2.18465ZM12.8125 12.0641C12.8629 12.2802 13.0471 12.7506 13.1648 12.8398C13.6104 13.036 14.1742 13.0472 14.6009 12.8997L13.8154 12.0641H12.8125Z" fill="#034C82"/>
</svg>
