<svg width="16" height="16" viewBox="0 0 16 16" fill="none" xmlns="http://www.w3.org/2000/svg">
<g clip-path="url(#clip0_31449_38619)">
<path d="M13.7143 9.52381V4.57143L9.90476 1.90476L6.09524 4.57143V5.71429H4.57143V3.80952L9.90476 0L15.2381 3.80952V9.52381H13.7143ZM10.2857 4.95238H11.0476V4.19048H10.2857V4.95238ZM8.7619 4.95238H9.52381V4.19048H8.7619V4.95238ZM10.2857 6.47619H11.0476V5.71429H10.2857V6.47619ZM8.7619 6.47619H9.52381V5.71429H8.7619V6.47619ZM9.90476 16L4.57143 14.5143V15.619H0V7.2381H6.05714L10.781 8.99048C11.2 9.14286 11.5398 9.40952 11.8004 9.79048C12.0604 10.1714 12.1905 10.5905 12.1905 11.0476H13.7143C14.3492 11.0476 14.8889 11.2571 15.3333 11.6762C15.7778 12.0952 16 12.6476 16 13.3333V14.0952L9.90476 16ZM1.52381 14.0952H3.04762V8.7619H1.52381V14.0952ZM9.86667 14.4L14.4 12.9905C14.3619 12.8508 14.2761 12.7459 14.1425 12.6758C14.0094 12.6062 13.8667 12.5714 13.7143 12.5714H10.0571C9.66349 12.5714 9.30794 12.546 8.99048 12.4952C8.67302 12.4444 8.33016 12.3556 7.96191 12.2286L6.64762 11.7714L7.08571 10.3238L8.60952 10.819C8.8381 10.8952 9.10476 10.9524 9.40952 10.9905C9.71429 11.0286 10.1333 11.0476 10.6667 11.0476C10.6667 10.9079 10.6255 10.7746 10.5432 10.6476C10.4604 10.5206 10.3619 10.4381 10.2476 10.4L5.79048 8.7619H4.57143V12.9524L9.86667 14.4Z" fill="#034C82"/>
</g>
<defs>
<clipPath id="clip0_31449_38619">
<rect width="16" height="16" fill="white"/>
</clipPath>
</defs>
</svg>
