<svg width="14" height="14" viewBox="0 0 14 14" fill="none" xmlns="http://www.w3.org/2000/svg">
<path d="M6.62833 0.73549C7.5477 0.73549 8.42288 0.922667 9.21849 1.26018L8.36763 2.12089C7.18906 1.73009 5.91326 1.74779 4.74598 2.17112C3.5787 2.59446 2.58799 3.39876 1.93363 4.45431C1.27928 5.50986 0.999421 6.75511 1.1392 7.98925C1.27898 9.22338 1.83024 10.3744 2.70408 11.2568C3.57792 12.1391 4.7234 12.7014 5.95577 12.8527C7.18814 13.0041 8.43557 12.7358 9.49686 12.0912C10.5581 11.4465 11.3714 10.4631 11.8055 9.29944C12.2397 8.1358 12.2693 6.85981 11.8897 5.67726L12.7479 4.81138C13.2965 6.125 13.4079 7.58032 13.0658 8.96219C12.7236 10.3441 11.9461 11.5791 10.848 12.4848C9.75 13.3905 8.38979 13.9187 6.96848 13.9914C5.54717 14.064 4.14021 13.6773 2.95561 12.8883C1.771 12.0993 0.871632 10.9499 0.390455 9.61013C-0.0907215 8.27035 -0.128163 6.81124 0.283666 5.44853C0.695496 4.08581 1.53474 2.89182 2.67732 2.04307C3.81989 1.19433 5.20516 0.735873 6.62833 0.73549ZM13.3785 0.420827L13.4802 0.515152C14.1712 1.20564 14.1734 2.32502 13.4861 3.01846L8.5098 8.04129C8.42558 8.12632 8.32191 8.18956 8.20777 8.22551L5.00469 9.23509C4.97909 9.24298 4.95182 9.24373 4.92583 9.23728C4.89983 9.23082 4.87609 9.2174 4.85715 9.19845C4.83821 9.1795 4.82479 9.15575 4.81833 9.12975C4.81188 9.10374 4.81263 9.07647 4.82052 9.05086L5.8305 5.84306C5.86582 5.7309 5.92745 5.62882 6.01025 5.54535L10.9887 0.52031C11.3011 0.205279 11.7209 0.0199715 12.1641 0.00152248C12.6073 -0.0169266 13.0411 0.132846 13.3785 0.420827Z" fill="#034C82"/>
</svg>
