<svg width="14" height="16" viewBox="0 0 14 16" fill="none" xmlns="http://www.w3.org/2000/svg">
<path d="M6.60472 0C6.41346 0.0390879 6.22221 0.0651466 6.0437 0.117264C4.41164 0.57329 3.40436 1.65472 3.02184 3.32248C2.65208 4.96417 3.42986 6.77524 4.81966 7.64821C6.34971 8.59935 8.13478 8.5342 9.52457 7.37459C10.7231 6.39739 11.2459 5.08143 11.0036 3.51792C10.7486 1.86319 9.79233 0.781759 8.26228 0.208469C8.02002 0.117264 7.76501 0.0912052 7.52275 0.0390879C7.47175 0.0260586 7.42075 0.0130293 7.36975 0C7.11474 0 6.85973 0 6.60472 0Z" fill="#034C82"/>
<path d="M7.01292 15.9999C8.78523 15.9739 10.4045 15.4397 11.8198 14.3582C12.6614 13.7198 13.3754 12.938 13.9237 12.013C14.0002 11.8827 14.0257 11.7393 13.9619 11.583C13.2606 10.0846 12.1258 9.10742 10.5448 8.70351C10.328 8.65139 10.0985 8.6123 9.86902 8.6123C9.72876 8.6123 9.58851 8.70351 9.47375 8.79471C8.67047 9.35498 7.77794 9.61556 6.80891 9.57647C6.00563 9.53739 5.25335 9.31589 4.61583 8.8338C4.24607 8.56019 3.8763 8.58625 3.48104 8.69048C2.34625 8.97713 1.38996 9.57647 0.675938 10.5276C0.43368 10.8403 0.255174 11.2051 0.0511664 11.5569C-0.0253363 11.6872 -0.0125865 11.8175 0.0766667 11.9478C0.867195 13.2638 1.92548 14.3061 3.26428 15.0358C4.14406 15.5048 5.07485 15.8175 6.06938 15.9087C6.38814 15.9478 6.69415 15.9739 7.01292 15.9999Z" fill="#034C82"/>
</svg>
