<svg width="15" height="17" viewBox="0 0 15 17" fill="none" xmlns="http://www.w3.org/2000/svg">
<path d="M1.7464 0V2.11023H9.24134V0H1.7464ZM3.9403 0.472982H5.10457L4.52244 1.63725L3.9403 0.472982ZM6.65813 0.472982L7.24026 1.63725H6.076L6.65813 0.472982ZM0 3.71109V16.4452H5.16642V3.71109H0ZM5.82132 3.71109V16.4452H10.9877V3.71109H5.82132ZM12.1156 8.84113V11.8973H14.0075V8.84113H12.1156ZM13.0616 9.78709C13.216 9.78709 13.364 9.84842 13.4732 9.95759C13.5824 10.0668 13.6437 10.2148 13.6437 10.3692C13.6437 10.5236 13.5824 10.6717 13.4732 10.7809C13.364 10.89 13.216 10.9514 13.0616 10.9514C12.9072 10.9514 12.7591 10.89 12.65 10.7809C12.5408 10.6717 12.4795 10.5236 12.4795 10.3692C12.4795 10.2148 12.5408 10.0668 12.65 9.95759C12.7591 9.84842 12.9072 9.78709 13.0616 9.78709Z" fill="#034C82"/>
</svg>
