<svg width="16" height="11" viewBox="0 0 16 11" fill="none" xmlns="http://www.w3.org/2000/svg">
<path d="M14.4744 5.15691C14.274 5.15725 14.0755 5.12186 13.8903 5.05278C13.7052 4.9837 13.5371 4.88231 13.3956 4.75444C10.4209 2.07657 5.58084 2.07726 2.60537 4.75444C2.31915 5.0121 1.93096 5.15685 1.52619 5.15685C1.12142 5.15685 0.733227 5.0121 0.447011 4.75444C0.160795 4.49679 0 4.14733 0 3.78295C0 3.41857 0.160795 3.06911 0.447011 2.81146C4.61191 -0.937152 11.3883 -0.937152 15.5525 2.81146C15.766 3.00348 15.9115 3.24821 15.9705 3.51468C16.0296 3.78115 15.9995 4.05739 15.8841 4.30847C15.7687 4.55954 15.5731 4.77416 15.3222 4.92519C15.0713 5.07621 14.7763 5.15685 14.4744 5.15691ZM4.76373 8.07036C4.46199 8.0703 4.16704 7.98971 3.91617 7.83877C3.6653 7.68783 3.46977 7.47332 3.35431 7.22236C3.23884 6.9714 3.20863 6.69526 3.26748 6.42884C3.32633 6.16242 3.4716 5.91769 3.68493 5.72559C6.06378 3.58343 9.93647 3.58343 12.3161 5.72559C12.6023 5.98325 12.7631 6.3327 12.7631 6.69708C12.7631 7.06146 12.6023 7.41092 12.3161 7.66858C12.0299 7.92623 11.6417 8.07098 11.2369 8.07098C10.8321 8.07098 10.4439 7.92623 10.1577 7.66858C9.58491 7.15418 8.80884 6.8653 7.99974 6.8653C7.19065 6.8653 6.41458 7.15418 5.84177 7.66858C5.70039 7.79624 5.53235 7.89746 5.34733 7.96641C5.16232 8.03537 4.96398 8.0707 4.76373 8.07036Z" fill="#034C82"/>
<path d="M9.41114 10.1356C9.33427 10.3021 9.22163 10.4534 9.07967 10.5806C8.93891 10.7118 8.77054 10.8165 8.58437 10.8884C8.39821 10.9604 8.19798 10.9983 7.99538 10.9999C7.79277 11.0015 7.59185 10.9667 7.40432 10.8977C7.2168 10.8286 7.04643 10.7266 6.90316 10.5976C6.75989 10.4687 6.64659 10.3153 6.56986 10.1465C6.49314 9.97767 6.45453 9.79679 6.4563 9.61441C6.45806 9.43202 6.50015 9.25177 6.58012 9.08418C6.66009 8.9166 6.77633 8.76503 6.92207 8.63831C7.06355 8.5104 7.23172 8.40893 7.41692 8.33973C7.60211 8.27054 7.80067 8.23498 8.00119 8.23511C8.2017 8.23524 8.40021 8.27104 8.58529 8.34048C8.77038 8.40991 8.93839 8.5116 9.07967 8.63969C9.22163 8.76693 9.33427 8.91816 9.41114 9.0847C9.488 9.25124 9.52756 9.42981 9.52756 9.61015C9.52756 9.79049 9.488 9.96906 9.41114 10.1356Z" fill="#034C82"/>
</svg>
