<svg width="16" height="16" viewBox="0 0 16 16" fill="none" xmlns="http://www.w3.org/2000/svg">
<path fill-rule="evenodd" clip-rule="evenodd" d="M8.22412 1.98438C8.22412 1.6392 8.49191 1.35938 8.82225 1.35938H15.4017C15.732 1.35938 15.9998 1.6392 15.9998 1.98438C15.9998 2.32955 15.732 2.60938 15.4017 2.60938H8.82225C8.49191 2.60938 8.22412 2.32955 8.22412 1.98438ZM8.22412 5.42188C8.22412 5.0767 8.49191 4.79688 8.82225 4.79688H12.9344C13.2647 4.79688 13.5325 5.0767 13.5325 5.42188C13.5325 5.76705 13.2647 6.04688 12.9344 6.04688H8.82225C8.49191 6.04688 8.22412 5.76705 8.22412 5.42188ZM8.22412 10.5781C8.22412 10.2329 8.49191 9.95312 8.82225 9.95312H15.4017C15.732 9.95312 15.9998 10.2329 15.9998 10.5781C15.9998 10.9233 15.732 11.2031 15.4017 11.2031H8.82225C8.49191 11.2031 8.22412 10.9233 8.22412 10.5781ZM8.22412 14.0156C8.22412 13.6704 8.49191 13.3906 8.82225 13.3906H12.9344C13.2647 13.3906 13.5325 13.6704 13.5325 14.0156C13.5325 14.3608 13.2647 14.6406 12.9344 14.6406H8.82225C8.49191 14.6406 8.22412 14.3608 8.22412 14.0156Z" fill="#034C82"/>
<path fill-rule="evenodd" clip-rule="evenodd" d="M1.42056 1.75C1.29668 1.75 1.19626 1.85493 1.19626 1.98438V5.42188C1.19626 5.55132 1.29668 5.65625 1.42056 5.65625H4.71028C4.83416 5.65625 4.93458 5.55132 4.93458 5.42188V1.98438C4.93458 1.85493 4.83416 1.75 4.71028 1.75H1.42056ZM0 1.98438C0 1.16458 0.636007 0.5 1.42056 0.5H4.71028C5.49483 0.5 6.13084 1.16458 6.13084 1.98438V5.42188C6.13084 6.24167 5.49483 6.90625 4.71028 6.90625H1.42056C0.636007 6.90625 0 6.24167 0 5.42188V1.98438Z" fill="#034C82"/>
<path fill-rule="evenodd" clip-rule="evenodd" d="M1.42056 10.3438C1.29668 10.3438 1.19626 10.4487 1.19626 10.5781V14.0156C1.19626 14.1451 1.29668 14.25 1.42056 14.25H4.71028C4.83416 14.25 4.93458 14.1451 4.93458 14.0156V10.5781C4.93458 10.4487 4.83416 10.3438 4.71028 10.3438H1.42056ZM0 10.5781C0 9.75833 0.636007 9.09375 1.42056 9.09375H4.71028C5.49483 9.09375 6.13084 9.75833 6.13084 10.5781V14.0156C6.13084 14.8354 5.49483 15.5 4.71028 15.5H1.42056C0.636007 15.5 0 14.8354 0 14.0156V10.5781Z" fill="#034C82"/>
</svg>
