<svg width="16" height="16" viewBox="0 0 16 16" fill="none" xmlns="http://www.w3.org/2000/svg">
<path d="M5.99984 12.0003C5.42362 12.4345 4.72138 12.6689 3.99984 12.6676C3.27851 12.6689 2.57641 12.4351 1.99984 12.0016V14.1656C1.99967 14.2512 2.02148 14.3354 2.06318 14.4102C2.10488 14.4849 2.16508 14.5477 2.238 14.5926C2.31093 14.6374 2.39415 14.6627 2.47968 14.6662C2.56522 14.6696 2.6502 14.6511 2.7265 14.6123L2.7865 14.5756L3.99984 13.7276L5.21317 14.5756C5.28324 14.6245 5.36469 14.6547 5.44972 14.6632C5.53476 14.6717 5.62056 14.6582 5.69893 14.6241C5.77729 14.59 5.84561 14.5364 5.89735 14.4684C5.9491 14.4004 5.98255 14.3202 5.9945 14.2356L5.99917 14.1656L5.99984 12.0009V12.0003ZM3.1665 2.00293C2.69965 2.00291 2.25037 2.18099 1.91031 2.50086C1.57024 2.82073 1.36502 3.25828 1.3365 3.72426L1.33317 3.83626L1.3325 7.3336C1.60286 6.97366 1.94296 6.67188 2.3325 6.44626L2.33317 3.83626C2.33308 3.62996 2.40951 3.43095 2.54769 3.27775C2.68586 3.12455 2.87595 3.02806 3.08117 3.00693L3.1665 3.00293H12.8332C13.0395 3.00284 13.2385 3.07927 13.3917 3.21745C13.5449 3.35562 13.6414 3.54571 13.6625 3.75093L13.6665 3.83626V10.1696C13.6665 10.6009 13.3385 10.9563 12.9185 10.9983L12.8332 11.0029H6.8865C6.81984 11.1176 6.7465 11.2283 6.6665 11.3336V12.0029H12.8332C13.3001 12.0029 13.7495 11.8248 14.0896 11.5048C14.4297 11.1848 14.6348 10.747 14.6632 10.2809L14.6665 10.1696V3.83626C14.6665 3.36941 14.4884 2.92013 14.1686 2.58006C13.8487 2.24 13.4112 2.03478 12.9452 2.00626L12.8332 2.00293H3.1665ZM3.99984 6.66693C3.29259 6.66693 2.61432 6.94788 2.11422 7.44798C1.61412 7.94807 1.33317 8.62635 1.33317 9.3336C1.33317 10.0408 1.61412 10.7191 2.11422 11.2192C2.61432 11.7193 3.29259 12.0003 3.99984 12.0003C4.70708 12.0003 5.38536 11.7193 5.88546 11.2192C6.38555 10.7191 6.6665 10.0408 6.6665 9.3336C6.6665 8.62635 6.38555 7.94807 5.88546 7.44798C5.38536 6.94788 4.70708 6.66693 3.99984 6.66693ZM8.49984 8.3336C8.37315 8.33363 8.25121 8.38176 8.15864 8.46825C8.06608 8.55473 8.00979 8.67313 8.00115 8.79952C7.99252 8.9259 8.03218 9.05086 8.11213 9.14913C8.19207 9.2474 8.30634 9.31166 8.43184 9.32893L8.49984 9.3336H11.4998C11.6265 9.33356 11.7485 9.28543 11.841 9.19895C11.9336 9.11246 11.9899 8.99406 11.9985 8.86768C12.0072 8.74129 11.9675 8.61633 11.8875 8.51806C11.8076 8.41979 11.6933 8.35553 11.5678 8.33826L11.4998 8.3336H8.49984ZM4.49984 4.66693C4.37315 4.66697 4.25121 4.71509 4.15864 4.80158C4.06608 4.88806 4.00979 5.00646 4.00115 5.13285C3.99252 5.25924 4.03218 5.38419 4.11213 5.48246C4.19207 5.58073 4.30634 5.645 4.43184 5.66226L4.49984 5.66693H11.4998C11.6265 5.66689 11.7485 5.61877 11.841 5.53228C11.9336 5.4458 11.9899 5.3274 11.9985 5.20101C12.0072 5.07462 11.9675 4.94967 11.8875 4.8514C11.8076 4.75313 11.6933 4.68886 11.5678 4.6716L11.4998 4.66693H4.49984Z" fill="#034C82"/>
</svg>
