<svg width="16" height="16" viewBox="0 0 16 16" fill="none" xmlns="http://www.w3.org/2000/svg">
<mask id="mask0_2_196" style="mask-type:alpha" maskUnits="userSpaceOnUse" x="0" y="2" width="16" height="12">
<path fill-rule="evenodd" clip-rule="evenodd" d="M0.666656 3.33333C0.666656 2.59695 1.26361 2 1.99999 2H14C14.7364 2 15.3333 2.59695 15.3333 3.33333V8.66667C15.3333 9.40305 14.7364 10 14 10H1.99999C1.26361 10 0.666656 9.40305 0.666656 8.66667V3.33333ZM14 3.33333H1.99999V8.66667H14V3.33333Z" fill="white"/>
<path d="M4 6.66666H12V9.33332H4V6.66666Z" fill="white"/>
<path fill-rule="evenodd" clip-rule="evenodd" d="M3.33331 6.66667C3.33331 6.29848 3.63179 6 3.99998 6H12C12.3682 6 12.6666 6.29848 12.6666 6.66667V9.33333C12.6666 9.70152 12.3682 10 12 10H3.99998C3.63179 10 3.33331 9.70152 3.33331 9.33333V6.66667ZM4.66665 7.33333V8.66667H11.3333V7.33333H4.66665Z" fill="white"/>
<path fill-rule="evenodd" clip-rule="evenodd" d="M9.99999 4.66667C9.99999 4.29848 10.2985 4 10.6667 4H12C12.3682 4 12.6667 4.29848 12.6667 4.66667C12.6667 5.03486 12.3682 5.33333 12 5.33333H10.6667C10.2985 5.33333 9.99999 5.03486 9.99999 4.66667ZM7.99999 10.6667C8.36818 10.6667 8.66666 10.9651 8.66666 11.3333V13.3333C8.66666 13.7015 8.36818 14 7.99999 14C7.6318 14 7.33332 13.7015 7.33332 13.3333V11.3333C7.33332 10.9651 7.6318 10.6667 7.99999 10.6667ZM5.33332 11.3333C5.70151 11.3333 5.99999 11.6318 5.99999 12V12.6667C5.99999 13.0349 5.70151 13.3333 5.33332 13.3333C4.96513 13.3333 4.66666 13.0349 4.66666 12.6667V12C4.66666 11.6318 4.96513 11.3333 5.33332 11.3333ZM10.6667 11.3333C11.0348 11.3333 11.3333 11.6318 11.3333 12V12.6667C11.3333 13.0349 11.0348 13.3333 10.6667 13.3333C10.2985 13.3333 9.99999 13.0349 9.99999 12.6667V12C9.99999 11.6318 10.2985 11.3333 10.6667 11.3333Z" fill="white"/>
</mask>
<g mask="url(#mask0_2_196)">
<path d="M0 0H16V16H0V0Z" fill="#034C82"/>
</g>
</svg>
