<svg width="15" height="16" viewBox="0 0 15 16" fill="none" xmlns="http://www.w3.org/2000/svg">
<g clip-path="url(#clip0_31452_36589)">
<path d="M1.19085 4.69376C1.25754 4.69376 1.31947 4.70292 1.38615 4.71208C2.0578 2.0103 4.5443 0 7.50715 0C10.47 0 12.9565 2.0103 13.6329 4.71208C13.6901 4.70292 13.752 4.69376 13.8091 4.69376C14.4665 4.69376 15 5.20664 15 5.83858V7.21237C15 7.84431 14.4665 8.35719 13.8091 8.35719C13.6662 8.35719 13.5281 8.32971 13.3995 8.28392C13.0518 9.13108 12.1943 9.73097 11.1893 9.73097C10.9273 9.73097 10.7129 9.5249 10.7129 9.27304C10.7129 9.02118 10.9273 8.81511 11.1893 8.81511C11.9752 8.81511 12.6183 8.19691 12.6183 7.44133V5.9897C12.5135 3.30166 10.2652 1.14482 7.50715 1.14482C4.74913 1.14482 2.38647 3.4024 2.38647 6.17745C2.38647 6.18661 2.38171 6.20034 2.38171 6.2095V7.21237C2.38171 7.84431 1.84821 8.35719 1.19085 8.35719C0.533503 8.35719 0 7.84431 0 7.21237V5.83858C0 5.20664 0.533503 4.69376 1.19085 4.69376Z" fill="#034C82"/>
<path d="M3.59635 11.1007H4.99204C5.30166 11.1007 5.59699 11.2472 5.77324 11.4899L6.74974 12.8362C7.13081 13.3628 7.94535 13.3582 8.3169 12.827L9.25053 11.5036C9.42678 11.2518 9.72211 11.1007 10.0365 11.1007H11.4084C13.1756 11.1007 14.6094 12.479 14.6094 14.1779V15.5426C14.6094 15.7944 14.395 16.0005 14.133 16.0005H0.87168C0.609693 16.0005 0.395339 15.7944 0.395339 15.5426V14.1779C0.395339 12.479 1.82913 11.1007 3.59635 11.1007ZM7.50712 9.95583C5.33977 9.95583 3.58206 8.26608 3.58206 6.18251C3.58206 4.09893 5.33977 2.40918 7.50712 2.40918C9.67448 2.40918 11.4322 4.09435 11.4322 6.17793C11.4322 8.2615 9.67448 9.95125 7.50712 9.95125V9.95583Z" fill="#034C82"/>
</g>
<defs>
<clipPath id="clip0_31452_36589">
<rect width="15" height="16" fill="white" transform="matrix(-1 0 0 1 15 0)"/>
</clipPath>
</defs>
</svg>
