<svg width="16" height="11" viewBox="0 0 16 11" fill="none" xmlns="http://www.w3.org/2000/svg">
<path d="M14.5558 0H0.80416C0.36192 0 0 0.40224 0 0.8C0 1.19776 0.36192 1.59968 0.80416 1.59968H0.9984V3.19968H14.3811V1.59968H14.5558C14.9984 1.59968 15.36 1.19776 15.36 0.8C15.36 0.40224 14.9984 0 14.5558 0V0ZM7.68 2.4064C7.45792 2.4064 7.27808 2.22112 7.27808 1.99296C7.27808 1.7648 7.45792 1.57952 7.68 1.57952C7.9024 1.57952 8.08192 1.7648 8.08192 1.99296C8.08192 2.22112 7.9024 2.4064 7.68 2.4064ZM0.9984 6.39936H14.3811V3.84H0.9984V6.39936ZM7.68 4.67968C7.9024 4.67968 8.08192 4.86464 8.08192 5.0928C8.08192 5.32128 7.9024 5.50624 7.68 5.50624C7.45792 5.50624 7.27808 5.32128 7.27808 5.0928C7.27776 4.86464 7.45792 4.67968 7.68 4.67968ZM0.9984 8.6064V10.4669C0.9984 10.6941 1.02688 10.8803 1.248 10.8803H2.85568C3.0768 10.8803 3.17696 10.6941 3.17696 10.4669V9.27968H12.2026V10.4669C12.2026 10.6941 12.2832 10.8803 12.504 10.8803H14.112C14.3325 10.8803 14.3808 10.6941 14.3808 10.4669V7.04H0.9984V8.6064V8.6064ZM7.68 7.77984C7.9024 7.77984 8.08192 7.96512 8.08192 8.19296C8.08192 8.42176 7.9024 8.60608 7.68 8.60608C7.45792 8.60608 7.27808 8.42176 7.27808 8.19296C7.27776 7.96544 7.45792 7.77984 7.68 7.77984Z" fill="#034C82"/>
</svg>
