<svg width="14" height="14" viewBox="0 0 14 14" fill="none" xmlns="http://www.w3.org/2000/svg">
<path d="M11.583 5.93833C11.583 6.20667 11.583 6.45167 11.583 6.72C12.3887 6.72 13.1943 6.72 14 6.72C14 6.90667 14 7.08167 14 7.25667C13.9183 7.25667 13.8482 7.26833 13.7548 7.26833C13.7548 9.50833 13.7548 11.7483 13.7548 13.9883C9.24771 13.9883 4.76397 13.9883 0.256881 13.9883C0.256881 11.7483 0.256881 9.50833 0.256881 7.26833C0.16347 7.26833 0.0817348 7.26833 0 7.26833C0 7.08167 0 6.91833 0 6.73167C2.95413 6.73167 5.90826 6.73167 8.88574 6.73167C8.88574 6.46333 8.88574 6.195 8.88574 5.92667C9.25938 5.92667 9.60967 5.92667 9.95997 5.92667C9.95997 6.10167 9.95997 6.265 9.95997 6.45167C9.78482 6.45167 9.62135 6.45167 9.43453 6.45167C9.43453 6.545 9.43453 6.62667 9.43453 6.72C9.97164 6.72 10.4971 6.72 11.0342 6.72C11.0342 6.63833 11.0342 6.55667 11.0342 6.46333C10.8707 6.46333 10.6956 6.46333 10.5204 6.46333C10.5204 6.27667 10.5204 6.11333 10.5204 5.93833C10.8707 5.93833 11.221 5.93833 11.583 5.93833ZM6.99416 8.085C5.10259 8.085 3.22269 8.085 1.34279 8.085C1.34279 9.70667 1.34279 11.3167 1.34279 12.915C3.23436 12.915 5.10259 12.915 6.99416 12.915C6.99416 11.305 6.99416 9.70667 6.99416 8.085ZM12.6572 12.6583C12.6572 11.4917 12.6572 10.325 12.6572 9.17C11.0342 9.17 9.42285 9.17 7.82319 9.17C7.82319 10.3367 7.82319 11.4917 7.82319 12.6583C9.43453 12.6583 11.0342 12.6583 12.6572 12.6583ZM10.7773 8.21333C10.7773 8.00333 10.5905 7.81667 10.3803 7.81667C10.1585 7.81667 9.97164 8.00333 9.97164 8.225C9.97164 8.435 10.1585 8.62167 10.3686 8.62167C10.5788 8.62167 10.7773 8.435 10.7773 8.21333ZM11.7231 8.62167C11.9333 8.62167 12.1201 8.44667 12.1318 8.23667C12.1435 8.02667 11.945 7.82833 11.7348 7.81667C11.5129 7.81667 11.3261 8.00333 11.3261 8.225C11.3261 8.42333 11.5129 8.61 11.7231 8.62167Z" fill="#034C82"/>
<path d="M4.56548 2.43832C4.56548 2.07665 4.56548 1.72665 4.56548 1.35332C3.75981 1.35332 2.96582 1.35332 2.14847 1.35332C2.14847 1.39999 2.13679 1.45832 2.13679 1.50499C2.13679 2.21665 2.13679 2.92832 2.13679 3.63999C2.13679 3.74499 2.16014 3.80332 2.25356 3.86165C2.5805 4.03665 2.74396 4.40999 2.65055 4.75999C2.56882 5.14499 2.25356 5.37832 1.87991 5.37832C1.50627 5.37832 1.191 5.13332 1.09759 4.77165C1.00418 4.42165 1.16765 4.05999 1.48291 3.86165C1.5413 3.82665 1.59968 3.76832 1.59968 3.70999C1.61135 2.96332 1.59968 2.21665 1.59968 1.46999C1.59968 1.43499 1.59968 1.38832 1.59968 1.32999C1.33112 1.32999 1.07424 1.32999 0.794006 1.32999C0.794006 1.14332 0.794006 0.979986 0.794006 0.793319C1.05089 0.793319 1.30777 0.793319 1.588 0.793319C1.588 0.606653 1.588 0.431653 1.588 0.256653C1.77482 0.256653 1.93829 0.256653 2.12512 0.256653C2.12512 0.431653 2.12512 0.594986 2.12512 0.781653C2.94246 0.781653 3.73646 0.781653 4.55381 0.781653C4.55381 0.61832 4.55381 0.44332 4.55381 0.26832C4.74063 0.26832 4.91577 0.26832 5.09092 0.26832C5.09092 0.431653 5.09092 0.606653 5.09092 0.793319C5.5463 0.793319 5.97833 0.793319 6.43371 0.793319C6.43371 0.979986 6.43371 1.15499 6.43371 1.32999C5.99 1.32999 5.55798 1.32999 5.1026 1.32999C5.1026 1.70332 5.1026 2.06499 5.1026 2.42665C6.15347 2.67165 6.52712 3.55832 6.42203 4.25832C6.31694 5.12165 5.62803 5.68165 4.74063 5.64665C3.99334 5.62332 3.31611 4.99332 3.23437 4.22332C3.14096 3.37165 3.67808 2.64832 4.56548 2.43832Z" fill="#034C82"/>
<path d="M8.89743 0C9.80819 0 10.6956 0 11.5947 0C11.5947 0.35 11.5947 0.688333 11.5947 1.02667C11.5947 1.13167 11.6297 1.19 11.7231 1.23667C12.0033 1.365 12.2836 1.51667 12.5638 1.65667C12.6105 1.68 12.6689 1.73833 12.6689 1.785C12.6806 2.07667 12.6689 2.38 12.6689 2.68333C11.0459 2.68333 9.44622 2.68333 7.81152 2.68333C7.81152 2.38 7.81152 2.07667 7.81152 1.77333C7.81152 1.73833 7.86991 1.68 7.91661 1.65667C8.20852 1.51667 8.48875 1.365 8.78066 1.225C8.87408 1.17833 8.89743 1.13167 8.89743 1.02667C8.88575 0.7 8.89743 0.35 8.89743 0Z" fill="#034C82"/>
<path d="M1.8916 8.62167C3.42121 8.62167 4.92747 8.62167 6.45707 8.62167C6.45707 9.15834 6.45707 9.68334 6.45707 10.22C4.93914 10.22 3.42121 10.22 1.8916 10.22C1.8916 9.69501 1.8916 9.17001 1.8916 8.62167ZM4.5655 9.17001C4.20353 9.17001 3.85324 9.17001 3.50294 9.17001C3.50294 9.35667 3.50294 9.52001 3.50294 9.69501C3.86491 9.69501 4.20353 9.69501 4.5655 9.69501C4.5655 9.52001 4.5655 9.34501 4.5655 9.17001Z" fill="#034C82"/>
<path d="M1.87988 12.3783C1.87988 11.8417 1.87988 11.3167 1.87988 10.78C3.40949 10.78 4.92742 10.78 6.44535 10.78C6.44535 11.3167 6.44535 11.8417 6.44535 12.3783C4.9391 12.3783 3.42117 12.3783 1.87988 12.3783ZM4.56545 11.8417C4.56545 11.655 4.56545 11.4917 4.56545 11.3167C4.20349 11.3167 3.85319 11.3167 3.5029 11.3167C3.5029 11.4917 3.5029 11.6667 3.5029 11.8417C3.85319 11.8417 4.20349 11.8417 4.56545 11.8417Z" fill="#034C82"/>
<path d="M8.36029 12.11C8.36029 11.305 8.36029 10.5117 8.36029 9.70667C9.60967 9.70667 10.859 9.70667 12.1201 9.70667C12.1201 10.5 12.1201 11.305 12.1201 12.11C10.8707 12.11 9.62134 12.11 8.36029 12.11ZM9.70308 10.4883C10.065 10.4883 10.4153 10.4883 10.7656 10.4883C10.7656 10.3017 10.7656 10.1383 10.7656 9.96333C10.4037 9.96333 10.065 9.96333 9.70308 9.96333C9.70308 10.15 9.70308 10.3133 9.70308 10.4883Z" fill="#034C82"/>
</svg>
