<svg width="26" height="25" viewBox="0 0 26 25" fill="none" xmlns="http://www.w3.org/2000/svg">
<g clip-path="url(#clip0_180_537)">
<path d="M23.8 24.3H1.80005C1.00005 24.3 0.300049 23.6 0.300049 22.8V3.8C0.300049 1.9 1.90005 0.300003 3.80005 0.300003H14.8C16.7 0.300003 18.3 1.9 18.3 3.8V6.3H21.8C23.7 6.3 25.3 7.9 25.3 9.8V22.8C25.2 23.6 24.6 24.3 23.8 24.3ZM3.80005 1.2C2.40005 1.2 1.30005 2.3 1.30005 3.7V22.7C1.30005 23 1.50005 23.2 1.80005 23.2H23.8C24.1 23.2 24.3 23 24.3 22.7V9.7C24.3 8.3 23.2 7.2 21.8 7.2H17.3V3.8C17.3 2.4 16.2 1.3 14.8 1.3H3.80005V1.2Z" fill="#475569"/>
<path d="M23.8 24.5H1.8C0.8 24.5 0 23.7 0 22.7V3.7C0 1.7 1.7 0 3.8 0H14.8C16.9 0 18.6 1.7 18.6 3.8V6H21.8C23.9 6 25.6 7.7 25.6 9.8V22.8C25.5 23.7 24.7 24.5 23.8 24.5ZM3.8 0.5C2 0.5 0.5 2 0.5 3.8V22.8C0.5 23.5 1.1 24 1.7 24H23.7C24.4 24 24.9 23.4 24.9 22.8V9.8C24.9 8 23.4 6.6 21.7 6.6H18V3.8C18 2 16.5 0.6 14.8 0.6H3.8V0.5ZM23.8 23.5H1.8C1.4 23.5 1 23.2 1 22.7V3.7C1 2.2 2.2 1 3.8 1H14.8C16.3 1 17.6 2.2 17.6 3.8V7H21.8C23.3 7 24.6 8.2 24.6 9.8V22.8C24.5 23.2 24.2 23.5 23.8 23.5ZM3.8 1.5C2.6 1.5 1.6 2.5 1.6 3.7V22.7C1.6 22.8 1.7 22.9 1.8 22.9H23.8C23.9 22.9 24 22.8 24 22.7V9.7C24 8.5 23 7.5 21.8 7.5H17V3.8C17 2.6 16 1.6 14.8 1.6H3.8V1.5Z" fill="#475569"/>
<path d="M11.8 5H6.80005C6.20005 5 5.80005 5.3 5.80005 5.8C5.80005 6.3 6.20005 6.6 6.80005 6.6H11.8C12.4 6.6 12.8 6.3 12.8 5.8C12.8 5.3 12.3 5 11.8 5Z" fill="#475569"/>
<path d="M11.8001 6.8H6.8001C6.1001 6.8 5.6001 6.4 5.6001 5.8C5.6001 5.2 6.2001 4.8 6.8001 4.8H11.8001C12.5001 4.8 13.0001 5.2 13.0001 5.8C13.0001 6.4 12.4001 6.8 11.8001 6.8ZM6.8001 5.2C6.3001 5.2 6.0001 5.5 6.0001 5.8C6.0001 6.1 6.3001 6.3 6.8001 6.3H11.8001C12.2001 6.3 12.6001 6.1 12.6001 5.8C12.6001 5.5 12.3001 5.3 11.8001 5.3H6.8001V5.2Z" fill="#475569"/>
<path d="M11.8 9H6.80005C6.20005 9 5.80005 9.3 5.80005 9.8C5.80005 10.3 6.20005 10.6 6.80005 10.6H11.8C12.4 10.6 12.8 10.3 12.8 9.8C12.8 9.3 12.3 9 11.8 9Z" fill="#475569"/>
<path d="M11.8001 10.8H6.8001C6.1001 10.8 5.6001 10.4 5.6001 9.8C5.6001 9.2 6.2001 8.8 6.8001 8.8H11.8001C12.5001 8.8 13.0001 9.2 13.0001 9.8C13.0001 10.4 12.4001 10.8 11.8001 10.8ZM6.8001 9.2C6.3001 9.2 6.0001 9.5 6.0001 9.8C6.0001 10.1 6.3001 10.3 6.8001 10.3H11.8001C12.2001 10.3 12.6001 10.1 12.6001 9.8C12.6001 9.5 12.3001 9.3 11.8001 9.3H6.8001V9.2Z" fill="#475569"/>
<path d="M11.8 13.2H6.80005C6.20005 13.2 5.80005 13.5 5.80005 14C5.80005 14.5 6.20005 14.8 6.80005 14.8H11.8C12.4 14.8 12.8 14.5 12.8 14C12.8 13.5 12.3 13.2 11.8 13.2Z" fill="#475569"/>
<path d="M11.8001 14.9H6.8001C6.1001 14.9 5.6001 14.5 5.6001 13.9C5.6001 13.3 6.2001 12.9 6.8001 12.9H11.8001C12.5001 12.9 13.0001 13.3 13.0001 13.9C13.0001 14.5 12.4001 14.9 11.8001 14.9ZM6.8001 13.4C6.4001 13.4 6.0001 13.6 6.0001 13.9C6.0001 14.2 6.3001 14.4 6.8001 14.4H11.8001C12.2001 14.4 12.6001 14.2 12.6001 13.9C12.6001 13.6 12.3001 13.4 11.8001 13.4H6.8001Z" fill="#475569"/>
<path d="M18.3 7.2H17.3V23.2H18.3V7.2Z" fill="#475569"/>
<path d="M18.5 23.5H17V7H18.5V23.5ZM17.5 23H18V7.5H17.5V23Z" fill="#475569"/>
</g>
<defs>
<clipPath id="clip0_180_537">
<rect width="25.5" height="24.5" fill="white"/>
</clipPath>
</defs>
</svg>
