<svg width="25" height="24" viewBox="0 0 25 24" fill="none" xmlns="http://www.w3.org/2000/svg">
<path fill-rule="evenodd" clip-rule="evenodd" d="M16.5998 2.50071C17.2308 2.50071 17.8608 2.58971 18.4598 2.79071C22.1508 3.99071 23.4808 8.04071 22.3698 11.5807C21.7398 13.3897 20.7098 15.0407 19.3608 16.3897C17.4298 18.2597 15.3108 19.9197 13.0298 21.3497L12.7798 21.5007L12.5198 21.3397C10.2308 19.9197 8.09977 18.2597 6.15077 16.3797C4.81077 15.0307 3.77977 13.3897 3.13977 11.5807C2.00977 8.04071 3.33977 3.99071 7.07077 2.76971C7.36077 2.66971 7.65977 2.59971 7.95977 2.56071H8.07977C8.36077 2.51971 8.63977 2.50071 8.91977 2.50071H9.02977C9.65977 2.51971 10.2698 2.62971 10.8608 2.83071H10.9198C10.9598 2.84971 10.9898 2.87071 11.0098 2.88971C11.2308 2.96071 11.4398 3.04071 11.6398 3.15071L12.0198 3.32071C12.1116 3.36968 12.2147 3.44451 12.3037 3.50918C12.3602 3.55015 12.411 3.58705 12.4498 3.61071C12.4661 3.62034 12.4827 3.63002 12.4994 3.63978C12.5851 3.68983 12.6745 3.74197 12.7498 3.79971C13.8608 2.95071 15.2098 2.49071 16.5998 2.50071ZM19.2598 9.70071C19.6698 9.68971 20.0198 9.36071 20.0498 8.93971V8.82071C20.0798 7.41971 19.2308 6.15071 17.9398 5.66071C17.5298 5.51971 17.0798 5.74071 16.9298 6.16071C16.7898 6.58071 17.0098 7.04071 17.4298 7.18971C18.0708 7.42971 18.4998 8.06071 18.4998 8.75971V8.79071C18.4808 9.01971 18.5498 9.24071 18.6898 9.41071C18.8298 9.58071 19.0398 9.67971 19.2598 9.70071Z" fill="#034C82"/>
</svg>
