<svg width="390" height="16" viewBox="0 0 390 16" fill="none" xmlns="http://www.w3.org/2000/svg">
<path d="M162.5 8C162.5 3.58172 166.082 0 170.5 0H219.5C223.918 0 227.5 3.58172 227.5 8V16H162.5V8Z" fill="#034C82"/>
<path d="M191.667 7.06L194.527 9.88666C194.589 9.94915 194.662 9.99875 194.744 10.0326C194.825 10.0664 194.912 10.0839 195 10.0839C195.088 10.0839 195.175 10.0664 195.257 10.0326C195.338 9.99875 195.411 9.94915 195.473 9.88666L198.3 7.06C198.363 6.99802 198.412 6.92429 198.446 6.84305C198.48 6.76181 198.497 6.67467 198.497 6.58666C198.497 6.49866 198.48 6.41152 198.446 6.33028C198.412 6.24904 198.363 6.17531 198.3 6.11333C198.175 5.98916 198.006 5.91947 197.83 5.91947C197.654 5.91947 197.485 5.98916 197.36 6.11333L195 8.47333L192.64 6.11333C192.516 5.99017 192.348 5.92073 192.173 5.92C192.086 5.91949 191.999 5.93631 191.918 5.96948C191.836 6.00266 191.762 6.05154 191.7 6.11333C191.635 6.17308 191.583 6.24505 191.546 6.3251C191.51 6.40515 191.489 6.49169 191.486 6.57971C191.483 6.66774 191.497 6.7555 191.528 6.83794C191.559 6.92037 191.606 6.99585 191.667 7.06Z" fill="white"/>
</svg>
