<svg width="350" height="484" viewBox="0 0 350 484" fill="none" xmlns="http://www.w3.org/2000/svg">
<path d="M311.274 245.904H333.494V236.514H311.274V245.904Z" fill="#EBEBEB"/>
<path d="M323.676 257.744L334.879 257.509L340.4 257.417C342.238 257.375 344.067 257.417 345.896 257.367L345.519 257.744V248.354L345.938 248.774L334.828 248.724C331.128 248.724 327.419 248.623 323.718 248.581L323.945 248.354C323.945 249.89 323.878 251.434 323.836 252.995L323.676 257.744ZM323.676 257.744L323.525 253.137C323.483 251.577 323.425 249.991 323.416 248.396V248.103H323.651C327.352 248.052 331.061 247.968 334.761 247.96L345.871 247.91H346.291V248.329L346.241 257.719V258.097H345.871C344 258.097 342.12 258.097 340.249 258.055L334.661 257.962L323.676 257.744Z" fill="#EBEBEB"/>
<path d="M160.013 165.516L171.224 165.281L176.737 165.189C178.574 165.147 180.404 165.189 182.233 165.147L181.855 165.516L181.813 156.126L182.233 156.546L171.123 156.495C167.422 156.495 163.713 156.403 160.013 156.353L160.24 156.126C160.24 157.662 160.172 159.206 160.13 160.775L160.013 165.516ZM160.013 165.516L159.895 160.833C159.854 159.273 159.803 157.687 159.786 156.092V155.866H160.021C163.722 155.824 167.431 155.732 171.131 155.723L182.241 155.673H182.661V156.092L182.619 165.482V165.868H182.25C180.379 165.868 178.499 165.868 176.636 165.818L171.039 165.726L160.013 165.516Z" fill="#EBEBEB"/>
<path d="M172.407 177.356H194.627V167.966H172.407V177.356Z" fill="#EBEBEB"/>
<path d="M147.426 177.356L158.637 177.121L164.158 177.029C165.996 176.987 167.817 177.029 169.646 176.987L169.277 177.356L169.227 167.966L169.646 168.386L158.536 168.335C154.836 168.335 151.135 168.243 147.426 168.193L147.661 167.966C147.661 169.502 147.585 171.046 147.552 172.615L147.426 177.356ZM147.426 177.356L147.309 172.707C147.309 171.146 147.216 169.56 147.199 167.966V167.739H147.426C151.135 167.739 154.836 167.605 158.536 167.597L169.646 167.546H170.074V167.966L170.032 177.356V177.733H169.655C167.783 177.733 165.904 177.733 164.041 177.683L158.452 177.591L147.426 177.356Z" fill="#EBEBEB"/>
<path d="M194.224 58.4263H216.444V49.0364H194.224V58.4263Z" fill="#EBEBEB"/>
<path d="M4.10303 257.744L15.3138 257.509L20.8352 257.417C22.6645 257.375 24.4938 257.417 26.3231 257.367L25.9539 257.744L25.9036 248.354L26.3231 248.774L15.2131 248.724C11.5125 248.724 7.80358 248.623 4.10303 248.581L4.32959 248.354C4.32959 249.89 4.26246 251.434 4.22051 252.995L4.10303 257.744ZM4.10303 257.744L3.98555 253.137C3.9436 251.577 3.89325 249.991 3.87646 248.396V248.103H4.10303C7.80358 248.052 11.5125 247.968 15.2131 247.96L26.3231 247.91H26.7427V248.329V257.719V258.097H26.3651C24.4938 258.097 22.6142 258.097 20.7513 258.055L15.1627 257.962L4.10303 257.744Z" fill="#EBEBEB"/>
<path d="M16.497 20.0277L27.7078 19.7927L33.2292 19.7004C35.0669 19.6584 36.8878 19.7004 38.7171 19.6501L38.3479 20.0277L38.2976 10.6294L38.7171 11.049L27.6071 10.9987C23.9065 10.9987 20.206 10.898 16.497 10.856L16.732 10.6294C16.732 12.165 16.6565 13.709 16.6145 15.2782L16.497 20.0277ZM16.497 20.0277L16.4047 15.3789C16.4047 13.8181 16.3124 12.2322 16.2957 10.6378V10.4113H16.5222C20.2312 10.3693 23.9317 10.277 27.6323 10.2686L38.7423 10.2183H39.1703V10.6294L39.0612 20.0277V20.4053H38.6836C36.8123 20.4053 34.9327 20.4053 33.0698 20.3549L27.4812 20.2626L16.497 20.0277Z" fill="#EBEBEB"/>
<path d="M4.10339 31.8677L26.3235 31.8677V22.4778L4.10339 22.4778V31.8677Z" fill="#EBEBEB"/>
<path d="M323.676 20.0277L334.879 19.7927L340.4 19.7004C342.238 19.6584 344.067 19.7004 345.896 19.6501L345.519 20.0277V10.6378L345.938 11.0574L334.828 11.007C331.128 11.007 327.419 10.9063 323.718 10.8644L323.945 10.6378C323.945 12.1734 323.878 13.7174 323.836 15.2866L323.676 20.0277ZM323.676 20.0277L323.525 15.3789C323.483 13.8181 323.425 12.2322 323.416 10.6378V10.4113H323.651C327.352 10.3693 331.061 10.277 334.761 10.2686L345.871 10.2183H346.291V10.6294L346.266 20.0277V20.4053H345.896C344.025 20.4053 342.146 20.4053 340.274 20.3549L334.686 20.2626L323.676 20.0277Z" fill="#EBEBEB"/>
<path d="M107.257 288.188H46.8818V355.041H107.257V288.188Z" fill="#EBEBEB"/>
<path d="M15.7163 355.05H46.8899L46.8899 288.188H15.7163L15.7163 355.05Z" fill="#DBDBDB"/>
<path d="M17.8562 350.476C20.1722 345.721 22.4602 340.966 24.7203 336.211L31.5088 321.753L38.2218 307.311C40.4595 302.489 42.6524 297.65 44.8006 292.794C42.4846 297.549 40.1966 302.319 37.9365 307.102L31.1732 321.484L24.4601 335.926C22.2281 340.753 20.0267 345.604 17.8562 350.476Z" fill="#EBEBEB"/>
<path d="M17.8562 292.794C20.0267 297.656 22.2197 302.495 24.435 307.311L31.148 321.753L37.9113 336.135C40.177 340.918 42.465 345.673 44.7754 350.401C42.6049 345.545 40.4119 340.706 38.1966 335.884L31.4836 321.442L24.7203 307.06C22.4546 302.305 20.1666 297.549 17.8562 292.794Z" fill="#EBEBEB"/>
<path d="M107.257 187.215H46.8818V249.462H107.257V187.215Z" fill="#EBEBEB"/>
<path d="M15.7163 249.47H46.8899L46.8899 187.215H15.7163L15.7163 249.47Z" fill="#DBDBDB"/>
<path d="M71.9465 201.665H73.2304H74.187L74.7324 200.549L75.5044 201.665L76.5449 199.374L77.5351 201.665H80.363H81.6468L82.1168 200.138L82.5531 201.665H83.3922V187.215H71.9465V201.665Z" fill="#DBDBDB"/>
<path d="M17.8562 245.501C20.1722 241.082 22.4602 236.634 24.7203 232.159L31.4836 218.733L38.1966 205.307C40.4343 200.832 42.6272 196.325 44.7754 191.789C42.4594 196.219 40.1714 200.661 37.9113 205.114L31.148 218.498L24.435 231.924C22.2197 236.45 20.0267 240.975 17.8562 245.501Z" fill="#EBEBEB"/>
<path d="M17.8562 191.822C20.0267 196.337 22.2197 200.832 24.435 205.307L31.148 218.733L37.9113 232.159C40.177 236.634 42.465 241.076 44.7754 245.484C42.6049 240.964 40.4119 236.458 38.1966 231.966L31.4836 218.54L24.7203 205.156C22.4546 200.697 20.1666 196.253 17.8562 191.822Z" fill="#EBEBEB"/>
<path d="M50.8591 245.602H57.5637V238.897H50.8591V245.602Z" fill="white"/>
<path d="M103.238 249.47H42.8625V288.188H103.238V249.47Z" fill="#DBDBDB"/>
<path d="M11.689 288.188H42.8625L42.8625 249.471H11.689L11.689 288.188Z" fill="#C7C7C7"/>
<path d="M67.9272 263.92H69.2027H70.1677L70.7131 262.804L71.4851 263.92L72.5257 261.629L73.5158 263.92H76.3353H77.6276L78.0891 262.393L78.5338 263.92H79.3729V249.47H67.9272V263.92Z" fill="white"/>
<path d="M13.8369 285.864C16.1473 283.066 18.4353 280.244 20.701 277.397L27.4643 268.888L34.1774 260.337C36.3815 257.484 38.5716 254.62 40.7477 251.745C38.4429 254.542 36.1549 257.364 33.8837 260.211L27.1203 268.729L20.4073 277.271C18.1976 280.141 16.0075 283.005 13.8369 285.864Z" fill="#DBDBDB"/>
<path d="M13.8369 251.77C16.0131 254.645 18.206 257.509 20.4157 260.362L27.1287 268.913L33.8921 277.422C36.1297 280.252 38.4122 283.066 40.7393 285.863C38.5744 282.988 36.3843 280.124 34.169 277.271L27.456 268.728L20.6926 260.211C18.4325 257.403 16.1473 254.589 13.8369 251.77Z" fill="#DBDBDB"/>
<path d="M338.311 296.562H277.936V355.05H338.311V296.562Z" fill="#DBDBDB"/>
<path d="M246.77 355.05H277.944V296.563H246.77V355.05Z" fill="#C7C7C7"/>
<path d="M303 311.012H304.276H305.241L305.786 309.896L306.558 311.012L307.599 308.721L308.589 311.012H311.408H312.701L313.17 309.477L313.607 311.012H314.446V296.562H303V311.012Z" fill="white"/>
<path d="M248.91 351.567C251.221 347.321 253.509 343.058 255.774 338.779L262.538 325.923L269.251 313.017C271.488 308.704 273.678 304.38 275.821 300.044C273.516 304.29 271.228 308.553 268.957 312.833L262.194 325.68L255.522 338.594C253.307 342.907 251.103 347.231 248.91 351.567Z" fill="#DBDBDB"/>
<path d="M248.91 300.044C251.086 304.38 253.279 308.704 255.489 313.017L262.16 325.923L268.923 338.779C271.189 343.058 273.477 347.321 275.787 351.567C273.622 347.226 271.432 342.901 269.217 338.594L262.504 325.68L255.741 312.833C253.497 308.553 251.221 304.29 248.91 300.044Z" fill="#DBDBDB"/>
<path d="M233.336 7.27295V150.009H331.564V7.27295H233.336ZM327.939 146.342H236.961V10.856H327.939V146.342Z" fill="#EBEBEB"/>
<path d="M327.939 10.8564H236.961V146.342H327.939V10.8564Z" fill="white"/>
<path d="M236.961 84.6069L327.939 84.6069V80.9819L236.961 80.9819V84.6069Z" fill="#EBEBEB"/>
<path d="M226.657 160.363H338.235V149.958H226.657V160.363Z" fill="#DBDBDB"/>
<path d="M229.619 164.525L335.282 166.741V160.363H229.619V164.525Z" fill="#EBEBEB"/>
<path d="M236.961 10.8564H327.939V103.941H236.961V10.8564ZM324.583 14.213H240.317V100.584H324.583V14.213Z" fill="#DBDBDB"/>
<path d="M298.905 10.8564H297.093V100.584H298.905V10.8564Z" fill="#DBDBDB"/>
<path d="M267.807 10.8564H265.995V100.584H267.807V10.8564Z" fill="#DBDBDB"/>
<path d="M18.4355 7.27295V150.009H116.664V7.27295H18.4355ZM113.039 146.342H22.0606V10.856H113.039V146.342Z" fill="#EBEBEB"/>
<path d="M113.039 10.8564H22.0605V146.342H113.039V10.8564Z" fill="white"/>
<path d="M22.0604 84.6069L113.039 84.6069V80.9819L22.0604 80.9819V84.6069Z" fill="#EBEBEB"/>
<path d="M11.7557 160.363H123.334V149.958H11.7557V160.363Z" fill="#DBDBDB"/>
<path d="M14.718 164.525L120.381 166.741V160.363H14.718V164.525Z" fill="#EBEBEB"/>
<path d="M22.0605 10.8564H113.039V103.941H22.0605V10.8564ZM109.682 14.213H25.4171V100.584H109.682V14.213Z" fill="#DBDBDB"/>
<path d="M84.0049 10.8564H82.1924V100.584H84.0049V10.8564Z" fill="#DBDBDB"/>
<path d="M52.9068 10.8564H51.0942V100.584H52.9068V10.8564Z" fill="#DBDBDB"/>
<path d="M249.439 285.905H165.795V355.016H249.439V285.905Z" fill="#034C82"/>
<path opacity="0.1" d="M249.439 285.905H165.795V355.016H249.439V285.905Z" fill="black"/>
<path d="M282.584 285.914H249.439V355.024H282.584V285.914Z" fill="#034C82"/>
<path opacity="0.2" d="M282.584 285.914H249.439V355.024H282.584V285.914Z" fill="black"/>
<path d="M280.294 350.258C277.843 345.346 275.413 340.418 273.002 335.472L265.81 320.603L258.711 305.675C256.362 300.691 254.032 295.689 251.721 290.671C254.183 295.589 256.616 300.517 259.022 305.457L266.205 320.326L273.304 335.254C275.665 340.239 277.995 345.24 280.294 350.258Z" fill="#034C82"/>
<path d="M280.294 290.671C277.989 295.706 275.659 300.707 273.304 305.675L266.205 320.603L259.022 335.472C256.611 340.412 254.177 345.341 251.721 350.258C254.032 345.223 256.362 340.222 258.711 335.254L265.81 320.326L273.002 305.465C275.413 300.514 277.843 295.583 280.294 290.671Z" fill="#034C82"/>
<path d="M213.533 300.842H212.215H211.217L210.655 299.692L209.857 300.842L208.775 298.475L207.76 300.842H204.84H203.505L203.019 299.264L202.565 300.842H201.701V285.914H213.533V300.842Z" fill="white"/>
<path d="M254.482 216.803H192.076V285.905H254.482V216.803Z" fill="#034C82"/>
<path d="M286.705 216.803H254.482V285.914H286.705V216.803Z" fill="#034C82"/>
<path opacity="0.1" d="M286.705 216.803H254.482V285.914H286.705V216.803Z" fill="black"/>
<g opacity="0.1">
<path d="M249.909 281.147C245.327 276.23 240.785 271.302 236.281 266.362L222.83 251.459L209.58 236.531C205.183 231.547 200.831 226.545 196.523 221.527C201.111 226.445 205.653 231.376 210.151 236.321L223.577 251.182L236.827 266.11C241.241 271.117 245.601 276.129 249.909 281.147Z" fill="black"/>
<path d="M249.909 221.561C245.596 226.596 241.243 231.597 236.852 236.565L223.602 251.459L210.176 266.328C205.701 271.268 201.158 276.197 196.549 281.114C200.862 276.079 205.214 271.078 209.605 266.11L222.83 251.216L236.256 236.355C240.771 231.404 245.321 226.473 249.909 221.561Z" fill="black"/>
</g>
<path d="M282.173 274.216H276.526V282.188H282.173V274.216Z" fill="white"/>
<path d="M0 355.049L43.7521 354.84L87.5042 354.773L175 354.63L262.496 354.773L306.248 354.84L350 355.049L306.248 355.251L262.496 355.326L175 355.469L87.5042 355.326L43.7521 355.251L0 355.049Z" fill="#263238"/>
<path d="M208.33 117.031C207.86 116.729 207.39 116.435 206.92 116.15L207.248 115.604L208.674 116.502L208.33 117.031Z" fill="#263238"/>
<path d="M187.839 201.112H187.235V200.482C188.355 200.507 189.476 200.465 190.591 200.356L190.658 200.986C189.744 201.053 188.787 201.112 187.839 201.112ZM194.065 200.423L193.931 199.811C195.022 199.564 196.094 199.236 197.136 198.829L197.363 199.417C196.29 199.828 195.187 200.159 194.065 200.407V200.423ZM200.468 197.906L200.157 197.361C201.122 196.798 202.039 196.158 202.901 195.447L203.304 195.926C202.416 196.667 201.467 197.332 200.468 197.914V197.906ZM205.779 193.543L205.318 193.115C206.071 192.287 206.763 191.406 207.39 190.48L207.911 190.832C207.267 191.792 206.555 192.703 205.779 193.559V193.543ZM209.623 187.845L209.052 187.576C209.53 186.566 209.921 185.516 210.218 184.438L210.823 184.606C210.518 185.721 210.116 186.808 209.623 187.853V187.845ZM211.435 181.199L210.806 181.149C210.806 180.696 210.864 180.234 210.864 179.789C210.862 179.167 210.826 178.545 210.755 177.926C210.102 177.883 209.452 177.801 208.809 177.683L208.918 177.062C209.942 177.247 210.981 177.343 212.022 177.347H212.241V177.977H212.014H211.385C211.452 178.584 211.486 179.195 211.485 179.806C211.494 180.259 211.469 180.738 211.435 181.207V181.199ZM215.689 177.557L215.547 176.945C216.626 176.689 217.671 176.306 218.66 175.803L218.945 176.366C217.911 176.893 216.818 177.296 215.689 177.566V177.557ZM205.469 176.777C204.384 176.386 203.332 175.909 202.322 175.35L202.633 174.805C203.609 175.345 204.628 175.805 205.679 176.181L205.469 176.777ZM209.983 174.562C209.615 173.512 209.131 172.508 208.54 171.566L209.069 171.23C209.69 172.209 210.197 173.257 210.579 174.352L209.983 174.562ZM221.832 174.427L221.429 173.949C222.28 173.23 223.059 172.429 223.753 171.557L224.24 171.952C223.523 172.864 222.716 173.702 221.832 174.452V174.427ZM199.478 173.42L199.301 173.253C198.471 172.523 197.809 171.621 197.363 170.609L197.95 170.374C198.359 171.3 198.967 172.125 199.729 172.791L199.897 172.942L199.478 173.42ZM226.187 169.132L225.65 168.805C226.237 167.832 226.783 166.833 227.261 165.851L227.832 166.128C227.345 167.127 226.791 168.142 226.187 169.132ZM206.451 169.007C205.684 168.264 204.84 167.606 203.933 167.043L203.807 166.959L204.135 166.422L204.269 166.506C205.204 167.096 206.074 167.786 206.862 168.562L206.451 169.007ZM198.118 167.387L197.598 167.035C197.957 166.53 198.433 166.12 198.986 165.839C199.538 165.558 200.15 165.416 200.77 165.423V166.053C200.254 166.05 199.744 166.169 199.284 166.401C198.823 166.633 198.423 166.971 198.118 167.387ZM229.166 162.965L228.578 162.747C228.967 161.693 229.3 160.621 229.577 159.533L230.181 159.684C229.911 160.796 229.574 161.892 229.174 162.965H229.166ZM230.844 156.311L230.215 156.227C230.365 155.114 230.451 153.993 230.475 152.87H231.104C231.081 154.021 230.994 155.169 230.844 156.311ZM230.357 149.514C230.256 148.387 230.097 147.267 229.879 146.157L230.5 146.031C230.719 147.155 230.882 148.289 230.987 149.43L230.357 149.514ZM229.057 142.918C228.738 141.861 228.36 140.795 227.924 139.738L228.511 139.503C228.948 140.569 229.35 141.659 229.661 142.733L229.057 142.918ZM226.539 136.667C226.036 135.685 225.474 134.695 224.861 133.721L225.398 133.394C226.002 134.376 226.573 135.383 227.076 136.381L226.539 136.667ZM223.007 130.91C222.36 130.004 221.664 129.106 220.942 128.233L221.429 127.831C222.159 128.712 222.864 129.626 223.519 130.541L223.007 130.91ZM218.71 125.691C217.947 124.852 217.141 124.071 216.319 123.299L216.747 122.838C217.586 123.627 218.425 124.44 219.163 125.263L218.71 125.691ZM213.785 121.05C212.945 120.337 212.031 119.632 211.133 118.961L211.502 118.458C212.417 119.129 213.323 119.842 214.187 120.572L213.785 121.05Z" fill="#263238"/>
<path d="M183.719 200.81C183.155 200.74 182.594 200.639 182.041 200.508L182.192 199.895C182.192 199.895 182.796 200.046 183.803 200.189L183.719 200.81Z" fill="#263238"/>
<path d="M175.252 199.559C174.858 202.915 181.713 204.795 182.234 200.398C182.754 196.001 175.646 196.177 175.252 199.559Z" fill="#263238"/>
<path d="M184.23 205.114C183.593 206.381 181.336 206.558 179.003 204.93C177.418 203.72 176.08 202.219 175.059 200.508C177.032 200.302 179.025 200.476 180.933 201.019C183.693 201.951 184.902 203.831 184.23 205.114Z" fill="#EBEBEB"/>
<path d="M175.084 200.507C176.41 201.103 177.71 201.749 179.011 202.387C180.312 203.025 181.596 203.704 182.863 204.409C181.537 203.813 180.236 203.167 178.936 202.53C177.635 201.892 176.351 201.212 175.084 200.507Z" fill="#263238"/>
<path d="M181.176 205.089C180.875 204.74 180.595 204.373 180.337 203.99C180.084 203.61 179.854 203.215 179.649 202.807C179.95 203.156 180.23 203.523 180.488 203.906C180.743 204.285 180.973 204.68 181.176 205.089Z" fill="#263238"/>
<path d="M178.357 202.144C178.818 202.024 179.286 201.928 179.758 201.858C180.234 201.791 180.713 201.749 181.193 201.732C180.264 201.964 179.313 202.102 178.357 202.144Z" fill="#263238"/>
<path d="M177.627 202.698C177.338 202.339 177.132 201.92 177.022 201.473C177.311 201.832 177.517 202.25 177.627 202.698Z" fill="#263238"/>
<path d="M185.338 196.329C185.011 194.944 182.863 194.256 180.219 195.296C178.395 196.109 176.743 197.262 175.353 198.695C177.239 199.348 179.233 199.633 181.226 199.534C184.054 199.299 185.674 197.755 185.338 196.329Z" fill="#EBEBEB"/>
<path d="M175.353 198.695C176.779 198.426 178.197 198.091 179.607 197.764C181.017 197.436 182.426 197.084 183.803 196.689C182.384 196.958 180.966 197.294 179.557 197.621C178.147 197.948 176.754 198.301 175.353 198.695Z" fill="#263238"/>
<path d="M182.343 195.641C181.977 195.9 181.627 196.18 181.294 196.48C180.961 196.793 180.644 197.124 180.345 197.47C180.714 197.215 181.065 196.935 181.394 196.631C181.729 196.319 182.046 195.989 182.343 195.641Z" fill="#263238"/>
<path d="M178.902 197.856C179.752 198.298 180.647 198.65 181.571 198.905C180.722 198.459 179.828 198.107 178.902 197.856Z" fill="#263238"/>
<path d="M178.357 197.151C178.174 197.288 178.008 197.445 177.861 197.621C177.717 197.801 177.59 197.995 177.484 198.2C177.667 198.06 177.833 197.9 177.979 197.721C178.131 197.55 178.259 197.358 178.357 197.151Z" fill="#263238"/>
<path d="M175.252 199.559C175.492 199.587 175.719 199.686 175.904 199.842C176.088 199.999 176.222 200.207 176.288 200.439C176.355 200.672 176.351 200.919 176.277 201.15C176.203 201.38 176.063 201.584 175.874 201.734C175.684 201.885 175.455 201.976 175.213 201.997C174.972 202.017 174.73 201.966 174.519 201.849C174.307 201.732 174.134 201.555 174.023 201.34C173.911 201.125 173.866 200.882 173.893 200.642C173.931 200.318 174.095 200.023 174.349 199.82C174.604 199.618 174.928 199.524 175.252 199.559Z" fill="#455A64"/>
<path d="M175.537 197.118C175.698 197.136 175.853 197.187 175.994 197.265C176.135 197.344 176.259 197.45 176.359 197.576C176.459 197.703 176.533 197.848 176.577 198.003C176.621 198.158 176.634 198.321 176.615 198.481C176.597 198.642 176.547 198.797 176.468 198.938C176.389 199.079 176.284 199.203 176.157 199.303C176.03 199.403 175.885 199.477 175.73 199.521C175.575 199.565 175.412 199.578 175.252 199.56C174.928 199.522 174.633 199.357 174.43 199.101C174.228 198.845 174.136 198.52 174.174 198.196C174.211 197.872 174.376 197.577 174.632 197.374C174.888 197.172 175.213 197.08 175.537 197.118Z" fill="#455A64"/>
<path d="M99.4787 278.571C99.4787 278.571 81.5885 314.394 81.5801 314.394C80.1033 321.786 78.9453 328.306 78.6516 331.73C78.6473 331.749 78.6473 331.769 78.6516 331.789C78.4967 332.582 78.5283 333.401 78.7439 334.18C78.7396 334.2 78.7396 334.22 78.7439 334.239C80.6487 336.169 139.438 349.704 141.678 349.486C143.919 349.268 143.441 342.949 141.578 340.608C139.715 338.267 119.517 322.986 119.517 322.986L137.005 287.105L99.4787 278.571Z" fill="#D3766A"/>
<path d="M140.789 349.52C138.582 349.738 80.6738 336.195 78.7773 334.273C78.7746 334.253 78.7746 334.234 78.7773 334.214C78.5577 333.436 78.5232 332.617 78.6766 331.823C78.6696 331.804 78.6696 331.783 78.6766 331.764C78.9619 328.34 80.1283 321.82 81.5968 314.419L85.8763 305.843L122.974 316.013L119.551 323.045C119.551 323.045 138.85 338.292 140.722 340.667C142.593 343.042 143.004 349.31 140.789 349.52Z" fill="#EBEBEB"/>
<path d="M141.595 348.58C139.354 348.748 80.4223 333.727 78.5426 331.73C77.821 330.983 79.5076 322.265 81.8488 311.793L81.9243 311.465L120.054 320.738L119.878 321.375C119.878 321.375 139.858 337.218 141.695 339.635C143.533 342.052 143.827 348.42 141.595 348.58Z" fill="#263238"/>
<path d="M141.502 346.121C131.634 343.352 91.5572 333.081 81.5884 331.084C81.5045 331.084 81.4877 331.126 81.5884 331.151C91.3139 334.113 131.475 344.057 141.485 346.255C141.678 346.331 141.712 346.18 141.502 346.121Z" fill="white"/>
<path d="M123.042 322.307C119.316 320.578 114.382 319.957 110.69 321.988C110.547 322.063 110.69 322.265 110.79 322.256C114.834 322.003 118.893 322.183 122.899 322.793C122.958 322.797 123.016 322.78 123.064 322.747C123.112 322.713 123.148 322.663 123.164 322.607C123.181 322.55 123.178 322.49 123.155 322.435C123.133 322.381 123.093 322.335 123.042 322.307Z" fill="white"/>
<path d="M125.425 324.723C121.707 323.003 116.773 322.382 113.073 324.404C112.93 324.48 113.073 324.681 113.182 324.681C117.226 324.424 121.285 324.604 125.29 325.218C125.352 325.224 125.413 325.208 125.463 325.174C125.514 325.139 125.551 325.087 125.567 325.028C125.583 324.968 125.577 324.905 125.551 324.849C125.525 324.794 125.48 324.749 125.425 324.723Z" fill="white"/>
<path d="M127.816 327.148C124.09 325.42 119.156 324.799 115.464 326.821C115.321 326.905 115.464 327.107 115.573 327.098C119.614 326.845 123.671 327.025 127.673 327.635C127.732 327.639 127.79 327.622 127.839 327.588C127.887 327.554 127.922 327.505 127.939 327.449C127.955 327.392 127.952 327.332 127.93 327.277C127.908 327.223 127.867 327.177 127.816 327.148Z" fill="white"/>
<path d="M143.029 346.7C143.978 347.372 142.845 350.854 142.014 350.946C141.183 351.039 76.9984 334.374 75.983 333.845C74.9677 333.316 76.3606 329.507 77.6613 329.649C78.9619 329.792 143.029 346.7 143.029 346.7Z" fill="#034C82"/>
<path d="M89.9713 320.544C86.2456 317.322 81.2276 323.112 84.9366 326.343C88.6455 329.573 93.7055 323.775 89.9713 320.544Z" fill="white"/>
<path d="M85.9856 302.981L128.982 313.823C128.982 313.823 169.059 241.499 168.161 223.113C166.928 197.755 137.156 119.783 137.156 119.783H101.509C101.509 119.783 125.164 204.074 125.492 218.255C125.634 225.673 85.9856 302.981 85.9856 302.981Z" fill="#455A64"/>
<path d="M130.82 305.096C128.529 304.182 108.063 298.274 92.7909 295.027C92.7741 295.032 92.7595 295.043 92.7491 295.057C92.7387 295.072 92.7332 295.089 92.7332 295.107C92.7332 295.124 92.7387 295.141 92.7491 295.156C92.7595 295.17 92.7741 295.181 92.7909 295.186C97.5991 296.865 127.942 304.861 130.787 305.256C130.854 305.281 130.921 305.164 130.82 305.096Z" fill="#263238"/>
<path d="M128.445 200.147C125.609 188.248 122.571 176.383 119.383 164.593C116.194 152.803 112.779 140.904 109.028 129.207C108.575 127.772 108.096 126.354 107.635 124.927C107.622 124.882 107.591 124.843 107.549 124.82C107.507 124.798 107.458 124.792 107.413 124.806C107.367 124.819 107.328 124.85 107.306 124.892C107.283 124.933 107.278 124.982 107.291 125.028C110.647 136.683 114.004 148.314 117.184 160.011C120.364 171.709 123.394 183.44 126.247 195.254C126.96 198.175 127.657 201.086 128.336 204.015C129.126 207.016 129.737 210.062 130.166 213.136C130.518 216.074 130.316 219.051 129.57 221.914C128.76 224.726 127.701 227.462 126.406 230.087C121.265 241.247 116.127 252.41 110.991 263.576C105.856 274.77 105.025 277.321 100.083 288.607C99.4702 290.009 98.8577 291.41 98.2703 292.803C98.2703 292.895 98.3626 292.979 98.4129 292.879C104.035 281.819 104.899 279.159 110.161 267.898C115.422 256.637 120.65 245.241 125.869 233.905C128.219 228.786 130.979 223.567 131.332 217.844C131.684 211.869 129.805 205.878 128.445 200.147Z" fill="#263238"/>
<path d="M130.392 292.736L131.768 332.175C131.995 339.727 132.322 346.331 132.817 349.729C132.813 349.749 132.813 349.769 132.817 349.788C132.845 350.595 133.058 351.384 133.438 352.096L133.488 352.146C135.779 353.598 196.104 353.564 198.21 352.851C200.317 352.138 198.454 346.096 196.113 344.225C193.771 342.353 170.662 332.041 170.662 332.041L168.908 292.644L130.392 292.736Z" fill="#D3766A"/>
<path d="M131.483 324.102C131.483 324.102 131.768 332.175 131.768 332.2C131.995 339.752 132.322 346.356 132.817 349.754C132.813 349.774 132.813 349.794 132.817 349.813C132.932 350.604 133.14 351.379 133.438 352.121L133.489 352.171C135.779 353.623 196.104 353.589 198.211 352.876C200.317 352.163 198.454 346.121 196.113 344.25C193.772 342.379 170.662 332.066 170.662 332.066L170.486 323.851L131.483 324.102Z" fill="#EBEBEB"/>
<path d="M198.244 352.809C196.112 353.488 135.309 352.549 133.01 351.038C132.171 350.476 131.751 341.615 131.6 330.899V330.563L170.838 330.731V331.403C170.838 331.403 193.956 342.169 196.297 344.09C198.638 346.012 200.384 352.154 198.244 352.809Z" fill="#263238"/>
<path d="M197.598 350.476C187.352 350.065 145.983 349.377 135.821 349.754C135.737 349.754 135.737 349.813 135.821 349.813C145.966 350.443 187.344 350.803 197.598 350.652C197.808 350.602 197.816 350.476 197.598 350.476Z" fill="white"/>
<path d="M174.11 331.553C170.091 330.714 165.14 331.276 162.019 334.071C161.893 334.18 162.019 334.348 162.186 334.314C166.061 333.132 170.049 332.364 174.085 332.023C174.134 332.008 174.177 331.978 174.208 331.937C174.239 331.897 174.257 331.848 174.26 331.797C174.263 331.746 174.25 331.695 174.223 331.652C174.196 331.608 174.157 331.574 174.11 331.553Z" fill="white"/>
<path d="M176.997 333.349C172.97 332.51 168.027 333.081 164.906 335.909C164.78 336.018 164.906 336.186 165.065 336.144C168.941 334.96 172.933 334.195 176.972 333.861C177.033 333.854 177.089 333.825 177.131 333.78C177.172 333.735 177.197 333.677 177.2 333.616C177.203 333.555 177.184 333.495 177.147 333.446C177.11 333.397 177.057 333.363 176.997 333.349Z" fill="white"/>
<path d="M179.875 335.154C175.856 334.315 170.913 334.877 167.784 337.671C167.666 337.78 167.784 337.948 167.951 337.915C171.826 336.733 175.814 335.965 179.85 335.624C179.899 335.608 179.942 335.578 179.973 335.538C180.004 335.498 180.022 335.449 180.025 335.398C180.028 335.347 180.015 335.296 179.988 335.253C179.961 335.209 179.922 335.175 179.875 335.154Z" fill="white"/>
<path d="M199.209 350.644C200.291 351.08 199.998 354.73 199.209 355.007C198.42 355.284 132.079 353.967 130.996 353.698C129.914 353.43 130.35 349.393 131.667 349.2C132.985 349.007 199.209 350.644 199.209 350.644Z" fill="#034C82"/>
<path d="M141.536 337.512C137.164 335.238 133.623 342.035 138.003 344.309C142.383 346.583 145.916 339.786 141.536 337.512Z" fill="white"/>
<path d="M136.711 119.716C136.551 120.446 127.665 155.58 126.557 156.235C125.299 156.982 158.847 202.118 162.824 224.28C165.342 238.453 171.216 321.065 171.216 321.065H128.437C128.437 321.065 124.241 250.905 122.848 227.787C122.303 218.817 88.6539 177.347 85.4568 149.698C84.4499 140.988 90.7098 119.683 90.7098 119.683L136.711 119.716Z" fill="#455A64"/>
<path d="M127.355 287.684C126.851 276.062 126.39 264.415 125.542 252.81C125.064 246.231 124.124 239.862 123.469 233.309C123.469 232.965 123.159 232.881 123.167 233.233C123.469 244.905 124.434 256.452 125.055 268.116C125.676 279.78 126.272 282.498 126.935 294.129C127.304 300.707 127.632 307.286 128.143 313.857C128.149 313.873 128.16 313.888 128.174 313.898C128.188 313.909 128.205 313.914 128.223 313.914C128.241 313.914 128.258 313.909 128.272 313.898C128.287 313.888 128.297 313.873 128.303 313.857C128.328 302.176 127.867 299.348 127.355 287.684Z" fill="#263238"/>
<path d="M162.866 224.834C162.5 221.764 161.906 218.727 161.088 215.746C160.206 212.857 159.046 210.06 157.622 207.396C154.71 201.808 151.396 196.404 148.199 190.975C145.001 185.546 141.67 179.999 138.297 174.578C136.4 171.535 134.496 168.495 132.582 165.457C130.636 162.394 128.58 159.39 126.574 156.369C126.559 156.344 126.534 156.325 126.504 156.318C126.475 156.311 126.445 156.316 126.419 156.331C126.393 156.347 126.375 156.372 126.368 156.401C126.361 156.43 126.366 156.461 126.381 156.487C129.654 161.975 132.893 167.471 136.165 172.959C139.438 178.447 142.66 183.951 145.883 189.456C149.105 194.961 152.235 200.297 155.272 205.802C156.768 208.416 158.056 211.143 159.124 213.958C160.117 216.876 160.839 219.879 161.281 222.929C162.422 230.036 163.353 237.194 164.78 244.234C164.785 244.251 164.796 244.266 164.81 244.276C164.825 244.286 164.842 244.292 164.859 244.292C164.877 244.292 164.894 244.286 164.909 244.276C164.923 244.266 164.934 244.251 164.939 244.234C164.494 237.756 163.722 231.27 162.866 224.834Z" fill="#263238"/>
<path d="M167.448 313.731C165.006 313.412 146.369 312.766 130.778 313.437C130.678 313.437 130.686 313.588 130.778 313.597C135.855 314.041 164.561 314.243 167.423 313.907C167.498 313.899 167.532 313.748 167.448 313.731Z" fill="#263238"/>
<path d="M132.137 153.835C127.779 155.423 123.567 157.388 119.551 159.709C119.516 159.724 119.489 159.753 119.476 159.788C119.462 159.824 119.464 159.863 119.479 159.898C119.495 159.932 119.523 159.959 119.559 159.972C119.594 159.986 119.634 159.984 119.668 159.969C123.914 158.14 128.252 156.394 132.398 154.338C132.464 154.304 132.515 154.244 132.537 154.173C132.56 154.101 132.554 154.023 132.519 153.957C132.485 153.89 132.425 153.839 132.354 153.817C132.282 153.794 132.204 153.8 132.137 153.835Z" fill="#263238"/>
<path d="M133.421 124.751C133.421 124.608 133.153 124.575 133.153 124.751C133.154 129.492 132.916 134.231 132.44 138.949C132.238 141.139 130.476 153.214 126.683 152.375C126.045 152.224 125.727 151.603 125.626 150.638C125.636 149.385 125.806 148.139 126.129 146.929C126.549 144.412 126.885 141.894 127.103 139.301C127.548 134.537 127.497 129.739 126.952 124.986C126.945 124.959 126.929 124.935 126.907 124.918C126.885 124.901 126.858 124.892 126.83 124.892C126.802 124.892 126.775 124.901 126.753 124.918C126.731 124.935 126.715 124.959 126.708 124.986C126.818 131.59 126.431 138.193 125.55 144.739C125.072 147.886 123.486 152.627 126.784 153.13C130.082 153.634 132.305 145.687 132.708 143.514C133.758 137.317 133.998 131.01 133.421 124.751Z" fill="#263238"/>
<path d="M126.784 152.635C126.448 153.455 126.167 154.296 125.945 155.153C125.703 155.811 125.584 156.508 125.592 157.209C125.596 157.237 125.609 157.264 125.629 157.285C125.648 157.306 125.674 157.321 125.702 157.328C125.73 157.334 125.76 157.332 125.787 157.321C125.813 157.31 125.836 157.291 125.852 157.267C126.249 156.649 126.546 155.972 126.733 155.262C127.027 154.481 127.329 153.718 127.573 152.929C127.612 152.824 127.607 152.709 127.561 152.607C127.514 152.506 127.43 152.427 127.325 152.388C127.22 152.349 127.105 152.353 127.003 152.399C126.902 152.446 126.823 152.531 126.784 152.635Z" fill="#263238"/>
<path d="M128.571 239.065C128.168 233.09 128.194 226.788 125.651 221.25C124.301 218.551 122.747 215.959 121.002 213.497C119.268 210.845 117.556 208.179 115.867 205.5C109.154 194.784 102.676 183.85 96.7767 172.648C93.9321 167.252 91.314 161.68 89.8875 155.723C88.4964 149.453 88.2321 142.986 89.1071 136.624C89.3085 135.038 89.5267 133.461 89.7868 131.883C89.7876 131.862 89.781 131.841 89.7681 131.824C89.7552 131.807 89.7368 131.795 89.7159 131.79C89.6951 131.785 89.6732 131.787 89.654 131.796C89.6348 131.806 89.6195 131.822 89.6106 131.841C88.2299 137.891 87.7576 144.113 88.2092 150.302C88.855 156.219 90.5215 161.98 93.1349 167.328C95.7362 172.958 98.8326 178.379 101.887 183.775C105.037 189.369 108.278 194.882 111.613 200.314C114.969 205.735 118.426 211.046 121.892 216.383C123.66 218.9 125.037 221.67 125.978 224.598C126.741 227.654 127.18 230.782 127.287 233.929C128.127 247.137 131.483 291.049 132.675 304.189C132.817 305.868 132.968 307.546 133.128 309.224C133.123 309.242 133.122 309.26 133.126 309.278C133.129 309.296 133.137 309.312 133.148 309.327C133.159 309.341 133.173 309.353 133.189 309.361C133.205 309.369 133.223 309.373 133.241 309.373C133.259 309.373 133.277 309.369 133.293 309.361C133.309 309.353 133.323 309.341 133.334 309.327C133.345 309.312 133.353 309.296 133.356 309.278C133.36 309.26 133.359 309.242 133.354 309.224C132.851 296.033 129.436 252.231 128.571 239.065Z" fill="#263238"/>
<path d="M108.038 131.296C108.038 131.204 107.887 131.237 107.887 131.296C107.761 134.963 107.887 138.756 106.452 142.205C105.16 145.385 102.558 147.617 99.6465 149.287C97.9532 150.237 96.2078 151.092 94.4188 151.846C94.2929 151.905 94.3432 152.106 94.4859 152.064C97.8424 150.99 101.308 149.824 104.119 147.575C107.123 145.158 108.441 141.659 108.583 137.883C108.635 135.674 108.452 133.466 108.038 131.296Z" fill="#263238"/>
<path d="M126.658 71.5251C131.458 86.2602 144.422 111.359 149.054 114.388C153.158 117.065 172.466 114.077 180.941 112.038C184.096 111.275 176.997 87.2252 173.632 88.1063C169.596 89.1636 157.572 91.874 156.699 91.2027C155.826 90.5314 143.701 75.5949 135.108 66.8009C127.287 58.8375 124.846 65.9533 126.658 71.5251Z" fill="#D3766A"/>
<path d="M179.087 112.223C180.706 112.021 194.409 111.384 200.694 107.968C204.051 106.147 212.618 100.122 211.762 97.9575C210.982 95.9855 208.23 97.0596 208.23 97.0596C208.23 97.0596 212.014 94.3157 210.906 91.5801C209.799 88.8445 205.225 90.9004 205.225 90.9004C205.225 90.9004 208.909 87.7956 207.609 85.1524C206.308 82.5091 202.062 85.337 202.062 85.337C202.062 85.337 205.561 82.6602 203.572 80.9316C201.172 78.8505 195.273 84.523 191.288 85.8489C190.381 86.1509 172.525 90.6655 172.525 90.6655L179.087 112.223Z" fill="#D3766A"/>
<path d="M201.911 85.2615C197.564 89.4152 194.938 90.4809 189.131 91.6556C189.022 91.6556 189.03 91.857 189.131 91.8402C194.921 91.2109 198.403 90.3466 202.104 85.4629C202.305 85.2195 202.112 85.0601 201.911 85.2615Z" fill="#263238"/>
<path d="M205.083 90.7998C200.191 94.7269 197.354 95.9017 191.363 97.5799C191.279 97.5799 191.313 97.7561 191.405 97.7394C197.413 96.5814 200.87 95.6415 205.242 91.0767C205.444 90.8753 205.309 90.6236 205.083 90.7998Z" fill="#263238"/>
<path d="M207.936 97.1269C202.901 100.584 199.872 102.019 193.847 102.9C193.818 102.9 193.79 102.912 193.77 102.932C193.75 102.952 193.738 102.98 193.738 103.009C193.738 103.038 193.75 103.066 193.77 103.086C193.79 103.107 193.818 103.118 193.847 103.118C200.082 102.816 203.917 101.062 208.003 97.2947C208.305 97.0597 208.247 96.9171 207.936 97.1269Z" fill="#263238"/>
<path d="M167.842 91.4378C167.842 91.4378 172.835 85.7905 175.571 83.7933C178.306 81.7962 191.262 78.1041 192.219 80.8564C193.452 84.4143 186.395 88.0141 182.712 89.3232C182.712 89.3232 185.573 97.5466 181.033 101.222C176.494 104.897 167.842 91.4378 167.842 91.4378Z" fill="#D3766A"/>
<path d="M192.244 81.9556C191.028 86.0086 186.077 87.4183 182.594 88.9539C182.543 88.9761 182.497 89.0101 182.461 89.053C182.425 89.096 182.399 89.1468 182.386 89.2014C182.373 89.2559 182.373 89.3128 182.386 89.3674C182.399 89.4221 182.424 89.473 182.46 89.5161C183.434 93.0404 183.769 98.2934 181.302 101.264C181.235 101.348 181.344 101.465 181.428 101.39C184.508 98.5703 184.591 93.3761 183.282 89.5832C186.882 88.0644 191.783 86.4281 192.278 81.9724C192.286 81.9556 192.253 81.9556 192.244 81.9556Z" fill="#263238"/>
<path d="M179.078 116.359L172.751 87.5438L157.093 90.3885C150.917 83.3146 138.573 69.1753 133.597 64.9293C127.724 59.9449 123.88 63.6874 126.045 71.2396C130.937 88.5004 145.245 113.842 148.987 116.234C154.416 119.716 179.078 116.359 179.078 116.359Z" fill="#034C82"/>
<path opacity="0.1" d="M156.724 99.1575C157.499 99.326 158.289 99.4188 159.082 99.4344C160.76 99.661 161.499 102.136 159.971 103.076C159.169 103.57 158.263 103.869 157.324 103.949C156.386 104.03 155.442 103.889 154.567 103.538C152.889 102.883 151.471 101.255 151.832 99.3421C151.894 98.9854 152.048 98.651 152.278 98.3714C152.508 98.0917 152.807 97.8764 153.145 97.7463C153.482 97.6162 153.848 97.5758 154.206 97.629C154.565 97.6822 154.903 97.8271 155.188 98.0498C155.653 98.48 156.169 98.852 156.724 99.1575ZM152.394 92.3018C151.79 95.1549 156.204 97.6051 158.461 96.0863C158.643 95.9485 158.792 95.7714 158.896 95.5683C159 95.3652 159.057 95.1412 159.062 94.9131C159.068 94.6849 159.022 94.4584 158.928 94.2504C158.834 94.0423 158.695 93.8582 158.52 93.7115C157.857 93.1745 157.303 93.0906 156.716 92.6039C156.51 92.4435 156.329 92.2542 156.179 92.0417C155.846 91.5829 155.42 91.1997 154.928 90.9172C154.673 90.808 154.396 90.7582 154.118 90.7716C153.84 90.785 153.569 90.8612 153.325 90.9945C153.081 91.1278 152.871 91.3147 152.709 91.5411C152.548 91.7676 152.44 92.0277 152.394 92.3018ZM145.354 92.4529C144.448 93.636 145.127 95.415 145.924 96.4891C146.283 97.024 146.778 97.4542 147.357 97.7357C147.936 98.0173 148.58 98.1401 149.222 98.0918C149.456 98.0589 149.676 97.9589 149.854 97.804C150.033 97.6491 150.163 97.4459 150.228 97.2188C150.294 96.9918 150.293 96.7506 150.224 96.5243C150.156 96.298 150.024 96.0964 149.843 95.9436C149.339 95.5598 148.935 95.0586 148.668 94.4835C148.274 93.5941 148.014 92.4445 146.99 92.0585C146.711 91.9435 146.402 91.9197 146.108 91.9906C145.814 92.0614 145.55 92.2232 145.354 92.4529ZM163.941 111.115C162.757 113.507 166.357 116.225 168.539 115.755C169.269 115.596 169.974 114.639 169.328 113.951C168.807 113.397 168.187 112.961 167.7 112.374C167.104 111.66 166.777 110.746 165.845 110.385C165.495 110.238 165.101 110.232 164.747 110.368C164.392 110.504 164.103 110.772 163.941 111.115ZM130.14 81.7876C129.934 81.3947 129.648 81.0489 129.301 80.7722C129.771 81.975 130.266 83.1805 130.787 84.3888C130.814 83.4788 130.591 82.5787 130.14 81.7876ZM134.814 79.2702C134.65 77.1973 133.84 75.2282 132.498 73.6396C131.491 72.339 129.746 70.2831 127.9 70.7279C127.704 70.7892 127.533 70.912 127.412 71.0783C127.291 71.2445 127.227 71.4453 127.229 71.6509C127.111 73.069 128.739 74.5878 129.444 75.7207C130.283 77.1472 130.946 78.7247 131.852 80.1429C132.042 80.4344 132.32 80.6569 132.647 80.777C132.973 80.8971 133.329 80.9085 133.663 80.8093C133.996 80.7102 134.288 80.5059 134.496 80.227C134.703 79.9481 134.815 79.6095 134.814 79.2618V79.2702ZM134.269 88.2908C134.597 88.2738 134.911 88.1522 135.164 87.9438C135.418 87.7354 135.598 87.4512 135.679 87.1328C135.809 86.4813 135.766 85.807 135.553 85.1776C135.427 84.5783 135.137 84.026 134.714 83.5833C134.562 83.4431 134.377 83.3447 134.176 83.2977C133.975 83.2507 133.765 83.2566 133.567 83.315C133.37 83.3733 133.19 83.4821 133.047 83.6306C132.904 83.7792 132.801 83.9624 132.75 84.1623C132.683 84.6523 132.683 85.1491 132.75 85.6391C132.75 85.8489 132.75 86.0587 132.75 86.2769C132.746 86.5931 132.78 86.9086 132.851 87.2167C132.941 87.5233 133.128 87.7925 133.383 87.9845C133.639 88.1765 133.949 88.281 134.269 88.2824V88.2908Z" fill="#030402"/>
<path d="M173.599 113.842C172.877 112.164 171.081 104.712 170.687 102.858C170.293 101.003 168.832 93.5013 168.405 91.5965C168.405 91.4874 168.522 91.4287 168.547 91.5294C169 93.409 171.023 100.81 171.467 102.656C171.912 104.502 173.582 111.945 173.699 113.817C173.701 113.823 173.701 113.83 173.7 113.837C173.699 113.844 173.697 113.85 173.694 113.856C173.687 113.868 173.675 113.876 173.662 113.88C173.648 113.883 173.634 113.881 173.622 113.874C173.611 113.867 173.602 113.855 173.599 113.842Z" fill="#263238"/>
<path opacity="0.1" d="M159.057 117.803C154.651 117.803 150.783 117.383 148.987 116.234C145.22 113.8 130.912 88.5423 125.987 71.2479C124.745 66.918 125.492 63.83 127.455 62.9321L159.057 117.803Z" fill="black"/>
<path d="M88.0496 123.669C88.1586 123.828 140.52 130.541 141.082 130.054C141.378 128.597 141.589 127.123 141.712 125.641C141.712 125.641 136.912 68.6302 134.428 65.2821C132.255 62.3619 125.659 60.2473 121.17 62.1522C111.747 66.1464 89.1824 117.081 89.4257 119.213C89.4089 119.188 87.9153 123.467 88.0496 123.669Z" fill="#034C82"/>
<path opacity="0.1" d="M106.93 116.729C107.738 117.121 108.581 117.436 109.447 117.669C111.193 118.365 111.352 121.277 109.447 121.864C108.435 122.186 107.361 122.266 106.312 122.098C105.263 121.931 104.268 121.52 103.406 120.899C101.727 119.725 100.645 117.543 101.551 115.596C101.718 115.226 101.976 114.904 102.303 114.663C102.629 114.421 103.012 114.268 103.415 114.217C103.818 114.167 104.227 114.221 104.603 114.374C104.979 114.527 105.31 114.775 105.562 115.093C106.032 115.638 106.318 116.36 106.93 116.729ZM104.06 108.061C102.625 111.023 106.779 114.891 109.657 113.842C109.898 113.746 110.114 113.595 110.287 113.401C110.459 113.207 110.585 112.976 110.653 112.726C110.722 112.475 110.731 112.212 110.68 111.957C110.63 111.703 110.521 111.463 110.362 111.258C109.792 110.494 109.204 110.251 108.684 109.58C108.504 109.347 108.36 109.09 108.256 108.816C108.008 108.23 107.646 107.699 107.19 107.255C106.192 106.29 104.589 106.97 104.06 108.061ZM99.2101 104.906C97.6409 105.493 97.2382 107.608 97.3556 109.101C97.3798 109.827 97.596 110.533 97.9823 111.148C98.3685 111.762 98.9109 112.264 99.5542 112.6C99.7969 112.709 100.066 112.745 100.329 112.703C100.591 112.662 100.836 112.546 101.034 112.368C101.232 112.191 101.375 111.96 101.444 111.703C101.513 111.446 101.507 111.175 101.425 110.922C101.159 110.251 101.067 109.524 101.157 108.808C101.3 107.733 101.728 106.475 101.014 105.51C100.816 105.232 100.534 105.023 100.21 104.915C99.8862 104.806 99.5361 104.803 99.2101 104.906ZM116.412 114.891C116.015 114.857 115.62 114.976 115.308 115.225C114.996 115.473 114.79 115.831 114.734 116.225C114.691 116.649 114.797 117.075 115.035 117.429C115.272 117.783 115.626 118.043 116.035 118.164C116.607 118.353 117.225 118.353 117.797 118.164C118.09 118.048 118.331 117.831 118.476 117.551C118.645 117.281 118.713 116.96 118.669 116.645C118.623 116.351 118.488 116.078 118.283 115.862C118.078 115.646 117.811 115.498 117.52 115.437C117.467 115.367 117.405 115.305 117.335 115.252C117.069 115.045 116.748 114.92 116.412 114.891ZM103.548 94.643C102.139 96.0863 102.709 99.3673 104.32 100.475C104.528 100.633 104.773 100.733 105.031 100.767C105.29 100.801 105.552 100.766 105.793 100.667C106.034 100.568 106.245 100.407 106.405 100.201C106.564 99.9953 106.667 99.7512 106.704 99.4932C106.728 99.1608 106.728 98.827 106.704 98.4946C106.704 98.1338 106.653 97.9073 106.704 97.6555C106.829 96.938 106.854 96.2066 106.779 95.4822C106.714 95.1386 106.552 94.8206 106.313 94.5652C106.075 94.3098 105.768 94.1275 105.429 94.0396C105.091 93.9517 104.734 93.9617 104.401 94.0685C104.068 94.1754 103.773 94.3746 103.548 94.643ZM94.4439 115.521C92.5055 117.82 95.7026 121.764 98.2116 121.839C99.0507 121.839 100.083 121 99.5626 120.077C99.143 119.339 98.5808 118.684 98.2116 117.92C97.7584 116.981 97.6493 115.881 96.7263 115.244C96.3821 114.991 95.9543 114.878 95.5302 114.93C95.1061 114.981 94.7176 115.193 94.4439 115.521ZM140.739 114.79C140.423 114.838 140.128 114.978 139.892 115.193C139.656 115.408 139.489 115.689 139.413 115.999C139.144 116.93 139.111 117.761 138.414 118.516C137.66 119.109 136.984 119.794 136.4 120.555C136.303 120.745 136.256 120.957 136.266 121.171C136.275 121.384 136.339 121.591 136.453 121.772C136.566 121.953 136.724 122.102 136.912 122.203C137.1 122.305 137.311 122.356 137.525 122.351C138.99 122.171 140.332 121.439 141.276 120.304C141.108 118.709 140.94 116.838 140.747 114.757L140.739 114.79ZM136.543 107.868C136.073 109.009 136.157 110.301 135.763 111.493C135.416 112.585 135.004 113.656 134.529 114.698C134.177 115.453 134.881 116.645 135.796 116.242C137.284 115.671 138.5 114.559 139.203 113.129C139.841 111.812 140.546 109.596 139.933 108.195C139.32 106.794 137.239 106.181 136.526 107.834L136.543 107.868ZM131.76 119.305C131.063 120.206 130.17 120.937 129.15 121.445C128.907 121.52 128.683 121.646 128.492 121.815C128.302 121.984 128.149 122.191 128.045 122.423C127.94 122.655 127.886 122.907 127.887 123.162C127.887 123.416 127.941 123.668 128.046 123.9C128.151 124.132 128.304 124.339 128.495 124.507C128.686 124.675 128.911 124.801 129.154 124.876C129.397 124.951 129.653 124.973 129.906 124.942C130.159 124.91 130.401 124.825 130.619 124.692C131.487 124.32 132.263 123.762 132.892 123.057C133.521 122.353 133.988 121.519 134.26 120.614C134.655 119.162 132.691 118.214 131.743 119.271L131.76 119.305ZM124.09 78.1877C124.559 78.287 125.048 78.2008 125.455 77.9474C125.862 77.694 126.154 77.2929 126.272 76.8284C126.742 75.0242 125.131 73.1698 123.855 72.0453C122.58 70.9209 120.784 69.8972 118.997 70.4762C118.759 70.5533 118.544 70.6899 118.374 70.8731C118.204 71.0562 118.083 71.2799 118.023 71.5228C117.964 71.7657 117.967 72.0198 118.033 72.261C118.099 72.5023 118.226 72.7227 118.401 72.9012C119.181 73.8746 120.264 74.5795 121.095 75.5361C121.925 76.4927 122.613 77.9108 124.073 78.1542L124.09 78.1877ZM130.526 85.3119C131.231 84.2966 130.686 82.7946 130.182 81.8296C129.914 81.2972 129.497 80.8542 128.982 80.5541C128.636 80.3323 128.216 80.2564 127.813 80.3428C127.411 80.4292 127.059 80.6711 126.834 81.0156C126.605 81.4928 126.569 82.0398 126.733 82.5428C126.804 82.806 126.899 83.0618 127.019 83.3064V83.3819V83.4491C127.169 84.2504 127.508 85.0042 128.009 85.6476C128.182 85.8221 128.394 85.9541 128.626 86.0334C128.859 86.1127 129.107 86.137 129.351 86.1045C129.595 86.072 129.828 85.9835 130.032 85.8461C130.235 85.7086 130.405 85.5258 130.526 85.3119ZM134.856 79.3038C134.692 77.231 133.882 75.2618 132.54 73.6732C131.533 72.3726 129.788 70.3167 127.942 70.7615C127.746 70.8228 127.574 70.9457 127.453 71.1119C127.333 71.2782 127.268 71.479 127.271 71.6845C127.153 73.1026 128.781 74.6215 129.486 75.7543C130.325 77.1808 130.988 78.7584 131.894 80.1765C132.092 80.452 132.371 80.6581 132.693 80.7656C133.014 80.873 133.361 80.8763 133.685 80.775C134.008 80.6737 134.292 80.4729 134.494 80.2012C134.697 79.9295 134.809 79.6008 134.814 79.2618L134.856 79.3038ZM128.521 93.6697C128.828 93.7367 129.145 93.7367 129.452 93.6697C129.917 93.5265 130.311 93.2114 130.552 92.7886C130.777 92.3385 130.889 91.8402 130.879 91.3369C130.864 90.86 130.734 90.3938 130.501 89.9775L130.224 89.6334L129.855 89.3649C129.624 89.2458 129.369 89.1803 129.109 89.1732C128.85 89.1662 128.592 89.2178 128.355 89.3243C128.118 89.4307 127.908 89.5892 127.74 89.788C127.573 89.9868 127.452 90.2208 127.388 90.4726C127.248 90.9613 127.15 91.461 127.094 91.9662L127.17 92.4277C127.229 92.6593 127.344 92.8727 127.505 93.0487C127.759 93.3416 128.1 93.5448 128.479 93.6277L128.521 93.6697ZM134.311 88.3244C134.639 88.3075 134.953 88.1859 135.206 87.9775C135.46 87.769 135.64 87.4848 135.721 87.1664C135.851 86.5149 135.808 85.8406 135.595 85.2113C135.469 84.6119 135.179 84.0596 134.756 83.6169C134.604 83.4767 134.419 83.3783 134.218 83.3313C134.017 83.2843 133.807 83.2902 133.609 83.3486C133.411 83.407 133.232 83.5157 133.089 83.6643C132.945 83.8128 132.843 83.996 132.792 84.1959C132.725 84.6859 132.725 85.1828 132.792 85.6728C132.792 85.8825 132.792 86.0923 132.792 86.3105C132.788 86.6267 132.821 86.9422 132.893 87.2503C132.987 87.5439 133.17 87.801 133.416 87.9859C133.663 88.1708 133.961 88.2745 134.269 88.2824L134.311 88.3244Z" fill="#030402"/>
<path d="M131.365 74.2187C128.168 73.925 124.073 67.0945 123.293 62.7562C123.243 62.4541 124.518 59.9284 125.919 56.79C126.759 54.8852 127.665 52.7371 128.336 50.7231L139.95 58.0319C138.383 60.3117 137.1 62.7747 136.132 65.3659C136.045 65.6395 135.983 65.9203 135.947 66.205C135.95 66.2526 135.95 66.3002 135.947 66.3477C135.653 68.026 134.462 74.504 131.365 74.2187Z" fill="#D3766A"/>
<path d="M135.947 66.2219C135.95 66.2694 135.95 66.317 135.947 66.3645C135.5 66.2769 135.059 66.1563 134.63 66.0037C127.363 63.3856 128.647 53.8531 129.159 51.2183L132.054 53.0476L139.983 58.0823C138.417 60.3612 137.137 62.8244 136.174 65.4163C136.074 65.6774 135.998 65.947 135.947 66.2219Z" fill="#263238"/>
<path d="M129.553 37.2721C127.153 41.5936 126.733 55.4728 129.394 59.1565C133.237 64.4934 140.957 66.5744 145.849 61.6739C150.59 56.8741 150.808 38.7741 147.72 35.2834C143.155 30.0976 133.094 30.8863 129.553 37.2721Z" fill="#D3766A"/>
<path d="M140.697 48.4907C140.697 48.4907 140.621 48.4907 140.621 48.5746C140.621 49.5312 140.453 50.6221 139.581 50.9074V50.9661C140.646 50.8487 140.848 49.397 140.697 48.4907Z" fill="#263238"/>
<path d="M139.883 47.4671C138.347 47.2993 138.121 50.3705 139.539 50.5299C140.957 50.6893 141.167 47.6097 139.883 47.4671Z" fill="#263238"/>
<path d="M146.201 48.8184C146.201 48.8184 146.269 48.8687 146.269 48.9107C146.159 49.8589 146.201 50.9665 147.032 51.3441C147.032 51.3441 147.032 51.4113 147.032 51.4029C145.983 51.1679 145.95 49.6994 146.201 48.8184Z" fill="#263238"/>
<path d="M147.133 47.895C148.668 47.895 148.543 50.9746 147.133 50.9746C145.723 50.9746 145.841 47.8866 147.133 47.895Z" fill="#263238"/>
<path d="M141.124 46.8463C140.697 46.9386 140.285 46.947 139.866 46.9974C139.431 47.111 138.971 47.0786 138.557 46.9051C138.436 46.8255 138.345 46.7083 138.298 46.5717C138.251 46.4351 138.251 46.2868 138.297 46.1498C138.434 45.8996 138.636 45.6901 138.88 45.5428C139.125 45.3954 139.404 45.3153 139.69 45.3107C140.269 45.1993 140.869 45.3133 141.368 45.6296C141.472 45.7075 141.551 45.8132 141.597 45.9344C141.644 46.0556 141.655 46.1873 141.629 46.3145C141.604 46.4417 141.543 46.5591 141.454 46.6532C141.364 46.7473 141.25 46.8142 141.124 46.8463Z" fill="#263238"/>
<path d="M148.509 45.0335C148.101 44.9192 147.701 44.7819 147.309 44.6223C146.868 44.5391 146.466 44.3119 146.168 43.9762C146.093 43.8532 146.062 43.7088 146.078 43.566C146.095 43.4231 146.159 43.2899 146.26 43.1874C146.489 43.0122 146.762 42.9025 147.048 42.87C147.335 42.8375 147.625 42.8834 147.888 43.0028C148.455 43.158 148.945 43.5164 149.264 44.0098C149.33 44.1268 149.361 44.2606 149.353 44.3949C149.345 44.5293 149.299 44.6584 149.219 44.7667C149.139 44.875 149.029 44.9578 148.903 45.0051C148.777 45.0525 148.64 45.0623 148.509 45.0335Z" fill="#263238"/>
<path d="M140 56.06C141.236 55.7642 142.524 55.7642 143.76 56.06C143.869 56.06 143.978 55.8419 144.003 55.7412L144.07 53.7273C144.33 53.8783 145.639 54.5664 145.639 54.1972C145.776 50.924 145.576 47.6454 145.043 44.4129C145.038 44.3942 145.026 44.3777 145.01 44.3661C144.994 44.3544 144.975 44.3481 144.955 44.3481C144.936 44.3481 144.916 44.3544 144.901 44.3661C144.885 44.3777 144.873 44.3942 144.867 44.4129C144.733 47.4422 145.119 50.463 145.027 53.5091C144.564 53.2525 144.066 53.0632 143.55 52.9469C143.441 52.9469 143.55 55.0866 143.55 55.4055C142.395 55.0076 141.13 55.0769 140.025 55.5985C139.589 55.8754 139.413 56.2446 140 56.06Z" fill="#263238"/>
<path d="M137.516 58.057C137.726 58.2919 137.936 58.6108 138.271 58.6611C138.624 58.678 138.976 58.6179 139.304 58.4849C139.304 58.4849 139.362 58.4849 139.304 58.5353C139.159 58.7134 138.968 58.8483 138.752 58.9253C138.536 59.0022 138.303 59.0183 138.078 58.9716C137.895 58.913 137.733 58.8026 137.61 58.6537C137.488 58.5048 137.412 58.3238 137.39 58.1325C137.407 58.0402 137.483 58.0234 137.516 58.057Z" fill="#263238"/>
<path opacity="0.2" d="M133.606 32.8667C133.48 35.0233 132.968 41.7111 131.928 43.0705C130.887 44.4299 128.689 47.5934 127.573 48.1053C127.724 43.6495 128.412 39.4119 129.561 37.1966C130.504 35.4217 131.899 33.9278 133.606 32.8667Z" fill="#263238"/>
<path d="M145.563 39.403C144.977 40.0002 144.247 40.4372 143.443 40.6722C142.64 40.9072 141.789 40.9325 140.973 40.7456C140.138 40.5597 139.365 40.1617 138.729 39.5899C138.092 39.0182 137.614 38.2919 137.34 37.4814C137.34 37.431 137.248 37.4814 137.264 37.4814C137.478 38.3565 137.927 39.1564 138.563 39.794C139.199 40.4317 139.998 40.8827 140.873 41.098C141.746 41.2647 142.648 41.1972 143.486 40.9024C144.325 40.6076 145.071 40.0961 145.647 39.4197C145.698 39.4281 145.631 39.3526 145.563 39.403Z" fill="#263238"/>
<path d="M141.351 26.9673C140.061 26.88 138.771 27.1187 137.597 27.6613C136.424 28.2038 135.407 29.0329 134.638 30.072C133.983 31.1296 133.705 32.3776 133.849 33.6132H133.958C133.974 32.529 134.283 31.4693 134.851 30.5461C135.42 29.6229 136.228 28.8706 137.189 28.3686C138.239 27.7805 139.412 27.4434 140.614 27.3838C141.817 27.3241 143.016 27.5434 144.12 28.0246C145.206 28.4721 146.097 29.2897 146.637 30.3322C146.688 30.4413 146.906 30.3909 146.864 30.2818C146.176 28.4525 143.952 27.0931 141.351 26.9673Z" fill="#263238"/>
<path d="M157.379 34.2843C157.014 32.8637 156.158 31.6182 154.962 30.7684C153.284 29.5684 151.32 29.5852 149.357 29.6523C149.298 29.6523 149.306 29.7363 149.357 29.7279C151.026 29.5536 152.71 29.8654 154.207 30.6257C155.425 31.3567 156.353 32.4861 156.833 33.8228C157.291 35.1938 157.238 36.6838 156.684 38.0188C156.131 39.3539 155.114 40.4443 153.821 41.0897C153.068 41.4434 152.251 41.6393 151.42 41.6653C150.588 41.6913 149.761 41.5468 148.987 41.2407C148.929 41.2407 148.878 41.2994 148.937 41.333C149.983 41.7952 151.138 41.9556 152.271 41.7961C153.403 41.6366 154.469 41.1636 155.347 40.4304C156.225 39.6973 156.881 38.7333 157.24 37.6472C157.599 36.5611 157.647 35.3963 157.379 34.2843Z" fill="#263238"/>
<path d="M128.714 39.9987C128.714 39.9987 126.398 34.7206 128.873 31.9515C130.275 30.3907 134.487 30.9278 134.487 30.9278C135.745 29.3304 137.587 28.2982 139.606 28.0579C143.206 27.4957 147.309 29.9292 147.309 29.9292C147.309 29.9292 150.817 28.251 153.829 30.29C158.025 33.1347 156.976 39.789 152.394 41.6015C149.172 42.8853 145.161 39.8141 145.161 39.8141C144.758 39.8141 140.411 42.0294 137.55 38.0855C137.55 38.0855 134.831 40.1582 132.658 38.396C132.245 39.0358 131.644 39.5328 130.939 39.8195C130.233 40.1063 129.456 40.1689 128.714 39.9987Z" fill="#263238"/>
<path d="M130.082 48.768C130.082 48.768 127.883 43.8423 125.71 44.5723C123.536 45.3024 124.594 51.9986 126.742 53.3077C127.004 53.4897 127.299 53.6174 127.611 53.6831C127.923 53.7488 128.245 53.7512 128.558 53.6902C128.871 53.6291 129.169 53.5059 129.433 53.3278C129.698 53.1496 129.924 52.9202 130.098 52.6532L130.082 48.768Z" fill="#D3766A"/>
<path d="M126.062 46.4688V46.5275C127.556 47.4925 128.118 49.1624 128.412 50.8322C128.349 50.6523 128.247 50.4882 128.114 50.3513C127.982 50.2144 127.821 50.108 127.643 50.0394C127.465 49.9708 127.274 49.9416 127.084 49.9539C126.894 49.9662 126.708 50.0196 126.541 50.1106C126.49 50.1106 126.541 50.2029 126.541 50.2029C126.846 50.1675 127.155 50.2296 127.423 50.3803C127.692 50.531 127.905 50.7626 128.034 51.042C128.262 51.4959 128.437 51.9746 128.554 52.4685C128.554 52.6279 128.873 52.6028 128.857 52.4685C129.285 50.3036 128.236 47.1065 126.062 46.4688Z" fill="#263238"/>
<path d="M246.391 58.544L156.049 86.2163L172.337 139.395L262.68 111.723L246.391 58.544Z" fill="#034C82"/>
<path opacity="0.2" d="M246.391 58.544L156.049 86.2163L172.337 139.395L262.68 111.723L246.391 58.544Z" fill="black"/>
<path opacity="0.2" d="M246.387 58.5443L216.027 67.8438L232.315 121.022L262.676 111.723L246.387 58.5443Z" fill="black"/>
<path d="M244.933 61.2544C243.909 65.9647 242.914 70.675 241.946 75.3853L239.084 89.5498L236.315 103.773C235.409 108.506 234.525 113.247 233.664 117.996C234.687 113.291 235.683 108.581 236.651 103.865L239.512 89.7008L242.281 75.5112C243.188 70.7561 244.072 66.0039 244.933 61.2544Z" fill="#034C82"/>
<path d="M259.844 109.94C256.488 106.494 253.1 103.062 249.682 99.6443L239.445 89.4405L229.141 79.3122C225.695 75.9557 222.232 72.5992 218.752 69.2427C222.109 72.6943 225.496 76.1263 228.914 79.5388L239.151 89.7426L249.456 99.8708C252.907 103.261 256.37 106.617 259.844 109.94Z" fill="#034C82"/>
<path d="M173.4 93.0694L173.897 92.917L171.757 85.9287L171.259 86.081L173.4 93.0694Z" fill="#263238"/>
<path d="M172.219 93.4243L172.716 93.272L170.576 86.2836L170.078 86.436L172.219 93.4243Z" fill="#263238"/>
<path d="M171.026 93.8047L171.523 93.6523L169.383 86.664L168.885 86.8164L171.026 93.8047Z" fill="#263238"/>
<path d="M169.846 94.1474L170.343 93.9951L168.204 87.0064L167.706 87.1587L169.846 94.1474Z" fill="#263238"/>
<path d="M168.654 94.5171L169.152 94.3647L167.011 87.3764L166.514 87.5288L168.654 94.5171Z" fill="#263238"/>
<path d="M167.471 94.8726L167.968 94.7202L165.827 87.7319L165.33 87.8843L167.471 94.8726Z" fill="#263238"/>
<path d="M166.272 95.2632L166.77 95.1108L164.629 88.1225L164.132 88.2749L166.272 95.2632Z" fill="#263238"/>
<path d="M165.087 95.6158L165.584 95.4634L163.442 88.4754L162.945 88.6279L165.087 95.6158Z" fill="#263238"/>
<path d="M163.89 95.9927L164.388 95.8403L162.247 88.852L161.75 89.0044L163.89 95.9927Z" fill="#263238"/>
<path d="M176.787 84.968L174.723 85.0183L179.196 83.6338L177.45 84.7582L178.239 87.3259C179.657 87.0826 180.614 88.2658 181.335 90.6153L176.863 92.0251C176.141 89.6839 176.267 88.1651 177.576 87.5693L176.787 84.968Z" fill="#263238"/>
<path d="M181.285 86.7548L182.452 86.394L181.403 82.9703L184.39 82.0557L185.439 85.4793L186.614 85.1185L185.036 89.4987L181.285 86.7548Z" fill="#263238"/>
<path opacity="0.1" d="M156.053 86.2181L157.387 90.5816L219.835 80.2771L216.025 67.8496L156.053 86.2181Z" fill="black"/>
<path d="M274.387 117.753L244.019 127.05L232.313 121.025L262.681 111.719L274.387 117.753Z" fill="#034C82"/>
<path opacity="0.2" d="M274.387 117.753L244.019 127.05L232.313 121.025L262.681 111.719L274.387 117.753Z" fill="black"/>
<path d="M166.013 150.949L196.381 141.643L202.7 130.096L172.332 139.394L166.013 150.949Z" fill="#034C82"/>
<path opacity="0.1" d="M166.013 150.949L196.381 141.643L202.7 130.096L172.332 139.394L166.013 150.949Z" fill="black"/>
<path d="M116.035 78.0115C120.474 92.8556 132.817 118.29 137.399 121.394C141.435 124.172 160.811 121.646 169.286 119.808C172.458 119.129 165.929 94.9115 162.573 95.7087C158.511 96.6737 146.42 99.0652 145.564 98.4023C144.708 97.7394 132.977 82.4589 124.585 73.497C116.966 65.3407 114.356 72.3977 116.035 78.0115Z" fill="#D3766A"/>
<path d="M160.827 97.6809C160.827 97.6809 167.247 90.4476 171.795 87.6869C176.596 84.9391 181.992 83.3984 187.52 83.1976C193.486 82.9626 208.079 86.5037 207.785 90.884C207.525 94.8531 192.798 90.4728 192.798 90.4728C192.798 90.4728 208.549 92.4615 207.357 97.1858C206.165 101.91 189.358 95.8432 189.358 95.8432C189.358 95.8432 205.494 98.2431 203.531 102.934C202.02 106.467 186.488 101.835 186.488 101.835C186.488 101.835 200.35 104 198.949 107.708C197.405 111.795 182.796 108.422 182.796 108.422C177.669 117.216 171.619 119.33 167.146 120.279C166.03 120.472 160.827 97.6809 160.827 97.6809Z" fill="#D3766A"/>
<path d="M187.394 89.4316C189.249 89.5995 191.137 89.7589 192.974 90.0862C194.812 90.4134 196.633 90.8162 198.437 91.3197C200.8 91.9271 203.086 92.8027 205.251 93.9294C201.265 92.2092 194.703 90.9169 192.865 90.5729C191.028 90.2288 189.207 89.8176 187.377 89.4904C187.327 89.5072 187.344 89.4316 187.394 89.4316Z" fill="#263238"/>
<path d="M186.077 96.0526C188.435 96.3631 190.801 96.5896 193.151 97.0092C195.5 97.4287 197.674 98.0329 199.981 98.6119C200.157 98.6539 200.073 98.7378 199.897 98.6958C197.564 98.2091 195.383 97.9406 193.05 97.4875C190.717 97.0344 188.401 96.4805 186.06 96.1029C186.026 96.1029 186.035 96.0442 186.077 96.0526Z" fill="#263238"/>
<path d="M183.92 101.524C187.559 101.919 191.147 102.689 194.627 103.823C194.804 103.873 194.686 103.966 194.501 103.924C190.96 103.085 188.183 102.413 183.912 101.65C183.845 101.641 183.845 101.515 183.92 101.524Z" fill="#263238"/>
<path d="M167.364 124.105L161.725 95.1383L146.008 97.6054C140 90.3889 128 75.9559 123.1 71.5924C117.352 66.4653 113.416 70.1239 115.388 77.718C119.903 95.0796 133.597 120.723 137.306 123.241C142.626 126.849 167.364 124.105 167.364 124.105Z" fill="#034C82"/>
<path opacity="0.1" d="M156.724 99.1574C157.499 99.3259 158.289 99.4187 159.082 99.4343C160.76 99.6609 161.499 102.136 159.972 103.076C159.17 103.57 158.263 103.869 157.324 103.949C156.386 104.03 155.442 103.889 154.568 103.538C152.889 102.883 151.471 101.255 151.832 99.342C151.894 98.9854 152.048 98.651 152.278 98.3713C152.508 98.0917 152.807 97.8763 153.145 97.7462C153.483 97.6161 153.848 97.5757 154.207 97.6289C154.565 97.6821 154.903 97.8271 155.188 98.0498C155.653 98.4799 156.169 98.8519 156.724 99.1574ZM155.046 96.1869C155.572 96.4407 156.152 96.564 156.736 96.5465C157.321 96.529 157.892 96.3711 158.402 96.0862C158.59 95.9606 158.741 95.7867 158.839 95.5827L155.046 96.1869ZM146.881 97.4624C147.549 97.9504 148.374 98.1745 149.197 98.0917C149.481 98.0528 149.742 97.9156 149.935 97.704C150.128 97.4925 150.241 97.2199 150.254 96.9337L146.881 97.4624ZM164.671 110.393C164.339 110.533 164.07 110.79 163.915 111.115C163.211 112.533 164.192 114.06 165.594 114.975L164.671 110.393ZM139.396 115.965C139.128 116.897 139.094 117.727 138.398 118.483C137.648 119.087 136.977 119.783 136.4 120.555C136.303 120.745 136.257 120.957 136.266 121.171C136.275 121.384 136.339 121.591 136.453 121.772C136.566 121.953 136.724 122.102 136.912 122.203C137.1 122.305 137.311 122.356 137.525 122.351C138.987 122.171 140.328 121.448 141.282 120.326C142.237 119.204 142.734 117.764 142.677 116.292C142.63 115.915 142.456 115.565 142.184 115.3C141.912 115.034 141.558 114.869 141.18 114.831C140.801 114.793 140.421 114.884 140.102 115.09C139.783 115.296 139.543 115.605 139.421 115.965H139.396ZM136.501 107.834C136.031 108.975 136.115 110.267 135.721 111.459C135.375 112.551 134.963 113.622 134.487 114.664C134.135 115.42 134.84 116.611 135.754 116.208C137.242 115.637 138.459 114.525 139.161 113.095C139.799 111.778 140.504 109.563 139.891 108.161C139.279 106.76 137.24 106.181 136.526 107.834H136.501ZM124.048 78.1541C124.517 78.2533 125.006 78.1671 125.413 77.9137C125.82 77.6603 126.113 77.2593 126.23 76.7947C126.7 74.9906 125.089 73.1361 123.814 72.0117C122.538 70.8872 120.742 69.8635 118.955 70.4425C118.717 70.5196 118.503 70.6562 118.332 70.8394C118.162 71.0225 118.041 71.2462 117.982 71.4891C117.922 71.732 117.925 71.9861 117.991 72.2274C118.057 72.4686 118.184 72.689 118.359 72.8676C119.14 73.8409 120.222 74.5458 121.053 75.5024C121.884 76.459 122.614 77.9107 124.074 78.1541H124.048ZM130.527 85.3118C131.231 84.2965 130.686 82.7944 130.182 81.8294C129.914 81.2971 129.498 80.854 128.983 80.554C128.636 80.3322 128.216 80.2563 127.813 80.3427C127.411 80.4291 127.059 80.6709 126.834 81.0155C126.606 81.4926 126.569 82.0396 126.734 82.5427C126.804 82.8059 126.899 83.0616 127.019 83.3063V83.3818V83.449C127.169 84.2503 127.508 85.0041 128.009 85.6475C128.182 85.822 128.394 85.954 128.627 86.0333C128.859 86.1125 129.107 86.1369 129.351 86.1044C129.595 86.0719 129.828 85.9834 130.032 85.8459C130.236 85.7084 130.405 85.5256 130.527 85.3118ZM128.521 93.7031C128.828 93.7701 129.146 93.7701 129.452 93.7031C129.918 93.5599 130.311 93.2448 130.552 92.822C130.777 92.3719 130.89 91.8736 130.879 91.3703C130.864 90.8935 130.734 90.4273 130.501 90.0109L130.224 89.6669L129.855 89.3984C129.624 89.2792 129.369 89.2137 129.11 89.2067C128.85 89.1996 128.592 89.2513 128.355 89.3577C128.118 89.4641 127.908 89.6227 127.74 89.8215C127.573 90.0203 127.453 90.2543 127.388 90.506C127.248 90.9948 127.15 91.4944 127.095 91.9997L127.17 92.4612C127.229 92.6928 127.344 92.9061 127.506 93.0821C127.764 93.3627 128.105 93.5537 128.479 93.6276L128.521 93.7031ZM135.561 85.186L133.883 83.2979C133.615 83.266 133.344 83.3338 133.123 83.4886C132.902 83.6434 132.745 83.8742 132.683 84.137C132.616 84.627 132.616 85.1239 132.683 85.6139C132.683 85.8237 132.683 86.0335 132.683 86.2516C132.679 86.5678 132.713 86.8834 132.784 87.1915C132.876 87.5108 133.072 87.7902 133.341 87.9849C133.61 88.1797 133.937 88.2785 134.269 88.2656C134.597 88.2486 134.911 88.127 135.165 87.9186C135.418 87.7102 135.598 87.4259 135.679 87.1075C135.805 86.4675 135.764 85.8059 135.561 85.186Z" fill="#030402"/>
<path d="M161.943 121.445C161.264 119.725 159.669 112.256 159.292 110.385C158.914 108.514 157.664 100.995 157.286 99.0737C157.286 98.973 157.404 98.9059 157.429 99.0149C157.832 100.903 159.686 108.346 160.08 110.209C160.475 112.072 161.977 119.54 162.044 121.42C162.047 121.433 162.045 121.447 162.038 121.459C162.031 121.471 162.02 121.479 162.006 121.483C161.993 121.486 161.979 121.484 161.967 121.477C161.955 121.47 161.947 121.458 161.943 121.445Z" fill="#263238"/>
<path d="M156.758 124.919C154.181 125.07 151.605 125.128 149.029 125.112C146.444 125.123 143.86 124.974 141.292 124.667C139.977 124.537 138.691 124.197 137.483 123.66C136.397 122.893 135.454 121.942 134.697 120.849C133.176 118.749 131.799 116.548 130.577 114.262C128.059 109.739 125.894 105.031 123.78 100.349C121.665 95.6667 119.744 90.8502 117.981 86C120.121 90.6907 122.236 95.3898 124.434 100.047C126.633 104.704 128.857 109.345 131.256 113.884C132.454 116.149 133.776 118.345 135.217 120.463C135.89 121.518 136.742 122.446 137.734 123.207C138.879 123.735 140.099 124.077 141.351 124.222C146.462 124.841 151.612 125.074 156.758 124.919Z" fill="#263238"/>
<path d="M119.618 90.0948C119.273 89.7467 118.961 89.3675 118.686 88.962C118.402 88.5604 118.183 88.1155 118.04 87.6445C118.167 87.853 118.304 88.0546 118.451 88.2487L118.863 88.8445C119.139 89.246 119.391 89.6635 119.618 90.0948Z" fill="#263238"/>
<path d="M132.867 82.3164C134.99 84.4478 136.895 86.789 138.867 89.0294C140.839 91.2699 142.727 93.6362 144.741 95.8683L145.488 96.7074C145.622 96.8333 145.748 96.976 145.874 97.0934C146 97.2109 146 97.2025 146.059 97.2529C146.059 97.2529 146.117 97.3032 146.059 97.2529C146.059 97.2529 146.117 97.2529 146.151 97.2529C146.789 97.2529 147.594 97.1102 148.316 97.0179L152.78 96.355C155.75 95.9187 158.729 95.4655 161.708 95.0628L161.826 95.8012L161.65 95.0712H161.691C158.746 95.7005 155.818 96.2627 152.83 96.8081C151.345 97.0767 149.86 97.3116 148.366 97.5382C147.603 97.6707 146.832 97.7603 146.059 97.8067C145.997 97.8146 145.935 97.8146 145.874 97.8067C145.792 97.782 145.715 97.7422 145.647 97.6892C145.563 97.6235 145.481 97.5535 145.404 97.4794L144.993 97.0767C144.724 96.7998 144.473 96.5228 144.221 96.2375C142.249 93.9467 140.336 91.6307 138.456 89.2812L135.645 85.7484C134.722 84.6492 133.883 83.4408 132.867 82.3164Z" fill="#263238"/>
<path d="M133.967 82.5679C134.283 82.9561 134.564 83.3717 134.806 83.8098C135.042 84.2425 135.21 84.7097 135.301 85.1943C135.2 84.9678 135.074 84.7664 134.957 84.5482L134.613 83.9021C134.374 83.4693 134.158 83.0239 133.967 82.5679Z" fill="#263238"/>
<path d="M33.3215 301.991C33.0109 294.14 33.1202 286.277 33.6488 278.437C34.806 262.278 37.2727 246.24 41.0247 230.481C43.0806 221.603 45.6147 212.859 48.258 204.149C48.3335 203.889 48.7531 203.964 48.6859 204.233C40.5212 234.979 33.8166 266.714 34.2781 298.668C34.4124 307.613 35.4445 316.399 36.292 325.285C36.292 325.529 35.9228 325.621 35.8725 325.378C34.1858 317.75 33.6404 309.762 33.3215 301.991Z" fill="#034C82"/>
<path d="M48.6863 204.191C48.6863 204.191 61.0551 235.591 58.286 242.967C55.5168 250.343 49.8024 251.92 49.8024 251.92C49.8024 251.92 57.3545 262.728 52.0848 272.899C46.8151 283.069 35.0505 282.549 34.2617 294.045C34.2617 294.011 33.6072 245.963 48.6863 204.191Z" fill="#034C82"/>
<path d="M35.6127 274.174C35.592 274.12 35.592 274.06 35.6127 274.006C37.2439 252.57 41.2717 231.384 47.6206 210.845C47.6206 210.786 47.738 210.803 47.7213 210.845C45.271 220.025 43.1061 229.256 41.2264 238.536C42.8793 236.967 44.8986 235.836 47.1003 235.247C47.1003 235.247 47.1591 235.247 47.1003 235.306C44.7764 236.166 42.6889 237.563 41.0082 239.384C40.6502 241.196 40.3006 243.017 39.9593 244.847C42.7201 241.759 46.5549 240.223 50.3897 238.763C50.44 238.763 50.4736 238.83 50.3897 238.847C46.3954 240.475 42.4096 242.573 39.7076 246.013C38.7566 251.221 37.9175 256.449 37.1902 261.696C39.19 259.612 41.7527 258.154 44.5661 257.501C44.6501 257.501 44.7004 257.61 44.5661 257.635C41.6624 258.474 39.0649 260.139 37.0895 262.426H37.0392C36.793 264.272 36.5609 266.121 36.3427 267.973C37.9366 266.657 39.737 265.614 41.6712 264.885C41.7215 264.885 41.7467 264.944 41.6712 264.96C39.777 265.8 38.0424 266.961 36.5441 268.392C36.5441 268.392 36.5441 268.392 36.477 268.392C36.2756 270.146 36.0658 271.908 35.8896 273.671C38.6763 270.305 42.2912 267.722 46.3787 266.177C46.3869 266.174 46.3958 266.172 46.4047 266.172C46.4136 266.172 46.4224 266.174 46.4305 266.178C46.4387 266.181 46.4461 266.186 46.4523 266.193C46.4586 266.199 46.4635 266.207 46.4668 266.215C46.4701 266.223 46.4717 266.232 46.4716 266.241C46.4715 266.25 46.4696 266.259 46.4661 266.267C46.4626 266.275 46.4576 266.282 46.4512 266.289C46.4448 266.295 46.4373 266.3 46.429 266.303C42.3916 268.082 38.8446 270.811 36.091 274.258C36.0626 274.298 36.0219 274.328 35.975 274.344C35.928 274.359 35.8774 274.358 35.8308 274.342C35.5623 277.044 35.319 279.754 35.126 282.465H35.0588C35.1931 279.721 35.3861 276.943 35.6127 274.174Z" fill="#263238"/>
<path d="M45.5481 232.159C47.7874 230.764 50.3472 229.966 52.9827 229.843C53.0415 229.843 53.0498 229.927 52.9827 229.935C50.437 230.406 47.9652 231.213 45.632 232.335C45.61 232.339 45.5872 232.336 45.5672 232.326C45.5472 232.316 45.5311 232.3 45.5215 232.279C45.5119 232.259 45.5093 232.236 45.5141 232.215C45.5189 232.193 45.5308 232.173 45.5481 232.159Z" fill="#263238"/>
<path d="M44.0458 265.397C45.7682 264.413 47.6619 263.767 49.626 263.492C49.6932 263.492 49.7015 263.584 49.626 263.592C47.7019 263.979 45.8408 264.632 44.0962 265.531C44.0374 265.564 43.9703 265.438 44.0458 265.397Z" fill="#263238"/>
<path d="M0.805645 243.479C6.03557 247.098 10.8381 251.298 15.1212 255.999C19.5498 260.968 22.9698 266.75 25.1907 273.025C29.8842 286.101 32.4096 299.857 32.6673 313.748C32.8281 321.441 32.0874 329.126 30.4604 336.647C30.4461 336.7 30.4127 336.745 30.3668 336.774C30.3208 336.804 30.2656 336.815 30.2119 336.805C30.1583 336.796 30.1102 336.766 30.0769 336.723C30.0437 336.68 30.0279 336.626 30.0324 336.572C32.0592 323.298 31.9913 309.789 29.8311 296.537C27.6997 283.547 24.3683 269.416 16.1113 258.86C11.5717 253.137 5.96628 248.598 0.461603 243.907C0.134343 243.672 0.503559 243.269 0.805645 243.479Z" fill="#034C82"/>
<path d="M30.8211 304.399C27.8462 299.582 24.3482 295.107 20.3908 291.057C14.198 284.873 8.98705 280.476 8.18149 276.381C7.37593 272.286 14.3826 269.282 14.3826 269.282C14.3826 269.282 5.81515 270.818 3.47399 267.218C1.13282 263.618 0 242.816 0 242.816C0 242.816 15.5658 253.976 22.841 269.525C30.1163 285.074 30.8211 304.399 30.8211 304.399Z" fill="#034C82"/>
<path d="M5.56356 262.367C6.58891 262.221 7.62724 262.187 8.65994 262.267C8.78581 262.267 8.77742 262.485 8.65994 262.485C7.63621 262.485 6.61247 262.434 5.58034 262.485C5.49643 262.468 5.49643 262.367 5.56356 262.367Z" fill="#263238"/>
<path d="M16.7744 282.506C18.4216 282.541 20.0496 282.868 21.5826 283.471C21.5826 283.471 21.5826 283.547 21.5826 283.538C19.9966 283.161 18.3939 283.001 16.7912 282.741C16.6317 282.741 16.6401 282.506 16.7744 282.506Z" fill="#263238"/>
<path d="M20.1392 275.55C20.8233 275.545 21.5063 275.606 22.1783 275.735C22.2454 275.735 22.237 275.861 22.1783 275.861C21.4969 275.895 20.8139 275.861 20.1392 275.76C20.1164 275.753 20.0963 275.74 20.0821 275.721C20.0678 275.702 20.0601 275.679 20.0601 275.655C20.0601 275.631 20.0678 275.608 20.0821 275.589C20.0963 275.57 20.1164 275.557 20.1392 275.55Z" fill="#263238"/>
<path d="M76.4864 265.573C71.4196 267.29 66.5636 269.576 62.0115 272.387C57.2979 275.398 53.2094 279.289 49.97 283.849C43.149 293.348 37.9252 303.898 34.5049 315.081C32.6016 321.271 31.4245 327.66 30.9973 334.121C30.9973 334.17 31.0168 334.217 31.0514 334.252C31.086 334.286 31.133 334.306 31.1819 334.306C31.2309 334.306 31.2778 334.286 31.3125 334.252C31.3471 334.217 31.3665 334.17 31.3665 334.121C32.7845 322.926 35.9472 312.022 40.7396 301.806C45.4639 291.787 51.4301 281.122 60.5514 274.493C65.519 270.876 71.0992 268.518 76.6626 266.018C76.9899 265.883 76.8221 265.472 76.4864 265.573Z" fill="#034C82"/>
<path d="M38.1216 307.932C41.6405 304.718 45.5045 301.904 49.6428 299.541C56.0873 295.966 61.3151 293.608 62.9178 290.487C64.5205 287.365 59.5613 283.304 59.5613 283.304C59.5613 283.304 66.1317 286.526 68.8588 284.143C71.586 281.76 77.3088 265.187 77.3088 265.187C77.3088 265.187 62.1374 270.591 52.6553 281.533C43.1731 292.475 38.1216 307.932 38.1216 307.932Z" fill="#034C82"/>
<path d="M50.717 292.694C52.2063 292.589 53.7018 292.772 55.1224 293.231C55.1224 293.231 55.1224 293.306 55.1224 293.298C53.6706 293.054 52.2048 292.903 50.7338 292.845C50.7138 292.847 50.6937 292.841 50.6779 292.828C50.6622 292.816 50.6521 292.797 50.6499 292.777C50.6477 292.757 50.6535 292.737 50.6661 292.722C50.6787 292.706 50.697 292.696 50.717 292.694Z" fill="#263238"/>
<path d="M63.9582 275.324C64.6373 275.275 65.3199 275.314 65.9888 275.441C66.0017 275.446 66.0128 275.454 66.0206 275.466C66.0284 275.477 66.0326 275.49 66.0326 275.504C66.0326 275.518 66.0284 275.531 66.0206 275.542C66.0128 275.554 66.0017 275.562 65.9888 275.567C65.3259 275.491 64.663 275.517 63.9917 275.5C63.9711 275.499 63.9513 275.491 63.9357 275.477C63.9201 275.464 63.9096 275.445 63.9057 275.425C63.9018 275.405 63.9049 275.384 63.9144 275.365C63.9239 275.347 63.9393 275.332 63.9582 275.324Z" fill="#263238"/>
<path d="M18.5447 355.049H52.7979L47.9141 319.26L46.6638 310.088H24.6787L23.4284 319.26L18.5447 355.049Z" fill="#455A64"/>
<path d="M23.4282 319.26H47.914L46.6637 310.088H24.6785L23.4282 319.26Z" fill="#263238"/>
<path d="M21.5236 314.67H49.8105V306.9H21.5236V314.67Z" fill="#455A64"/>
<path d="M201.013 18.8279C201.013 22.2812 200.053 25.6665 198.241 28.6061C196.429 31.5457 193.836 33.924 190.75 35.4757C187.665 37.0274 184.21 37.6914 180.769 37.3936C177.329 37.0959 174.039 35.8481 171.266 33.7895L162.128 36.1223L165.929 27.6219C164.592 25.1225 163.841 22.351 163.735 19.5181C163.63 16.6851 164.171 13.8654 165.319 11.2732C166.467 8.68111 168.191 6.38484 170.36 4.55905C172.528 2.73326 175.085 1.42602 177.835 0.736754C180.584 0.047485 183.455 -0.00566952 186.229 0.581332C189.002 1.16833 191.605 2.38003 193.84 4.12429C196.075 5.86855 197.882 8.09944 199.125 10.6473C200.368 13.1952 201.014 15.9929 201.013 18.8279Z" fill="white"/>
<path d="M201.013 18.8193C201.012 22.277 200.06 25.6677 198.261 28.6204C197.823 29.3647 197.341 30.082 196.817 30.7685C196.261 31.4258 195.664 32.048 195.03 32.6314C193.778 33.8116 192.365 34.8088 190.834 35.5935C189.298 36.3775 187.66 36.9424 185.967 37.2718C185.118 37.4409 184.257 37.5475 183.391 37.5906C182.528 37.662 181.661 37.662 180.798 37.5906C177.308 37.3198 173.962 36.0852 171.132 34.0243L171.383 34.0747L162.27 36.4746L161.532 36.6676L161.842 35.9627L165.61 27.4456V27.798C164.24 25.2501 163.474 22.4211 163.372 19.5298C163.27 16.6385 163.835 13.7625 165.023 11.1245C166.212 8.49395 167.982 6.1672 170.2 4.31923C172.415 2.49849 175.014 1.20309 177.802 0.53022C180.589 -0.142654 183.493 -0.175529 186.295 0.434065C189.071 1.0657 191.672 2.30997 193.906 4.07588C196.127 5.83641 197.921 8.07774 199.152 10.6314C200.383 13.185 201.02 15.9845 201.013 18.8193ZM201.013 18.8193C201.011 14.5565 199.535 10.4255 196.834 7.12777C194.132 3.83001 190.373 1.5687 186.194 0.727761C183.444 0.180436 180.606 0.266525 177.895 0.979499C175.192 1.67748 172.686 2.98657 170.569 4.80592C168.472 6.64496 166.8 8.91846 165.669 11.4686C164.554 14.0115 164.031 16.7748 164.142 19.5494C164.271 22.2963 165.004 24.9809 166.29 27.412L166.382 27.5882L166.298 27.7644L162.463 36.2564L162.035 35.7529L171.19 33.4873H171.333L171.442 33.5712C174.156 35.6321 177.39 36.8962 180.782 37.2214C181.62 37.2831 182.461 37.2831 183.299 37.2214C185.863 37.1333 188.379 36.4951 190.675 35.3502C192.207 34.6045 193.62 33.6375 194.871 32.4803C195.504 31.9056 196.101 31.2918 196.658 30.6426C197.192 29.975 197.688 29.2774 198.143 28.5532C199.975 25.6334 200.968 22.2659 201.013 18.8193Z" fill="#263238"/>

</svg>