<svg width="14" height="14" viewBox="0 0 14 14" fill="none" xmlns="http://www.w3.org/2000/svg">
<path d="M0.367997 5.11934C0.4099 4.99592 0.487032 4.88747 0.589866 4.80738C0.692701 4.72729 0.816737 4.67908 0.946664 4.66868L4.74733 4.36668L6.392 0.72601C6.44438 0.608751 6.52957 0.509157 6.6373 0.439248C6.74503 0.369339 6.87069 0.332102 6.99911 0.332031C7.12754 0.331961 7.25324 0.36906 7.36105 0.438851C7.46885 0.508642 7.55416 0.608142 7.60666 0.725343L9.25133 4.36668L13.052 4.66868C13.1797 4.67879 13.3018 4.72548 13.4036 4.80316C13.5055 4.88084 13.5828 4.98622 13.6263 5.1067C13.6699 5.22717 13.6778 5.35763 13.6491 5.48248C13.6204 5.60733 13.5564 5.72127 13.4647 5.81068L10.656 8.54868L11.6493 12.85C11.6795 12.9802 11.6698 13.1165 11.6216 13.2411C11.5733 13.3657 11.4888 13.473 11.3788 13.549C11.2688 13.6249 11.1386 13.6661 11.0049 13.6671C10.8713 13.6681 10.7404 13.629 10.6293 13.5547L6.99933 11.1347L3.36933 13.5547C3.25577 13.6301 3.12185 13.6689 2.98558 13.6659C2.8493 13.6629 2.71721 13.6183 2.60707 13.538C2.49693 13.4577 2.41401 13.3456 2.36949 13.2167C2.32496 13.0879 2.32095 12.9485 2.358 12.8173L3.57733 8.55068L0.55333 5.82934C0.35533 5.65068 0.282664 5.37201 0.367997 5.11934V5.11934Z" fill="#034C82"/>
</svg>
