<?xml version="1.0" encoding="utf-8"?>
<!-- Generator: Adobe Illustrator 28.2.0, SVG Export Plug-In . SVG Version: 6.00 Build 0)  -->
<svg version="1.1" id="Layer_1" xmlns="http://www.w3.org/2000/svg" xmlns:xlink="http://www.w3.org/1999/xlink" x="0px" y="0px"
	 viewBox="0 0 800 800" style="enable-background:new 0 0 800 800;" xml:space="preserve">
<style type="text/css">
	.st0{fill:#FF0000;}
</style>
<g id="XMLID_2_">
	<path id="XMLID_4_" class="st0" d="M124.2,436.4h421.3c20.1,0,36.4-16.3,36.4-36.4c0-20.1-16.3-36.4-36.4-36.4H124.2l47-47
		c14.2-14.2,14.2-37.2,0-51.4c-14.2-14.2-37.2-14.2-51.4,0L10.7,374.3c-0.8,0.8-1.6,1.7-2.4,2.6c-0.2,0.2-0.3,0.5-0.5,0.7
		c-0.6,0.7-1.1,1.4-1.6,2.2c-0.1,0.2-0.3,0.4-0.4,0.7c-0.5,0.8-1,1.6-1.4,2.4c-0.1,0.2-0.2,0.3-0.2,0.5c-0.5,0.9-0.9,1.8-1.3,2.7
		c0,0.1-0.1,0.2-0.1,0.4c-0.4,1-0.8,2-1.1,3c0,0.1-0.1,0.3-0.1,0.4c-0.3,1-0.6,2-0.8,3c-0.1,0.3-0.1,0.6-0.1,0.9
		c-0.2,0.9-0.3,1.7-0.4,2.6C0.1,397.6,0,398.8,0,400c0,1.2,0.1,2.4,0.2,3.6c0.1,0.9,0.2,1.8,0.4,2.6c0.1,0.3,0.1,0.6,0.1,0.9
		c0.2,1,0.5,2.1,0.8,3.1c0,0.1,0.1,0.2,0.1,0.4c0.3,1,0.7,2,1.1,3c0,0.1,0.1,0.2,0.1,0.3c0.4,0.9,0.8,1.8,1.3,2.7
		c0.1,0.2,0.1,0.3,0.2,0.5c0.4,0.8,0.9,1.6,1.4,2.4c0.1,0.2,0.3,0.4,0.4,0.6c0.5,0.7,1.1,1.5,1.6,2.2c0.2,0.2,0.3,0.5,0.5,0.7
		c0.8,0.9,1.6,1.8,2.4,2.6l109.1,109.1c7.1,7.1,16.4,10.7,25.7,10.7c9.3,0,18.6-3.5,25.7-10.7c14.2-14.2,14.2-37.2,0-51.4
		L124.2,436.4z"/>
	<path id="XMLID_5_" class="st0" d="M502.5,102.5c-99.3,0-191.6,49.2-247,131.7c-11.2,16.7-6.8,39.3,9.9,50.5
		c16.7,11.2,39.3,6.8,50.5-9.9c41.9-62.3,111.7-99.6,186.7-99.6c123.9,0,224.7,100.8,224.7,224.7S626.5,624.7,502.5,624.7
		c-74.8,0-144.4-37-186.4-99.1c-11.2-16.6-33.8-21-50.5-9.8c-16.6,11.2-21,33.8-9.8,50.5c55.5,82.1,147.7,131.1,246.6,131.1
		C666.6,697.5,800,564,800,400S666.6,102.5,502.5,102.5z"/>
</g>
</svg>
