<svg width="21" height="24" viewBox="0 0 21 24" fill="none" xmlns="http://www.w3.org/2000/svg">
<rect width="20.5714" height="24" fill="white"/>
<path fill-rule="evenodd" clip-rule="evenodd" d="M3.42857 12.0857V0H5.14286V12.0857C7.09886 12.4834 8.57143 14.2114 8.57143 16.2857C8.57143 18.36 7.09886 20.088 5.14286 20.4857V24H3.42857V20.4857C1.47257 20.088 0 18.36 0 16.2857C0 14.2114 1.47257 12.4834 3.42857 12.0857ZM6.85714 16.2857C6.85714 17.7051 5.70514 18.8571 4.28571 18.8571C2.86629 18.8571 1.71429 17.7051 1.71429 16.2857C1.71429 14.8663 2.86629 13.7143 4.28571 13.7143C5.70514 13.7143 6.85714 14.8663 6.85714 16.2857ZM15.4286 24H17.1429V11.9143C19.0989 11.5166 20.5714 9.78857 20.5714 7.71429C20.5714 5.64 19.0989 3.912 17.1429 3.51429V0H15.4286V3.51429C13.4726 3.912 12 5.64 12 7.71429C12 9.78857 13.4726 11.5166 15.4286 11.9143V24ZM18.8571 7.71429C18.8571 6.29486 17.7051 5.14286 16.2857 5.14286C14.8663 5.14286 13.7143 6.29486 13.7143 7.71429C13.7143 9.13371 14.8663 10.2857 16.2857 10.2857C17.7051 10.2857 18.8571 9.13371 18.8571 7.71429Z" fill="black"/>
</svg>
