<svg width="150" height="150" viewBox="0 0 150 150" fill="none" xmlns="http://www.w3.org/2000/svg">
<path d="M123.192 73.3257C123.192 73.3257 120.575 73.1374 120.816 79.0052C121.057 84.8731 121.655 88.0019 121.655 88.0019C121.655 88.0019 121.576 89.3004 120.568 89.046C119.561 88.7916 117.664 87.5262 116.729 88.4711C115.794 89.416 116.105 90.959 117.39 92.7332C118.675 94.5074 121.355 98.4953 121.596 98.8588C121.837 99.2222 121.926 99.8797 121.213 99.8136C120.499 99.7475 115.678 98.1154 115.037 100.451C114.396 102.787 118.801 107.138 119.273 107.624C119.746 108.11 119.769 108.414 119.577 108.708C119.385 109.002 117.819 108.298 116.428 107.892C115.037 107.485 113.352 107.251 113.098 108.629C112.844 110.006 114.78 114.04 122.039 118.276L125.531 120.021L128.835 117.913C135.634 112.957 137.157 108.764 136.764 107.419C136.371 106.075 134.716 106.471 133.394 107.016C132.073 107.561 130.559 108.417 130.338 108.146C130.117 107.875 130.113 107.565 130.536 107.036C130.959 106.507 134.901 101.75 134.032 99.4766C133.163 97.2035 128.528 99.3246 127.824 99.4601C127.12 99.5956 127.146 98.9248 127.345 98.5482C127.543 98.1715 129.816 93.9226 130.92 92.0328C132.023 90.1429 132.218 88.6033 131.154 87.7376C130.09 86.872 128.366 88.3389 127.391 88.6958C126.416 89.0526 126.205 87.7607 126.205 87.7607C126.205 87.7607 126.489 84.5922 126.142 78.7277C125.795 72.8632 123.152 73.3257 123.152 73.3257" fill="#EBEBEB"/>
<path d="M123.396 78.5823C123.396 78.5823 123.396 78.6219 123.396 78.7045C123.396 78.7871 123.413 78.9094 123.426 79.0647C123.446 79.395 123.479 79.8543 123.519 80.449C123.598 81.655 123.704 83.3962 123.823 85.5503C124.061 89.8455 124.341 95.8091 124.629 102.384C124.916 108.959 125.181 114.916 125.395 119.234C125.504 121.385 125.594 123.126 125.653 124.336C125.683 124.934 125.706 125.399 125.722 125.723C125.722 125.879 125.722 125.997 125.739 126.087C125.741 126.127 125.741 126.168 125.739 126.209C125.739 126.209 125.739 126.166 125.739 126.087C125.739 126.007 125.722 125.879 125.709 125.727C125.689 125.396 125.656 124.937 125.617 124.339C125.534 123.136 125.432 121.395 125.313 119.241C125.075 114.946 124.794 108.979 124.507 102.391C124.219 95.8025 123.955 89.862 123.74 85.5404C123.631 83.3928 123.542 81.6517 123.479 80.4391C123.453 79.8411 123.426 79.3752 123.413 79.0514C123.413 78.8995 123.413 78.7772 123.396 78.6913C123.395 78.655 123.395 78.6186 123.396 78.5823Z" fill="#E0E0E0"/>
<path d="M119.309 90.3511C119.389 90.4012 119.463 90.4611 119.528 90.5295C119.663 90.6517 119.858 90.8368 120.083 91.0614C120.542 91.5207 121.163 92.1682 121.834 92.8951L123.542 94.7619L124.061 95.3268C124.129 95.391 124.19 95.4631 124.242 95.5416C124.162 95.4915 124.089 95.4316 124.024 95.3632C123.889 95.2409 123.694 95.0592 123.472 94.8279C123.016 94.3654 122.405 93.7112 121.735 92.9843L120.013 91.1275L119.491 90.5658C119.422 90.5017 119.361 90.4296 119.309 90.3511Z" fill="#E0E0E0"/>
<path d="M124.589 95.426C124.563 95.3995 125.838 94.0647 127.441 92.4524C129.043 90.8401 130.361 89.535 130.388 89.5614C130.414 89.5879 129.139 90.9227 127.536 92.535C125.934 94.1473 124.616 95.4524 124.589 95.426Z" fill="#E0E0E0"/>
<path d="M124.573 105.546C124.648 105.486 124.73 105.433 124.817 105.391L125.501 105.007C126.076 104.677 126.872 104.234 127.731 103.706C128.59 103.177 129.353 102.678 129.902 102.308L130.563 101.875C130.64 101.817 130.723 101.767 130.811 101.727C130.811 101.727 130.738 101.803 130.592 101.918C130.447 102.034 130.236 102.192 129.965 102.387C129.429 102.777 128.673 103.293 127.811 103.821C126.948 104.35 126.159 104.789 125.554 105.09C125.26 105.242 125.019 105.361 124.85 105.437C124.764 105.487 124.67 105.524 124.573 105.546Z" fill="#E0E0E0"/>
<path d="M118.787 102.004C118.874 102.032 118.956 102.071 119.032 102.12C119.181 102.199 119.399 102.318 119.663 102.47C120.195 102.771 120.925 103.197 121.728 103.673C122.531 104.148 123.251 104.588 123.77 104.912C124.031 105.074 124.239 105.206 124.381 105.302C124.459 105.344 124.531 105.396 124.596 105.457C124.51 105.432 124.429 105.394 124.355 105.344C124.203 105.265 123.988 105.143 123.72 104.994C123.192 104.69 122.461 104.267 121.659 103.788C120.856 103.309 120.135 102.873 119.617 102.553C119.356 102.391 119.148 102.259 119.006 102.163C118.925 102.121 118.852 102.067 118.787 102.004Z" fill="#E0E0E0"/>
<path d="M117.641 110.938C117.75 110.974 117.853 111.024 117.948 111.087L118.761 111.533C119.445 111.916 120.383 112.455 121.404 113.056C122.425 113.657 123.37 114.209 124.047 114.612L124.84 115.098C124.94 115.153 125.034 115.218 125.121 115.293C125.014 115.253 124.911 115.204 124.814 115.144L124.001 114.695C123.317 114.311 122.376 113.773 121.358 113.171C120.34 112.57 119.392 112.018 118.715 111.615L117.922 111.13C117.823 111.074 117.729 111.01 117.641 110.938Z" fill="#E0E0E0"/>
<path d="M124.976 115.137C125.072 115.062 125.173 114.993 125.28 114.933L126.129 114.417C126.846 113.981 127.834 113.373 128.904 112.676C129.975 111.979 130.933 111.321 131.62 110.842L132.436 110.274C132.533 110.2 132.637 110.134 132.747 110.079C132.66 110.166 132.566 110.246 132.466 110.317C132.284 110.462 132.013 110.667 131.676 110.918C131.015 111.417 130.054 112.088 128.977 112.788C127.9 113.489 126.905 114.084 126.178 114.5C125.812 114.705 125.518 114.87 125.306 114.979C125.201 115.042 125.09 115.095 124.976 115.137Z" fill="#E0E0E0"/>
<path d="M130.226 121.164H120.565L123.717 145.032H127.07L130.226 121.164Z" fill="#E0E0E0"/>
<path d="M121.064 124.101C121.064 124.101 121.064 124.134 121.117 124.187C121.181 124.26 121.261 124.316 121.351 124.352C121.519 124.411 121.698 124.43 121.875 124.408C122.051 124.386 122.22 124.324 122.369 124.227C122.762 124.012 123.099 123.589 123.624 123.404C124.203 123.217 124.827 123.229 125.399 123.437C125.98 123.637 126.534 123.907 127.051 124.24C127.483 124.509 127.932 124.749 128.395 124.96C128.711 125.102 129.044 125.199 129.387 125.247C129.479 125.262 129.573 125.269 129.667 125.267C129.733 125.267 129.766 125.267 129.766 125.267C129.31 125.197 128.865 125.064 128.445 124.871C127.99 124.648 127.549 124.399 127.123 124.124C126.599 123.778 126.033 123.501 125.438 123.298C124.834 123.079 124.174 123.072 123.565 123.278C123.306 123.383 123.067 123.53 122.858 123.714C122.684 123.869 122.5 124.011 122.306 124.141C122.17 124.234 122.016 124.298 121.853 124.326C121.691 124.355 121.524 124.348 121.365 124.306C121.253 124.256 121.151 124.186 121.064 124.101Z" fill="#F5F5F5"/>
<path d="M121.417 128.495C121.417 128.495 121.493 128.396 121.645 128.238C121.866 128.022 122.129 127.855 122.418 127.749C122.848 127.593 123.304 127.524 123.76 127.547C124.325 127.588 124.886 127.664 125.442 127.775C126.009 127.883 126.589 127.908 127.163 127.848C127.631 127.785 128.087 127.655 128.518 127.461C128.806 127.33 129.079 127.167 129.33 126.975C129.428 126.912 129.515 126.834 129.588 126.744C129.232 126.977 128.858 127.182 128.471 127.359C128.048 127.528 127.603 127.64 127.15 127.689C126.589 127.741 126.024 127.713 125.471 127.606C124.91 127.496 124.341 127.423 123.77 127.388C123.294 127.371 122.82 127.455 122.379 127.633C122.08 127.753 121.814 127.942 121.602 128.185C121.548 128.251 121.499 128.321 121.457 128.396C121.438 128.426 121.424 128.46 121.417 128.495Z" fill="#F5F5F5"/>
<path d="M129.132 130.848C129.053 130.785 128.962 130.738 128.865 130.709C128.608 130.612 128.338 130.555 128.065 130.537C127.659 130.512 127.252 130.535 126.852 130.607C126.403 130.679 125.921 130.805 125.412 130.91C124.941 131.023 124.459 131.077 123.975 131.072C123.582 131.063 123.194 130.98 122.831 130.828C122.502 130.674 122.208 130.455 121.966 130.184C122.001 130.278 122.057 130.363 122.128 130.435C122.313 130.641 122.537 130.809 122.789 130.927C123.159 131.103 123.561 131.202 123.971 131.218C124.468 131.232 124.965 131.181 125.448 131.066C125.96 130.957 126.439 130.828 126.882 130.735C127.271 130.661 127.666 130.627 128.062 130.636C128.426 130.662 128.786 130.733 129.132 130.848Z" fill="#F5F5F5"/>
<path d="M122.273 134.158C122.567 134.03 122.894 133.996 123.208 134.063C123.552 134.146 123.884 134.269 124.199 134.429C124.764 134.697 125.387 134.821 126.012 134.789C126.636 134.756 127.243 134.569 127.778 134.244C127.986 134.118 128.18 133.97 128.356 133.802C128.421 133.741 128.478 133.672 128.524 133.597C128.269 133.797 128.002 133.981 127.725 134.148C127.039 134.522 126.259 134.688 125.481 134.624C124.566 134.571 123.866 134.026 123.231 133.963C122.985 133.915 122.729 133.932 122.491 134.013C122.336 134.079 122.267 134.152 122.273 134.158Z" fill="#F5F5F5"/>
<path d="M122.822 138.738C123.099 138.747 123.375 138.692 123.628 138.579C124.113 138.417 124.715 138.044 125.418 137.766C125.744 137.632 126.091 137.559 126.443 137.551C126.729 137.55 127.011 137.614 127.269 137.74C127.501 137.867 127.705 138.041 127.867 138.252C127.853 138.178 127.821 138.109 127.774 138.05C127.658 137.88 127.503 137.739 127.322 137.641C127.053 137.492 126.753 137.412 126.446 137.406C126.074 137.406 125.706 137.478 125.362 137.617C124.632 137.908 124.041 138.278 123.588 138.473C123.135 138.668 122.822 138.714 122.822 138.738Z" fill="#F5F5F5"/>
<path d="M123.284 140.869C123.477 140.966 123.683 141.034 123.895 141.07C124.399 141.19 124.91 141.277 125.425 141.328C125.94 141.378 126.458 141.392 126.975 141.371C127.19 141.375 127.404 141.35 127.612 141.295C127.612 141.249 126.621 141.295 125.438 141.169C124.256 141.044 123.294 140.822 123.284 140.869Z" fill="#F5F5F5"/>
<path d="M45.424 34.2125L17.0857 40.948L26.9734 82.549L55.3117 75.8135L45.424 34.2125Z" fill="#E0E0E0"/>
<path d="M43.2181 32.9852L14.8798 39.7207L24.7675 81.3217L53.1058 74.5862L43.2181 32.9852Z" fill="#EBEBEB"/>
<path d="M40.9423 32.6144L12.604 39.3499L22.303 80.1569L50.6413 73.4214L40.9423 32.6144Z" fill="#F5F5F5"/>
<path d="M40.5892 75.8137C40.5892 75.8137 47.1972 71.3104 48.8194 66.0703C48.1207 66.854 47.2703 67.4879 46.3197 67.9336C45.369 68.3794 44.3379 68.6279 43.2886 68.6639C43.2886 68.6639 42.5848 74.2675 40.5892 75.8137Z" fill="#EBEBEB"/>
<path d="M40.7411 43.4842C40.7411 43.5304 35.7224 44.7628 29.5076 46.2397C23.2929 47.7166 18.2444 48.8829 18.2345 48.83C18.2246 48.7771 23.2532 47.5514 29.468 46.0745C35.6828 44.5976 40.7312 43.4346 40.7411 43.4842Z" fill="#E0E0E0"/>
<path d="M41.445 46.458C41.445 46.5042 36.4263 47.7399 30.2115 49.2135C23.9967 50.687 18.9483 51.8566 18.9384 51.8038C18.9285 51.7509 23.9571 50.5251 30.1719 49.0483C36.3866 47.5714 41.4318 46.3952 41.445 46.458Z" fill="#E0E0E0"/>
<path d="M42.1487 49.4017C42.1487 49.448 37.13 50.6837 30.9152 52.1605C24.7005 53.6374 19.652 54.8037 19.6421 54.7508C19.6322 54.698 24.6575 53.4689 30.8756 51.992C37.0936 50.5152 42.1355 49.3555 42.1487 49.4017Z" fill="#E0E0E0"/>
<path d="M42.8656 52.3622C42.8656 52.4084 37.8469 53.6441 31.6322 55.121C25.4174 56.5979 20.3689 57.7642 20.359 57.7113C20.3491 57.6584 25.3744 56.4294 31.5925 54.9525C37.8106 53.4756 42.8392 52.3159 42.8656 52.3622Z" fill="#E0E0E0"/>
<path d="M43.5561 55.3224C43.5561 55.3686 38.5374 56.6043 32.3227 58.0812C26.1079 59.5581 21.0594 60.7178 21.0594 60.6649C21.0594 60.612 26.0749 59.383 32.2929 57.9061C38.511 56.4292 43.5429 55.2761 43.5561 55.3224Z" fill="#E0E0E0"/>
<path d="M44.2599 58.2828C44.2599 58.3291 39.2412 59.5648 33.0264 61.0416C26.8117 62.5185 21.7665 63.6848 21.7566 63.632C21.7467 63.5791 26.772 62.35 32.9901 60.8731C39.2081 59.3963 44.2467 58.2366 44.2599 58.2828Z" fill="#E0E0E0"/>
<path d="M44.9636 61.243C44.9636 61.2893 39.9449 62.525 33.7302 64.0018C27.5154 65.4787 22.4703 66.645 22.4603 66.5922C22.4504 66.5393 27.4758 65.3102 33.6938 63.8333C39.9119 62.3565 44.9504 61.1968 44.9636 61.243Z" fill="#E0E0E0"/>
<path d="M45.6674 64.2069C45.6674 64.2532 40.6487 65.4855 34.4339 66.9624C28.2191 68.4393 23.174 69.6056 23.1641 69.5527C23.1542 69.4999 28.1795 68.2708 34.3976 66.7939C40.6156 65.317 45.6542 64.1607 45.6674 64.2069Z" fill="#E0E0E0"/>
<path d="M150 145.002C150 145.048 116.419 145.088 75 145.088C33.5815 145.088 0 145.048 0 145.002C0 144.956 33.5782 144.916 75 144.916C116.422 144.916 150 144.952 150 145.002Z" fill="#263238"/>
<path d="M64.4768 133.455L63.707 141.942L61.1596 148.481C61.1161 148.592 61.096 148.712 61.1005 148.831C61.105 148.951 61.134 149.068 61.1857 149.176C61.2375 149.284 61.3108 149.38 61.4013 149.458C61.4917 149.536 61.5973 149.595 61.7114 149.631C61.8442 149.674 61.9854 149.684 62.1229 149.66C62.2603 149.636 62.3901 149.58 62.5011 149.495C63.935 148.402 69.1883 144.358 69.2114 143.733C69.2378 143.01 70.6189 134.829 70.6189 134.829L64.4768 133.455Z" fill="#034C82"/>
<g opacity="0.6">
<path d="M61.6982 149.634L69.2643 143.165L69.2214 143.522C69.1882 143.833 69.0439 144.122 68.815 144.335C68.2071 144.906 66.5022 146.446 62.5143 149.502C62.3998 149.59 62.2654 149.648 62.1229 149.671C61.9805 149.694 61.8346 149.681 61.6982 149.634Z" fill="white"/>
</g>
<g opacity="0.6">
<path d="M67.8503 140.234C67.7395 140.299 67.656 140.402 67.6153 140.523C67.5745 140.645 67.5794 140.777 67.6289 140.895C67.6885 141.011 67.7904 141.099 67.9135 141.142C68.0366 141.184 68.1714 141.178 68.2897 141.123C68.4092 141.054 68.4989 140.944 68.5416 140.812C68.5843 140.681 68.577 140.539 68.521 140.413C68.4459 140.299 68.3294 140.219 68.1962 140.189C68.063 140.159 67.9236 140.183 67.8073 140.254" fill="white"/>
</g>
<path d="M64.0705 146.155C63.9 145.867 63.6756 145.615 63.4097 145.412C63.1132 145.253 62.7891 145.152 62.4548 145.114C62.4548 145.091 62.5639 145.038 62.7654 145.032C63.0304 145.032 63.2896 145.109 63.5121 145.253C63.7346 145.395 63.9113 145.598 64.0209 145.838C64.0936 146.023 64.0936 146.148 64.0705 146.155Z" fill="#263238"/>
<path d="M63.3502 147.229C63.3072 147.262 63.066 146.955 62.6431 146.78C62.375 146.698 62.1025 146.63 61.827 146.578C61.9668 146.512 62.1204 146.48 62.275 146.485C62.4296 146.49 62.5807 146.532 62.7158 146.608C63.185 146.799 63.3832 147.202 63.3502 147.229Z" fill="#263238"/>
<path d="M65.3591 144.827C65.0299 144.545 64.6798 144.289 64.3117 144.06C63.9159 143.884 63.5072 143.738 63.0892 143.624C63.5428 143.588 63.9974 143.681 64.3996 143.894C64.8017 144.107 65.1346 144.431 65.3591 144.827Z" fill="#263238"/>
<path d="M65.8083 142.273C65.7819 142.322 65.3359 142.071 64.7279 141.982C64.12 141.893 63.6244 141.982 63.6112 141.926C63.9747 141.781 64.3708 141.736 64.7575 141.797C65.1442 141.858 65.5073 142.023 65.8083 142.273Z" fill="#263238"/>
<path d="M66.0991 139.782C65.7441 139.62 65.3682 139.509 64.9823 139.451C64.5916 139.451 64.2027 139.503 63.8259 139.607C63.8259 139.587 63.9184 139.491 64.1266 139.402C64.402 139.289 64.7001 139.242 64.9968 139.266C65.2935 139.289 65.5805 139.382 65.8347 139.537C66.0264 139.653 66.1156 139.762 66.0991 139.782Z" fill="#263238"/>
<path d="M65.0517 138.969C65.0362 138.858 65.0453 138.745 65.0782 138.638C65.1393 138.348 65.2584 138.073 65.4284 137.829C65.5371 137.64 65.704 137.492 65.9042 137.406C65.9729 137.385 66.0465 137.385 66.1151 137.407C66.1837 137.429 66.2438 137.471 66.2874 137.528C66.3658 137.646 66.3987 137.788 66.3799 137.928C66.3271 138.21 66.178 138.465 65.9581 138.65C65.7381 138.834 65.461 138.936 65.174 138.939C64.8889 138.938 64.6108 138.851 64.3753 138.69C64.1398 138.529 63.9577 138.302 63.8524 138.037C63.826 137.97 63.8144 137.898 63.8184 137.826C63.8224 137.755 63.8419 137.684 63.8755 137.621C63.9144 137.56 63.9723 137.513 64.0404 137.488C64.1084 137.463 64.1829 137.461 64.2522 137.482C64.4556 137.551 64.6369 137.673 64.7775 137.836C64.988 138.045 65.1592 138.29 65.283 138.559C65.3347 138.654 65.3673 138.759 65.3788 138.866C65.194 138.524 64.9615 138.209 64.6883 137.931C64.5595 137.796 64.3996 137.694 64.2224 137.634C64.1842 137.622 64.1431 137.623 64.1055 137.637C64.0678 137.65 64.0358 137.676 64.0143 137.71C63.9961 137.753 63.9868 137.799 63.9868 137.846C63.9868 137.892 63.9961 137.938 64.0143 137.981C64.1119 138.206 64.2722 138.398 64.4761 138.535C64.6799 138.671 64.9188 138.746 65.1641 138.751C65.4062 138.748 65.6401 138.663 65.8278 138.51C66.0156 138.357 66.1461 138.145 66.1982 137.908C66.2152 137.811 66.1964 137.712 66.1454 137.627C66.1222 137.595 66.0893 137.57 66.0513 137.557C66.0134 137.544 65.9723 137.543 65.9339 137.555C65.7649 137.629 65.6222 137.752 65.5242 137.908C65.3062 138.232 65.1463 138.591 65.0517 138.969Z" fill="#263238"/>
<path d="M97.6388 50.9942C97.6474 51.0311 97.6474 51.0696 97.6388 51.1065C97.4967 51.6252 96.6046 53.7959 96.3007 53.786C95.9967 53.7761 95.283 53.3102 95.3458 52.9997C95.4086 52.6891 96.5485 50.3036 96.5485 50.3036C96.5485 50.3036 96.7533 49.9402 97.4405 50.1021C97.5231 50.1252 97.6189 51.0834 97.6388 50.9942Z" fill="#EB996E"/>
<path d="M96.5088 49.6991C96.5088 49.6991 96.5088 49.7453 96.4923 49.8081C96.3469 50.3301 95.4581 52.5008 95.1542 52.4876C94.8502 52.4744 94.1365 52.0119 94.1993 51.7046C94.2621 51.3973 95.402 49.0086 95.402 49.0086C95.402 49.0086 95.6068 48.6418 96.294 48.8037C96.7202 48.9028 96.5088 49.6991 96.5088 49.6991Z" fill="#EB996E"/>
<path d="M95.511 48.8003C95.511 48.8003 95.511 48.8466 95.511 48.9094C95.3689 49.4314 94.4768 51.6021 94.1729 51.5889C93.8689 51.5757 93.1552 51.1131 93.218 50.8058C93.2808 50.4986 94.4074 48.1098 94.4074 48.1098C94.3645 48.1858 94.3083 47.6737 95.2995 47.9049C95.729 48.0041 95.511 48.8003 95.511 48.8003Z" fill="#EB996E"/>
<path d="M94.2522 47.9347C94.2522 47.9347 94.2522 47.9809 94.2522 48.0437C94.1101 48.5657 93.218 50.7331 92.9141 50.7232C92.6101 50.7133 91.8964 50.2475 91.9592 49.9402C92.022 49.6329 93.1619 47.2442 93.1619 47.2442C93.1619 47.2442 93.3667 46.8774 94.0539 47.0393C94.4603 47.1384 94.2522 47.9347 94.2522 47.9347Z" fill="#EB996E"/>
<path d="M95.5704 52.3589C95.7842 52.0409 95.9584 51.6981 96.0892 51.3379C96.2616 51.0002 96.3893 50.6415 96.4691 50.2708C96.2543 50.5893 96.0801 50.9334 95.9504 51.295C95.776 51.6307 95.6482 51.9886 95.5704 52.3589Z" fill="#D1734A"/>
<path d="M94.2787 51.8599C94.5635 51.3959 94.8036 50.9058 94.9957 50.3963C95.2336 49.9077 95.4282 49.3991 95.5772 48.8765C95.2939 49.3414 95.0539 49.8313 94.8602 50.3401C94.6222 50.8287 94.4277 51.3373 94.2787 51.8599Z" fill="#D1734A"/>
<g opacity="0.78">
<path d="M93.0132 51.2386C93.3036 50.7705 93.5492 50.2761 93.7467 49.7618C93.9857 49.2737 94.1804 48.765 94.3282 48.2419C94.0468 48.7067 93.8068 49.1954 93.6112 49.7023C93.3671 50.1959 93.167 50.71 93.0132 51.2386Z" fill="#D1734A"/>
</g>
<path d="M96.0198 55.3785C96.0726 55.2497 96.9383 52.6792 96.9383 52.6792L91.9823 50.2375C91.7312 50.5679 90.968 54.1726 90.968 54.1726L91.1431 55.4016C91.1431 55.4016 94.903 57.5624 95.0055 57.5823C95.1079 57.6021 96.0198 55.3785 96.0198 55.3785Z" fill="#EB996E"/>
<path d="M92.1475 54.2683L91.642 52.4049C91.4219 51.5864 91.5248 50.7147 91.9294 49.9699L92.24 49.4016L96.4493 51.3179C96.4493 51.3179 95.4746 52.699 94.4041 51.9523L95.2268 53.5514L92.1475 54.2683Z" fill="#EB996E"/>
<path d="M94.8634 53.7034C94.8403 53.7034 94.8634 53.4854 94.804 53.1186C94.7021 52.6137 94.4188 52.1636 94.0077 51.8532L93.6178 51.5658L94.087 51.6946L95.1707 51.9986H95.1476C95.3834 52.0296 95.6233 51.993 95.8391 51.8929C96.0549 51.7929 96.2379 51.6336 96.3667 51.4336C96.3863 51.4027 96.4018 51.3694 96.413 51.3345L96.4758 51.4667C95.2632 50.9744 94.163 50.5151 93.4097 50.1451C93.0264 49.9567 92.7192 49.7948 92.5143 49.6792C92.4007 49.6275 92.2959 49.5584 92.2037 49.4744C92.6359 49.6288 93.0594 49.8064 93.4725 50.0063C94.2489 50.3367 95.3425 50.7827 96.5584 51.275L96.6509 51.3114L96.6178 51.4072C96.6027 51.4542 96.5827 51.4996 96.5584 51.5426C96.414 51.7972 96.1865 51.9943 95.9141 52.101C95.6666 52.1946 95.4014 52.2318 95.1377 52.21H95.1145L94.0374 51.8797L94.1167 51.7211C94.5516 52.0637 94.8351 52.563 94.9064 53.112C94.945 53.3095 94.9301 53.5136 94.8634 53.7034Z" fill="#D1734A"/>
<path d="M95.8745 51.8367C95.9174 51.8367 95.8447 52.0679 95.9108 52.3719C95.9243 52.4547 95.9634 52.5311 96.0227 52.5904C96.082 52.6497 96.1584 52.6888 96.2412 52.7023C96.3455 52.6953 96.4461 52.6612 96.5331 52.6032C96.62 52.5452 96.6903 52.4655 96.7368 52.3719C96.9912 51.9259 97.2522 51.5195 97.3976 51.2221C97.543 50.9248 97.6355 50.7265 97.6652 50.7364C97.695 50.7464 97.6652 50.9578 97.5364 51.2882C97.3531 51.7027 97.1422 52.1045 96.9053 52.4908C96.8404 52.6179 96.7415 52.7244 96.6195 52.7985C96.4976 52.8726 96.3575 52.9114 96.2148 52.9104C96.0938 52.8887 95.9836 52.8271 95.9016 52.7355C95.8196 52.6439 95.7705 52.5276 95.7621 52.4049C95.7419 52.2606 95.7555 52.1136 95.8018 51.9754C95.8348 51.8829 95.8613 51.8334 95.8745 51.8367Z" fill="#D1734A"/>
<path d="M78.7104 29.8654L77.2599 44.7333C77.2037 45.3024 76.9266 45.8268 76.4879 46.1938C76.0493 46.5607 75.4842 46.741 74.9141 46.6958L71.5011 46.4216C70.9307 46.3759 70.401 46.1079 70.0264 45.6752C69.6519 45.2425 69.4624 44.6799 69.4989 44.1088C69.6079 42.3247 69.7798 40.1441 69.7798 40.1441C69.7798 40.1441 66.6046 39.6518 66.565 36.4767C66.5452 34.9568 66.7599 31.8511 66.9879 29.013C67.1092 27.5061 67.7936 26.1001 68.9049 25.0752C70.0162 24.0502 71.4728 23.4815 72.9846 23.4822H73.1961C73.9812 23.5282 74.7491 23.7313 75.4544 24.0794C76.1596 24.4274 76.7879 24.9134 77.3021 25.5086C77.8162 26.1037 78.2058 26.796 78.4476 27.5443C78.6895 28.2927 78.7789 29.0819 78.7104 29.8654Z" fill="#EB996E"/>
<path d="M69.7731 40.1076C71.2427 40.1383 72.6879 39.7286 73.9229 38.9314C73.9229 38.9314 72.9317 41.2177 69.7764 40.9303L69.7731 40.1076Z" fill="#D1734A"/>
<path d="M67.6752 31.3687C67.7313 31.4281 68.075 31.1737 68.5639 31.177C69.0529 31.1803 69.4098 31.4215 69.4626 31.362C69.5155 31.3026 69.4296 31.2266 69.2743 31.1142C69.0637 30.9685 68.8134 30.8912 68.5573 30.8929C68.3032 30.8903 68.055 30.9703 67.8503 31.1209C67.6983 31.2365 67.6454 31.3422 67.6752 31.3687Z" fill="#263238"/>
<path d="M72.456 31.3686C72.5122 31.4281 72.8558 31.1737 73.3448 31.177C73.8338 31.1803 74.1873 31.4215 74.2434 31.362C74.2996 31.3025 74.2104 31.2266 74.0551 31.1142C73.843 30.9692 73.5918 30.892 73.3349 30.8929C73.0808 30.8909 72.8329 30.9709 72.6278 31.1208C72.4791 31.2365 72.4296 31.3422 72.456 31.3686Z" fill="#263238"/>
<path d="M70.7015 34.1968C70.4444 34.1152 70.178 34.0663 69.9086 34.0515C69.783 34.0515 69.6674 34.0151 69.6442 33.9292C69.6333 33.801 69.6634 33.6726 69.7301 33.5625C69.8458 33.2585 69.968 32.9446 70.0969 32.6109C70.609 31.2629 70.979 30.1495 70.9262 30.1297C70.8733 30.1098 70.4108 31.1902 69.8987 32.5416L69.5451 33.4931C69.4684 33.644 69.4462 33.8167 69.4824 33.9821C69.5011 34.0259 69.5292 34.0651 69.5645 34.097C69.5999 34.1289 69.6417 34.1529 69.6872 34.1671C69.7563 34.1847 69.8273 34.1935 69.8987 34.1935C70.1652 34.2269 70.4347 34.228 70.7015 34.1968Z" fill="#263238"/>
<path d="M72.1388 34.5338C72.0595 34.5338 72.0561 35.0591 71.6035 35.4357C71.1509 35.8124 70.5859 35.7661 70.5826 35.8256C70.5793 35.8851 70.7081 35.928 70.946 35.9346C71.2565 35.9404 71.5589 35.8349 71.7984 35.6373C72.0296 35.4501 72.178 35.1795 72.2114 34.884C72.2313 34.6626 72.1751 34.5304 72.1388 34.5338Z" fill="#263238"/>
<path d="M72.3468 28.666C72.3931 28.7981 72.8821 28.7353 73.4537 28.8047C74.0253 28.8741 74.4878 29.0294 74.5638 28.9105C74.6001 28.8543 74.5175 28.7287 74.3325 28.5999C74.0831 28.4427 73.8011 28.3444 73.508 28.3123C73.215 28.2802 72.9184 28.3153 72.6409 28.4149C72.4327 28.4975 72.327 28.6164 72.3468 28.666Z" fill="#263238"/>
<path d="M67.8569 29.0756C67.9428 29.1846 68.2765 29.0756 68.6829 29.0756C69.0893 29.0756 69.4296 29.1483 69.5056 29.0326C69.5419 28.9765 69.5056 28.8674 69.337 28.7617C69.1373 28.6377 68.9053 28.5753 68.6703 28.5823C68.4352 28.5894 68.2075 28.6656 68.0155 28.8014C67.8635 28.9071 67.8172 29.0194 67.8569 29.0756Z" fill="#263238"/>
<path d="M75.261 26.383H75.2808C75.7866 26.7821 76.1191 27.3607 76.2092 27.9986C76.2074 28.0195 76.2074 28.0405 76.2092 28.0614C76.3348 28.9667 76.3116 29.8885 76.4438 30.7938C76.5291 31.7118 76.9214 32.5743 77.5572 33.242C77.8315 33.4964 78.3172 33.6748 78.5484 33.3742C78.6224 33.2479 78.6612 33.1042 78.6608 32.9579C78.8293 30.7706 79.4273 28.8312 79.424 26.5449C79.424 26.2388 79.3516 25.937 79.2126 25.6642C79.0737 25.3914 78.8721 25.1554 78.6244 24.9755C78.1453 24.6451 77.5605 24.2784 77.0286 24.5295C76.4967 24.7806 75.8061 25.7784 75.3931 26.1814" fill="#263238"/>
<path d="M77.6399 31.2992C77.6928 31.2761 79.8205 30.6384 79.7511 32.8256C79.6818 35.0129 77.5176 34.4776 77.5143 34.4182C77.511 34.3587 77.6399 31.2992 77.6399 31.2992Z" fill="#EB996E"/>
<path d="M78.218 33.6155C78.218 33.6155 78.2543 33.6419 78.3171 33.6749C78.4083 33.7114 78.51 33.7114 78.6013 33.6749C78.744 33.591 78.8618 33.4705 78.9425 33.3259C79.0233 33.1813 79.064 33.0178 79.0605 32.8523C79.0716 32.6662 79.0411 32.4799 78.9713 32.3071C78.953 32.2387 78.9185 32.1757 78.8708 32.1234C78.8231 32.0711 78.7635 32.031 78.6971 32.0064C78.6539 31.9936 78.6075 31.9961 78.5659 32.0136C78.5244 32.031 78.4902 32.0624 78.4691 32.1023C78.4394 32.1617 78.4493 32.208 78.4394 32.2113C78.4295 32.2146 78.3931 32.1716 78.4129 32.0824C78.4273 32.0298 78.4586 31.9833 78.5021 31.9503C78.5641 31.9083 78.6394 31.8906 78.7136 31.9007C78.8027 31.921 78.885 31.9639 78.9527 32.0252C79.0205 32.0865 79.0712 32.1643 79.1002 32.2509C79.1849 32.4419 79.2223 32.6504 79.2092 32.8589C79.2129 33.0525 79.1599 33.243 79.0565 33.4069C78.9532 33.5707 78.8041 33.7007 78.6277 33.7807C78.5708 33.7928 78.512 33.7929 78.4551 33.781C78.3982 33.769 78.3445 33.7453 78.2973 33.7113C78.218 33.6683 78.1949 33.6188 78.218 33.6155Z" fill="#D1734A"/>
<path d="M77.108 24.8764C77.6432 24.0108 76.1762 22.7619 75.1058 22.4249C74.0353 22.0879 72.6245 22.6099 71.5573 22.9634C70.8965 23.1848 70.2159 23.4987 69.5055 23.4689C69.0325 23.4212 68.5693 23.3031 68.1311 23.1187C67.691 22.9335 67.2176 22.8402 66.7401 22.8445C66.5021 22.8493 66.27 22.9194 66.0691 23.0469C65.8681 23.1745 65.7059 23.3548 65.6003 23.5681C65.5548 23.6761 65.5331 23.7926 65.5367 23.9098C65.5403 24.027 65.5692 24.142 65.6212 24.247C65.6732 24.352 65.7473 24.4446 65.8383 24.5184C65.9294 24.5923 66.0352 24.6456 66.1487 24.6749C65.9975 24.5931 65.8287 24.5491 65.6568 24.5466C65.4849 24.5441 65.3149 24.5832 65.1613 24.6605C65.0078 24.7379 64.8752 24.8511 64.7748 24.9907C64.6744 25.1303 64.6093 25.2921 64.5849 25.4623C64.5605 25.6325 64.5776 25.806 64.6347 25.9682C64.6918 26.1304 64.7873 26.2763 64.9129 26.3937C65.0386 26.511 65.1907 26.5963 65.3564 26.6422C65.5221 26.6881 65.6964 26.6932 65.8646 26.6573C65.554 26.4227 65.0815 26.8092 65.1212 27.1958C65.1624 27.3854 65.2524 27.561 65.3822 27.7053C65.5119 27.8495 65.6771 27.9575 65.8613 28.0185C66.7666 28.415 67.8238 28.2894 68.7588 27.9722C69.6939 27.6551 70.5661 27.1661 71.4945 26.8291C72.4229 26.4921 73.9791 25.8808 74.9108 26.2112C75.5981 26.4524 76.0771 27.2784 76.4637 27.0967C76.6466 26.9995 76.8041 26.8606 76.9235 26.6913C77.0429 26.522 77.1208 26.327 77.1509 26.122C77.2027 25.7094 77.1882 25.2911 77.108 24.883" fill="#263238"/>
<path d="M65.8844 24.6154C65.9042 24.6154 65.9967 24.7773 66.2313 25.0284C66.5639 25.3818 66.978 25.6483 67.4373 25.8049C68.1108 26.05 68.8537 26.0203 69.5056 25.7223C70.2456 25.3919 70.8767 24.7311 71.6036 24.1066C72.2789 23.4759 73.1308 23.0667 74.0452 22.9337C74.423 22.8882 74.8063 22.9295 75.1658 23.0543C75.5253 23.1791 75.8517 23.3842 76.1201 23.654C76.2923 23.843 76.4246 24.0647 76.5092 24.306C76.5937 24.5472 76.6288 24.8031 76.6124 25.0582C76.5986 25.1937 76.5675 25.327 76.5199 25.4546C76.4802 25.5406 76.4538 25.5835 76.4472 25.5802C76.4891 25.4065 76.5167 25.2297 76.5298 25.0516C76.5306 24.5684 76.3434 24.104 76.0078 23.7564C75.7507 23.5145 75.4429 23.333 75.1069 23.225C74.7708 23.1169 74.4149 23.0852 74.065 23.132C73.1975 23.2721 72.3918 23.6692 71.7522 24.2718C71.0386 24.8798 70.3877 25.5604 69.5981 25.904C69.0158 26.1535 68.3685 26.2086 67.7525 26.061C67.1364 25.9134 66.5844 25.5709 66.1785 25.0846C66.093 24.9813 66.0168 24.8707 65.9505 24.7542C65.8976 24.6518 65.8778 24.6187 65.8844 24.6154Z" fill="#455A64"/>
<path d="M78.1916 31.2067C78.1916 31.2067 78.0991 31.1472 78.0165 30.9721C77.9077 30.7252 77.87 30.4529 77.9075 30.1857C77.957 29.4886 78.5683 28.7353 78.6542 27.7706C78.7081 27.3243 78.624 26.8723 78.413 26.4754C78.2277 26.1611 77.9445 25.9163 77.6068 25.7783C77.3773 25.6826 77.1267 25.6484 76.8799 25.6791C76.7081 25.7056 76.6123 25.7485 76.6057 25.732C76.5991 25.7155 76.6817 25.6527 76.8634 25.5965C77.1269 25.5308 77.404 25.5446 77.6597 25.6362C78.0429 25.7677 78.3687 26.0281 78.5815 26.373C78.8268 26.8024 78.9265 27.2996 78.8656 27.7904C78.8109 28.2678 78.6698 28.7313 78.4493 29.1582C78.2697 29.4879 78.1384 29.8418 78.0595 30.2089C78.0008 30.5472 78.0469 30.8953 78.1916 31.2067Z" fill="#455A64"/>
<path d="M59.4846 15.6518C59.3689 15.556 58.9592 12.0174 58.9592 12.0174L61.9328 10.2729L66.5583 11.3401L65.6299 13.9304L60.8788 16.4216L59.4846 15.6518Z" fill="#EB996E"/>
<path d="M50.2863 18.4502C50.2863 18.4502 57.7599 14.5647 62.5539 14.0559C67.8766 13.4876 73.2423 16.6561 73.2423 16.6561L72.1817 2.61757C72.1817 2.61757 67.1762 -1.11921 60.8095 0.469996C55.4108 1.81801 50.0088 4.43475 50.0088 4.43475L50.2863 18.4502Z" fill="#FAFAFA"/>
<path d="M50.2863 18.4502V18.209L50.2665 17.4854C50.25 16.8246 50.2269 15.8995 50.1938 14.6936C50.1377 12.2519 50.0551 8.74643 49.9526 4.45127V4.40832L49.9923 4.3885C51.4229 3.72771 52.9824 3.04048 54.6608 2.40612C56.4233 1.70849 58.2208 1.10305 60.0463 0.592244L60.7665 0.400614L61.5099 0.248631C62.0117 0.14658 62.5193 0.0748644 63.0297 0.0338734C64.0786 -0.0382858 65.1323 0.0049244 66.1718 0.162728C67.2405 0.334144 68.2881 0.617646 69.2974 1.00854C70.3378 1.4044 71.328 1.92116 72.2478 2.54819L72.2775 2.56801V2.61097C72.2775 2.74643 72.3007 2.89511 72.3106 3.04048C72.6707 7.85436 73.0176 12.4568 73.3315 16.6495V16.7982L73.1993 16.7255C71.7083 15.9045 70.1317 15.2497 68.4978 14.7729C67.0134 14.3343 65.476 14.1009 63.9284 14.079C62.5554 14.0876 61.1901 14.2855 59.8711 14.6671C58.6355 14.9975 57.5187 15.3874 56.5143 15.7607C54.5121 16.5174 52.9625 17.2145 51.9053 17.7035L50.7026 18.2718L50.3954 18.4204L50.2863 18.4667L50.3888 18.4072L50.6894 18.2486C50.9603 18.1099 51.3502 17.9182 51.8855 17.6539C52.9328 17.1517 54.4791 16.4381 56.4813 15.6715C57.4725 15.2916 58.6024 14.8984 59.8414 14.5581C61.1696 14.1644 62.5464 13.9586 63.9317 13.9469C65.4987 13.9665 67.0554 14.2033 68.5573 14.6506C70.2059 15.1231 71.7962 15.7792 73.2985 16.6066L73.1795 16.6825C72.8491 12.4898 72.5187 7.8874 72.1454 3.07352L72.1123 2.6407L72.1487 2.70348C71.2406 2.08749 70.2637 1.57964 69.2379 1.19026C68.2393 0.802895 67.2028 0.521612 66.1454 0.351054C65.1121 0.186938 64.064 0.137078 63.0198 0.202376C62.5163 0.243031 62.0154 0.312528 61.5198 0.410525L60.7863 0.562508L60.0694 0.750834C58.251 1.24764 56.4591 1.83651 54.7004 2.51515C53.0253 3.15612 51.4626 3.83674 50.0385 4.49753L50.0749 4.43806C50.1443 8.73321 50.2004 12.2156 50.2401 14.6473C50.2566 15.8599 50.2698 16.8081 50.2797 17.459V18.1991C50.2896 18.3742 50.2863 18.4502 50.2863 18.4502Z" fill="#263238"/>
<path d="M69.3172 12.7872C69.2676 12.7872 69.0694 10.4183 68.8745 7.50089C68.6795 4.58349 68.5573 2.18481 68.6035 2.18481C68.6498 2.18481 68.848 4.55045 69.0463 7.47116C69.2445 10.3919 69.3634 12.7839 69.3172 12.7872Z" fill="#E0E0E0"/>
<path d="M67.4406 12.0504C67.3943 12.0504 67.1961 9.68145 67.0011 6.76405C66.8062 3.84665 66.6707 1.47771 66.7302 1.45789C66.7897 1.43806 66.9747 3.82352 67.1696 6.74423C67.3646 9.66493 67.4901 12.0471 67.4406 12.0504Z" fill="#E0E0E0"/>
<path d="M65.6332 11.7927C65.587 11.7927 65.3887 9.42376 65.1905 6.50636C64.9922 3.58896 64.8601 1.2002 64.9229 1.2002C64.9856 1.2002 65.1673 3.56583 65.3623 6.48654C65.5572 9.40724 65.6795 11.7894 65.6332 11.7927Z" fill="#E0E0E0"/>
<path d="M61.9229 12.3114C61.8766 12.3114 61.6784 9.94244 61.4801 7.02504C61.2819 4.10764 61.1498 1.7387 61.2125 1.71887C61.2753 1.69905 61.457 4.08451 61.652 7.00522C61.8469 9.92592 61.9691 12.3081 61.9229 12.3114Z" fill="#E0E0E0"/>
<path d="M60.195 12.7872C60.1487 12.7872 59.9505 10.4216 59.7556 7.50089C59.5606 4.58019 59.4384 2.18481 59.4846 2.18481C59.5309 2.18481 59.7291 4.55376 59.9274 7.47116C60.1256 10.3886 60.2446 12.7839 60.195 12.7872Z" fill="#E0E0E0"/>
<path d="M58.3579 13.2563C58.3083 13.2563 58.1134 10.8874 57.9152 7.96999C57.7169 5.05258 57.5848 2.66382 57.6442 2.66382C57.7037 2.66382 57.892 5.02946 58.087 7.95016C58.2819 10.8709 58.3942 13.253 58.3579 13.2563Z" fill="#E0E0E0"/>
<path d="M54.859 14.7002C54.8095 14.7002 54.6112 12.3345 54.4163 9.41384C54.2214 6.49313 54.0859 4.11097 54.1454 4.10767C54.2048 4.10437 54.3898 6.47661 54.5881 9.39401C54.7863 12.3114 54.9053 14.6969 54.859 14.7002Z" fill="#E0E0E0"/>
<path d="M56.5309 13.9171C56.4813 13.9171 56.2864 11.5515 56.0881 8.63076C55.8899 5.71006 55.7577 3.3246 55.8172 3.32129C55.8767 3.31799 56.065 5.69023 56.2599 8.60764C56.4549 11.525 56.5771 13.9171 56.5309 13.9171Z" fill="#E0E0E0"/>
<path d="M52.9064 15.328C52.8601 15.328 52.6619 12.959 52.4669 10.0416C52.272 7.12424 52.1365 4.7553 52.196 4.73547C52.2555 4.71565 52.4405 7.10111 52.6387 10.0218C52.837 12.9425 52.9559 15.3247 52.9064 15.328Z" fill="#E0E0E0"/>
<path d="M63.7268 11.8457C63.6806 11.8457 63.4823 9.47674 63.2841 6.55934C63.0859 3.64194 62.9537 1.25648 63.0165 1.25318C63.0793 1.24987 63.261 3.61882 63.4559 6.53952C63.6508 9.46023 63.7731 11.8424 63.7268 11.8457Z" fill="#E0E0E0"/>
<path d="M66.2147 11.9579C66.6026 11.7596 67.0131 11.6087 67.4371 11.5086C68.2103 11.2674 69.2907 10.9502 70.5131 10.6132L70.4636 10.9205L69.9812 10.6165C67.609 9.14623 65.3986 8.54491 65.4316 8.44249C65.4316 8.39954 66.0065 8.49866 66.8887 8.77289C68.0336 9.1596 69.1309 9.67502 70.1596 10.3092C70.3314 10.4117 70.49 10.5207 70.6519 10.6231C70.6789 10.6415 70.7001 10.6672 70.713 10.6972C70.726 10.7272 70.7301 10.7603 70.7249 10.7925C70.7197 10.8248 70.7054 10.8549 70.6837 10.8793C70.662 10.9037 70.6338 10.9214 70.6023 10.9304C69.3766 11.2608 68.2896 11.5317 67.4966 11.7167C67.081 11.8503 66.6504 11.9313 66.2147 11.9579Z" fill="#034C82"/>
<path d="M68.0386 11.5813C67.9461 11.5813 67.7908 10.8082 67.7082 9.83684C67.6256 8.86547 67.6091 8.06591 67.7082 8.056C67.8073 8.04609 67.956 8.82582 68.0386 9.80049C68.1212 10.7752 68.1344 11.5714 68.0386 11.5813Z" fill="#034C82"/>
<path d="M70.6519 10.9567C70.6519 10.9567 70.6916 11.0162 70.7279 11.1484C70.7731 11.346 70.7604 11.5524 70.6916 11.7431C70.5766 12.0445 70.3741 12.3045 70.1101 12.4898C69.9534 12.6095 69.7838 12.7115 69.6046 12.7937C69.4016 12.8838 69.1887 12.9492 68.9702 12.9887C68.4699 13.0838 67.9549 13.0703 67.4603 12.949C67.1851 12.8847 66.9156 12.7985 66.6541 12.6913C66.2073 12.5287 65.7969 12.2796 65.4466 11.9581C65.0962 11.6366 64.8127 11.2492 64.6123 10.818C64.2636 10.1968 64.1465 9.47216 64.2819 8.77282C64.3677 8.4018 64.5833 8.07367 64.8898 7.84771C65.1851 7.64547 65.5254 7.51844 65.881 7.47767C66.739 7.36575 67.6113 7.48041 68.4112 7.81022C69.2111 8.14004 69.9107 8.67353 70.4405 9.35763C70.8807 9.9405 71.1434 10.638 71.1971 11.3664C71.2354 11.6278 71.2287 11.8937 71.1773 12.1528C71.1261 11.8984 71.0886 11.6414 71.0649 11.383C70.9651 10.6968 70.6833 10.05 70.2488 9.50961C69.5988 8.71481 68.7084 8.15248 67.7114 7.90719C67.1309 7.75936 66.5272 7.7257 65.9339 7.80807C65.6321 7.85096 65.3447 7.96413 65.0947 8.13846C64.8531 8.31642 64.6841 8.57578 64.6189 8.86864C64.5047 9.48913 64.6123 10.13 64.9228 10.6792C65.1793 11.2168 65.5639 11.6831 66.0429 12.0371C66.8862 12.6145 67.9077 12.8722 68.9239 12.764C69.3084 12.7108 69.675 12.5682 69.9944 12.3477C70.2398 12.1916 70.4376 11.971 70.566 11.7101C70.6378 11.54 70.6694 11.3557 70.6585 11.1715C70.6417 11.1011 70.6395 11.028 70.6519 10.9567Z" fill="#034C82"/>
<path d="M63.1487 16.9898L64.6388 15.7838C65.2904 15.2578 65.7131 14.5 65.8183 13.6693L65.9009 13.0349L61.4241 12.1296C61.4241 12.1296 61.0045 13.4843 62.6895 13.8213C61.1961 14.4821 60.6377 15.8036 60.228 17.2871L63.1487 16.9898Z" fill="#EB996E"/>
<path d="M61.3018 14.9645C61.3249 14.9645 61.4207 14.7795 61.6917 14.5317C62.0636 14.1849 62.551 13.9883 63.0595 13.98H63.5386L63.0892 13.8115L62.0452 13.4183H62.065C61.8559 13.3079 61.6827 13.1401 61.5656 12.9347C61.4486 12.7293 61.3926 12.4947 61.4042 12.2586C61.4077 12.2228 61.4143 12.1874 61.424 12.1529L61.2985 12.2222C62.554 12.5328 63.6906 12.7938 64.5232 12.9359C64.9395 13.0086 65.2765 13.0581 65.5143 13.0813C65.635 13.1053 65.7585 13.112 65.8811 13.1011C65.4467 12.9732 65.0054 12.8695 64.5595 12.7905C63.7401 12.6121 62.6102 12.328 61.3547 12.0141L61.2588 11.991L61.2291 12.0835C61.2144 12.132 61.2045 12.1818 61.1994 12.2322C61.1654 12.5183 61.2332 12.8072 61.391 13.0482C61.5339 13.2677 61.7248 13.4519 61.9494 13.5868L63 13.9502L63.0298 13.7784C62.4825 13.8013 61.9662 14.0387 61.5925 14.4392C61.4505 14.5853 61.3502 14.7666 61.3018 14.9645Z" fill="#D1734A"/>
<path d="M71.8678 136.593L78.2941 85.7122L77.0617 78.0007H64.1531L62.6134 135.665C62.607 135.886 62.6792 136.101 62.8172 136.274C62.9552 136.446 63.1499 136.564 63.3667 136.606L70.424 137.693C70.5915 137.719 70.7623 137.711 70.9265 137.669C71.0906 137.627 71.2446 137.552 71.3793 137.45C71.5141 137.347 71.6267 137.218 71.7107 137.071C71.7946 136.924 71.848 136.761 71.8678 136.593Z" fill="#263238"/>
<path d="M78.1091 87.4269L89.7985 98.9908L72.9813 103.078L74.1774 111.546L96.9384 108.45C97.9014 108.319 98.8276 107.993 99.6609 107.493C100.494 106.992 101.217 106.328 101.785 105.539C102.645 104.346 103.116 102.917 103.136 101.446C103.155 99.9758 102.722 98.5348 101.894 97.319L84.1652 71.3003L76.2357 73.8807L78.1091 87.4269Z" fill="#263238"/>
<path d="M77.4647 84.4734C77.6543 84.9412 77.7906 85.4288 77.8711 85.9271C78.0068 86.4132 78.0866 86.9131 78.109 87.4172C77.9194 86.9494 77.7831 86.4618 77.7026 85.9635C77.567 85.4774 77.4871 84.9775 77.4647 84.4734Z" fill="#455A64"/>
<path d="M75.7632 104.142C75.7632 104.142 75.8557 104.105 76.0407 104.049L76.8568 103.795L79.9956 102.84L91.4074 99.4072L91.3777 99.5162L77.3458 84.579L77.4944 84.5294C77.2136 86.8785 76.9262 89.3268 76.6288 91.8279C75.1817 103.947 73.8237 114.913 72.7698 122.842C72.2478 126.807 71.7786 130.009 71.4482 132.219C71.2599 133.322 71.1376 134.181 71.0088 134.756L70.87 135.417C70.837 135.562 70.8171 135.638 70.8171 135.638C70.8254 135.562 70.8375 135.486 70.8535 135.41C70.8799 135.259 70.9229 135.04 70.9757 134.75C71.0914 134.175 71.2037 133.312 71.3821 132.209C71.7125 129.995 72.1387 126.79 72.6475 122.826C73.6685 114.896 75.0066 103.927 76.4537 91.8081C76.7511 89.307 77.0418 86.8521 77.3226 84.5096L77.3425 84.3279L77.468 84.46L91.4702 99.427L91.5429 99.5063L91.4405 99.536L80.0121 102.913L76.8667 103.831L76.0407 104.069L75.7632 104.142Z" fill="#455A64"/>
<path d="M71.9802 135.635C71.9307 135.635 73.2655 124.828 74.9538 111.516C76.6421 98.2045 78.0562 87.3972 78.1025 87.417C78.1487 87.4368 76.8172 98.2177 75.1289 111.536C73.4406 124.854 72.0265 135.638 71.9802 135.635Z" fill="#455A64"/>
<path d="M76.2125 79.0879C76.3329 79.3398 76.4238 79.6048 76.4835 79.8775C76.6255 80.3698 76.8138 81.0604 76.9724 81.8269C77.131 82.5934 77.2632 83.2938 77.3392 83.8092C77.3973 84.0818 77.425 84.3599 77.4218 84.6385C77.3267 84.3776 77.2592 84.1074 77.2202 83.8324C77.1013 83.2674 76.9592 82.6033 76.8039 81.8698L76.3645 79.9139C76.2868 79.6442 76.2359 79.3675 76.2125 79.0879Z" fill="#455A64"/>
<path d="M76.9626 78.09C76.9626 78.09 77.1278 77.9314 77.4383 78.0405C77.5291 78.0729 77.6096 78.1288 77.6717 78.2026C77.7338 78.2763 77.7753 78.3651 77.7919 78.4601C77.8143 78.5777 77.8012 78.6993 77.7541 78.8094C77.707 78.9194 77.6281 79.0129 77.5276 79.0779C77.4236 79.1348 77.3049 79.1589 77.1869 79.1471C77.069 79.1353 76.9574 79.0881 76.8668 79.0118C76.7921 78.9486 76.7377 78.8646 76.7107 78.7705C76.6837 78.6765 76.6851 78.5765 76.7148 78.4832C76.7465 78.3614 76.8248 78.257 76.9328 78.1924C77.0088 78.1495 77.0584 78.1495 77.0617 78.1594C77.065 78.1693 76.8833 78.2519 76.8304 78.5129C76.8157 78.5821 76.8206 78.654 76.8445 78.7205C76.8685 78.7871 76.9105 78.8456 76.9659 78.8896C77.0332 78.9432 77.1149 78.9759 77.2006 78.9835C77.2864 78.9911 77.3725 78.9734 77.4483 78.9325C77.5199 78.8835 77.5764 78.8155 77.6114 78.7361C77.6464 78.6567 77.6586 78.5691 77.6465 78.4832C77.6357 78.4119 77.6074 78.3445 77.5642 78.2868C77.5209 78.2292 77.4641 78.1831 77.3987 78.1528C77.2603 78.0979 77.1109 78.0764 76.9626 78.09Z" fill="#455A64"/>
<path d="M93.2379 100.973C93.2049 101.013 92.5441 100.408 91.5859 99.8631C90.6278 99.318 89.7919 99.0371 89.8051 98.9875C91.1249 99.2727 92.3214 99.9663 93.2247 100.97L93.2379 100.973Z" fill="#455A64"/>
<path d="M63.968 77.8455L62.8314 57.6219C62.8314 57.6219 61.1365 50.3366 59.6729 47.4093L67.4008 41.7463L69.403 42.7078L73.3678 46.3124L77.3788 43.9699C77.3788 43.9699 82.1828 45.9919 83.4482 46.7518C84.7136 47.5118 84.9647 49.5338 84.9647 49.5338C84.9647 49.5338 80.7984 56.8752 80.6696 59.7562C80.5407 62.6373 84.8358 69.9985 84.8358 69.9985C84.8358 69.9985 87.185 70.6957 87.3171 72.5855C87.4328 74.221 86.6729 74.8058 86.6729 74.8058C86.6729 74.8058 86.3425 73.0283 83.9537 73.7882C81.5649 74.5481 76.566 78.9721 72.9812 79.0977C69.3964 79.2232 63.968 77.8455 63.968 77.8455Z" fill="#034C82"/>
<path d="M84.7533 48.6716L87.7995 61.1606L91.2621 52.9007L96.1718 55.8743C96.1718 55.8743 91.5462 72.3313 86.9603 70.7124C86.9603 70.7124 84.1057 69.2685 83.7555 68.2443C83.4053 67.2201 78.1123 59.7564 78.1123 59.7564L84.7533 48.6716Z" fill="#034C82"/>
<path d="M84.826 69.9987C84.826 69.9987 84.7831 69.9524 84.7203 69.8599L84.4428 69.4535C84.3238 69.2751 84.1751 69.0571 84.0265 68.7928C83.8778 68.5284 83.6961 68.2344 83.5209 67.8875C83.3458 67.5406 83.1476 67.1738 82.9725 66.7575C82.7974 66.3412 82.6091 65.8952 82.4306 65.4194C82.0632 64.3787 81.7792 63.3103 81.5815 62.2245C81.3993 61.1323 81.301 60.0277 81.2875 58.9205C81.2875 58.4117 81.2875 57.9293 81.3238 57.4767C81.3602 57.024 81.3932 56.6077 81.4295 56.2245C81.5188 55.4613 81.6146 54.8467 81.7071 54.4271C81.7467 54.2355 81.7798 54.0736 81.8095 53.9447C81.8164 53.8876 81.832 53.8319 81.8558 53.7795C81.8632 53.8366 81.8632 53.8943 81.8558 53.9513C81.8359 54.0835 81.8128 54.2454 81.7864 54.4403C81.717 54.8632 81.6377 55.4778 81.565 56.2377C81.5353 56.6176 81.489 57.0339 81.4824 57.4833C81.4758 57.9326 81.456 58.4117 81.4593 58.9172C81.4828 60.0124 81.5855 61.1045 81.7665 62.1848C81.9603 63.262 82.2375 64.3225 82.5958 65.3566C82.7676 65.8291 82.9262 66.2817 83.1179 66.6782C83.3095 67.0747 83.4747 67.4646 83.6399 67.8115C83.8051 68.1584 83.9703 68.4524 84.1223 68.7201C84.2743 68.9877 84.4031 69.2124 84.5121 69.3974L84.7599 69.8236C84.7885 69.8793 84.8107 69.938 84.826 69.9987Z" fill="#263238"/>
<path d="M58.348 14.644C58.348 14.644 50.6167 27.6352 50.0881 29.5515C49.533 31.5339 60.2676 48.513 60.2676 48.513C60.2676 48.513 60.4757 49.0581 60.479 49.0548L68.1508 42.926L59.1079 30.1297L63.968 17.35L58.348 14.644Z" fill="#034C82"/>
<path d="M59.4219 30.6485C59.3954 30.6683 59.2335 30.4371 58.8932 30.1463C58.4479 29.7706 57.9226 29.5017 57.3573 29.3602C56.7921 29.2188 56.202 29.2085 55.6322 29.3302C55.1961 29.4261 54.9417 29.5549 54.9285 29.5252C55.1223 29.3686 55.3477 29.2559 55.5893 29.1948C55.8505 29.119 56.1203 29.0768 56.3921 29.0692C56.7259 29.0621 57.0591 29.0988 57.3833 29.1783C57.7058 29.2629 58.0165 29.3872 58.3084 29.5483C58.5476 29.684 58.7695 29.8482 58.9692 30.0373C59.163 30.2055 59.3175 30.4141 59.4219 30.6485Z" fill="#263238"/>
<path d="M62.9339 49.5636C62.9009 49.5636 62.9174 49.1109 62.7952 48.4006C62.7203 47.9833 62.6098 47.5732 62.4648 47.1748C62.1203 46.1941 61.5783 45.2945 60.8723 44.5316C60.5843 44.2235 60.2716 43.9395 59.9372 43.6825C59.3591 43.2464 58.9461 43.0482 58.9692 43.0217C59.0722 43.0492 59.1711 43.0903 59.2632 43.144C59.3769 43.1955 59.4872 43.2539 59.5936 43.3191C59.7369 43.401 59.8759 43.4904 60.0099 43.5867C60.3664 43.834 60.6984 44.1151 61.0011 44.4259C61.3636 44.8105 61.6858 45.2312 61.9626 45.6814C62.2323 46.135 62.4537 46.6156 62.6234 47.1153C62.7596 47.5238 62.8569 47.9441 62.9141 48.3708C62.9367 48.5341 62.9511 48.6984 62.9571 48.8631C62.9669 48.9874 62.9669 49.1122 62.9571 49.2365C62.967 49.346 62.9592 49.4565 62.9339 49.5636Z" fill="#263238"/>
<path d="M83.9273 70.3754C83.9273 70.3952 83.6861 70.3754 83.2665 70.4018C82.6673 70.4617 82.081 70.6144 81.5286 70.8545C80.7116 71.2164 79.9426 71.6781 79.239 72.2289C78.4328 72.8369 77.587 73.5769 76.6256 74.2443C75.7248 74.9037 74.6926 75.3612 73.5991 75.5858C72.7048 75.7436 71.7907 75.7537 70.8932 75.6155C70.2904 75.5274 69.6966 75.3859 69.1189 75.1926C68.9141 75.1232 68.7588 75.0637 68.6531 75.0208C68.599 75.0019 68.5469 74.9776 68.4978 74.9481C68.7145 74.996 68.9285 75.0556 69.1388 75.1265C69.7178 75.2945 70.3087 75.4182 70.9064 75.4966C71.7856 75.6131 72.6777 75.5896 73.5496 75.4272C74.6236 75.2035 75.6374 74.753 76.5231 74.1056C77.4813 73.4448 78.3205 72.708 79.1399 72.1034C79.8575 71.5504 80.6438 71.0929 81.4791 70.7421C82.0453 70.5065 82.6475 70.3691 83.2599 70.3358C83.425 70.3259 83.5905 70.3259 83.7555 70.3358C83.8142 70.342 83.8719 70.3553 83.9273 70.3754Z" fill="#263238"/>
<path d="M87.489 66.8928C87.3858 66.6264 87.318 66.3475 87.2874 66.0635C87.1814 65.3817 87.147 64.6907 87.185 64.0018C87.2245 63.3127 87.3352 62.6296 87.5154 61.9633C87.5757 61.6838 87.6735 61.4137 87.8062 61.1604C87.7662 61.4412 87.7089 61.7193 87.6344 61.993C87.4938 62.6581 87.4043 63.333 87.3667 64.0117C87.3307 64.6905 87.3483 65.371 87.4196 66.047C87.4623 66.327 87.4854 66.6096 87.489 66.8928Z" fill="#263238"/>
<g opacity="0.3">
<path d="M68.8216 74.8721C68.848 74.0461 69.8326 73.5736 70.6586 73.6232C71.4846 73.6728 72.2677 74.0461 73.0936 74.0758C74.4945 74.1287 75.7368 73.2102 76.8073 72.3181C77.8778 71.4261 79.0672 70.4646 80.4681 70.4084C80.6432 70.4084 80.8646 70.4382 80.9141 70.61C80.9637 70.7818 80.8282 70.9106 80.7093 71.0164C78.9846 72.556 77.2203 74.1254 75.0925 75.0274C72.9648 75.9294 70.3712 76.0714 68.4384 74.806" fill="black"/>
</g>
<g opacity="0.3">
<path d="M81.7004 54.8335C81.4674 58.8773 82.7822 62.8582 85.3777 65.9678C85.8105 66.4799 86.2896 66.9854 86.5011 67.6198C86.7125 68.2542 86.5704 69.0735 85.9823 69.3973C85.726 69.5139 85.441 69.5523 85.1631 69.5076C84.8851 69.4629 84.6264 69.3372 84.4196 69.1462C84.0109 68.7589 83.6928 68.2863 83.4878 67.7619C81.5385 63.5923 80.5737 58.7784 81.8359 54.3511" fill="black"/>
</g>
<path d="M43.5925 121.597C43.9229 120.487 44.6002 119.416 45.6608 118.954C46.7214 118.491 48.0396 118.749 49.1696 119.158C50.2996 119.568 51.4064 120.12 52.6057 120.193C53.8051 120.265 55.1564 119.697 55.5165 118.541C55.8469 117.46 55.2026 116.314 54.3899 115.531C53.5309 114.703 52.4775 114.106 51.3268 113.793C50.1761 113.48 48.9652 113.461 47.8055 113.74C46.6459 114.018 45.575 114.583 44.6915 115.384C43.8079 116.185 43.1403 117.196 42.75 118.322" fill="#034C82"/>
<g opacity="0.5">
<path d="M43.5925 121.597C43.9229 120.487 44.6002 119.416 45.6608 118.954C46.7214 118.491 48.0396 118.749 49.1696 119.158C50.2996 119.568 51.4064 120.12 52.6057 120.193C53.8051 120.265 55.1564 119.697 55.5165 118.541C55.8469 117.46 55.2026 116.314 54.3899 115.531C53.5309 114.703 52.4775 114.106 51.3268 113.793C50.1761 113.48 48.9652 113.461 47.8055 113.74C46.6459 114.018 45.575 114.583 44.6915 115.384C43.8079 116.185 43.1403 117.196 42.75 118.322" fill="black"/>
</g>
<path d="M34.0968 126.414C32.3358 124.745 32.425 121.835 33.3006 119.575C34.1761 117.315 36.0957 115.577 38.2334 114.43C40.3215 113.334 42.6306 112.726 44.9875 112.649C47.3445 112.573 49.688 113.032 51.8424 113.991C50.7875 114.036 49.7596 114.339 48.849 114.874C47.9383 115.408 47.1726 116.158 46.6189 117.057C45.6574 118.659 45.4427 120.602 44.6365 122.29C43.7391 124.194 42.147 125.682 40.187 126.449C38.227 127.216 36.0478 127.203 34.0968 126.414Z" fill="#034C82"/>
<path d="M33.2512 116.373C31.3051 114.077 31.0441 110.386 31.3315 107.386C31.619 104.386 32.3227 101.37 31.8404 98.3961C31.5595 96.6318 30.8756 94.9501 30.6443 93.1791C30.413 91.4082 30.7401 89.4093 32.1113 88.2661C33.6873 86.9446 36.1686 87.2749 37.8106 88.4974C39.4527 89.7199 40.3976 91.6659 41.0915 93.5954C42.6179 97.8377 43.1796 102.539 41.9241 106.867C40.6685 111.196 37.7313 115.068 33.4197 116.373" fill="#034C82"/>
<path d="M32.3161 135.232C32.3088 135.144 32.3088 135.056 32.3161 134.968C32.3161 134.796 32.3161 134.538 32.3161 134.208C32.3426 133.547 32.4053 132.596 32.554 131.426C32.7257 130.054 32.975 128.693 33.3007 127.349C33.7056 125.699 34.3313 124.11 35.1608 122.627C35.9935 121.147 37.0153 119.781 38.2005 118.564C39.1656 117.571 40.2345 116.685 41.3888 115.92C41.8745 115.59 42.3437 115.329 42.75 115.091C43.1564 114.853 43.5265 114.695 43.8238 114.553L44.5243 114.259C44.604 114.221 44.687 114.19 44.7721 114.166C44.6967 114.212 44.6183 114.253 44.5375 114.288L43.8503 114.619C43.5595 114.771 43.1895 114.949 42.793 115.18C42.3965 115.412 41.9307 115.686 41.4516 116.026C38.913 117.755 36.8086 120.047 35.3029 122.723C33.5122 125.855 33.0199 129.149 32.6597 131.456C32.4978 132.622 32.4152 133.57 32.3723 134.228C32.3525 134.558 32.3393 134.799 32.3293 134.984C32.3312 135.067 32.3267 135.15 32.3161 135.232Z" fill="#263238"/>
<path d="M15.522 107.307C11.9173 109.481 11.9306 111.46 12.5484 113.327C13.1662 115.194 15.3601 116.492 17.1938 115.792C18.2279 115.395 18.9812 114.497 19.6222 113.591C20.2632 112.686 20.8645 111.718 21.7632 111.067C22.6618 110.416 23.9636 110.168 24.8656 110.813" fill="#034C82"/>
<g opacity="0.5">
<path d="M15.522 107.307C11.9173 109.481 11.9306 111.46 12.5484 113.327C13.1662 115.194 15.3601 116.492 17.1938 115.792C18.2279 115.395 18.9812 114.497 19.6222 113.591C20.2632 112.686 20.8645 111.718 21.7632 111.067C22.6618 110.416 23.9636 110.168 24.8656 110.813" fill="black"/>
</g>
<path d="M12.8227 109.689C13.7643 108.387 16.0936 108.011 17.5606 108.662C19.0275 109.313 20.1079 110.598 21.0594 111.876C22.011 113.155 22.9592 114.52 24.294 115.415C25.6288 116.31 27.4923 116.634 28.8238 115.745C29.2474 115.429 29.6021 115.03 29.8663 114.572C30.1304 114.114 30.2985 113.607 30.3601 113.082C30.478 112.031 30.4064 110.967 30.1487 109.94C29.8183 108.43 29.3128 106.851 28.1035 105.893C26.7555 104.822 24.8854 104.773 23.1674 104.829C21.185 104.892 19.2026 105.041 17.3392 105.724C15.4757 106.408 13.5958 107.885 12.8094 109.689" fill="#034C82"/>
<path d="M29.3194 132.361C29.3152 132.335 29.3152 132.308 29.3194 132.282C29.3194 132.219 29.3194 132.143 29.3194 132.051C29.3194 131.832 29.3194 131.532 29.2897 131.155C29.2666 130.366 29.2335 129.245 29.1939 127.868C29.1542 126.49 29.0948 124.825 28.9923 122.994C28.8899 121.164 28.7545 119.145 28.4769 117.047C28.3589 116.027 28.1589 115.019 27.8789 114.031C27.3217 112.283 26.4678 110.645 25.3547 109.187C24.8906 108.593 24.3814 108.035 23.8316 107.519C23.029 106.776 22.1203 106.157 21.1355 105.682C20.9604 105.599 20.8051 105.52 20.6697 105.464L20.3161 105.328L20.1014 105.242L20.0287 105.206L20.108 105.226L20.3293 105.298L20.6862 105.421C20.8282 105.47 20.9835 105.546 21.1619 105.622C22.1653 106.082 23.0924 106.692 23.9108 107.433C24.4712 107.949 24.9894 108.509 25.4604 109.108C25.9949 109.798 26.4691 110.533 26.8778 111.305C27.333 112.156 27.7091 113.048 28.0012 113.968C28.2856 114.965 28.4878 115.984 28.6058 117.014C28.8866 119.119 29.0188 121.138 29.1113 122.961C29.2038 124.785 29.2501 126.45 29.2798 127.841C29.3095 129.232 29.3161 130.356 29.3227 131.145V132.031C29.3227 132.127 29.3227 132.203 29.3227 132.265C29.3259 132.297 29.3248 132.329 29.3194 132.361Z" fill="#263238"/>
<path d="M30.6178 133.977C30.4466 133.471 30.3152 132.953 30.2246 132.427C29.9737 130.993 29.9181 129.531 30.0594 128.082C30.2803 125.94 30.7403 123.829 31.4306 121.788C32.1706 119.476 33.1751 116.991 34.0308 114.328C34.4538 113.034 34.7992 111.715 35.0649 110.38C35.3028 109.134 35.4737 107.877 35.577 106.613C35.7414 104.471 35.78 102.321 35.6927 100.174C35.6299 98.3368 35.5308 96.8533 35.4713 95.8291L35.4019 94.6496C35.4019 94.5207 35.4019 94.4183 35.4019 94.3423C35.3976 94.3072 35.3976 94.2717 35.4019 94.2366C35.4049 94.2706 35.4049 94.3049 35.4019 94.339C35.4019 94.4183 35.4184 94.5174 35.4317 94.6463C35.4559 94.9282 35.4889 95.3214 35.5308 95.8258C35.6101 96.85 35.7257 98.3335 35.8017 100.17C35.9061 102.322 35.8796 104.478 35.7224 106.626C35.6229 107.896 35.4541 109.159 35.2169 110.409C34.9519 111.751 34.6066 113.075 34.1828 114.374C33.3204 117.047 32.3127 119.522 31.5693 121.831C30.8742 123.866 30.4045 125.971 30.1684 128.109C30.0199 129.549 30.0577 131.003 30.2808 132.434C30.37 132.939 30.4526 133.329 30.522 133.59C30.5517 133.716 30.5781 133.815 30.5947 133.887C30.6057 133.916 30.6135 133.946 30.6178 133.977Z" fill="#263238"/>
<path d="M39.5485 135.602H22.6322L22.2456 132.348H39.5485V135.602Z" fill="#455A64"/>
<path d="M24.4493 135.232L26.5639 145.002H35.7555L37.7346 135.232H24.4493Z" fill="#455A64"/>
<path d="M39.5617 135.602C39.5617 135.648 35.8447 135.675 31.2555 135.662C26.6663 135.648 22.9493 135.602 22.9493 135.556C22.9493 135.51 26.6696 135.487 31.2588 135.5C35.848 135.513 39.5617 135.559 39.5617 135.602Z" fill="#455A64"/>
<path d="M36.6476 140.426C36.1873 140.082 35.687 139.794 35.1575 139.57C34.579 139.343 33.9649 139.22 33.3436 139.207C32.5829 139.21 31.8287 139.348 31.1168 139.617C30.347 139.878 29.6267 140.181 28.9262 140.347C28.303 140.482 27.66 140.501 27.0298 140.403C26.6061 140.343 26.1952 140.214 25.8139 140.02C25.7106 139.965 25.6122 139.902 25.5199 139.831C25.4571 139.785 25.424 139.759 25.4273 139.752C25.4307 139.745 25.5727 139.838 25.8403 139.963C26.2238 140.132 26.6302 140.244 27.0463 140.294C27.6624 140.373 28.2876 140.343 28.8932 140.205C29.5705 140.036 30.2908 139.729 31.0672 139.468C31.7969 139.194 32.5708 139.056 33.3503 139.061C33.9864 139.084 34.6132 139.222 35.2005 139.468C35.5944 139.632 35.9645 139.849 36.3007 140.112C36.393 140.182 36.4813 140.257 36.565 140.337C36.6212 140.39 36.6509 140.419 36.6476 140.426Z" fill="#263238"/>
<path d="M36.5188 141.077C36.0744 140.744 35.5946 140.462 35.0881 140.234C34.5327 140.008 33.9401 139.886 33.3403 139.874C32.6052 139.876 31.8762 140.007 31.1862 140.261C30.4395 140.512 29.7423 140.799 29.0749 140.981C28.4827 141.151 27.8662 141.22 27.2511 141.186C26.8354 141.157 26.4298 141.044 26.0584 140.855C25.9589 140.803 25.8639 140.742 25.7743 140.674C25.7115 140.627 25.6818 140.601 25.6851 140.598C25.6884 140.594 25.8271 140.68 26.0848 140.799C26.4576 140.958 26.8563 141.046 27.2611 141.06C27.8602 141.079 28.4585 141 29.032 140.826C29.6928 140.644 30.38 140.35 31.1366 140.099C31.8434 139.84 32.5909 139.71 33.3437 139.716C33.9597 139.735 34.5664 139.871 35.1311 140.119C35.5101 140.285 35.8656 140.5 36.1884 140.76C36.2769 140.828 36.3608 140.902 36.4395 140.981C36.4956 141.044 36.5221 141.073 36.5188 141.077Z" fill="white"/>
<path d="M36.8128 139.778C36.3389 139.42 35.8257 139.118 35.2831 138.876C34.6943 138.622 34.0662 138.471 33.4262 138.43C32.6362 138.41 31.85 138.547 31.1135 138.833C30.3714 139.123 29.6136 139.372 28.8436 139.577C28.1951 139.686 27.5329 139.686 26.8844 139.577C26.4482 139.507 26.025 139.372 25.6289 139.177C25.5227 139.122 25.4211 139.059 25.3249 138.989C25.2588 138.939 25.2258 138.913 25.2291 138.906C25.2324 138.899 25.3778 138.995 25.6553 139.121C26.0555 139.285 26.4753 139.396 26.9042 139.451C27.5386 139.542 28.1835 139.53 28.8139 139.415C29.5752 139.204 30.3251 138.953 31.0606 138.665C31.8117 138.373 32.6143 138.237 33.4196 138.265C34.0748 138.314 34.716 138.479 35.3128 138.754C35.7162 138.933 36.0957 139.162 36.4428 139.435C36.5376 139.508 36.628 139.586 36.7137 139.669C36.7897 139.742 36.8161 139.772 36.8128 139.778Z" fill="white"/>
<path d="M39.7004 135.619C39.7004 135.662 35.8942 135.698 31.1993 135.698C26.5044 135.698 22.7114 135.665 22.7114 135.619C22.7114 135.572 26.5176 135.536 31.2092 135.536C35.9009 135.536 39.7004 135.572 39.7004 135.619Z" fill="#263238"/>
<path d="M128.055 56.2871C127.898 56.0965 127.77 55.8839 127.675 55.6561C127.45 55.2299 127.13 54.5955 126.724 53.7728C125.911 52.1208 124.741 49.7321 123.334 46.742C120.492 40.7618 116.584 32.416 112.222 22.9865H113.002C112.407 24.3708 111.773 25.8279 111.178 27.3279C110.105 29.9711 109.123 32.6142 108.258 35.1583C107.808 36.4336 107.415 37.699 107.012 38.9347C106.609 40.1704 106.255 41.3929 105.918 42.5691C104.551 47.34 103.54 51.6979 102.803 55.3818C102.066 59.0658 101.597 62.0691 101.273 64.1473C101.111 65.188 101.002 65.9975 100.906 66.5426C100.88 66.8254 100.819 67.1039 100.725 67.3719C100.686 67.0902 100.686 66.8045 100.725 66.5228C100.764 65.9711 100.82 65.1517 100.929 64.1043C101.151 62.0096 101.534 58.9832 102.195 55.2695C102.856 51.5559 103.811 47.1616 105.145 42.3543C105.476 41.1517 105.846 39.9259 106.219 38.6737C106.592 37.4215 107.002 36.1528 107.448 34.8708C108.311 32.297 109.292 29.6605 110.369 26.9876C110.97 25.481 111.611 24.014 112.209 22.6263C112.231 22.5749 112.264 22.5283 112.304 22.4893C112.344 22.4503 112.392 22.4196 112.444 22.3991C112.496 22.3785 112.552 22.3684 112.608 22.3695C112.664 22.3705 112.719 22.3825 112.771 22.405C112.867 22.4453 112.944 22.521 112.986 22.6164C117.327 32.0559 121.14 40.4578 123.842 46.4876C125.194 49.5107 126.271 51.9457 126.994 53.6307C127.355 54.4733 127.629 55.1274 127.807 55.5735C127.923 55.7984 128.007 56.0387 128.055 56.2871Z" fill="#C8A455"/>
<path d="M122.524 42.0538C122.587 42.285 116.369 44.1749 108.648 46.2762C100.926 48.3776 94.5925 49.9106 94.5298 49.6661C94.467 49.4216 100.685 47.545 108.423 45.4436C116.161 43.3423 122.461 41.8324 122.524 42.0538Z" fill="#C8A455"/>
<path d="M118.196 15.7773C118.319 15.6843 118.453 15.6077 118.596 15.5493L119.101 15.2982C119.306 15.2057 119.554 15.1165 119.831 15.0075C120.523 14.7531 121.236 14.564 121.963 14.4425C122.961 14.2924 123.975 14.2813 124.976 14.4095C126.231 14.5866 127.45 14.9659 128.584 15.5328C129.922 16.2223 131.16 17.0928 132.261 18.1198C133.524 19.2959 134.648 20.6141 135.608 22.0482C135.872 22.4334 136.107 22.8376 136.312 23.2575C136.523 23.6771 136.744 24.1 136.956 24.5328L137.524 25.8874C137.722 26.3434 137.855 26.8258 138.026 27.3048C138.677 29.3307 139.083 31.4271 139.236 33.5493C139.391 35.8457 139.309 38.152 138.991 40.4315C138.649 42.8655 138.126 45.2707 137.428 47.6275C137.263 48.2388 137.055 48.8401 136.87 49.4546C136.685 50.0692 136.434 50.6771 136.209 51.2949C135.942 51.8929 135.694 52.5042 135.4 53.1022L134.941 53.991L134.713 54.437L134.455 54.8698C133.065 57.247 131.401 59.4536 129.499 61.4447C127.522 63.5175 125.336 65.3809 122.977 67.0053C120.552 68.7183 117.934 70.1389 115.176 71.2377C112.304 72.3829 109.231 72.9391 106.14 72.8731C104.569 72.8244 103.017 72.5197 101.544 71.9711C100.079 71.4215 98.7415 70.5795 97.6123 69.4965C97.0549 68.9682 96.5472 68.3898 96.0958 67.7685C95.6468 67.1578 95.2447 66.5139 94.8932 65.8423C94.2005 64.5256 93.6469 63.1404 93.2412 61.709C91.7568 56.2743 91.4593 50.5839 92.3689 45.024C92.7808 42.4465 93.4187 39.9103 94.2753 37.4447C94.3844 37.1474 94.4901 36.85 94.6057 36.5526C94.7214 36.2553 94.8172 35.9612 94.9361 35.6738C95.1762 35.0989 95.4141 34.5273 95.6498 33.959L96.4361 32.307C96.6872 31.7553 96.9978 31.2399 97.272 30.7112C98.3669 28.6943 99.6185 26.7666 101.015 24.9458L101.511 24.285L102.03 23.6573C102.38 23.2443 102.71 22.8247 103.064 22.4315L104.124 21.2751C104.455 20.8852 104.851 20.5449 105.205 20.1848C105.912 19.4612 106.678 18.8335 107.392 18.2024L108.509 17.317L109.057 16.8841L109.619 16.4877L110.722 15.7145L111.829 15.0207L112.368 14.6903L112.916 14.383L113.987 13.7916C114.697 13.4216 115.401 13.0912 116.072 12.7674C116.742 12.4436 117.413 12.1859 118.054 11.9315L119.901 11.2476L121.599 10.7057C123.76 10.0681 125.465 9.68811 126.628 9.46674C127.209 9.36102 127.655 9.28172 127.949 9.23547C128.098 9.19689 128.252 9.1802 128.405 9.18591C128.265 9.24833 128.117 9.2938 127.966 9.32137C127.672 9.39736 127.232 9.50309 126.644 9.63525C125.498 9.91278 123.809 10.3423 121.688 11.0262L120.017 11.6011L118.196 12.2982C117.568 12.5626 116.927 12.8599 116.25 13.1573C115.573 13.4546 114.905 13.8181 114.208 14.2013L113.161 14.8026L112.622 15.1099L112.094 15.4403L111.01 16.1374L109.936 16.9271L109.388 17.3236L108.852 17.7531L107.762 18.6352C107.065 19.2762 106.318 19.9007 105.631 20.6176C105.284 20.9745 104.907 21.3115 104.574 21.698C104.24 22.0846 103.887 22.4579 103.54 22.8478C103.193 23.2377 102.879 23.6573 102.532 24.0637L102.023 24.6881L101.541 25.3489C100.176 27.1513 98.9556 29.058 97.8899 31.0515C97.6222 31.5736 97.3216 32.0824 97.0771 32.6242L96.3139 34.2564L95.6233 35.948C95.5011 36.2289 95.3954 36.5196 95.2929 36.8137L94.9857 37.6925C94.1619 40.1161 93.5506 42.6068 93.1586 45.1363C92.7433 47.7966 92.5994 50.4922 92.7291 53.1815C92.8536 55.9827 93.297 58.7605 94.0507 61.4612C94.4416 62.8338 94.973 64.1625 95.6366 65.426C95.9701 66.0607 96.3512 66.6692 96.7764 67.2465C97.1998 67.8272 97.6753 68.368 98.1971 68.8621C99.2431 69.8617 100.479 70.6414 101.831 71.1551C103.219 71.6671 104.681 71.9516 106.16 71.9976C109.134 72.0558 112.091 71.52 114.856 70.4216C117.557 69.3515 120.123 67.9675 122.501 66.2982C124.817 64.7116 126.963 62.8915 128.907 60.8665C130.768 58.926 132.396 56.7762 133.761 54.4601L134.012 54.0372L134.237 53.6044L134.686 52.7421C134.974 52.1639 135.215 51.5692 135.479 50.991C135.694 50.3896 135.928 49.8048 136.123 49.2035C136.318 48.6022 136.52 48.0042 136.685 47.3996C137.386 45.0827 137.915 42.7172 138.268 40.3225C138.596 38.0917 138.692 35.833 138.555 33.5824C138.425 31.5097 138.048 29.46 137.432 27.4767C137.27 27.0108 137.144 26.535 136.956 26.089C136.768 25.643 136.593 25.1969 136.414 24.7674L135.8 23.5119C135.609 23.1061 135.388 22.7152 135.139 22.3423C134.221 20.9304 133.143 19.6289 131.927 18.4634C130.872 17.4503 129.684 16.5855 128.395 15.893C127.311 15.3268 126.143 14.9376 124.936 14.7399C123.965 14.5905 122.978 14.5749 122.002 14.6936C121.287 14.7906 120.582 14.9498 119.894 15.1694C119.617 15.2652 119.369 15.3379 119.157 15.4172L118.639 15.6286C118.498 15.6962 118.349 15.7462 118.196 15.7773Z" fill="#C8A455"/>
<path d="M125.607 37.5703C125.369 37.5703 124.969 33.6055 124.718 28.6495C124.467 23.6936 124.45 19.6958 124.688 19.6958C124.926 19.6958 125.323 23.6606 125.577 28.6165C125.831 33.5725 125.841 37.557 125.607 37.5703Z" fill="#C8A455"/>
<path d="M130.966 26.4822C131.055 26.7002 128.458 27.9689 125.105 29.1551C121.751 30.3412 118.936 31.002 118.87 30.7773C118.804 30.5526 121.487 29.5317 124.817 28.3456C128.148 27.1595 130.877 26.2608 130.966 26.4822Z" fill="#C8A455"/>
</svg>
