<svg width="32" height="32" viewBox="0 0 32 32" fill="none" xmlns="http://www.w3.org/2000/svg">
<g clip-path="url(#clip0_31174_34475)">
<path d="M24 10.875C26.964 10.875 29.375 8.464 29.375 5.5C29.375 2.536 26.964 0.125 24 0.125C21.036 0.125 18.625 2.536 18.625 5.5C18.625 8.464 21.036 10.875 24 10.875ZM24 0.875C26.5505 0.875 28.625 2.9495 28.625 5.5C28.625 8.0505 26.5505 10.125 24 10.125C21.4495 10.125 19.375 8.0505 19.375 5.5C19.375 2.9495 21.4495 0.875 24 0.875Z" fill="#034C82"/>
<path d="M23.625 8.327V9C23.625 9.207 23.793 9.375 24 9.375C24.207 9.375 24.375 9.207 24.375 9V8.327C25.09 8.1565 25.625 7.5165 25.625 6.75C25.625 5.854 24.896 5.125 24 5.125C23.5175 5.125 23.125 4.7325 23.125 4.25C23.125 3.7675 23.5175 3.375 24 3.375C24.4825 3.375 24.875 3.7675 24.875 4.25V4.5625C24.875 4.7695 25.043 4.9375 25.25 4.9375C25.457 4.9375 25.625 4.7695 25.625 4.5625V4.25C25.625 3.4835 25.09 2.8435 24.375 2.673V2C24.375 1.793 24.207 1.625 24 1.625C23.793 1.625 23.625 1.793 23.625 2V2.673C22.91 2.8435 22.375 3.4835 22.375 4.25C22.375 5.146 23.104 5.875 24 5.875C24.4825 5.875 24.875 6.2675 24.875 6.75C24.875 7.2325 24.4825 7.625 24 7.625C23.5175 7.625 23.125 7.2325 23.125 6.75V6.4375C23.125 6.2305 22.957 6.0625 22.75 6.0625C22.543 6.0625 22.375 6.2305 22.375 6.4375V6.75C22.375 7.5165 22.91 8.1565 23.625 8.327Z" fill="#034C82"/>
<path d="M17.25 11.375C17.87 11.375 18.375 10.8705 18.375 10.25C18.375 9.6295 17.87 9.125 17.25 9.125C16.63 9.125 16.125 9.6295 16.125 10.25C16.125 10.8705 16.63 11.375 17.25 11.375ZM17.25 9.875C17.4565 9.875 17.625 10.043 17.625 10.25C17.625 10.457 17.4565 10.625 17.25 10.625C17.0435 10.625 16.875 10.457 16.875 10.25C16.875 10.043 17.0435 9.875 17.25 9.875Z" fill="#034C82"/>
<path d="M29.125 10C29.125 10.207 29.293 10.375 29.5 10.375H30.125V11C30.125 11.207 30.293 11.375 30.5 11.375C30.707 11.375 30.875 11.207 30.875 11V10.375H31.5C31.707 10.375 31.875 10.207 31.875 10C31.875 9.793 31.707 9.625 31.5 9.625H30.875V9C30.875 8.793 30.707 8.625 30.5 8.625C30.293 8.625 30.125 8.793 30.125 9V9.625H29.5C29.293 9.625 29.125 9.793 29.125 10Z" fill="#034C82"/>
<path d="M12.5 1.875H13.125V2.5C13.125 2.707 13.293 2.875 13.5 2.875C13.707 2.875 13.875 2.707 13.875 2.5V1.875H14.5C14.707 1.875 14.875 1.707 14.875 1.5C14.875 1.293 14.707 1.125 14.5 1.125H13.875V0.5C13.875 0.293 13.707 0.125 13.5 0.125C13.293 0.125 13.125 0.293 13.125 0.5V1.125H12.5C12.293 1.125 12.125 1.293 12.125 1.5C12.125 1.707 12.293 1.875 12.5 1.875Z" fill="#034C82"/>
<path d="M3.75 4.375H5.25C5.457 4.375 5.625 4.207 5.625 4V2C5.625 1.793 5.457 1.625 5.25 1.625H3.75C3.543 1.625 3.375 1.793 3.375 2V4C3.375 4.207 3.543 4.375 3.75 4.375ZM4.125 2.375H4.875V3.625H4.125V2.375Z" fill="#034C82"/>
<path d="M6.75 4.375H8.25C8.457 4.375 8.625 4.207 8.625 4V2C8.625 1.793 8.457 1.625 8.25 1.625H6.75C6.543 1.625 6.375 1.793 6.375 2V4C6.375 4.207 6.543 4.375 6.75 4.375ZM7.125 2.375H7.875V3.625H7.125V2.375Z" fill="#034C82"/>
<path d="M3.75 7.875H5.25C5.457 7.875 5.625 7.707 5.625 7.5V5.5C5.625 5.293 5.457 5.125 5.25 5.125H3.75C3.543 5.125 3.375 5.293 3.375 5.5V7.5C3.375 7.707 3.543 7.875 3.75 7.875ZM4.125 5.875H4.875V7.125H4.125V5.875Z" fill="#034C82"/>
<path d="M6.75 7.875H8.25C8.457 7.875 8.625 7.707 8.625 7.5V5.5C8.625 5.293 8.457 5.125 8.25 5.125H6.75C6.543 5.125 6.375 5.293 6.375 5.5V7.5C6.375 7.707 6.543 7.875 6.75 7.875ZM7.125 5.875H7.875V7.125H7.125V5.875Z" fill="#034C82"/>
<path d="M3.75 11.375H5.25C5.457 11.375 5.625 11.207 5.625 11V9C5.625 8.793 5.457 8.625 5.25 8.625H3.75C3.543 8.625 3.375 8.793 3.375 9V11C3.375 11.207 3.543 11.375 3.75 11.375ZM4.125 9.375H4.875V10.625H4.125V9.375Z" fill="#034C82"/>
<path d="M6.75 11.375H8.25C8.457 11.375 8.625 11.207 8.625 11V9C8.625 8.793 8.457 8.625 8.25 8.625H6.75C6.543 8.625 6.375 8.793 6.375 9V11C6.375 11.207 6.543 11.375 6.75 11.375ZM7.125 9.375H7.875V10.625H7.125V9.375Z" fill="#034C82"/>
<path d="M5.625 14.5V12.5C5.625 12.293 5.457 12.125 5.25 12.125H3.75C3.543 12.125 3.375 12.293 3.375 12.5V14.5C3.375 14.707 3.543 14.875 3.75 14.875H5.25C5.457 14.875 5.625 14.707 5.625 14.5ZM4.875 14.125H4.125V12.875H4.875V14.125Z" fill="#034C82"/>
<path d="M6.75 14.875H8.25C8.457 14.875 8.625 14.707 8.625 14.5V12.5C8.625 12.293 8.457 12.125 8.25 12.125H6.75C6.543 12.125 6.375 12.293 6.375 12.5V14.5C6.375 14.707 6.543 14.875 6.75 14.875ZM7.125 12.875H7.875V14.125H7.125V12.875Z" fill="#034C82"/>
<path d="M13 8.625H11.5C11.293 8.625 11.125 8.793 11.125 9V11C11.125 11.207 11.293 11.375 11.5 11.375H13C13.207 11.375 13.375 11.207 13.375 11V9C13.375 8.793 13.207 8.625 13 8.625ZM12.625 10.625H11.875V9.375H12.625V10.625Z" fill="#034C82"/>
<path d="M13 12.125H11.5C11.293 12.125 11.125 12.293 11.125 12.5V14.5C11.125 14.707 11.293 14.875 11.5 14.875H13C13.207 14.875 13.375 14.707 13.375 14.5V12.5C13.375 12.293 13.207 12.125 13 12.125ZM12.625 14.125H11.875V12.875H12.625V14.125Z" fill="#034C82"/>
<path d="M13 15.625H11.5C11.293 15.625 11.125 15.793 11.125 16V18C11.125 18.207 11.293 18.375 11.5 18.375H13C13.207 18.375 13.375 18.207 13.375 18V16C13.375 15.793 13.207 15.625 13 15.625ZM12.625 17.625H11.875V16.375H12.625V17.625Z" fill="#034C82"/>
<path d="M31.5 19.125H28.875V18.085C29.6545 17.9285 30.375 17.2595 30.375 15.75C30.375 14.3705 29.7075 12.375 28.5 12.375C27.2925 12.375 26.625 14.3705 26.625 15.75C26.625 17.2595 27.3455 17.9285 28.125 18.085V19.125H24.375V18.085C25.1545 17.9285 25.875 17.2595 25.875 15.75C25.875 14.3705 25.2075 12.375 24 12.375C22.7925 12.375 22.125 14.3705 22.125 15.75C22.125 17.2595 22.8455 17.9285 23.625 18.085V19.125H19.875V18.085C20.6545 17.9285 21.375 17.2595 21.375 15.75C21.375 14.3705 20.7075 12.375 19.5 12.375C18.2925 12.375 17.625 14.3705 17.625 15.75C17.625 17.2595 18.3455 17.9285 19.125 18.085V19.125H14.875V7.5C14.875 7.293 14.707 7.125 14.5 7.125H10.375V0.5C10.375 0.293 10.207 0.125 10 0.125H2C1.793 0.125 1.625 0.293 1.625 0.5V19.125H0.5C0.293 19.125 0.125 19.293 0.125 19.5V21.5C0.125 21.577 0.1485 21.652 0.193 21.715L3.693 26.715C3.763 26.8155 3.878 26.875 4 26.875H7.88L14.782 31.805C14.925 31.907 15.12 31.896 15.251 31.7785L20.1795 27.3425L28.586 25.3645C28.6635 25.3465 28.733 25.304 28.785 25.2435L31.785 21.7435C31.8435 21.6755 31.8755 21.589 31.8755 21.4995V19.4995C31.8755 19.2925 31.7075 19.1245 31.5005 19.1245L31.5 19.125ZM27.375 15.75C27.375 14.423 28.019 13.125 28.5 13.125C28.981 13.125 29.625 14.423 29.625 15.75C29.625 16.7825 29.215 17.375 28.5 17.375C27.785 17.375 27.375 16.7825 27.375 15.75ZM22.875 15.75C22.875 14.423 23.519 13.125 24 13.125C24.481 13.125 25.125 14.423 25.125 15.75C25.125 16.7825 24.715 17.375 24 17.375C23.285 17.375 22.875 16.7825 22.875 15.75ZM18.375 15.75C18.375 14.423 19.019 13.125 19.5 13.125C19.981 13.125 20.625 14.423 20.625 15.75C20.625 16.7825 20.215 17.375 19.5 17.375C18.785 17.375 18.375 16.7825 18.375 15.75ZM10.375 7.875H14.125V19.125H10.375V7.875ZM2.375 0.875H9.625V19.125H7.625V16C7.625 15.793 7.457 15.625 7.25 15.625H4.75C4.543 15.625 4.375 15.793 4.375 16V19.125H2.375V0.875ZM6.875 16.375V19.125H5.125V16.375H6.875ZM8.218 26.195C8.1545 26.1495 8.078 26.125 8 26.125H4.1955L1.2205 21.875H6.9175L13.1725 24.762L14.4305 30.6325L8.218 26.195ZM28.295 24.663L19.914 26.635C19.8525 26.6495 19.796 26.679 19.749 26.7215L15.231 30.788L13.867 24.422C13.8425 24.3065 13.7645 24.2095 13.6575 24.16L8.7075 21.8755H24.095L22.345 23.6255H19.5005C19.2935 23.6255 19.1255 23.7935 19.1255 24.0005C19.1255 24.2075 19.2935 24.3755 19.5005 24.3755H22.5005C22.6 24.3755 22.6955 24.336 22.7655 24.2655L25.1555 21.8755H30.685L28.295 24.6635V24.663ZM31.125 21.125H0.875V19.875H31.125V21.125Z" fill="#034C82"/>
</g>
<defs>
<clipPath id="clip0_31174_34475">
<rect width="32" height="32" fill="white"/>
</clipPath>
</defs>
</svg>
