<svg width="32" height="32" viewBox="0 0 32 32" fill="none" xmlns="http://www.w3.org/2000/svg">
<rect width="32" height="32" rx="16" fill="#0C4B81"/>
<path d="M25.3333 14.6668H17.3333V6.66683C17.3333 6.31321 17.1928 5.97407 16.9427 5.72402C16.6927 5.47397 16.3535 5.3335 15.9999 5.3335C15.6463 5.3335 15.3072 5.47397 15.0571 5.72402C14.8071 5.97407 14.6666 6.31321 14.6666 6.66683V14.6668H6.66659C6.31296 14.6668 5.97382 14.8073 5.72378 15.0574C5.47373 15.3074 5.33325 15.6465 5.33325 16.0002C5.33325 16.3538 5.47373 16.6929 5.72378 16.943C5.97382 17.193 6.31296 17.3335 6.66659 17.3335H14.6666V25.3335C14.6666 25.6871 14.8071 26.0263 15.0571 26.2763C15.3072 26.5264 15.6463 26.6668 15.9999 26.6668C16.3535 26.6668 16.6927 26.5264 16.9427 26.2763C17.1928 26.0263 17.3333 25.6871 17.3333 25.3335V17.3335H25.3333C25.6869 17.3335 26.026 17.193 26.2761 16.943C26.5261 16.6929 26.6666 16.3538 26.6666 16.0002C26.6666 15.6465 26.5261 15.3074 26.2761 15.0574C26.026 14.8073 25.6869 14.6668 25.3333 14.6668Z" fill="white"/>
</svg>
