<svg width="12" height="14" viewBox="0 0 12 14" fill="none" xmlns="http://www.w3.org/2000/svg">
<path d="M1.33333 1.33333H2V0.666667C2 0.3 2.3 0 2.66667 0C3.03333 0 3.33333 0.3 3.33333 0.666667V1.33333H8.66667V0.666667C8.66667 0.3 8.96667 0 9.33333 0C9.7 0 10 0.3 10 0.666667V1.33333H10.6667C11.4067 1.33333 11.9933 1.93333 11.9933 2.66667L12 12C12 12.3536 11.8595 12.6928 11.6095 12.9428C11.3594 13.1929 11.0203 13.3333 10.6667 13.3333H1.33333C0.6 13.3333 -3.57628e-07 12.7333 -3.57628e-07 12V2.66667C-3.57628e-07 1.93333 0.6 1.33333 1.33333 1.33333ZM1.33333 11.3333C1.33333 11.7 1.63333 12 2 12H10C10.3667 12 10.6667 11.7 10.6667 11.3333V4.66667H1.33333V11.3333ZM9.33333 6H8V7.33333H9.33333V6ZM6.66667 6H5.33333V7.33333H6.66667V6ZM4 6H2.66667V7.33333H4V6Z" fill="#034C82"/>
</svg>
