<svg width="16" height="16" viewBox="0 0 16 16" fill="none" xmlns="http://www.w3.org/2000/svg">
<g clip-path="url(#clip0_31288_37526)">
<path d="M7.90345 0C7.96794 0 8.03297 0 8.09745 0C8.2073 0 8.31714 0 8.42699 0C9.2101 5.02574 9.56258 10.9743 13.1836 16C11.7567 16 10.3298 16 8.90352 16C8.83029 15.4098 8.76471 14.8062 8.70679 14.1934C8.23571 14.1934 7.76519 14.1934 7.29467 14.1934C7.23674 14.8062 7.17116 15.4091 7.09793 16C5.67106 16 4.24473 16 2.81841 16C6.43887 10.9743 6.79135 5.02574 7.57447 0C7.68431 0 7.79415 0 7.90345 0ZM8.09964 0.0820876C8.03352 0.0820876 7.96739 0.0820876 7.90127 0.0820876C7.90072 0.111101 7.90017 0.139407 7.89908 0.168421C7.9663 0.168421 8.03406 0.168421 8.10128 0.168421C8.10128 0.140115 8.10073 0.111101 8.09964 0.0820876ZM8.10401 0.259C8.03515 0.259 7.9663 0.259 7.89744 0.259C7.89689 0.290137 7.8958 0.321981 7.89525 0.353826C7.9652 0.353826 8.0357 0.353826 8.10565 0.353826C8.10565 0.321981 8.10456 0.290137 8.10401 0.259ZM8.10838 0.452897C8.03679 0.452897 7.9652 0.452897 7.89307 0.452897C7.89198 0.487572 7.89143 0.522247 7.89034 0.556922C7.96357 0.556922 8.03679 0.556922 8.11057 0.556922C8.11002 0.521539 8.10893 0.486864 8.10838 0.452897ZM8.1133 0.6659C8.03843 0.6659 7.96357 0.6659 7.88815 0.6659C7.88706 0.704113 7.88651 0.743034 7.88542 0.781247C7.96193 0.781247 8.03898 0.781247 8.11549 0.781247C8.11494 0.743034 8.1144 0.704821 8.1133 0.6659ZM8.11877 0.902963C8.04007 0.902963 7.96193 0.902963 7.88323 0.902963C7.88214 0.945422 7.88105 0.988589 7.8805 1.03105C7.96083 1.03105 8.04171 1.03105 8.12205 1.03105C8.12095 0.988589 8.11986 0.94613 8.11877 0.902963ZM8.12478 1.16762C8.04226 1.16762 7.95974 1.16762 7.87722 1.16762C7.87613 1.21575 7.87503 1.26316 7.87394 1.31128C7.95865 1.31128 8.04335 1.31128 8.12806 1.31128C8.12696 1.26316 8.12587 1.21504 8.12478 1.16762ZM8.13134 1.46342C8.04445 1.46342 7.95701 1.46342 7.87012 1.46342C7.86902 1.5172 7.86738 1.57099 7.86629 1.62548C7.95591 1.62548 8.04554 1.62548 8.13462 1.62548C8.13407 1.57169 8.13243 1.51791 8.13134 1.46342ZM8.13899 1.79814C8.04663 1.79814 7.95482 1.79814 7.86247 1.79814C7.86083 1.85971 7.85973 1.92057 7.85864 1.98213C7.95373 1.98213 8.04882 1.98213 8.14336 1.98213C8.14172 1.92057 8.14063 1.85971 8.13899 1.79814ZM8.14773 2.17886C8.04991 2.17886 7.95209 2.17886 7.85372 2.17886C7.85208 2.24892 7.85044 2.31897 7.8488 2.38903C7.9499 2.38903 8.051 2.38903 8.1521 2.38903C8.15101 2.31897 8.14937 2.24821 8.14773 2.17886ZM8.15757 2.61477C8.05264 2.61477 7.94826 2.61477 7.84334 2.61477C7.8417 2.69544 7.83951 2.77612 7.83787 2.8575C7.94662 2.8575 8.05483 2.8575 8.16303 2.8575C8.16139 2.77682 8.15975 2.69615 8.15757 2.61477ZM8.16959 3.12004C8.05701 3.12004 7.94444 3.12004 7.83186 3.12004C7.82968 3.21415 7.82749 3.30898 7.8253 3.4031C7.94225 3.4031 8.05975 3.4031 8.17669 3.4031C8.17451 3.30898 8.17178 3.21415 8.16959 3.12004ZM8.18435 3.71092C8.06193 3.71092 7.94007 3.71092 7.81765 3.71092C7.81492 3.82203 7.81219 3.93383 7.80891 4.04564C7.93679 4.04564 8.06466 4.04564 8.19254 4.04564C8.18981 3.93454 8.18708 3.82273 8.18435 3.71092ZM8.20183 4.4115C8.0674 4.4115 7.93351 4.4115 7.79907 4.4115C7.79579 4.54454 7.79197 4.67828 7.78869 4.81203C7.93023 4.81203 8.07122 4.81203 8.21276 4.81203C8.20894 4.67828 8.20566 4.54525 8.20183 4.4115ZM8.22533 5.2536C8.07559 5.2536 7.9264 5.2536 7.77667 5.2536C7.7723 5.41566 7.76738 5.57842 7.76246 5.74118C7.92149 5.74118 8.08051 5.74118 8.23954 5.74118C8.23462 5.57842 8.2297 5.41566 8.22533 5.2536ZM8.25593 6.28182C8.08598 6.28182 7.91547 6.28182 7.74552 6.28182C7.73896 6.48279 7.7324 6.68448 7.72584 6.88616C7.90946 6.88616 8.09254 6.88616 8.27615 6.88616C8.26905 6.68448 8.26249 6.48279 8.25593 6.28182ZM8.3002 7.56338C8.10073 7.56338 7.90072 7.56338 7.70125 7.56338C7.69196 7.81813 7.68158 8.0736 7.6712 8.32835C7.89088 8.32835 8.11057 8.32835 8.33026 8.32835C8.31987 8.07289 8.30949 7.81813 8.3002 7.56338ZM8.36851 9.19593C8.12369 9.19593 7.87831 9.19593 7.63349 9.19593C7.61819 9.52711 7.60179 9.85759 7.5843 10.1874C7.86247 10.1874 8.14063 10.1874 8.41824 10.1874C8.40021 9.85759 8.38381 9.52711 8.36851 9.19593ZM7.42582 12.6514C7.80891 12.6514 8.19254 12.6514 8.57563 12.6514C8.54229 12.2141 8.51169 11.7725 8.48382 11.3288C8.16139 11.3288 7.83951 11.3288 7.51709 11.3288C7.48976 11.7725 7.45916 12.2141 7.42582 12.6514Z" fill="#034C82"/>
<path d="M8.55031 0C8.60605 0 8.66179 0 8.71754 0C9.8974 5.02574 10.4461 10.9743 16 16C15.524 16 15.0486 16 14.5726 16C9.98593 10.9743 9.53836 5.02574 8.55031 0Z" fill="#034C82"/>
<path d="M7.2834 0C7.33914 0 7.39488 0 7.45117 0C6.46258 5.02574 6.01501 10.9743 1.42836 16C0.952367 16 0.476925 16 0.0009367 16C5.55487 10.9743 6.10354 5.02574 7.2834 0Z" fill="#034C82"/>
</g>
<defs>
<clipPath id="clip0_31288_37526">
<rect width="16" height="16" fill="white" transform="matrix(-1 0 0 1 16 0)"/>
</clipPath>
</defs>
</svg>
