<?xml version="1.0" encoding="utf-8"?>
<!-- Generator: Adobe Illustrator 28.3.0, SVG Export Plug-In . SVG Version: 6.00 Build 0)  -->
<svg version="1.1" id="Layer_1" xmlns="http://www.w3.org/2000/svg" xmlns:xlink="http://www.w3.org/1999/xlink" x="0px" y="0px"
	 viewBox="0 0 400 400" style="enable-background:new 0 0 400 400;" xml:space="preserve">
<style type="text/css">
	.st0{fill:#E8E7E7;}
	.st1{fill:#B1B6B7;}
</style>
<g>
	<path class="st0" d="M400,200c0,53.68-21.15,102.42-55.57,138.34C308.03,376.34,256.78,400,200,400S91.97,376.34,55.57,338.34
		C21.15,302.42,0,253.68,0,200C0,89.54,89.54,0,200,0S400,89.54,400,200z"/>
	<circle class="st1" cx="200" cy="129.03" r="81.71"/>
	<path class="st1" d="M337.66,321.81c-1.6,1.81-3.24,3.59-4.91,5.34c-33.46,34.92-80.56,56.67-132.74,56.67
		s-99.29-21.74-132.74-56.67c-1.67-1.75-3.31-3.53-4.91-5.34c0-56.58,32.82-86.61,137.66-86.61
		C308.72,235.2,337.66,270.23,337.66,321.81z"/>
</g>
</svg>
