<svg width="16" height="16" viewBox="0 0 16 16" fill="none" xmlns="http://www.w3.org/2000/svg">
<path d="M11.7747 9.40289L10.0887 11.1431C9.50689 11.7437 9.50689 12.7127 10.0887 13.3064L11.7747 15.0467C12.3565 15.6472 13.2953 15.6472 13.8705 15.0467L15.5565 13.3064C16.1383 12.7059 16.1383 11.7368 15.5565 11.1431L13.8705 9.40289C13.2953 8.80235 12.3565 8.80235 11.7747 9.40289Z" fill="#034C82"/>
<path d="M2.12231 8.05817L0.436364 9.79839C-0.145455 10.3989 -0.145455 11.368 0.436364 11.9617L2.12231 13.7019C2.70413 14.3025 3.64298 14.3025 4.21818 13.7019L5.90413 11.9617C6.48595 11.3612 6.48595 10.3921 5.90413 9.79839L4.21818 8.05817C3.64298 7.45762 2.70413 7.45762 2.12231 8.05817Z" fill="#034C82"/>
<path d="M13.1568 0.503486H10.7701C9.95022 0.503486 9.28906 1.18592 9.28906 2.03215V4.49575C9.28906 5.34198 9.95022 6.02441 10.7701 6.02441H13.1568C13.9767 6.02441 14.6378 5.34198 14.6378 4.49575V2.03215C14.6378 1.19275 13.9767 0.503486 13.1568 0.503486Z" fill="#034C82"/>
</svg>
