<svg width="10" height="16" viewBox="0 0 10 16" fill="none" xmlns="http://www.w3.org/2000/svg">
<path d="M6.66046 15.9974C7.21429 15.4641 7.62967 14.8543 7.80155 14.0624C7.94478 13.405 7.95433 12.7398 7.66786 12.1432C7.09016 10.9421 6.46471 9.77 5.82494 8.52137C5.32601 9.5113 4.8629 10.4273 4.37829 11.3882C4.1348 10.752 3.90801 10.1607 3.65258 9.49282C3.14172 10.6253 2.36349 11.5334 2.15342 12.7425C1.92902 14.0386 2.36827 15.0866 3.29928 15.8944C3.33986 15.9287 3.38044 15.9604 3.43057 16C3.08204 15.9551 2.46376 15.6146 1.98631 15.2107C0.0765512 13.6004 -0.560832 10.789 0.537282 8.42105C1.23912 6.90843 2.06748 5.46444 2.84571 3.99406C3.54755 2.67151 4.25655 1.35423 4.98226 0C5.04671 0.102953 5.09684 0.174229 5.13981 0.256063C6.32387 2.47088 7.51031 4.68306 8.68481 6.90315C9.00708 7.51295 9.32697 8.12803 9.59434 8.76951C10.1935 10.2161 10.0909 11.6733 9.52511 13.0962C9.00947 14.3897 8.13098 15.3057 6.96364 15.8759C6.86576 15.9234 6.76072 15.9578 6.66046 15.9974Z" fill="#034C82"/>
</svg>
