<svg width="10" height="15" viewBox="0 0 10 15" fill="none" xmlns="http://www.w3.org/2000/svg">
<path d="M4.9973 0C5.94363 1.61933 6.85643 3.17573 7.76443 4.73455C8.29869 5.65193 8.84253 6.56689 9.35762 7.49637C10.9101 10.3018 9.51335 13.7195 6.59529 14.7216C3.13578 15.9125 -0.306964 13.1071 0.0212579 9.36986C0.0931314 8.54446 0.428541 7.82314 0.835824 7.12361C1.88039 5.33242 2.92495 3.54123 3.96951 1.75004C4.30013 1.18364 4.63554 0.617234 4.9973 0ZM2.39787 6.98806C2.18944 7.3584 1.95705 7.74084 1.7558 8.14023C1.48269 8.67759 1.29342 9.24399 1.26467 9.85396C1.24071 10.4107 1.52581 10.8851 1.97382 11.0449C2.39548 11.1949 2.87464 11.0449 3.15255 10.6745C3.44483 10.2848 3.41608 9.79829 3.10463 9.32145C2.97047 9.11812 2.84109 8.89543 2.7788 8.66064C2.63027 8.11118 2.52246 7.54962 2.39787 6.98806V6.98806Z" fill="#034C82"/>
</svg>
