<svg width="16" height="16" viewBox="0 0 16 16" fill="none" xmlns="http://www.w3.org/2000/svg">
<g clip-path="url(#clip0_31449_42057)">
<path d="M0 8.11205L2.18744 3L4.26475 4.04519L4.08684 4.46032L4.63073 4.75055C5.2424 4.14989 6.33358 3.47759 7.04691 3.27553C7.24346 3.21859 7.55523 3.19471 7.97035 3.20022C8.56846 3.2094 9.37838 3.29206 9.58509 3.39493C9.75622 3.48126 10.1476 3.76782 10.1527 4.59993C10.2001 4.62197 10.2476 4.64401 10.2933 4.66605C10.4848 4.7579 10.6661 4.84607 10.922 4.84974C11.0372 4.84974 11.1575 4.83688 11.2896 4.80382L11.9267 4.49706L11.7336 4.04519L13.8109 3L16 8.11205L13.9227 9.15724L13.7448 8.74026L13.4703 8.87068C13.3381 9.09111 13.189 9.23255 13.0501 9.33174C13.1263 9.45665 13.1789 9.5687 13.2195 9.66605C13.3246 9.91771 13.3009 10.2043 13.1518 10.4522C12.9925 10.7149 12.7299 10.8766 12.4655 10.8711C12.4554 10.8711 12.4452 10.8711 12.435 10.8711C12.435 10.9702 12.4181 11.0694 12.3774 11.165C12.2402 11.4938 11.8589 11.7381 11.493 11.7325C11.4455 11.7325 11.3998 11.727 11.3557 11.7179C11.3506 11.8281 11.3218 11.9364 11.2727 12.0393C11.1219 12.3516 10.7898 12.5573 10.4492 12.5518C10.3171 12.55 10.1917 12.5151 10.0815 12.4526C10.0748 12.471 10.0663 12.4912 10.0578 12.5096C9.92566 12.7832 9.61559 12.9706 9.30382 12.9651C9.05644 12.9614 8.84295 12.8347 8.72096 12.6179C8.67521 12.5389 8.63454 12.4673 8.59557 12.4012C8.33464 12.5794 8.14148 12.7098 8.02457 12.7888C7.86699 12.8935 7.68061 13.0037 7.45018 13C7.09266 12.9945 6.77751 12.763 6.63518 12.4232C6.53013 12.4581 6.42169 12.4747 6.30986 12.4673C5.90321 12.4416 5.57281 12.1293 5.47792 11.7215C5.35593 11.7821 5.22207 11.8134 5.08483 11.8115C4.65445 11.8042 4.29694 11.4735 4.20714 11.0364C4.10717 11.0749 4.00042 11.0952 3.89198 11.0933C3.39723 11.086 2.99905 10.6433 3.00582 10.1051C3.00582 9.97832 3.05666 9.80198 3.1346 9.63115C2.89569 9.42726 2.80758 9.13519 2.77539 8.97539L2.27216 8.7072L2.079 9.15724L0.00169468 8.11205H0ZM12.4689 10.4743C12.6045 10.4761 12.7553 10.3788 12.8434 10.2337C12.8891 10.1565 12.9569 10.0022 12.884 9.8277C12.8332 9.70647 12.762 9.55951 12.6333 9.38868C12.6231 9.37583 12.6129 9.36113 12.6011 9.34827C12.5994 9.34644 12.5977 9.34276 12.5943 9.34093C12.5164 9.24357 12.4249 9.14438 12.3232 9.04519C12.3198 9.04335 12.3181 9.03968 12.3147 9.03784C12.2978 9.02314 12.2825 9.00661 12.2656 8.99192C12.2419 8.97171 12.2182 8.95334 12.1944 8.94049C12.1487 8.91477 12.1029 8.90191 12.0538 8.90007C11.9047 8.89824 11.7403 9.01763 11.6573 9.18112C11.6522 9.19214 11.6471 9.20316 11.6421 9.21418C11.6031 9.3097 11.576 9.44746 11.676 9.5687C11.676 9.5687 11.676 9.57054 11.6776 9.57237C11.6827 9.57788 11.6878 9.58523 11.6929 9.59074C11.6929 9.59074 11.6946 9.59258 11.6963 9.59442C11.7014 9.59993 11.7064 9.60727 11.7115 9.61278C11.7234 9.62564 11.7336 9.6385 11.742 9.65136C11.7471 9.65687 11.7522 9.66238 11.7556 9.66789C11.803 9.72851 11.8386 9.77627 11.8844 9.84056C11.8877 9.84607 11.8928 9.85158 11.8962 9.85893C11.9318 9.91036 11.9742 9.97465 12.0335 10.0628C12.0741 10.1253 12.1233 10.1988 12.1843 10.2888C12.2622 10.4063 12.3554 10.4669 12.4621 10.4688L12.4689 10.4743ZM11.4963 11.3339C11.72 11.3376 11.964 11.187 12.0436 10.9978C12.0962 10.8729 12.0674 10.7461 11.9572 10.612C11.8996 10.5422 11.8437 10.4559 11.7793 10.3567C11.7285 10.2796 11.6726 10.1896 11.6048 10.094C11.5878 10.072 11.5726 10.0481 11.5556 10.0261C11.5506 10.0187 11.5455 10.0114 11.5404 10.0059C11.5285 9.99118 11.5167 9.97465 11.5048 9.95996C11.4963 9.95077 11.4896 9.93975 11.4811 9.93057C11.4726 9.91954 11.4625 9.90669 11.4523 9.89567C11.4337 9.87362 11.415 9.84974 11.3947 9.82586C11.3896 9.82035 11.3845 9.81301 11.3794 9.80749C11.3676 9.7928 11.354 9.7781 11.3405 9.76341C11.3354 9.75606 11.3286 9.75055 11.3235 9.7432C11.31 9.72851 11.2981 9.71381 11.2845 9.69912C11.2778 9.69177 11.271 9.68442 11.2642 9.67708C11.2507 9.66422 11.2388 9.64952 11.2252 9.63666C11.2151 9.62748 11.2049 9.61646 11.1947 9.60727C11.1829 9.59625 11.1727 9.58523 11.1609 9.57421C11.1388 9.55217 11.1168 9.53012 11.0931 9.50992C11.0846 9.50257 11.0778 9.49522 11.0694 9.48788C10.9525 9.38501 10.8271 9.3299 10.7051 9.32807C10.6932 9.32807 10.683 9.32807 10.6729 9.32807C10.6678 9.32807 10.661 9.32807 10.6559 9.32807C10.6509 9.32807 10.6475 9.32807 10.6424 9.32807C10.6339 9.32807 10.6271 9.3299 10.6187 9.33174C10.6187 9.33174 10.6153 9.33174 10.6136 9.33174C10.5611 9.34276 10.5102 9.36481 10.4662 9.39236C10.4086 9.43093 10.3611 9.48237 10.3289 9.53564C10.3238 9.54298 10.3188 9.55217 10.3154 9.55951C10.3154 9.55951 10.3137 9.56319 10.312 9.56503C10.3103 9.5687 10.3069 9.57421 10.3052 9.57788C10.2967 9.59625 10.2899 9.61646 10.2832 9.6385C10.2832 9.6385 10.2832 9.64034 10.2832 9.64217C10.2832 9.64769 10.2815 9.65136 10.2798 9.65687C10.2798 9.66054 10.2798 9.66238 10.2798 9.66605C10.2798 9.66973 10.2798 9.6734 10.2781 9.67708C10.2781 9.68075 10.2781 9.68626 10.2781 9.68993C10.2781 9.69177 10.2781 9.69544 10.2781 9.69728C10.2781 9.70279 10.2781 9.7083 10.2781 9.71381C10.2781 9.71565 10.2781 9.71749 10.2781 9.72116C10.2781 9.72667 10.2781 9.73218 10.2781 9.73953C10.2781 9.74137 10.2781 9.7432 10.2781 9.74504C10.2781 9.75055 10.2781 9.7579 10.2781 9.76341C10.2781 9.76525 10.2781 9.76708 10.2781 9.77076C10.2781 9.77627 10.2781 9.78178 10.2815 9.78913C10.2815 9.7928 10.2815 9.79464 10.2815 9.79831C10.2815 9.80382 10.2832 9.80933 10.2849 9.81484C10.2849 9.81852 10.2866 9.82219 10.2883 9.82586C10.2883 9.83137 10.2916 9.83505 10.2933 9.84056C10.2933 9.84423 10.2967 9.84974 10.2984 9.85342C10.2984 9.85709 10.3018 9.86076 10.3035 9.86444C10.3052 9.86995 10.3086 9.87546 10.3103 9.88097C10.3103 9.88464 10.3137 9.88648 10.3154 9.89015C10.3171 9.89383 10.3204 9.89934 10.3221 9.90301C10.3798 9.98016 10.4357 10.0536 10.4882 10.1234C10.5661 10.2263 10.6644 10.3622 10.7847 10.5349C10.9813 10.8141 11.1151 11.0198 11.1914 11.1374L11.1947 11.1411C11.21 11.165 11.2236 11.1888 11.2371 11.2127C11.3134 11.3082 11.4218 11.3321 11.5014 11.3321L11.4963 11.3339ZM10.4526 12.155C10.6525 12.1587 10.861 12.032 10.9474 11.8538C11.0101 11.7252 11.0033 11.5838 10.9304 11.4405C10.9236 11.4313 10.9169 11.4221 10.9118 11.4129C10.7508 11.1631 10.6119 10.9537 10.4933 10.7829C10.4069 10.6598 10.3086 10.5239 10.1985 10.3733C10.151 10.3108 10.1103 10.2594 10.0798 10.2208C10.0578 10.1932 10.0392 10.1657 10.0205 10.1363C10.0155 10.1289 10.0087 10.1216 10.0036 10.1124C9.97819 10.0794 9.95277 10.0445 9.92566 10.0114C9.91888 10.0022 9.91041 9.99118 9.90363 9.982C9.78841 9.84423 9.65625 9.77076 9.5207 9.76708C9.51054 9.76708 9.49868 9.76708 9.48851 9.76708C9.48343 9.76708 9.48004 9.76708 9.47496 9.76708C9.46818 9.76708 9.46309 9.76708 9.45632 9.76892C9.3106 9.79096 9.17674 9.89566 9.11066 10.0445C9.0683 10.1418 9.02256 10.3347 9.18691 10.5551C9.19877 10.5698 9.21063 10.5845 9.22249 10.5992C9.22758 10.6065 9.23266 10.6139 9.23774 10.6212C9.30891 10.7168 9.38854 10.8325 9.48851 10.9849C9.66811 11.2531 9.78503 11.446 9.87313 11.5874C9.91888 11.6627 9.95446 11.7215 9.98666 11.7711C10.0104 11.806 10.029 11.8428 10.0477 11.8777C10.0561 11.8924 10.0646 11.9052 10.0731 11.9199C10.1866 12.1054 10.3425 12.1477 10.4526 12.1495V12.155ZM9.30552 12.5683C9.48004 12.5702 9.66303 12.4655 9.7325 12.324C9.76978 12.2487 9.76978 12.1697 9.7325 12.0834C9.49868 11.7032 9.32924 11.4295 9.19708 11.2256C9.12591 11.119 9.04458 11.0015 8.95139 10.8692C8.93953 10.8545 8.92937 10.8398 8.91751 10.827C8.91751 10.827 8.9175 10.827 8.91581 10.8251C8.91242 10.8215 8.90903 10.8196 8.90564 10.8159C8.90564 10.8159 8.90564 10.8159 8.90395 10.8159C8.8887 10.8031 8.87006 10.7921 8.84804 10.7847C8.84126 10.7829 8.83448 10.7792 8.82601 10.7774C8.81923 10.7755 8.81076 10.7737 8.80398 10.7719C8.80398 10.7719 8.80398 10.7719 8.80229 10.7719C8.79551 10.7719 8.78704 10.77 8.77857 10.7682C8.77009 10.7682 8.76162 10.7682 8.75315 10.7682C8.60066 10.7663 8.44308 10.8564 8.37869 10.9849C8.36853 11.0033 8.36175 11.0235 8.35667 11.0437C8.32617 11.1521 8.35667 11.2678 8.40241 11.3633C8.41428 11.3891 8.42783 11.4148 8.44139 11.4368C8.48883 11.5158 8.53458 11.5911 8.5888 11.6774C8.61591 11.7197 8.64302 11.7638 8.67351 11.8134C8.67351 11.8134 8.67521 11.817 8.6769 11.8189C8.68368 11.8299 8.69046 11.8409 8.69724 11.8519C8.69724 11.8538 8.70062 11.8575 8.70232 11.8593C8.7091 11.8703 8.71587 11.8813 8.72265 11.8924C8.72435 11.896 8.72604 11.8979 8.72774 11.9015C8.73451 11.9126 8.74129 11.9236 8.74807 11.9346C8.74976 11.9383 8.75315 11.942 8.75485 11.9456C8.76162 11.9566 8.7684 11.9677 8.77518 11.9805C8.78196 11.9934 8.79043 12.0044 8.7972 12.0173C8.7989 12.0209 8.80059 12.0228 8.80229 12.0265C8.86667 12.1348 8.94123 12.2616 9.02933 12.4159C9.10219 12.5445 9.2208 12.5738 9.30721 12.5757L9.30552 12.5683ZM3.89198 10.6965C4.02076 10.6984 4.14445 10.6506 4.24272 10.5606C4.34608 10.4265 5.14582 9.38868 5.84221 8.65944C5.97607 8.51984 6.09976 8.39677 6.20989 8.29574C6.28614 8.22594 6.40136 8.23512 6.46744 8.31962C6.53182 8.40228 6.52335 8.52719 6.44541 8.59882C6.34036 8.69434 6.22175 8.8119 6.09467 8.946C5.45081 9.62013 4.71376 10.568 4.54601 10.7829C4.54601 10.7939 4.54601 10.8049 4.54601 10.8159C4.54093 11.1429 4.78323 11.4129 5.08483 11.4166C5.2441 11.4184 5.39659 11.3468 5.50164 11.2164C5.50334 11.2145 5.50503 11.2109 5.50842 11.209C5.55756 11.1411 5.65583 11.0253 5.84729 10.7976C6.04045 10.568 6.33866 10.2245 6.6589 9.88464C6.79615 9.73953 6.92831 9.6036 7.052 9.48237C7.12655 9.40889 7.24177 9.41624 7.30954 9.49706C7.37732 9.57788 7.37054 9.70279 7.29599 9.77627C7.17569 9.89383 7.04691 10.0261 6.91306 10.1675C6.39627 10.7168 5.93879 11.2733 5.81171 11.4331C5.81171 11.4386 5.81171 11.4423 5.81171 11.4478C5.79477 11.7748 6.0252 12.054 6.3268 12.0742C6.42677 12.0797 6.52504 12.0577 6.61315 12.0062C6.64535 11.9713 6.94525 11.6352 7.46373 11.1337C7.53828 11.0602 7.6535 11.0676 7.72128 11.1503C7.78905 11.2311 7.78227 11.356 7.70603 11.4295C7.32479 11.7987 7.06047 12.0797 6.94186 12.2083C7.01641 12.4416 7.21805 12.6051 7.45187 12.6087C7.58403 12.6106 7.70603 12.5371 7.83141 12.4544C7.94663 12.3773 8.1364 12.2506 8.39394 12.0742C8.38886 12.0669 8.38378 12.0595 8.38039 12.0503C8.377 12.0448 8.37361 12.0375 8.36853 12.032C8.36514 12.0265 8.36175 12.0209 8.35836 12.0173C8.35158 12.0062 8.34481 11.9952 8.33803 11.9842C8.33803 11.9842 8.33803 11.9842 8.33803 11.9824C8.32108 11.9548 8.30414 11.9273 8.2872 11.9015C8.23467 11.817 8.18553 11.7381 8.1347 11.6554C8.08218 11.5672 8.0449 11.4827 8.02118 11.4056C7.93307 11.1245 8.00085 10.9133 8.06015 10.7976C8.06862 10.781 8.07709 10.7663 8.08557 10.7517C8.08895 10.748 8.09065 10.7425 8.09404 10.7388C8.10082 10.7278 8.10759 10.7186 8.11437 10.7076C8.11776 10.7021 8.12284 10.6965 8.12623 10.691C8.13301 10.6819 8.13979 10.6745 8.14656 10.6653C8.15165 10.6598 8.15673 10.6543 8.16012 10.6488C8.1669 10.6414 8.17367 10.6341 8.18045 10.6267C8.18553 10.6212 8.19062 10.6157 8.1974 10.6102C8.20417 10.6029 8.21095 10.5955 8.21773 10.59C8.22281 10.5845 8.22959 10.579 8.23467 10.5753C8.24145 10.5698 8.24992 10.5625 8.2567 10.5569C8.26348 10.5514 8.26856 10.5478 8.27534 10.5422C8.28211 10.5367 8.29059 10.5312 8.29906 10.5257C8.30583 10.5202 8.31261 10.5165 8.31939 10.5129C8.32786 10.5073 8.33464 10.5018 8.34311 10.4982C8.34989 10.4945 8.35667 10.4908 8.36344 10.4853C8.37192 10.4798 8.38039 10.4761 8.38886 10.4706C8.39564 10.4669 8.40241 10.4633 8.41089 10.4596C8.41936 10.4559 8.42783 10.4504 8.4363 10.4467C8.44308 10.4431 8.45155 10.4412 8.45833 10.4375C8.4668 10.4339 8.47527 10.4302 8.48544 10.4265C8.49222 10.4229 8.50069 10.421 8.50747 10.4192C8.51594 10.4155 8.5261 10.4137 8.53458 10.41C8.54135 10.4082 8.54983 10.4063 8.5566 10.4026C8.56507 10.4008 8.57524 10.3971 8.58541 10.3953C8.59388 10.3953 8.60066 10.3916 8.60913 10.3898C8.6193 10.3898 8.62777 10.3861 8.63793 10.3843C8.6464 10.3843 8.65318 10.3824 8.66165 10.3806C8.67182 10.3806 8.68029 10.3788 8.69046 10.3769C8.69893 10.3769 8.70571 10.3769 8.71418 10.3769C8.71587 10.3769 8.71926 10.3769 8.72096 10.3769C8.69554 10.2134 8.71587 10.0463 8.78365 9.89015C8.79212 9.86995 8.80229 9.84791 8.81245 9.82954C8.81415 9.82586 8.81584 9.82219 8.81754 9.81852C8.81923 9.81484 8.82262 9.80933 8.82431 9.80566C8.97342 9.54115 9.24113 9.37583 9.52748 9.38134C9.52748 9.38134 9.52748 9.38134 9.52918 9.38134C9.53595 9.38134 9.54442 9.38134 9.5512 9.38134C9.55459 9.38134 9.55629 9.38134 9.55967 9.38134C9.56645 9.38134 9.57323 9.38134 9.58001 9.38134C9.58509 9.38134 9.59017 9.38134 9.59695 9.38134C9.59695 9.38134 9.59695 9.38134 9.59864 9.38134C9.69692 9.39236 9.78503 9.42175 9.86466 9.464C9.86466 9.464 9.86466 9.464 9.86636 9.464C9.87144 9.46767 9.87822 9.46951 9.8833 9.47318C9.88669 9.47318 9.89008 9.47686 9.89177 9.47869C9.89516 9.48053 9.89855 9.48237 9.90194 9.4842C9.90702 9.48788 9.9121 9.48971 9.91719 9.49339C9.91719 9.49339 9.92058 9.49339 9.92058 9.49522C9.92735 9.4989 9.93413 9.50441 9.94091 9.50808C9.94091 9.50441 9.9443 9.4989 9.94599 9.49522C9.94938 9.4842 9.95277 9.47502 9.95616 9.464C9.95955 9.45298 9.96294 9.44379 9.96802 9.43461C9.96802 9.43093 9.96971 9.4291 9.97141 9.42542C9.9748 9.41991 9.97649 9.4144 9.97988 9.40705C10.1053 9.13152 10.3645 8.95151 10.6559 8.93497C10.6746 8.93497 10.6915 8.93497 10.7102 8.93497C10.7237 8.93497 10.7356 8.93497 10.7491 8.93497C10.7525 8.93497 10.7559 8.93497 10.7593 8.93497C10.7695 8.93497 10.7779 8.93497 10.7881 8.93865C10.7932 8.93865 10.7966 8.93865 10.8017 8.93865C10.8101 8.93865 10.8186 8.94048 10.8271 8.94232C10.8322 8.94232 10.8372 8.94232 10.8406 8.94416C10.8491 8.94416 10.8576 8.94783 10.8643 8.94967C10.8694 8.94967 10.8745 8.95151 10.8796 8.95334C10.8881 8.95518 10.8948 8.95702 10.9033 8.95885C10.9084 8.95885 10.9135 8.96069 10.9186 8.96253C10.927 8.96436 10.9338 8.96804 10.9423 8.96987C10.9474 8.96987 10.9525 8.97355 10.9575 8.97539C10.966 8.97906 10.9745 8.9809 10.9813 8.98457C10.9863 8.98457 10.9897 8.98824 10.9948 8.99008C11.0033 8.99375 11.0134 8.99743 11.0219 9.0011C11.0253 9.0011 11.0287 9.00478 11.0321 9.00478C11.0439 9.01029 11.0575 9.0158 11.0694 9.02314C11.0694 9.02314 11.0694 9.02314 11.0711 9.02314C11.0829 9.02866 11.0948 9.036 11.1066 9.04151C11.11 9.04335 11.1151 9.04702 11.1185 9.04886C11.127 9.05437 11.1354 9.05805 11.1422 9.06356C11.1473 9.06723 11.1524 9.06907 11.1558 9.07274C11.1626 9.07825 11.171 9.08192 11.1778 9.08744C11.1829 9.09111 11.188 9.09478 11.1931 9.09846C11.1998 9.10397 11.2066 9.10764 11.2134 9.11315C11.2185 9.11683 11.2236 9.1205 11.2286 9.12417C11.2354 9.12968 11.2422 9.13519 11.249 9.14071C11.2541 9.14438 11.2591 9.14805 11.2642 9.15173C11.2659 9.15356 11.2693 9.1554 11.2727 9.15724C11.2761 9.14438 11.2812 9.12968 11.2845 9.11683C11.2845 9.11315 11.2862 9.10764 11.2879 9.10397C11.2947 9.0856 11.3015 9.06907 11.3083 9.0507C11.4455 8.72373 11.7522 8.4978 12.0572 8.50331C12.0674 8.50331 12.0775 8.50331 12.0877 8.50331C12.2368 8.51249 12.3791 8.57678 12.4994 8.68699C12.5147 8.69985 12.5282 8.71455 12.5435 8.72741C12.5435 8.72741 12.5469 8.72924 12.5469 8.73108C12.5604 8.74394 12.574 8.7568 12.5858 8.76782C12.6739 8.85415 12.7519 8.93681 12.818 9.0158C12.9416 8.93314 13.0704 8.8119 13.1839 8.60985C13.2026 8.57494 13.2331 8.54739 13.267 8.53086L13.5872 8.3784L12.0809 4.85525L11.4235 5.1712C11.4133 5.17671 11.4032 5.18038 11.3913 5.18222C11.2236 5.22447 11.0677 5.24467 10.9186 5.24284C10.5899 5.23733 10.3577 5.12711 10.1527 5.02792C10.1527 5.10691 10.1527 5.18406 10.1527 5.25937C10.1527 5.30345 10.1527 5.34938 10.1527 5.39346C10.1527 5.64511 10.1527 5.89126 10.1408 6.15393C10.1392 6.21638 10.1358 6.27884 10.1324 6.34129C10.1205 6.57641 9.89347 6.72337 9.55459 6.71785C9.54781 6.71785 9.54104 6.71785 9.53256 6.71785C9.52579 6.71785 9.51731 6.71785 9.51054 6.71785C9.05983 6.69397 8.56338 6.40191 8.43291 5.78839C8.36344 5.45775 8.31261 5.1914 8.28381 4.99118C8.28211 4.99118 8.28042 4.99118 8.27873 4.99302C8.25162 5.00404 8.2245 5.01506 8.1974 5.02608C8.19062 5.02976 8.18215 5.03159 8.17537 5.03527C8.14656 5.04813 8.11945 5.06098 8.09065 5.07384C8.08557 5.07568 8.07879 5.07935 8.07371 5.08303C8.04998 5.09405 8.02626 5.10507 8.00254 5.11793C7.99238 5.12344 7.98221 5.12711 7.97374 5.13262C7.94493 5.14732 7.91613 5.16201 7.88563 5.17671C7.88393 5.17671 7.88055 5.17855 7.87885 5.18038C7.84666 5.19691 7.81447 5.21528 7.78058 5.23365C7.77719 5.23365 7.77549 5.23733 7.77211 5.23916C7.74161 5.25753 7.70941 5.27406 7.67722 5.29427C7.67214 5.29794 7.66706 5.29978 7.66197 5.30345C7.62978 5.32366 7.59589 5.34203 7.5637 5.36223C7.49423 5.40448 7.42476 5.4504 7.3536 5.49816C7.3519 5.49816 7.34851 5.50184 7.34682 5.50367C7.31293 5.52572 7.28074 5.5496 7.24685 5.57348C7.24177 5.57715 7.23668 5.58082 7.23329 5.58266C7.16383 5.63042 7.09605 5.68185 7.02658 5.73512C7.02319 5.73696 7.0215 5.7388 7.01811 5.74063C6.98422 5.76635 6.94864 5.7939 6.91475 5.82145C6.90967 5.82513 6.90628 5.8288 6.9012 5.83248C6.86731 5.86003 6.83342 5.88758 6.79784 5.91514C6.79784 5.91514 6.79784 5.91514 6.79615 5.91514C6.76226 5.94269 6.72668 5.97208 6.69279 5.99963C6.68601 6.00514 6.67923 6.01065 6.67415 6.01616C6.64026 6.04555 6.60468 6.07494 6.57079 6.10433C6.53182 6.13924 6.49285 6.1723 6.45388 6.2072C6.43694 6.2219 6.42169 6.23475 6.40474 6.24945C6.3878 6.26414 6.37255 6.27884 6.35561 6.29353C6.34544 6.30272 6.33697 6.31007 6.3268 6.31925C6.31155 6.33395 6.29461 6.34864 6.27936 6.3615C6.2675 6.37252 6.25733 6.3817 6.24547 6.39273C6.22853 6.40742 6.21159 6.42395 6.19464 6.43865C6.18617 6.446 6.1777 6.45518 6.16923 6.46253C6.15398 6.47722 6.13873 6.49008 6.12348 6.50478C6.11331 6.51396 6.10145 6.52498 6.09128 6.53417C6.0879 6.53784 6.08451 6.53968 6.08112 6.54335L5.98115 6.63887C5.98115 6.63887 5.97607 6.64254 5.97437 6.64622C5.96251 6.65724 5.95235 6.66826 5.94049 6.67744C5.9371 6.68112 5.93371 6.68479 5.93032 6.68846L5.83713 6.77847C5.83713 6.77847 5.82866 6.78582 5.82527 6.78949C5.81341 6.80235 5.80155 6.81337 5.78969 6.82623L5.7846 6.83174C5.77613 6.84093 5.76596 6.85011 5.75749 6.85929C5.74563 6.87032 5.73377 6.88134 5.7236 6.8942C5.71174 6.90705 5.69988 6.91807 5.68633 6.93093C5.67447 6.94195 5.66261 6.95481 5.65075 6.96767C5.63889 6.98053 5.62533 6.99339 5.61347 7.00441C5.59992 7.01727 5.58805 7.03196 5.5745 7.04482C5.57111 7.04849 5.56603 7.054 5.56264 7.05768C5.55756 7.06319 5.55247 7.06686 5.54739 7.07237C5.53892 7.08156 5.52875 7.09074 5.52028 7.09993C5.50673 7.11278 5.49486 7.12748 5.48131 7.14034C5.47284 7.14769 5.46606 7.15687 5.45759 7.16422C5.44234 7.17891 5.42878 7.19544 5.41353 7.21014C5.41184 7.21198 5.41014 7.21381 5.40676 7.21749C5.38134 7.24504 5.35592 7.27259 5.33051 7.30015C5.31526 7.31668 5.30001 7.33321 5.28476 7.34974C5.26443 7.37179 5.2424 7.39566 5.22207 7.41771C5.21699 7.42322 5.2119 7.42873 5.20682 7.43424C5.19157 7.45077 5.17632 7.4673 5.16107 7.48384C5.15599 7.48935 5.1526 7.49486 5.14752 7.49853L5.14074 7.50588C5.12718 7.52057 5.11363 7.53711 5.10007 7.5518C5.10007 7.5518 5.09838 7.55364 5.09669 7.55547L4.95944 7.71161C4.95944 7.71161 4.95605 7.71528 4.95436 7.71712C4.94419 7.72998 4.93233 7.74284 4.92216 7.75386L4.73578 7.97428C4.72392 7.98714 4.71376 8.00184 4.7019 8.01469L4.63412 8.09735C4.63412 8.09735 4.63073 8.10103 4.63073 8.10287C4.62057 8.11389 4.61209 8.12674 4.60362 8.13777C4.60023 8.14144 4.59854 8.14511 4.59515 8.14695L4.5816 8.16348C4.56973 8.17818 4.55957 8.19104 4.54771 8.20573C4.54771 8.20573 4.53585 8.22043 4.53076 8.22594C4.5189 8.24063 4.50874 8.25533 4.49688 8.27002C4.49518 8.27186 4.49349 8.27553 4.49179 8.27737L4.48332 8.28839C4.46807 8.30676 4.45452 8.32697 4.43927 8.34533L4.43588 8.34901C4.42063 8.36921 4.40538 8.38942 4.38844 8.40963C4.38844 8.40963 4.38674 8.41146 4.38505 8.4133C4.3698 8.43167 4.35624 8.45187 4.34099 8.47024C4.32744 8.48861 4.31388 8.50698 4.30202 8.52351C4.29863 8.52719 4.29525 8.5327 4.29186 8.53637V8.54004C4.2783 8.55474 4.26814 8.56943 4.25797 8.58413L4.24441 8.6025C4.23594 8.61352 4.22747 8.62454 4.22069 8.63556C4.219 8.6374 4.2173 8.64107 4.21561 8.64291L4.06142 8.85599L3.80727 9.23071C3.78354 9.26745 3.75982 9.30235 3.73779 9.33725C3.73779 9.33909 3.7361 9.34093 3.73441 9.34276L3.71238 9.37766C3.7056 9.38685 3.70052 9.39787 3.69374 9.40705L3.65138 9.47685C3.6446 9.48604 3.63952 9.49706 3.63274 9.50625L3.62597 9.51543C3.62597 9.51543 3.62597 9.51727 3.62427 9.5191L3.60563 9.55033L3.59377 9.57054C3.59377 9.57054 3.58869 9.57788 3.587 9.58156C3.587 9.58156 3.587 9.58339 3.5853 9.58523C3.58022 9.59442 3.57344 9.6036 3.56836 9.61278C3.5565 9.63115 3.54633 9.64952 3.53617 9.66789C3.51753 9.70095 3.50058 9.73035 3.48533 9.7579C3.404 9.91771 3.3735 10.0573 3.3735 10.1069C3.37012 10.4265 3.60563 10.6892 3.89876 10.6929L3.89198 10.6965ZM3.01599 8.66495C3.0736 8.69618 3.11257 8.7568 3.11765 8.8266C3.11765 8.83946 3.14307 9.10948 3.32437 9.29133C3.32437 9.29133 3.32437 9.28949 3.32606 9.28766L3.33623 9.27112C3.33623 9.27112 3.33623 9.27112 3.33623 9.26929L3.34978 9.24724C3.35825 9.23439 3.36673 9.22153 3.3752 9.20683L3.38706 9.18663C3.39384 9.17561 3.40061 9.16642 3.4057 9.1554L3.43111 9.11499C3.43111 9.11499 3.43111 9.11499 3.43111 9.11315C3.45314 9.07825 3.47856 9.03968 3.50228 9.00294L3.50567 8.99927C3.54464 8.94049 3.5853 8.87803 3.62935 8.81374L3.64122 8.79537L3.64969 8.78435C3.72932 8.66863 3.81743 8.54372 3.91401 8.41146L3.92587 8.39493C3.93604 8.38207 3.9462 8.36921 3.95468 8.35452L3.96823 8.33615C3.9784 8.32145 3.99026 8.30676 4.00212 8.29023L4.01228 8.27737C4.02584 8.259 4.04109 8.24063 4.05464 8.22043H4.05634C4.08684 8.17818 4.11903 8.13593 4.15122 8.09368L4.15461 8.09001C4.16986 8.0698 4.18511 8.05143 4.20036 8.03123L4.21053 8.01837C4.22408 8.00184 4.23594 7.9853 4.2495 7.96877L4.26644 7.94857C4.2783 7.93387 4.28847 7.91918 4.30033 7.90632L4.31897 7.88244C4.33083 7.86958 4.34099 7.85489 4.35285 7.84203L4.42402 7.75386C4.43588 7.73916 4.44774 7.7263 4.4579 7.71161L4.47654 7.68957C4.52229 7.63446 4.56973 7.57935 4.61718 7.52241L4.64937 7.48384C4.66123 7.46914 4.67479 7.45445 4.68665 7.43975L4.74256 7.3773C4.7595 7.35709 4.77814 7.33688 4.79509 7.31668L4.83067 7.27627C4.84592 7.25974 4.85947 7.2432 4.87472 7.22667L4.89336 7.20647C4.9103 7.1881 4.92725 7.16973 4.9425 7.15136L4.95605 7.13666C5.00011 7.08891 5.04416 7.04115 5.08821 6.99339C5.08821 6.99339 5.08821 6.99339 5.08991 6.99155C5.11193 6.96767 5.13227 6.94563 5.15429 6.92175L5.17971 6.89603C5.19326 6.88134 5.20851 6.86664 5.22207 6.85011L5.24579 6.82623C5.26104 6.8097 5.27629 6.795 5.29154 6.77847C5.30001 6.76929 5.30848 6.7601 5.31695 6.75092C5.3322 6.73622 5.34576 6.72153 5.36101 6.705L5.38812 6.67744C5.40167 6.66275 5.41692 6.64805 5.43217 6.63336L5.46775 6.59846C5.47961 6.5856 5.49317 6.57274 5.50503 6.56172L5.53722 6.53049C5.55078 6.5158 5.56603 6.50294 5.57958 6.48824L5.60669 6.46253C5.62025 6.44967 5.63211 6.43681 5.64566 6.42395L5.68802 6.38354C5.70158 6.36885 5.71683 6.35599 5.73208 6.34129L5.74563 6.32844C5.75919 6.31558 5.77444 6.30088 5.78799 6.28802L5.84221 6.23659C5.85577 6.22373 5.86763 6.21271 5.88118 6.19985L5.88965 6.19251C5.88965 6.19251 5.89813 6.18332 5.90321 6.17965L5.92185 6.16128C5.93371 6.15026 5.94726 6.1374 5.95912 6.12638L6.00148 6.0878C6.01165 6.07862 6.02012 6.06943 6.03029 6.06209C6.03537 6.05841 6.03876 6.05474 6.04384 6.04923L6.05401 6.04004C6.06417 6.03086 6.07265 6.02168 6.08281 6.01433C6.09806 6.00147 6.11162 5.98861 6.12687 5.97575L6.16584 5.94085C6.16584 5.94085 6.17262 5.93534 6.176 5.93167C6.18448 5.92432 6.19125 5.91881 6.19973 5.91146C6.2082 5.90411 6.21497 5.89677 6.22345 5.89126L6.25056 5.86738C6.27936 5.8435 6.30647 5.81778 6.33527 5.7939C6.36069 5.77186 6.38441 5.75165 6.40813 5.73145L6.4166 5.7241C6.42677 5.71675 6.43524 5.70757 6.44541 5.70022C6.45558 5.69104 6.46574 5.68369 6.47591 5.6745C6.4776 5.67267 6.48099 5.67083 6.48269 5.66899L6.49455 5.65981C6.49455 5.65981 6.5098 5.64695 6.51657 5.64144C6.52674 5.63226 6.53691 5.62491 6.54707 5.61572C6.55046 5.61205 6.55385 5.61021 6.55724 5.60654L6.56232 5.60287C6.56232 5.60287 6.56232 5.60287 6.56402 5.60287C6.57249 5.59552 6.58265 5.58817 6.59113 5.58082C6.5979 5.57531 6.60637 5.56796 6.61315 5.56245C6.61824 5.55878 6.62332 5.55327 6.6301 5.5496L6.64365 5.53857C6.64365 5.53857 6.6589 5.52755 6.66568 5.52021C6.67076 5.51653 6.67585 5.51286 6.67923 5.50918C6.68771 5.50184 6.69787 5.49449 6.70634 5.48714L6.71482 5.48163C6.73515 5.4651 6.75548 5.4504 6.77412 5.43571L6.78428 5.42836C6.80462 5.41183 6.82664 5.39713 6.84867 5.3806L6.86053 5.37142C6.88256 5.35489 6.90289 5.34019 6.92492 5.32366C6.94525 5.30896 6.96728 5.29243 6.98761 5.27957L6.99778 5.27223C7.01811 5.25753 7.03844 5.24284 7.05877 5.22814L7.06894 5.22079C7.08927 5.2061 7.10961 5.19324 7.12994 5.17854C7.15027 5.16385 7.1723 5.15099 7.19263 5.1363L7.2011 5.13079C7.22143 5.11793 7.24177 5.10323 7.2621 5.09037C7.2621 5.09037 7.2621 5.09037 7.26379 5.09037H7.26718C7.28751 5.07568 7.30785 5.06282 7.32818 5.04996H7.33157C7.3519 5.03527 7.37223 5.02241 7.39257 5.01139L7.39934 5.00771C7.44001 4.98384 7.48067 4.95812 7.52134 4.93424H7.52303C7.54337 4.92138 7.5637 4.91036 7.58234 4.89934H7.58403C7.623 4.8773 7.66367 4.85525 7.70264 4.83505C7.70264 4.83505 7.70603 4.83505 7.70603 4.83321C7.72128 4.82403 7.73822 4.81668 7.75347 4.80933C7.76025 4.80566 7.76533 4.80382 7.77211 4.80015C7.78905 4.79096 7.8043 4.78361 7.82124 4.77627C7.82971 4.77259 7.83819 4.76708 7.84666 4.76341C7.85852 4.7579 7.87038 4.75239 7.88224 4.74504C7.94493 4.71381 8.00932 4.68626 8.07201 4.66054C8.07879 4.65871 8.08557 4.65503 8.09234 4.6532C8.1059 4.64769 8.11945 4.64217 8.13301 4.63666C8.14826 4.63115 8.16181 4.62564 8.17706 4.6183C8.18215 4.61646 8.18723 4.61462 8.19231 4.61278C8.20926 4.60544 8.22789 4.59993 8.24484 4.59258C8.24823 4.59258 8.24992 4.59074 8.25331 4.58891C8.26856 4.58339 8.2855 4.57788 8.30075 4.57237C8.30414 4.57237 8.30922 4.5687 8.31431 4.5687C8.32278 4.56503 8.33125 4.56319 8.33972 4.55951C8.35158 4.55584 8.36344 4.55217 8.37361 4.54849C8.37869 4.54666 8.38547 4.54482 8.39055 4.54482C8.39055 4.54482 8.39394 4.54482 8.39564 4.54482C8.40072 4.54482 8.4058 4.54482 8.41258 4.54298C8.41258 4.54298 8.41258 4.54298 8.41428 4.54298C8.41936 4.54298 8.42444 4.54298 8.42783 4.54298C8.42783 4.54298 8.42783 4.54298 8.42952 4.54298C8.438 4.54298 8.44477 4.54298 8.45325 4.54482C8.45325 4.54482 8.45325 4.54482 8.45494 4.54482C8.46172 4.54482 8.47019 4.54849 8.47697 4.55033C8.47866 4.55033 8.48205 4.55033 8.48374 4.55217C8.48883 4.554 8.49561 4.55584 8.50069 4.55951C8.50238 4.55951 8.50577 4.56135 8.50747 4.56319C8.51424 4.56686 8.52102 4.57237 8.52949 4.57605C8.57524 4.61095 8.60405 4.66422 8.60743 4.72483C8.61591 4.84423 8.6481 5.10323 8.76501 5.65797C8.7684 5.67634 8.77179 5.69471 8.77687 5.71308C8.77857 5.72226 8.78195 5.73145 8.78365 5.74063C8.81584 5.86921 8.89887 6.03637 9.04797 6.15944C9.20047 6.28068 9.38346 6.3266 9.51901 6.33578C9.52918 6.33578 9.53765 6.33578 9.54781 6.33578C9.66303 6.33578 9.73081 6.3119 9.75792 6.29721C9.763 6.18332 9.76808 6.07127 9.76978 5.96289C9.76978 5.94085 9.76978 5.91697 9.76978 5.89493C9.77317 5.68553 9.77317 5.48347 9.77317 5.27223C9.77317 5.21161 9.77317 5.14916 9.77317 5.08486V5.07752C9.77317 5.05915 9.77317 5.04078 9.77317 5.02241C9.77317 5.0169 9.77317 5.00955 9.77317 5.00404C9.77317 4.98751 9.77317 4.97098 9.77317 4.95628C9.77317 4.9471 9.77317 4.93791 9.77317 4.93057C9.77317 4.91587 9.77317 4.90118 9.77317 4.88648C9.77317 4.87362 9.77317 4.86076 9.77317 4.84607C9.77317 4.83505 9.77317 4.82403 9.77317 4.81301C9.77317 4.78913 9.77317 4.76708 9.77317 4.7432C9.77317 4.71381 9.77317 4.68259 9.77317 4.6532C9.78164 4.0158 9.52748 3.81925 9.41735 3.76414C9.31907 3.71455 8.64641 3.61719 7.95002 3.60617C7.57895 3.60066 7.28582 3.6227 7.12485 3.66863C6.42338 3.86885 5.32712 4.55584 4.77814 5.13997C4.72223 5.19875 4.6392 5.21345 4.56973 5.17671L3.91909 4.82954L2.40771 8.36003L3.00244 8.67781L3.01599 8.66495Z" fill="#034C82"/>
</g>
<defs>
<clipPath id="clip0_31449_42057">
<rect width="16" height="10" fill="white" transform="matrix(-1 0 0 1 16 3)"/>
</clipPath>
</defs>
</svg>
