<svg width="16" height="16" viewBox="0 0 16 16" fill="none" xmlns="http://www.w3.org/2000/svg">
<path fill-rule="evenodd" clip-rule="evenodd" d="M7.67397 5.77809C7.17919 5.77809 6.77809 6.17919 6.77809 6.67397C6.77809 7.16875 7.17919 7.56985 7.67397 7.56985C8.16875 7.56985 8.56985 7.16875 8.56985 6.67397C8.56985 6.17919 8.16875 5.77809 7.67397 5.77809ZM4.98633 6.67397C4.98633 5.18963 6.18963 3.98633 7.67397 3.98633C9.15832 3.98633 10.3616 5.18963 10.3616 6.67397C10.3616 8.15832 9.15832 9.36161 7.67397 9.36161C6.18963 9.36161 4.98633 8.15832 4.98633 6.67397Z" fill="#034C82"/>
<path fill-rule="evenodd" clip-rule="evenodd" d="M3.66185 2.66185C4.72592 1.59779 6.1691 1 7.67391 1C9.17873 1 10.6219 1.59779 11.686 2.66185C12.75 3.72592 13.3478 5.1691 13.3478 6.67391C13.3478 7.30218 13.2812 7.87078 13.1003 8.41653C12.9181 8.96627 12.6348 9.44816 12.2551 9.92183C12.2479 9.93079 12.2406 9.93962 12.2331 9.9483L8.35092 14.4277C8.18076 14.624 7.93373 14.7368 7.67391 14.7368C7.41409 14.7368 7.16707 14.624 6.99691 14.4277L3.11475 9.9483C3.10723 9.93962 3.09988 9.93079 3.09269 9.92183C2.71306 9.44816 2.42975 8.96627 2.24752 8.41653C2.06662 7.87078 2 7.30218 2 6.67391C2 5.1691 2.59779 3.72592 3.66185 2.66185ZM7.67391 2.79176C6.6443 2.79176 5.65686 3.20077 4.92882 3.92882C4.20077 4.65686 3.79176 5.6443 3.79176 6.67391C3.79176 7.17565 3.84519 7.54175 3.94828 7.85277C4.04878 8.15594 4.21056 8.44928 4.48051 8.78837L7.67391 12.4731L10.8673 8.78837C11.1373 8.44928 11.299 8.15595 11.3995 7.85277C11.5026 7.54175 11.5561 7.17565 11.5561 6.67391C11.5561 5.6443 11.1471 4.65686 10.419 3.92882C9.69096 3.20077 8.70352 2.79176 7.67391 2.79176Z" fill="#034C82"/>
</svg>
