<svg width="16" height="16" viewBox="0 0 16 16" fill="none" xmlns="http://www.w3.org/2000/svg">
<g clip-path="url(#clip0_1_38)">
<path d="M6.41978 6.4V8H4.83953V6.4H6.41978ZM11.1605 8V6.4H9.58027V8H11.1605ZM15.1111 9.6V16H0.888916V9.6H1.67904V6.4C1.67904 2.864 4.50768 0 8.00003 0C11.4924 0 14.321 2.864 14.321 6.4V9.6H15.1111ZM4.04941 11.2H2.46916V14.4H4.04941V11.2ZM7.2099 11.2H5.62966V14.4H7.2099V11.2ZM7.2099 1.664C4.96595 2.048 3.25929 4.024 3.25929 6.4V9.6H7.2099V1.664ZM8.79015 9.6H12.7408V6.4C12.7408 4.024 11.0341 2.048 8.79015 1.664V9.6ZM10.3704 11.2H8.79015V14.4H10.3704V11.2ZM13.5309 11.2H11.9506V14.4H13.5309V11.2Z" fill="#034C82"/>
</g>
<defs>
<clipPath id="clip0_1_38">
<rect width="16" height="16" fill="white"/>
</clipPath>
</defs>
</svg>
