<svg width="11" height="16" viewBox="0 0 11 16" fill="none" xmlns="http://www.w3.org/2000/svg">
<g clip-path="url(#clip0_1_163)">
<path d="M8.97532 0.0171464C8.46137 0.996938 7.97411 1.93019 7.48463 2.86099C7.00182 3.782 6.52124 4.70055 6.01618 5.6632H11C8.50364 9.14636 6.04733 12.5732 3.59324 16C3.57767 15.9927 3.5621 15.9853 3.54652 15.9804C4.02265 13.8322 4.49879 11.6816 4.98159 9.50398H0C0.193568 9.12431 0.360437 8.78138 0.53843 8.44336C1.42395 6.76301 2.31169 5.08267 3.19721 3.40233C3.75566 2.34415 4.31189 1.28353 4.86145 0.220453C4.94377 0.0661359 5.03054 0 5.19741 0C6.38774 0.00734844 7.57585 0.00489896 8.76618 0.00489896C8.8218 0.00489896 8.8752 0.0122474 8.97755 0.0171464H8.97532Z" fill="#034C82"/>
</g>
<defs>
<clipPath id="clip0_1_163">
<rect width="11" height="16" fill="white"/>
</clipPath>
</defs>
</svg>
