<svg width="18" height="16" viewBox="0 0 18 16" fill="none" xmlns="http://www.w3.org/2000/svg">
<path d="M4.78917 4.67188C6.34635 4.67188 7.90352 4.67188 9.4607 4.67188C9.4607 4.50318 9.4607 4.33449 9.4607 4.17877C9.4607 3.14065 8.70807 2.18039 7.68292 1.94682C7.59209 1.92086 7.55316 1.88193 7.52721 1.77812C7.30661 0.869767 6.54099 0.156061 5.60669 0.0392726C5.17846 -0.0126333 4.75024 0.000343198 4.32201 0.000343198C3.01139 0.000343198 1.97327 1.03846 1.97327 2.34909C1.97327 3.75055 1.97327 5.15201 1.97327 6.55347C1.97327 6.60537 1.97327 6.65728 1.97327 6.70918C2.29768 6.70918 2.59614 6.70918 2.90758 6.70918C2.90758 6.6443 2.90758 6.57942 2.90758 6.51454C2.90758 5.13903 2.90758 3.76352 2.90758 2.38802C2.90758 1.60943 3.41366 1.02549 4.19225 0.947626C4.62047 0.908697 5.06167 0.921673 5.4899 0.960603C6.04789 1.03846 6.39825 1.4018 6.5929 1.92086C5.37311 2.24527 4.6594 3.30935 4.78917 4.67188ZM9.4607 7.66944C9.42177 7.66944 9.40879 7.66944 9.38284 7.66944C6.89136 7.66944 4.39987 7.66944 1.90839 7.66944C1.81755 7.66944 1.72672 7.6954 1.63588 7.72135C1.20766 7.86409 0.935154 8.30529 1.01301 8.75947C1.09087 9.21364 1.48017 9.55103 1.94732 9.55103C4.41285 9.55103 6.87838 9.55103 9.34391 9.55103C9.38284 9.55103 9.42177 9.55103 9.47368 9.53806C9.4607 8.90221 9.4607 8.29231 9.4607 7.66944ZM10.408 10.9265C11.3553 10.9265 12.2766 10.9265 13.2109 10.9265C13.2109 10.9006 13.2239 10.8876 13.2239 10.8746C13.2239 9.78461 13.2239 8.69458 13.2239 7.61754C13.2239 7.15038 12.8086 6.73514 12.3285 6.73514C12.0041 6.73514 11.6797 6.73514 11.3553 6.73514C10.8103 6.73514 10.408 7.13741 10.408 7.68242C10.408 8.26636 10.408 8.83733 10.408 9.42127C10.408 9.9014 10.408 10.4075 10.408 10.9265Z" fill="#034C82"/>
<path d="M3.68616 16C3.47854 15.7794 3.25794 15.5588 3.03734 15.3253C3.23199 15.1306 3.42663 14.9489 3.63426 14.7413C3.59533 14.7024 3.5564 14.6764 3.50449 14.6505C2.5053 13.9887 1.98624 13.0673 1.97327 11.8605C1.97327 11.4064 1.97327 10.9392 1.97327 10.472C4.46475 10.472 6.95623 10.472 9.47367 10.472C9.47367 10.9262 9.47367 11.3934 9.47367 11.8605C11.0438 11.8605 12.601 11.8605 14.1582 11.8605C14.1582 11.3934 14.1582 10.9392 14.1582 10.472C14.7811 10.472 15.4039 10.472 16.0398 10.472C16.0398 10.6797 16.0398 10.9003 16.0398 11.1079C16.0268 11.5621 16.0527 12.0162 15.9749 12.4574C15.8192 13.4177 15.2871 14.1314 14.4826 14.6634C14.4566 14.6894 14.4177 14.7024 14.3788 14.7283C14.5864 14.923 14.7811 15.1176 14.9757 15.3123C14.7421 15.5588 14.5345 15.7664 14.3269 15.987C14.3139 15.987 14.3009 15.987 14.3009 15.987C14.0154 15.7016 13.7429 15.4161 13.4575 15.1306C13.4315 15.1046 13.3666 15.0917 13.3147 15.1046C13.1071 15.1176 12.9124 15.1436 12.7048 15.1436C10.2782 15.1436 7.85161 15.1436 5.42501 15.1436C5.17846 15.1436 4.9319 15.1176 4.69833 15.1046C4.6594 15.1046 4.60749 15.1176 4.58154 15.1436C4.29606 15.4291 4.01057 15.7145 3.73807 16C3.71211 16 3.69914 16 3.68616 16Z" fill="#034C82"/>
<path d="M17 8.78508C16.9611 8.87591 16.9222 8.97972 16.8703 9.07056C16.7145 9.34306 16.468 9.52473 16.1565 9.53771C15.4947 9.55069 14.8329 9.53771 14.1711 9.53771C14.1711 8.91484 14.1711 8.30495 14.1711 7.6691C14.223 7.6691 14.2879 7.6691 14.3398 7.6691C14.8978 7.6691 15.4558 7.6691 16.0138 7.6691C16.5199 7.6691 16.8313 7.90267 16.987 8.3828C16.987 8.39578 17 8.40876 17.013 8.42173C17 8.52555 17 8.65531 17 8.78508Z" fill="#034C82"/>
<path d="M4.78916 4.67188C4.6594 3.30935 5.3731 2.24527 6.59289 1.92086C6.39825 1.4018 6.04788 1.03846 5.47692 0.973579C5.04869 0.921673 4.60749 0.921673 4.17927 0.960603C3.42663 1.02549 2.90757 1.6224 2.90757 2.38802C2.90757 3.76352 2.90757 5.13903 2.90757 6.51454C2.90757 6.57942 2.90757 6.63132 2.90757 6.70918C2.59614 6.70918 2.29768 6.70918 1.97327 6.70918C1.97327 6.65728 1.97327 6.60537 1.97327 6.55347C1.97327 5.15201 1.97327 3.75055 1.97327 2.34909C1.97327 1.03846 3.01138 0.000343198 4.32201 0.000343198C4.75023 0.000343198 5.17846 -0.0126333 5.5937 0.0392726C6.52801 0.156061 7.3066 0.869767 7.51422 1.77812C7.55315 1.88193 7.59208 1.92086 7.69589 1.94682C8.70806 2.18039 9.47367 3.14065 9.47367 4.17877C9.47367 4.33449 9.47367 4.50318 9.47367 4.67188C7.91649 4.67188 6.35932 4.67188 4.78916 4.67188Z" fill="#034C82"/>
<path d="M9.46068 7.6691C9.46068 8.29198 9.46068 8.90187 9.46068 9.52474C9.42175 9.52474 9.38282 9.53772 9.33091 9.53772C6.86538 9.53772 4.39985 9.53772 1.93432 9.53772C1.46717 9.53772 1.07787 9.20033 1.00001 8.74615C0.922153 8.30495 1.19466 7.86375 1.62288 7.70803C1.72669 7.68208 1.81753 7.65613 1.90837 7.65613C4.39985 7.65613 6.89133 7.65613 9.38282 7.65613C9.40877 7.65613 9.43472 7.65613 9.46068 7.6691Z" fill="#034C82"/>
<path d="M10.408 10.9262C10.408 10.4072 10.408 9.90107 10.408 9.40796C10.408 8.82402 10.408 8.25306 10.408 7.66912C10.408 7.1241 10.8102 6.72183 11.3552 6.72183C11.6797 6.72183 12.0041 6.72183 12.3285 6.72183C12.7956 6.72183 13.2109 7.13708 13.2239 7.60423C13.2239 8.69426 13.2239 9.78428 13.2239 10.8613C13.2239 10.8743 13.2239 10.8873 13.2109 10.9132C12.2895 10.9262 11.3552 10.9262 10.408 10.9262Z" fill="#034C82"/>
</svg>
