<svg width="14" height="16" viewBox="0 0 14 16" fill="none" xmlns="http://www.w3.org/2000/svg">
<path d="M14 8.63165C14 12.6965 11.2127 16 7 16C2.78727 16 0 12.6965 0 8.63165C1.40609 8.64309 2.77374 9.07585 3.91379 9.87007C5.05383 10.6643 5.90992 11.7807 6.36364 13.0649V7.4036H3.18182C2.6755 7.4036 2.18991 7.20952 1.83189 6.86406C1.47386 6.51861 1.27273 6.05006 1.27273 5.56151V1.87734C1.27273 1.74847 1.31475 1.62286 1.39285 1.51831C1.47094 1.41376 1.58115 1.33557 1.70785 1.29482C1.83456 1.25407 1.97135 1.25281 2.09883 1.29124C2.22632 1.32967 2.33804 1.40582 2.41818 1.50892L4.36545 3.96504L6.46545 0.280865C6.52314 0.194688 6.60229 0.123831 6.69567 0.0747685C6.78905 0.0257055 6.89368 0 7 0C7.10632 0 7.21095 0.0257055 7.30433 0.0747685C7.39771 0.123831 7.47686 0.194688 7.53455 0.280865L9.63454 3.96504L11.5818 1.50892C11.662 1.40582 11.7737 1.32967 11.9012 1.29124C12.0287 1.25281 12.1654 1.25407 12.2921 1.29482C12.4189 1.33557 12.5291 1.41376 12.6072 1.51831C12.6852 1.62286 12.7273 1.74847 12.7273 1.87734V5.56151C12.7273 6.05006 12.5261 6.51861 12.1681 6.86406C11.8101 7.20952 11.3245 7.4036 10.8182 7.4036H7.63636V13.0649C8.09008 11.7807 8.94617 10.6643 10.0862 9.87007C11.2263 9.07585 12.5939 8.64309 14 8.63165V8.63165Z" fill="#034C82"/>
</svg>
