<svg width="14" height="16" viewBox="0 0 14 16" fill="none" xmlns="http://www.w3.org/2000/svg">
<g clip-path="url(#clip0_1_123)">
<path d="M7.01321 4.65466C6.61306 5.06062 6.23723 5.44283 5.86038 5.82503C5.84721 5.8178 5.83404 5.81057 5.82088 5.80334V5.40667H5.02768C5.02464 5.47588 5.01957 5.53683 5.01957 5.59778C5.01957 5.918 5.02464 6.2372 5.01451 6.55743C5.01147 6.6349 4.97196 6.7258 4.9203 6.78365C4.71972 7.00471 4.50192 7.21028 4.30235 7.43134C4.24765 7.49228 4.20308 7.58938 4.20308 7.66996C4.19598 8.71224 4.20105 9.7535 4.19598 10.7958C4.19598 10.9363 4.24056 10.9673 4.37022 10.9662C4.9669 10.959 5.56357 10.9631 6.16024 10.9631C6.20886 10.9631 6.25749 10.958 6.31726 10.9549C6.32131 10.8836 6.32739 10.8237 6.32739 10.7627C6.32739 10.3351 6.32739 9.90638 6.32739 9.47872C6.32739 9.24733 6.32739 9.21738 6.50264 9.20705H7.23101C7.32319 9.20705 7.41436 9.20601 7.50655 9.20085C7.64128 9.19362 7.68079 9.237 7.67876 9.37233C7.67167 9.8413 7.67572 10.3113 7.67674 10.7803C7.67674 10.8392 7.68484 10.8981 7.68889 10.9518H9.80814C9.80814 10.8898 9.80814 10.8392 9.80814 10.7886C9.80814 9.75143 9.80611 8.71534 9.81017 7.67822C9.81017 7.56976 9.77269 7.49745 9.70076 7.42514C9.01596 6.7289 8.33318 6.0306 7.65242 5.33126C7.43969 5.1133 7.23303 4.88914 7.01219 4.65672L7.01321 4.65466Z" fill="#034C82"/>
<path d="M11.041 4.75486C11.044 5.58745 11.7055 6.25993 12.522 6.25683C13.3324 6.25476 14 5.57505 14.001 4.75073C13.9939 3.92433 13.3395 3.24153 12.5109 3.24462C11.7126 3.24669 11.0389 3.9078 11.042 4.75589L11.041 4.75486ZM12.5119 3.94809C12.9242 3.95016 13.3152 4.29208 13.2899 4.75073C13.3172 5.2166 12.9009 5.55026 12.524 5.55129C12.0844 5.55336 11.7258 5.17528 11.7227 4.70631C11.7197 4.32513 12.1127 3.94706 12.5119 3.94809V3.94809Z" fill="#034C82"/>
<path d="M1.47396 6.25683C2.29857 6.25993 2.96108 5.58435 2.96007 4.74556C2.95805 3.89231 2.27425 3.23016 1.48207 3.24772C0.664558 3.23843 0.0111569 3.90264 1.36199e-05 4.74556C-0.0111297 5.56989 0.665571 6.25373 1.47396 6.25683ZM1.48207 3.94809C1.90957 3.94499 2.26311 4.31067 2.26311 4.75279C2.26311 5.19181 1.90551 5.55543 1.47599 5.55233C1.04951 5.54923 0.708118 5.19491 0.708118 4.75486C0.675701 4.33546 1.04546 3.95222 1.48207 3.94913V3.94809Z" fill="#034C82"/>
<path d="M13.1258 9.40951C13.1542 9.41984 13.1815 9.43327 13.2099 9.44567C13.3142 9.49319 13.4175 9.54174 13.532 9.59545C13.8248 8.24636 13.7448 7.37039 13.53 6.41487C13.3173 6.49854 13.1045 6.58222 12.8918 6.66589C12.9029 6.76299 12.907 6.85493 12.9232 6.9448C13.0539 7.64516 13.0539 8.34553 12.9232 9.0459C12.8735 9.31241 12.8725 9.31551 13.1248 9.40951H13.1258Z" fill="#034C82"/>
<path d="M10.9832 12.5984C10.5871 12.9547 10.1576 13.2636 9.67843 13.494C9.39478 13.6303 9.10404 13.7491 8.81635 13.8762C8.85281 14.1014 8.88928 14.3266 8.92677 14.5517C9.77061 14.3503 11.123 13.5487 11.6011 12.9651C11.4512 12.839 11.3053 12.7244 11.1686 12.5994C11.0997 12.5364 11.0622 12.5271 10.9832 12.5984V12.5984Z" fill="#034C82"/>
<path d="M9.17197 2.26328C9.8436 2.54632 10.4646 2.91304 11.0015 3.4161C11.0602 3.47085 11.0977 3.45846 11.1524 3.40887C11.2943 3.28078 11.4422 3.15992 11.5961 3.02976C11.2497 2.52153 9.64707 1.57325 8.9258 1.44929C8.88832 1.67448 8.85185 1.89967 8.81335 2.13106C8.87616 2.15482 8.93087 2.17755 8.98759 2.19717C9.04939 2.2199 9.1122 2.23746 9.17197 2.26225V2.26328Z" fill="#034C82"/>
<path d="M5.18671 13.8669C4.96587 13.777 4.74908 13.6954 4.53938 13.6014C3.97108 13.3452 3.4595 12.9981 2.99148 12.5818C2.96616 12.5591 2.89018 12.5612 2.8608 12.5829C2.70682 12.7027 2.55993 12.8318 2.38873 12.9764C3.16572 13.7171 4.05212 14.2491 5.07223 14.5569C5.11276 14.3142 5.15024 14.089 5.18671 13.8669Z" fill="#034C82"/>
<path d="M3.98932 2.69404C4.36819 2.46988 4.77644 2.29737 5.18064 2.098C5.14822 1.9007 5.11074 1.67551 5.07123 1.43689C4.05112 1.74989 3.16067 2.27981 2.38672 3.02253C2.57514 3.17645 2.74533 3.3159 2.9064 3.44709C3.27109 3.19091 3.61552 2.91717 3.98932 2.69507V2.69404Z" fill="#034C82"/>
<path d="M1.0404 6.63077C0.856031 6.55536 0.667609 6.49132 0.447782 6.41074C0.401183 6.74647 0.347493 7.06979 0.311024 7.39518C0.232008 8.10278 0.305959 8.80109 0.441704 9.49629C0.462978 9.60372 0.505525 9.58513 0.577449 9.5531C0.719273 9.49009 0.862109 9.42708 1.01001 9.38059C1.09814 9.3527 1.11334 9.31551 1.10017 9.22564C1.0556 8.93641 1.00697 8.64717 0.989751 8.35587C0.958347 7.81561 0.986711 7.27639 1.10017 6.7444C1.10726 6.71134 1.07181 6.64317 1.0404 6.63077Z" fill="#034C82"/>
<path d="M7.00204 12.9888C6.18655 12.9888 5.52606 13.6623 5.52606 14.4939C5.52606 15.3255 6.18655 15.999 7.00204 15.999C7.81752 15.999 8.47802 15.3255 8.47802 14.4939C8.47802 13.6623 7.81752 12.9888 7.00204 12.9888V12.9888ZM7.00204 15.2934C6.56948 15.2934 6.21796 14.936 6.21796 14.4939C6.21796 14.0518 6.56846 13.6944 7.00204 13.6944C7.43561 13.6944 7.78612 14.0518 7.78612 14.4939C7.78612 14.936 7.43561 15.2934 7.00204 15.2934Z" fill="#034C82"/>
<path d="M12.52 9.73388C11.7045 9.73388 11.044 10.4074 11.044 11.2389C11.044 12.0705 11.7045 12.744 12.52 12.744C13.3355 12.744 13.996 12.0705 13.996 11.2389C13.996 10.4074 13.3355 9.73388 12.52 9.73388V9.73388ZM12.52 12.0385C12.0874 12.0385 11.7359 11.6811 11.7359 11.2389C11.7359 10.7968 12.0864 10.4394 12.52 10.4394C12.9536 10.4394 13.3041 10.7968 13.3041 11.2389C13.3041 11.6811 12.9536 12.0385 12.52 12.0385V12.0385Z" fill="#034C82"/>
<path d="M1.48104 9.73904C0.665558 9.73904 0.00506592 10.4136 0.00506592 11.2451C0.00506592 12.0767 0.665558 12.7502 1.48104 12.7502C2.29653 12.7502 2.95702 12.0767 2.95702 11.2451C2.95702 10.4136 2.29653 9.74008 1.48104 9.74008V9.73904ZM1.48104 12.0436C1.04848 12.0436 0.696962 11.6862 0.696962 11.2441C0.696962 10.802 1.04747 10.4446 1.48104 10.4446C1.91462 10.4446 2.26512 10.802 2.26512 11.2441C2.26512 11.6862 1.91462 12.0436 1.48104 12.0436Z" fill="#034C82"/>
<path d="M6.99795 0C6.18247 0 5.52197 0.67351 5.52197 1.50507C5.52197 2.33663 6.18247 3.01014 6.99795 3.01014C7.81343 3.01014 8.47393 2.33663 8.47393 1.50507C8.47393 0.67351 7.81343 0 6.99795 0ZM6.99795 2.3046C6.56539 2.3046 6.21387 1.94719 6.21387 1.50507C6.21387 1.06295 6.56438 0.705533 6.99795 0.705533C7.43152 0.705533 7.78203 1.06295 7.78203 1.50507C7.78203 1.94719 7.43152 2.3046 6.99795 2.3046Z" fill="#034C82"/>
</g>
<defs>
<clipPath id="clip0_1_123">
<rect width="14" height="16" fill="white"/>
</clipPath>
</defs>
</svg>
