<svg width="16" height="16" viewBox="0 0 16 16" fill="none" xmlns="http://www.w3.org/2000/svg">
<path d="M11.3372 14.2622L11.6452 14.8435C11.7107 14.9672 11.8657 15.0118 11.9874 14.9424C12.3248 14.7499 12.6484 14.5326 12.9536 14.2938C13.0638 14.2074 13.0809 14.0472 12.991 13.9398L12.5692 13.4367C12.4835 13.3346 12.3321 13.3177 12.2269 13.3996C11.9758 13.5951 11.7101 13.7734 11.4334 13.9323C11.3176 13.9988 11.2749 14.1443 11.3372 14.2622Z" fill="#034C82"/>
<path d="M13.5997 12.3719L14.1171 12.7758C14.2275 12.8619 14.3872 12.8394 14.4699 12.7265C14.6986 12.4138 14.905 12.0839 15.0866 11.741C15.1521 11.6172 15.1023 11.464 14.9765 11.4026L14.3849 11.1139C14.2651 11.0554 14.1208 11.1029 14.0581 11.2206C13.9081 11.5021 13.7384 11.7734 13.551 12.031C13.4725 12.1389 13.4944 12.2898 13.5997 12.3719Z" fill="#034C82"/>
<path d="M14.8475 8.48338C14.8247 8.8008 14.7796 9.11744 14.7126 9.42941C14.6847 9.55981 14.7643 9.68898 14.8937 9.72147L15.5322 9.88168C15.6681 9.91573 15.805 9.83061 15.8347 9.69388C15.9173 9.31459 15.9722 8.92919 15.9988 8.54268C16.0084 8.40305 15.9007 8.28312 15.7607 8.278L15.1043 8.25408C14.9711 8.24918 14.8571 8.35043 14.8475 8.48338Z" fill="#034C82"/>
<path d="M14.4517 5.65807C14.5578 5.95814 14.6431 6.26643 14.7066 6.57907C14.7331 6.70969 14.8578 6.79636 14.9895 6.77444L15.6388 6.6663C15.7769 6.64327 15.8684 6.51054 15.841 6.37335C15.7649 5.99274 15.661 5.61746 15.5308 5.25265C15.4838 5.1208 15.337 5.05394 15.2067 5.10512L14.5954 5.34532C14.4711 5.39406 14.4071 5.53235 14.4517 5.65807Z" fill="#034C82"/>
<path d="M14.2025 3.85042L13.4397 0.862565C13.4088 0.741849 13.2588 0.699682 13.1695 0.786798L12.6332 1.30971C12.5787 1.36278 12.4945 1.37113 12.4311 1.32918C11.9047 0.981167 11.3383 0.696567 10.7411 0.480503C9.97642 0.203802 9.17684 0.044925 8.36446 0.00820965C7.54161 -0.0289508 6.72265 0.0601675 5.9302 0.273005C5.11091 0.493075 4.33272 0.842427 3.61712 1.31127C2.71341 1.90339 1.9527 2.65483 1.35605 3.54479C0.779897 4.40415 0.38061 5.35552 0.168993 6.37243C-0.0425118 7.38933 -0.0555429 8.42081 0.130234 9.43827C0.322583 10.492 0.720756 11.484 1.31351 12.3867C1.90625 13.2895 2.6585 14.0494 3.5494 14.6454C4.40968 15.2209 5.36195 15.6199 6.37994 15.8312C6.92213 15.9438 7.46854 16.0001 8.01474 16.0001C8.19717 16.0001 8.3795 15.9936 8.56171 15.9811V15.9814C8.64836 15.9753 8.73702 15.9676 8.82757 15.9583C9.00878 15.9396 9.18175 15.9155 9.34603 15.8879V15.8874C9.5533 15.8521 9.75924 15.8087 9.96317 15.7573C10.0992 15.7231 10.1802 15.5836 10.1415 15.4489L9.95994 14.8174C9.92307 14.689 9.79098 14.6136 9.66122 14.6458C9.55675 14.6719 9.45161 14.6955 9.34603 14.7165V14.7155C8.90653 14.8022 8.46225 14.8449 8.01952 14.8449C5.78496 14.8448 3.59173 13.757 2.27725 11.7551C0.2043 8.59816 1.08897 4.34496 4.2493 2.2741C5.39347 1.52433 6.70316 1.15273 8.01028 1.15273C9.22685 1.15273 10.441 1.47504 11.5162 2.11423C11.6078 2.16863 11.6229 2.29491 11.5466 2.36923L11.1036 2.80125C11.0143 2.88825 11.0529 3.03923 11.1729 3.07294L14.1449 3.9066C14.1795 3.91617 14.2114 3.88502 14.2025 3.85042Z" fill="#034C82"/>
<path d="M10.9217 11.2163C10.8012 11.2163 10.6805 11.1723 10.5856 11.0835L7.51758 8.21285V2.97179C7.51758 2.70043 7.73777 2.48047 8.00942 2.48047C8.28107 2.48047 8.50126 2.70043 8.50126 2.97179V7.78684L11.2581 10.3664C11.4563 10.5518 11.4665 10.8628 11.2808 11.0607C11.184 11.1641 11.053 11.2163 10.9217 11.2163Z" fill="#034C82"/>
</svg>
