<svg width="32" height="32" viewBox="0 0 32 32" fill="none" xmlns="http://www.w3.org/2000/svg">
<g clip-path="url(#clip0_31174_34379)">
<path d="M31.4667 30.9333H28.2667V13.3333C28.2667 13.0388 28.0279 12.8 27.7333 12.8H20.2667V0.533333C20.2667 0.2388 20.0279 0 19.7333 0H5.86667C5.57213 0 5.33333 0.2388 5.33333 0.533333V30.9333H0.533333C0.2388 30.9333 0 31.1721 0 31.4667C0 31.7612 0.2388 32 0.533333 32H31.4667C31.7612 32 32 31.7612 32 31.4667C32 31.1721 31.7612 30.9333 31.4667 30.9333ZM11.2 30.9333H9.06667V26.1333C9.06667 25.8388 9.30547 25.6 9.6 25.6H10.6667C10.9612 25.6 11.2 25.8388 11.2 26.1333V30.9333ZM13.3333 13.3333V30.9333H12.2667V26.1333C12.2667 25.2497 11.5503 24.5333 10.6667 24.5333H9.6C8.71633 24.5333 8 25.2497 8 26.1333V30.9333H6.4V1.06667H19.2V12.8H13.8667C13.5721 12.8 13.3333 13.0388 13.3333 13.3333ZM27.2 30.9333H14.4V13.8667H27.2V30.9333Z" fill="#034C82"/>
<path d="M17.0668 7.4668H13.8668C13.5723 7.4668 13.3335 7.7056 13.3335 8.00013V11.2001C13.3335 11.4947 13.5723 11.7335 13.8668 11.7335H17.0668C17.3614 11.7335 17.6002 11.4947 17.6002 11.2001V8.00013C17.6002 7.7056 17.3614 7.4668 17.0668 7.4668ZM16.5335 10.6668H14.4002V8.53346H16.5335V10.6668Z" fill="#034C82"/>
<path d="M17.0668 2.1333H13.8668C13.5723 2.1333 13.3335 2.3721 13.3335 2.66663V5.86663C13.3335 6.16117 13.5723 6.39997 13.8668 6.39997H17.0668C17.3614 6.39997 17.6002 6.16117 17.6002 5.86663V2.66663C17.6002 2.3721 17.3614 2.1333 17.0668 2.1333ZM16.5335 5.3333H14.4002V3.19997H16.5335V5.3333Z" fill="#034C82"/>
<path d="M11.7333 7.4668H8.53333C8.2388 7.4668 8 7.7056 8 8.00013V11.2001C8 11.4947 8.2388 11.7335 8.53333 11.7335H11.7333C12.0279 11.7335 12.2667 11.4947 12.2667 11.2001V8.00013C12.2667 7.7056 12.0279 7.4668 11.7333 7.4668ZM11.2 10.6668H9.06667V8.53346H11.2V10.6668Z" fill="#034C82"/>
<path d="M11.7333 2.1333H8.53333C8.2388 2.1333 8 2.3721 8 2.66663V5.86663C8 6.16117 8.2388 6.39997 8.53333 6.39997H11.7333C12.0279 6.39997 12.2667 6.16117 12.2667 5.86663V2.66663C12.2667 2.3721 12.0279 2.1333 11.7333 2.1333ZM11.2 5.3333H9.06667V3.19997H11.2V5.3333Z" fill="#034C82"/>
<path d="M11.7333 12.7998H8.53333C8.2388 12.7998 8 13.0386 8 13.3331V16.5331C8 16.8277 8.2388 17.0665 8.53333 17.0665H11.7333C12.0279 17.0665 12.2667 16.8277 12.2667 16.5331V13.3331C12.2667 13.0386 12.0279 12.7998 11.7333 12.7998ZM11.2 15.9998H9.06667V13.8665H11.2V15.9998Z" fill="#034C82"/>
<path d="M11.7333 18.1333H8.53333C8.2388 18.1333 8 18.3721 8 18.6666V21.8666C8 22.1612 8.2388 22.4 8.53333 22.4H11.7333C12.0279 22.4 12.2667 22.1612 12.2667 21.8666V18.6666C12.2667 18.3721 12.0279 18.1333 11.7333 18.1333ZM11.2 21.3333H9.06667V19.2H11.2V21.3333Z" fill="#034C82"/>
<path d="M21.8668 24.5333H25.0668C25.3614 24.5333 25.6002 24.2945 25.6002 23.9999V20.7999C25.6002 20.5054 25.3614 20.2666 25.0668 20.2666H21.8668C21.5723 20.2666 21.3335 20.5054 21.3335 20.7999V23.9999C21.3335 24.2945 21.5723 24.5333 21.8668 24.5333ZM22.4002 21.3333H24.5335V23.4666H22.4002V21.3333Z" fill="#034C82"/>
<path d="M21.8668 19.1998H25.0668C25.3614 19.1998 25.6002 18.961 25.6002 18.6664V15.4664C25.6002 15.1719 25.3614 14.9331 25.0668 14.9331H21.8668C21.5723 14.9331 21.3335 15.1719 21.3335 15.4664V18.6664C21.3335 18.961 21.5723 19.1998 21.8668 19.1998ZM22.4002 15.9998H24.5335V18.1331H22.4002V15.9998Z" fill="#034C82"/>
<path d="M21.8668 29.8668H25.0668C25.3614 29.8668 25.6002 29.628 25.6002 29.3334V26.1334C25.6002 25.8389 25.3614 25.6001 25.0668 25.6001H21.8668C21.5723 25.6001 21.3335 25.8389 21.3335 26.1334V29.3334C21.3335 29.628 21.5723 29.8668 21.8668 29.8668ZM22.4002 26.6668H24.5335V28.8001H22.4002V26.6668Z" fill="#034C82"/>
<path d="M16.5333 24.5333H19.7333C20.0279 24.5333 20.2667 24.2945 20.2667 23.9999V20.7999C20.2667 20.5054 20.0279 20.2666 19.7333 20.2666H16.5333C16.2388 20.2666 16 20.5054 16 20.7999V23.9999C16 24.2945 16.2388 24.5333 16.5333 24.5333ZM17.0667 21.3333H19.2V23.4666H17.0667V21.3333Z" fill="#034C82"/>
<path d="M16.5333 19.1998H19.7333C20.0279 19.1998 20.2667 18.961 20.2667 18.6664V15.4664C20.2667 15.1719 20.0279 14.9331 19.7333 14.9331H16.5333C16.2388 14.9331 16 15.1719 16 15.4664V18.6664C16 18.961 16.2388 19.1998 16.5333 19.1998ZM17.0667 15.9998H19.2V18.1331H17.0667V15.9998Z" fill="#034C82"/>
<path d="M16.5333 29.8668H19.7333C20.0279 29.8668 20.2667 29.628 20.2667 29.3334V26.1334C20.2667 25.8389 20.0279 25.6001 19.7333 25.6001H16.5333C16.2388 25.6001 16 25.8389 16 26.1334V29.3334C16 29.628 16.2388 29.8668 16.5333 29.8668ZM17.0667 26.6668H19.2V28.8001H17.0667V26.6668Z" fill="#034C82"/>
</g>
<defs>
<clipPath id="clip0_31174_34379">
<rect width="32" height="32" fill="white"/>
</clipPath>
</defs>
</svg>
