<svg width="16" height="16" viewBox="0 0 16 16" fill="none" xmlns="http://www.w3.org/2000/svg">
<path d="M6.95972 3.52095H10.4374V2.43958C10.4374 2.31846 10.5326 2.2233 10.6537 2.2233H14.1141C14.2352 2.2233 14.3304 2.31846 14.3304 2.43958V5.89997C14.3304 6.02109 14.2352 6.11625 14.1141 6.11625H10.6537C10.5326 6.11625 10.4374 6.02109 10.4374 5.89997V4.8186H7.04623C7.13274 4.64125 7.18465 4.45093 7.18465 4.24763C7.18465 3.9881 7.10679 3.73723 6.95972 3.52095Z" fill="#034C82"/>
<path d="M11.7394 11.0992V7.20195H13.037V11.0992L15.0354 14.4428C15.1219 14.5856 15.0181 14.7716 14.8494 14.7716H9.93133C9.76264 14.7716 9.65883 14.5899 9.74534 14.4428L11.7394 11.0992ZM0.999189 4.09624L3.36523 1.7302C3.45174 1.64369 3.58583 1.64369 3.67234 1.7302L6.03839 4.09624C6.1249 4.18275 6.1249 4.31684 6.03839 4.40335L4.16545 6.27629V9.86645C3.95783 9.81887 3.74155 9.79292 3.51663 9.79292C3.2917 9.79292 3.07542 9.81887 2.8678 9.86645V6.27629L0.994864 4.40335C0.91268 4.31684 0.912679 4.18275 0.999189 4.09624ZM3.52095 10.8743C4.36875 10.8743 5.07813 11.4193 5.34631 12.1719H9.83617L9.06191 13.4696H5.34631C5.07813 14.2222 4.36442 14.7672 3.52095 14.7672C2.4439 14.7672 1.57448 13.8978 1.57448 12.8208C1.57448 11.748 2.4439 10.8743 3.52095 10.8743Z" fill="#034C82"/>
</svg>
