<svg width="50" height="40" viewBox="0 0 50 40" fill="none" xmlns="http://www.w3.org/2000/svg">
<rect x="0.199219" width="49.2" height="40" rx="8" fill="#034C82"/>
<path d="M18.7988 21H14.7988C14.5336 21 14.2793 21.1054 14.0917 21.2929C13.9042 21.4804 13.7988 21.7348 13.7988 22V30C13.7988 30.2652 13.9042 30.5196 14.0917 30.7071C14.2793 30.8946 14.5336 31 14.7988 31H18.7988C19.064 31 19.3184 30.8946 19.5059 30.7071C19.6935 30.5196 19.7988 30.2652 19.7988 30V22C19.7988 21.7348 19.6935 21.4804 19.5059 21.2929C19.3184 21.1054 19.064 21 18.7988 21ZM17.7988 29H15.7988V23H17.7988V29ZM34.7988 17H30.7988C30.5336 17 30.2793 17.1054 30.0917 17.2929C29.9042 17.4804 29.7988 17.7348 29.7988 18V30C29.7988 30.2652 29.9042 30.5196 30.0917 30.7071C30.2793 30.8946 30.5336 31 30.7988 31H34.7988C35.064 31 35.3184 30.8946 35.5059 30.7071C35.6935 30.5196 35.7988 30.2652 35.7988 30V18C35.7988 17.7348 35.6935 17.4804 35.5059 17.2929C35.3184 17.1054 35.064 17 34.7988 17ZM33.7988 29H31.7988V19H33.7988V29ZM26.7988 9H22.7988C22.5336 9 22.2793 9.10536 22.0917 9.29289C21.9042 9.48043 21.7988 9.73478 21.7988 10V30C21.7988 30.2652 21.9042 30.5196 22.0917 30.7071C22.2793 30.8946 22.5336 31 22.7988 31H26.7988C27.064 31 27.3184 30.8946 27.5059 30.7071C27.6935 30.5196 27.7988 30.2652 27.7988 30V10C27.7988 9.73478 27.6935 9.48043 27.5059 9.29289C27.3184 9.10536 27.064 9 26.7988 9ZM25.7988 29H23.7988V11H25.7988V29Z" fill="white"/>
</svg>
