<svg width="50" height="40" viewBox="0 0 50 40" fill="none" xmlns="http://www.w3.org/2000/svg">
<rect x="0.800781" width="49.2" height="40" rx="8" fill="#034C82"/>
<path d="M33.4004 14H29.4004V13C29.4004 12.2044 29.0843 11.4413 28.5217 10.8787C27.9591 10.3161 27.196 10 26.4004 10H24.4004C23.6047 10 22.8417 10.3161 22.2791 10.8787C21.7165 11.4413 21.4004 12.2044 21.4004 13V14H17.4004C17.1352 14 16.8808 14.1054 16.6933 14.2929C16.5057 14.4804 16.4004 14.7348 16.4004 15C16.4004 15.2652 16.5057 15.5196 16.6933 15.7071C16.8808 15.8946 17.1352 16 17.4004 16H18.4004V27C18.4004 27.7956 18.7165 28.5587 19.2791 29.1213C19.8417 29.6839 20.6047 30 21.4004 30H29.4004C30.196 30 30.9591 29.6839 31.5217 29.1213C32.0843 28.5587 32.4004 27.7956 32.4004 27V16H33.4004C33.6656 16 33.92 15.8946 34.1075 15.7071C34.295 15.5196 34.4004 15.2652 34.4004 15C34.4004 14.7348 34.295 14.4804 34.1075 14.2929C33.92 14.1054 33.6656 14 33.4004 14ZM23.4004 13C23.4004 12.7348 23.5057 12.4804 23.6933 12.2929C23.8808 12.1054 24.1352 12 24.4004 12H26.4004C26.6656 12 26.92 12.1054 27.1075 12.2929C27.295 12.4804 27.4004 12.7348 27.4004 13V14H23.4004V13ZM30.4004 27C30.4004 27.2652 30.295 27.5196 30.1075 27.7071C29.92 27.8946 29.6656 28 29.4004 28H21.4004C21.1352 28 20.8808 27.8946 20.6933 27.7071C20.5057 27.5196 20.4004 27.2652 20.4004 27V16H30.4004V27Z" fill="white"/>
</svg>
