<svg width="11" height="18" viewBox="0 0 11 18" fill="none" xmlns="http://www.w3.org/2000/svg">
<path d="M5.65001 0.000145669C5.39969 0.000145669 5.1454 0.0168843 4.88714 0.0460796C3.51238 0.202177 2.31245 0.730806 1.46614 1.48871C0.615859 2.24701 0.107279 3.26223 0.234424 4.33662C0.345676 5.29422 0.941667 6.09612 1.78798 6.64888C1.89128 6.40753 2.0224 6.18565 2.15352 6.00658C1.45422 5.55503 1.02511 4.94388 0.945641 4.25487C0.854255 3.48801 1.21185 2.71414 1.93101 2.06951C2.65415 1.42449 3.73091 0.938287 4.97455 0.797371C6.21818 0.656066 7.38236 0.888071 8.23661 1.35403C9.08689 1.82037 9.61534 2.49498 9.70673 3.25834C9.79414 4.00963 9.46038 4.76871 8.77698 5.39932C8.35439 5.14067 7.86857 4.99815 7.37044 4.9867H7.28302C7.08039 4.99059 6.88172 5.01395 6.67511 5.05677C5.18513 5.39543 4.25936 6.82794 4.60106 8.27603C4.81164 9.17135 5.45929 9.85647 6.27778 10.164L7.85518 16.8672L9.72262 18L10.8947 16.1821L9.96102 15.6177L10.5491 14.7068L9.61534 14.1384L10.1994 13.2314L9.26569 12.6631L9.85374 11.7522L9.31734 9.47887C9.91731 8.85215 10.1915 7.95683 9.98088 7.05761C9.8736 6.60217 9.65507 6.20122 9.3531 5.87423C10.1041 5.13462 10.5371 4.18091 10.4179 3.18048C10.2908 2.10804 9.55971 1.23258 8.55447 0.684872C7.73995 0.239158 6.73471 -0.00686119 5.65001 0.000145669ZM4.8474 5.27476C3.81832 5.31758 2.86474 5.92873 2.44754 6.91748C2.08597 7.76998 2.20914 8.69644 2.69388 9.41659L0 15.7617L0.846309 17.747L2.88063 16.9334L2.45549 15.9408L3.47265 15.5359L3.05148 14.5433L4.06864 14.1384L3.6435 13.1458L4.66066 12.7371L5.56657 10.6039C4.75204 10.1562 4.12824 9.38934 3.90176 8.43174C3.62761 7.25225 4.02493 6.07276 4.8474 5.27476ZM7.15191 5.55503C7.50553 5.55114 7.83928 5.69128 8.08165 5.92094C7.86312 6.05719 7.62075 6.17786 7.36646 6.28686C7.30289 6.2635 7.23535 6.25572 7.16383 6.25572C7.13999 6.25572 7.12012 6.25572 7.10025 6.25961C6.82212 6.29075 6.61551 6.49707 6.57975 6.75398C6.57181 6.79291 6.57181 6.83184 6.57181 6.86687C6.57578 6.87855 6.57578 6.89412 6.57578 6.9058C6.61551 7.23279 6.90556 7.45856 7.23932 7.41963C7.5095 7.38849 7.71611 7.18997 7.75585 6.94083C8.00219 6.83184 8.23264 6.71116 8.45117 6.57492C8.45912 6.61385 8.46706 6.65277 8.47104 6.6917C8.55447 7.39239 8.03397 8.03468 7.31878 8.11643C6.60757 8.19818 5.948 7.68823 5.86854 6.98755C5.7851 6.28686 6.3056 5.64456 7.02079 5.56282C7.06449 5.55892 7.1082 5.55503 7.15191 5.55503Z" fill="#034C82"/>
</svg>
