<svg width="24" height="25" viewBox="0 0 24 25" fill="none" xmlns="http://www.w3.org/2000/svg">
<path d="M12 20.0209H5C4.73478 20.0209 4.48043 19.9155 4.29289 19.728C4.10536 19.5404 4 19.2861 4 19.0209V5.02087C4 4.75566 4.10536 4.5013 4.29289 4.31377C4.48043 4.12623 4.73478 4.02087 5 4.02087H10V7.02087C10 7.81652 10.3161 8.57959 10.8787 9.14219C11.4413 9.7048 12.2044 10.0209 13 10.0209H16V11.0209C16 11.2861 16.1054 11.5404 16.2929 11.728C16.4804 11.9155 16.7348 12.0209 17 12.0209C17.2652 12.0209 17.5196 11.9155 17.7071 11.728C17.8946 11.5404 18 11.2861 18 11.0209V9.02087C18 9.02087 18 9.02087 18 8.96087C17.9896 8.86901 17.9695 8.7785 17.94 8.69087V8.60087C17.8919 8.49805 17.8278 8.40354 17.75 8.32087L11.75 2.32087C11.6673 2.24309 11.5728 2.17896 11.47 2.13087C11.4402 2.12663 11.4099 2.12663 11.38 2.13087C11.2784 2.07262 11.1662 2.03522 11.05 2.02087H5C4.20435 2.02087 3.44129 2.33694 2.87868 2.89955C2.31607 3.46216 2 4.22522 2 5.02087V19.0209C2 19.8165 2.31607 20.5796 2.87868 21.1422C3.44129 21.7048 4.20435 22.0209 5 22.0209H12C12.2652 22.0209 12.5196 21.9155 12.7071 21.728C12.8946 21.5404 13 21.2861 13 21.0209C13 20.7557 12.8946 20.5013 12.7071 20.3138C12.5196 20.1262 12.2652 20.0209 12 20.0209ZM12 5.43087L14.59 8.02087H13C12.7348 8.02087 12.4804 7.91552 12.2929 7.72798C12.1054 7.54044 12 7.28609 12 7.02087V5.43087ZM7 8.02087C6.73478 8.02087 6.48043 8.12623 6.29289 8.31377C6.10536 8.5013 6 8.75566 6 9.02087C6 9.28609 6.10536 9.54044 6.29289 9.72798C6.48043 9.91552 6.73478 10.0209 7 10.0209H8C8.26522 10.0209 8.51957 9.91552 8.70711 9.72798C8.89464 9.54044 9 9.28609 9 9.02087C9 8.75566 8.89464 8.5013 8.70711 8.31377C8.51957 8.12623 8.26522 8.02087 8 8.02087H7ZM21.71 20.3109L20.54 19.1509C20.914 18.4981 21.0636 17.7408 20.9661 16.9949C20.8686 16.2489 20.5292 15.5555 20 15.0209C19.513 14.5165 18.8854 14.1706 18.199 14.028C17.5126 13.8855 16.7992 13.9529 16.1517 14.2217C15.5041 14.4904 14.9526 14.9479 14.5688 15.5346C14.185 16.1213 13.9868 16.8099 14 17.5109C13.9966 18.1141 14.1509 18.7077 14.4476 19.2328C14.7444 19.758 15.1733 20.1964 15.6917 20.5047C16.2102 20.8129 16.8003 20.9803 17.4034 20.9901C18.0065 21 18.6017 20.852 19.13 20.5609L20.29 21.7309C20.383 21.8246 20.4936 21.899 20.6154 21.9498C20.7373 22.0005 20.868 22.0267 21 22.0267C21.132 22.0267 21.2627 22.0005 21.3846 21.9498C21.5064 21.899 21.617 21.8246 21.71 21.7309C21.8037 21.6379 21.8781 21.5273 21.9289 21.4055C21.9797 21.2836 22.0058 21.1529 22.0058 21.0209C22.0058 20.8889 21.9797 20.7582 21.9289 20.6363C21.8781 20.5144 21.8037 20.4038 21.71 20.3109ZM18.54 18.5609C18.2544 18.8295 17.8771 18.979 17.485 18.979C17.0929 18.979 16.7156 18.8295 16.43 18.5609C16.1547 18.2807 16.0003 17.9037 16 17.5109C15.9979 17.3136 16.0359 17.118 16.1115 16.9358C16.1871 16.7536 16.2989 16.5887 16.44 16.4509C16.7066 16.1857 17.0641 16.032 17.44 16.0209C17.6422 16.0084 17.8447 16.0379 18.035 16.1075C18.2252 16.1771 18.399 16.2852 18.5455 16.4251C18.692 16.565 18.808 16.7337 18.8862 16.9205C18.9644 17.1073 19.0031 17.3083 19 17.5109C18.9917 17.908 18.8263 18.2856 18.54 18.5609ZM13 12.0209H7C6.73478 12.0209 6.48043 12.1262 6.29289 12.3138C6.10536 12.5013 6 12.7557 6 13.0209C6 13.2861 6.10536 13.5404 6.29289 13.728C6.48043 13.9155 6.73478 14.0209 7 14.0209H13C13.2652 14.0209 13.5196 13.9155 13.7071 13.728C13.8946 13.5404 14 13.2861 14 13.0209C14 12.7557 13.8946 12.5013 13.7071 12.3138C13.5196 12.1262 13.2652 12.0209 13 12.0209ZM11 18.0209C11.2652 18.0209 11.5196 17.9155 11.7071 17.728C11.8946 17.5404 12 17.2861 12 17.0209C12 16.7557 11.8946 16.5013 11.7071 16.3138C11.5196 16.1262 11.2652 16.0209 11 16.0209H7C6.73478 16.0209 6.48043 16.1262 6.29289 16.3138C6.10536 16.5013 6 16.7557 6 17.0209C6 17.2861 6.10536 17.5404 6.29289 17.728C6.48043 17.9155 6.73478 18.0209 7 18.0209H11Z" fill="#999CA0"/>
</svg>
