<svg width="14" height="8" viewBox="0 0 14 8" fill="none" xmlns="http://www.w3.org/2000/svg">
<path d="M6.99984 8.00005C10.3612 8.00472 13.6665 6.20939 13.6665 4.00005C13.6665 1.79072 10.3438 -0.0112802 6.99984 5.3168e-05C3.65584 0.0113865 0.333172 1.79072 0.333172 4.00005C0.333172 6.20939 3.6385 7.99539 6.99984 8.00005ZM6.99984 6.66672C6.29259 6.66672 5.61432 6.38577 5.11422 5.88567C4.61412 5.38558 4.33317 4.7073 4.33317 4.00005C4.33317 3.29281 4.61412 2.61453 5.11422 2.11444C5.61432 1.61434 6.29259 1.33339 6.99984 1.33339C7.70708 1.33339 8.38536 1.61434 8.88546 2.11444C9.38555 2.61453 9.6665 3.29281 9.6665 4.00005C9.6665 4.7073 9.38555 5.38558 8.88546 5.88567C8.38536 6.38577 7.70708 6.66672 6.99984 6.66672ZM6.99984 5.33339C7.35346 5.33339 7.6926 5.19291 7.94265 4.94286C8.19269 4.69281 8.33317 4.35368 8.33317 4.00005C8.33317 3.64643 8.19269 3.30729 7.94265 3.05724C7.6926 2.8072 7.35346 2.66672 6.99984 2.66672C6.64622 2.66672 6.30708 2.8072 6.05703 3.05724C5.80698 3.30729 5.6665 3.64643 5.6665 4.00005C5.6665 4.35368 5.80698 4.69281 6.05703 4.94286C6.30708 5.19291 6.64622 5.33339 6.99984 5.33339Z" fill="#5e5e5e"/>
</svg>
