<svg width="25" height="24" viewBox="0 0 25 24" fill="none" xmlns="http://www.w3.org/2000/svg">
<path d="M20.1251 8.00001L14.1251 2.74001C13.5751 2.24805 12.863 1.97607 12.1251 1.97607C11.3872 1.97607 10.6751 2.24805 10.1251 2.74001L4.12509 8.00001C3.80746 8.28408 3.55399 8.63256 3.38157 9.02225C3.20914 9.41194 3.12171 9.83389 3.12509 10.26V19C3.12509 19.7957 3.44117 20.5587 4.00377 21.1213C4.56638 21.6839 5.32945 22 6.12509 22H18.1251C18.9207 22 19.6838 21.6839 20.2464 21.1213C20.809 20.5587 21.1251 19.7957 21.1251 19V10.25C21.1271 9.82557 21.0389 9.40555 20.8666 9.01769C20.6942 8.62983 20.4415 8.28296 20.1251 8.00001V8.00001ZM14.1251 20H10.1251V15C10.1251 14.7348 10.2305 14.4804 10.418 14.2929C10.6055 14.1054 10.8599 14 11.1251 14H13.1251C13.3903 14 13.6447 14.1054 13.8322 14.2929C14.0197 14.4804 14.1251 14.7348 14.1251 15V20ZM19.1251 19C19.1251 19.2652 19.0197 19.5196 18.8322 19.7071C18.6447 19.8946 18.3903 20 18.1251 20H16.1251V15C16.1251 14.2044 15.809 13.4413 15.2464 12.8787C14.6838 12.3161 13.9207 12 13.1251 12H11.1251C10.3294 12 9.56638 12.3161 9.00377 12.8787C8.44117 13.4413 8.12509 14.2044 8.12509 15V20H6.12509C5.85988 20 5.60552 19.8946 5.41799 19.7071C5.23045 19.5196 5.12509 19.2652 5.12509 19V10.25C5.12527 10.108 5.15569 9.9677 5.21431 9.83839C5.27294 9.70907 5.35843 9.59372 5.4651 9.50001L11.4651 4.25001C11.6476 4.08969 11.8822 4.00127 12.1251 4.00127C12.368 4.00127 12.6026 4.08969 12.7851 4.25001L18.7851 9.50001C18.8918 9.59372 18.9773 9.70907 19.0359 9.83839C19.0945 9.9677 19.1249 10.108 19.1251 10.25V19Z" fill="#999CA0"/>
</svg>
