<svg width="16" height="14" viewBox="0 0 16 14" fill="none" xmlns="http://www.w3.org/2000/svg">
<path d="M10.5 7.5308C10.5 8.23464 10.2366 8.90966 9.76777 9.40735C9.29893 9.90504 8.66304 10.1846 8 10.1846C7.33696 10.1846 6.70107 9.90504 6.23223 9.40735C5.76339 8.90966 5.5 8.23464 5.5 7.5308C5.5 6.82696 5.76339 6.15194 6.23223 5.65425C6.70107 5.15655 7.33696 4.87695 8 4.87695C8.66304 4.87695 9.29893 5.15655 9.76777 5.65425C10.2366 6.15194 10.5 6.82696 10.5 7.5308V7.5308Z" fill="#034C82"/>
<path d="M2 2.75394C1.46957 2.75394 0.960859 2.97762 0.585786 3.37577C0.210714 3.77393 0 4.31394 0 4.87701L0 11.2462C0 11.8093 0.210714 12.3493 0.585786 12.7475C0.960859 13.1456 1.46957 13.3693 2 13.3693H14C14.5304 13.3693 15.0391 13.1456 15.4142 12.7475C15.7893 12.3493 16 11.8093 16 11.2462V4.87701C16 4.31394 15.7893 3.77393 15.4142 3.37577C15.0391 2.97762 14.5304 2.75394 14 2.75394H12.828C12.2976 2.75382 11.789 2.53006 11.414 2.13187L10.586 1.25292C10.211 0.854739 9.70239 0.63098 9.172 0.630859H6.828C6.29761 0.63098 5.78899 0.854739 5.414 1.25292L4.586 2.13187C4.21101 2.53006 3.70239 2.75382 3.172 2.75394H2ZM2.5 4.87701C2.36739 4.87701 2.24021 4.82109 2.14645 4.72155C2.05268 4.62202 2 4.48701 2 4.34624C2 4.20548 2.05268 4.07047 2.14645 3.97093C2.24021 3.8714 2.36739 3.81547 2.5 3.81547C2.63261 3.81547 2.75979 3.8714 2.85355 3.97093C2.94732 4.07047 3 4.20548 3 4.34624C3 4.48701 2.94732 4.62202 2.85355 4.72155C2.75979 4.82109 2.63261 4.87701 2.5 4.87701ZM11.5 7.53086C11.5 8.51624 11.1313 9.46126 10.4749 10.158C9.8185 10.8548 8.92826 11.2462 8 11.2462C7.07174 11.2462 6.1815 10.8548 5.52513 10.158C4.86875 9.46126 4.5 8.51624 4.5 7.53086C4.5 6.54548 4.86875 5.60046 5.52513 4.90369C6.1815 4.20692 7.07174 3.81547 8 3.81547C8.92826 3.81547 9.8185 4.20692 10.4749 4.90369C11.1313 5.60046 11.5 6.54548 11.5 7.53086V7.53086Z" fill="#034C82"/>
</svg>
