<?xml version="1.0" encoding="utf-8"?>
<!-- Generator: Adobe Illustrator 27.6.1, SVG Export Plug-In . SVG Version: 6.00 Build 0)  -->
<svg version="1.1" id="Layer_1" xmlns="http://www.w3.org/2000/svg" xmlns:xlink="http://www.w3.org/1999/xlink" x="0px" y="0px"
	 viewBox="0 0 1080 1080" style="enable-background:new 0 0 1080 1080;" xml:space="preserve">
<style type="text/css">
	.st0{fill:#F6F5F7;}
	.st1{fill:#064D82;}
	.st2{fill:#EDE0C8;}
	.st3{clip-path:url(#SVGID_00000078751358850251338270000017363325526160427438_);}
	.st4{filter:url(#Adobe_OpacityMaskFilter);}
	.st5{clip-path:url(#SVGID_00000142138397039712780130000014839316920384926850_);}
	.st6{clip-path:url(#SVGID_00000008129024248847988650000016008351615058172076_);}
	.st7{clip-path:url(#SVGID_00000133512663925914468080000014865790310464575132_);}
	.st8{clip-path:url(#SVGID_00000044873838709990718010000013606934307273786004_);}
	.st9{clip-path:url(#SVGID_00000036237120015779707630000006835121624917209477_);}
	.st10{clip-path:url(#SVGID_00000014617407893598005980000017443300975331137718_);}
	.st11{clip-path:url(#SVGID_00000014621799846808075300000001444789457455311788_);}
	
		.st12{clip-path:url(#SVGID_00000073687137100900578220000004487029795529879683_);fill:url(#SVGID_00000101093009194025134080000003140275933994732172_);}
	
		.st13{clip-path:url(#SVGID_00000142138397039712780130000014839316920384926850_);mask:url(#SVGID_00000155842269277636627840000013971079773979279283_);fill:url(#SVGID_00000103264065046712816900000001460387671673553546_);}
	.st14{fill:#D2DFE8;}
	.st15{fill:#41B690;}
	.st16{fill:#369270;}
	.st17{fill:#92D5D4;}
	.st18{fill:#FFFFFF;}
	.st19{fill:#F8A99D;}
	.st20{fill:#C9A556;}
	.st21{fill:#DCC493;}
	.st22{fill:#F79E92;}
	.st23{fill:#203669;}
</style>
<g>
	<g>
		<path class="st0" d="M957.5,949.76H470.29c-42.3,0-76.59-34.29-76.59-76.59l0,0c0-42.3,34.29-76.59,76.59-76.59H957.5
			c42.3,0,76.59,34.29,76.59,76.59l0,0C1034.09,915.47,999.8,949.76,957.5,949.76z"/>
		<path class="st0" d="M913.08,721.79H203.01c-43.88,0-79.45-35.57-79.45-79.45l0,0c0-43.88,35.57-79.45,79.45-79.45h710.08
			c43.88,0,79.45,35.57,79.45,79.45l0,0C992.53,686.22,956.96,721.79,913.08,721.79z"/>
		<path class="st0" d="M837.35,443.03H242.24c-80.22,0-145.26-65.03-145.26-145.26l0,0c0-80.22,65.03-145.26,145.26-145.26h595.11
			c80.22,0,145.26,65.03,145.26,145.26l0,0C982.61,378,917.57,443.03,837.35,443.03z"/>
		<path class="st0" d="M860.55,562.89H211.52c16.66,0,31.73-6.75,42.65-17.66c10.91-10.92,17.66-25.99,17.66-42.65
			c0-33.3-27-60.31-60.31-60.31h649.02c-16.66,0-31.73,6.75-42.65,17.66c-10.91,10.92-17.66,25.99-17.66,42.64
			C800.23,535.89,827.23,562.89,860.55,562.89z"/>
	</g>
</g>
<g>
	<g>
		<g>
			<path class="st1" d="M846.02,353.89H669.81c-10.3,0-19.73-3.73-27.01-9.92c-9.01-7.66-14.72-19.07-14.72-31.82l0,0
				c0-11.52,4.67-21.96,12.22-29.51c7.55-7.55,17.99-12.22,29.51-12.22h176.21c11.52,0,21.96,4.67,29.51,12.22
				s12.22,17.99,12.22,29.51l0,0c0,11.52-4.67,21.96-12.22,29.51C867.98,349.22,857.55,353.89,846.02,353.89z"/>
		</g>
		<g>
			
				<ellipse transform="matrix(0.7071 -0.7071 0.7071 0.7071 16.778 608.3251)" class="st1" cx="742.7" cy="283.91" rx="63.23" ry="63.23"/>
		</g>
	</g>
</g>
<g>
	<path class="st2" d="M309.81,262.39H136.76c-11.32,0-21.56-4.59-28.98-12c-7.42-7.42-12-17.66-12-28.98l0,0
		c0-8.07,2.33-15.6,6.36-21.94c7.27-11.45,20.06-19.05,34.63-19.05h173.05c11.32,0,21.56,4.59,28.98,12c7.42,7.42,12,17.66,12,28.98
		l0,0c0,10.56-3.99,20.18-10.55,27.45C332.74,257.17,321.89,262.39,309.81,262.39z"/>
	<circle class="st2" cx="208.38" cy="193.67" r="62.1"/>
</g>
<g>
	<g>
		<g>
			<defs>
				<polygon id="SVGID_1_" points="1,1 2,1 1,2 				"/>
			</defs>
			<clipPath id="SVGID_00000158722830295963510360000015908444945956753326_">
				<use xlink:href="#SVGID_1_"  style="overflow:visible;"/>
			</clipPath>
		</g>
		<g>
			<defs>
				<polygon id="SVGID_00000000924042049048198480000012239520392221420202_" points="1,1 2,1 1,2 				"/>
			</defs>
			<defs>
				<polygon id="SVGID_00000150061434137055024050000008995870030846578342_" points="-1,-1 -2,-1 -1,-2 				"/>
			</defs>
			<clipPath id="SVGID_00000078025936090056529420000008503968818586669244_">
				<use xlink:href="#SVGID_00000000924042049048198480000012239520392221420202_"  style="overflow:visible;"/>
			</clipPath>
			
				<clipPath id="SVGID_00000065795799250683360940000002031357589954744489_" style="clip-path:url(#SVGID_00000078025936090056529420000008503968818586669244_);">
				<use xlink:href="#SVGID_00000150061434137055024050000008995870030846578342_"  style="overflow:visible;"/>
			</clipPath>
			<defs>
				<filter id="Adobe_OpacityMaskFilter" filterUnits="userSpaceOnUse" x="149.98" y="943.25" width="725.94" height="11.46">
					<feColorMatrix  type="matrix" values="1 0 0 0 0  0 1 0 0 0  0 0 1 0 0  0 0 0 1 0"/>
				</filter>
			</defs>
			
				<mask maskUnits="userSpaceOnUse" x="149.98" y="943.25" width="725.94" height="11.46" id="SVGID_00000155842269277636627840000013971079773979279283_">
				<g class="st4">
					<g>
						<g>
							<defs>
								<polygon id="SVGID_00000036232964670648609970000014445649925843628673_" points="1,1 2,1 1,2 								"/>
							</defs>
							<defs>
								<polygon id="SVGID_00000083077942117837002840000004438992386782373007_" points="-1,-1 -2,-1 -1,-2 								"/>
							</defs>
							
								<clipPath id="SVGID_00000167378668344854526710000010963258755045330819_" style="clip-path:url(#SVGID_00000065795799250683360940000002031357589954744489_);">
								<use xlink:href="#SVGID_00000036232964670648609970000014445649925843628673_"  style="overflow:visible;"/>
							</clipPath>
							
								<clipPath id="SVGID_00000147900360556389378460000006534266867741383086_" style="clip-path:url(#SVGID_00000167378668344854526710000010963258755045330819_);">
								<use xlink:href="#SVGID_00000083077942117837002840000004438992386782373007_"  style="overflow:visible;"/>
							</clipPath>
						</g>
						<g>
							<defs>
								<polygon id="SVGID_00000050622497781443357440000001728483370083333023_" points="1,1 2,1 1,2 								"/>
							</defs>
							<defs>
								<polygon id="SVGID_00000003808621560111577740000007840011652067198873_" points="-1,-1 -2,-1 -1,-2 								"/>
							</defs>
							<defs>
								<polygon id="SVGID_00000052098993554999584440000008393112873879794838_" points="1,1 2,1 1,2 								"/>
							</defs>
							
								<clipPath id="SVGID_00000120532936418984743180000008171063690098397845_" style="clip-path:url(#SVGID_00000065795799250683360940000002031357589954744489_);">
								<use xlink:href="#SVGID_00000050622497781443357440000001728483370083333023_"  style="overflow:visible;"/>
							</clipPath>
							
								<clipPath id="SVGID_00000065052377856977233050000005792822174261038009_" style="clip-path:url(#SVGID_00000120532936418984743180000008171063690098397845_);">
								<use xlink:href="#SVGID_00000003808621560111577740000007840011652067198873_"  style="overflow:visible;"/>
							</clipPath>
							
								<clipPath id="SVGID_00000026873188843175297080000010140137551293938621_" style="clip-path:url(#SVGID_00000065052377856977233050000005792822174261038009_);">
								<use xlink:href="#SVGID_00000052098993554999584440000008393112873879794838_"  style="overflow:visible;"/>
							</clipPath>
						</g>
						<g>
							<defs>
								<polygon id="SVGID_00000121263993946284321630000015591788084108442811_" points="1,1 2,1 1,2 								"/>
							</defs>
							<defs>
								<polygon id="SVGID_00000162311888263568430940000002164150867203296180_" points="-1,-1 -2,-1 -1,-2 								"/>
							</defs>
							<defs>
								<polygon id="SVGID_00000096017844706744440120000004448580213056631441_" points="1,1 2,1 1,2 								"/>
							</defs>
							<defs>
								<polygon id="SVGID_00000183933207098893534700000003489605489113598119_" points="-1,-1 -2,-1 -1,-2 								"/>
							</defs>
							
								<clipPath id="SVGID_00000064324893835594383810000005990756988517723811_" style="clip-path:url(#SVGID_00000065795799250683360940000002031357589954744489_);">
								<use xlink:href="#SVGID_00000121263993946284321630000015591788084108442811_"  style="overflow:visible;"/>
							</clipPath>
							
								<clipPath id="SVGID_00000119830962327707141770000015231975075681499580_" style="clip-path:url(#SVGID_00000064324893835594383810000005990756988517723811_);">
								<use xlink:href="#SVGID_00000162311888263568430940000002164150867203296180_"  style="overflow:visible;"/>
							</clipPath>
							
								<clipPath id="SVGID_00000159469325884682616090000003114900951646770053_" style="clip-path:url(#SVGID_00000119830962327707141770000015231975075681499580_);">
								<use xlink:href="#SVGID_00000096017844706744440120000004448580213056631441_"  style="overflow:visible;"/>
							</clipPath>
							
								<clipPath id="SVGID_00000043418352761185081330000007053256207574379170_" style="clip-path:url(#SVGID_00000159469325884682616090000003114900951646770053_);">
								<use xlink:href="#SVGID_00000183933207098893534700000003489605489113598119_"  style="overflow:visible;"/>
							</clipPath>
							
								<radialGradient id="SVGID_00000079451514564512699240000016215692038032838079_" cx="142.3144" cy="948.98" r="253.1921" gradientTransform="matrix(1.4853 0 0 1 301.5704 0)" gradientUnits="userSpaceOnUse">
								<stop  offset="0" style="stop-color:#FFFFFF"/>
								<stop  offset="0.9872" style="stop-color:#000000"/>
							</radialGradient>
							
								<ellipse style="clip-path:url(#SVGID_00000043418352761185081330000007053256207574379170_);fill:url(#SVGID_00000079451514564512699240000016215692038032838079_);" cx="512.95" cy="948.98" rx="362.97" ry="5.73"/>
						</g>
					</g>
				</g>
			</mask>
			
				<radialGradient id="SVGID_00000029737040649076665190000016381939259816278941_" cx="142.3144" cy="948.98" r="253.1921" gradientTransform="matrix(1.4853 0 0 1 301.5704 0)" gradientUnits="userSpaceOnUse">
				<stop  offset="0" style="stop-color:#FFFFFF"/>
				<stop  offset="0.9872" style="stop-color:#000000"/>
			</radialGradient>
			
				<path style="clip-path:url(#SVGID_00000065795799250683360940000002031357589954744489_);mask:url(#SVGID_00000155842269277636627840000013971079773979279283_);fill:url(#SVGID_00000029737040649076665190000016381939259816278941_);" d="
				M875.92,948.98c0,3.16-162.51,5.73-362.97,5.73s-362.97-2.56-362.97-5.73c0-3.16,162.51-5.73,362.97-5.73
				C713.42,943.25,875.92,945.82,875.92,948.98z"/>
		</g>
	</g>
</g>
<path class="st14" d="M875.92,948.98c0,3.16-162.51,5.73-362.97,5.73s-362.97-2.56-362.97-5.73c0-3.16,162.51-5.73,362.97-5.73
	C713.42,943.25,875.92,945.82,875.92,948.98z"/>
<g>
	<g>
		<path class="st15" d="M856.56,824.63c7.57,2.52,1.88,13.17,1.88,20.7s3.76,28.23-3.76,31.99c-7.53,3.76-18.82,11.29-18.82,18.82
			s-1.88,16.94-9.41,20.7c-7.53,3.76-15.05,3.76-15.05,9.41c0,5.65,3.76,7.53,1.88,13.17c-1.88,5.65-5.65,7.53-3.76,9.41h-48.93
			c0,0-9.41-15.05-7.53-24.46c1.88-9.41,11.29-9.41,13.17-16.94s11.29-9.41,11.29-16.94s3.76-18.82,9.41-22.58
			c5.65-3.76,16.94,0,20.7-7.53s0-15.05,5.65-18.82c5.65-3.76,16.94,1.88,22.58-3.76C841.51,832.15,850.92,822.74,856.56,824.63z"/>
		<path class="st16" d="M849,862.94c-0.15-0.5-0.66-0.79-1.17-0.64c-0.09,0.03-8.68,2.49-14.77,2.4
			c4.25-16.05,13.35-19.39,13.45-19.42c0.49-0.17,0.76-0.7,0.59-1.19c-0.16-0.49-0.7-0.76-1.19-0.6
			c-0.48,0.16-11.86,4.18-15.68,25.19c-0.89,4.88-4.03,9.49-8.31,13.93c-3.63-3.61-4.76-15.08-4.88-19.43
			c-0.01-0.51-0.43-0.91-0.94-0.91c-0.01,0-0.02,0-0.03,0c-0.52,0.01-0.93,0.45-0.91,0.97c0.02,0.67,0.51,15.75,5.44,20.71
			c-4.75,4.64-10.66,9.1-16.48,13.48c-6.23,4.69-12.26,9.24-16.88,13.93c-0.73-1.87-0.9-7.88-0.32-14.18
			c0.05-0.52-0.33-0.98-0.85-1.02c-0.51-0.02-0.97,0.33-1.02,0.85c-0.37,3.99-0.93,12.77,0.87,15.75
			c-3.08,3.35-5.39,6.79-6.48,10.42c-0.15,0.5,0.13,1.02,0.63,1.17c0.09,0.03,0.18,0.04,0.27,0.04c0.4,0,0.78-0.26,0.9-0.67
			c2.3-7.68,10.79-14.73,20.39-22.03c5.25,4.9,19.43,5.73,20.06,5.76c0.02,0,0.03,0,0.05,0c0.5,0,0.91-0.39,0.94-0.89
			c0.03-0.52-0.37-0.96-0.89-0.99c-0.14-0.01-13.75-0.79-18.65-5.03c0.7-0.53,1.4-1.06,2.11-1.59c12.18-9.18,24.78-18.67,26.82-29.9
			c0.16-0.86,0.34-1.66,0.53-2.46c0.27,0.01,0.54,0.03,0.82,0.03c6.32,0,14.55-2.37,14.93-2.48
			C848.86,863.96,849.15,863.44,849,862.94z"/>
	</g>
	<path class="st17" d="M743.83,828.39c-9.81,4.91,0,26.34-1.88,33.87c-1.88,7.53-7.53,13.17-5.65,20.7s5.65,13.17,5.65,20.7
		s-11.29,15.05-9.41,28.23c1.88,13.17,7.53,16.94,7.53,16.94h41.4c0,0,3.76-3.76,3.76-11.29c0-7.53-9.41-15.05-7.53-18.82
		c1.88-3.76,9.41-11.29,7.53-24.46c-1.88-13.17-7.53-13.17-9.41-20.7c-1.88-7.53,1.88-11.29,0-16.94s-11.29-11.29-13.17-15.05
		C760.76,837.8,755.12,822.74,743.83,828.39z"/>
	<path class="st18" d="M775.48,894.47c-0.39-0.33-0.99-0.28-1.32,0.12c-1.87,2.24-6.67,7.67-9.76,10.14
		c0.08-1.31,0.13-2.61,0.13-3.89c0-5.86-0.01-11.82-0.28-17.53c0-0.04,0-0.08-0.01-0.12c-0.25-5.12-0.71-10.05-1.61-14.52
		c-1.9-9.5-11.06-22.4-11.45-22.95c-0.3-0.42-0.89-0.52-1.31-0.22c-0.42,0.3-0.52,0.89-0.22,1.31c0.09,0.13,9.32,13.12,11.13,22.22
		c0.7,3.48,1.13,7.26,1.41,11.21c-3.42-3.53-9.17-6.44-9.47-6.59c-0.46-0.23-1.03-0.05-1.26,0.42c-0.23,0.46-0.04,1.03,0.42,1.26
		c0.09,0.04,8.36,4.23,10.5,8.22c0.27,5.63,0.27,11.51,0.27,17.29c0,4.98-0.75,10.36-1.4,15.12c-0.63,4.52-1.15,8.34-0.95,11
		c-3.28-1.89-8.76-4.1-9.53-4.41c-0.48-0.19-1.03,0.04-1.22,0.52c-0.19,0.48,0.04,1.03,0.52,1.22c2.53,1.01,9.3,3.91,10.88,5.36
		c2.12,4.28,5.49,13.12,5.79,19.21c0.02,0.5,0.44,0.89,0.94,0.89c0.01,0,0.03,0,0.05,0c0.52-0.02,0.92-0.46,0.89-0.98
		c-0.31-6.46-3.88-15.78-6.06-20.13c-0.91-1.82-0.2-6.98,0.56-12.43c0.4-2.85,0.8-5.93,1.08-9.03c3.78-2.3,11.09-11,11.41-11.39
		C775.93,895.4,775.88,894.8,775.48,894.47z"/>
</g>
<path class="st19" d="M650.78,414.81c0,0,8.29-24.85,9.49-24.75s3.19,6.24,3.19,6.24s4.09-10.27,9.27-9.08s8.43,28.23,0.48,36.61
	L650.78,414.81z"/>
<path class="st19" d="M434.28,413.28c0,0-7.45-23.96-8.65-23.93c-1.2,0.04-3.49,6.08-3.49,6.08s-3.59-10.46-8.82-9.53
	s-9.8,27.78-2.27,36.54L434.28,413.28z"/>
<path class="st1" d="M681.03,418.12l-33.35-10.03c0,0-27.87,52.59-47.42,84.55c-9.25,15.13-18.98,26.61-27.74,36.34
	c-10.53-3.46-22.51-5.37-33.96-5.37c-9.95,0-19.9,1.75-29.45,4.54c-8.56-9.55-18.01-20.82-26.99-35.51
	c-19.54-31.96-47.42-84.55-47.42-84.55l-33.35,10.03c0,0-0.81,23.97,25.09,99.9c15.31,44.88,31.43,71.6,42.41,86.24
	c-3.29,42.15-2.05,89.27,0.17,94.74c6.62,16.34,129.49,16.53,139.26-1.61c3.01-5.59,2.13-46.15-1.34-84.97
	c10.21-11.61,30.22-39.36,49-94.41C681.84,442.09,681.03,418.12,681.03,418.12z"/>
<polygon class="st20" points="760.26,548 772.51,554.7 760.26,561.4 753.57,573.64 746.87,561.4 734.62,554.7 746.87,548 
	753.57,535.75 "/>
<polygon class="st20" points="549.05,350.04 561.3,356.74 549.05,363.43 542.35,375.68 535.65,363.43 523.4,356.74 535.65,350.04 
	542.35,337.79 "/>
<polygon class="st20" points="349.58,548 361.83,554.7 349.58,561.4 342.88,573.64 336.18,561.4 323.94,554.7 336.18,548 
	342.88,535.75 "/>
<path class="st20" d="M703.11,949.76H375.55c-12.34,0-22.34-10-22.34-22.34V647.79c0-12.34,10-22.34,22.34-22.34h327.56
	c12.34,0,22.34,10,22.34,22.34v279.64C725.44,939.76,715.44,949.76,703.11,949.76z"/>
<path class="st21" d="M718.58,753.06H360.07c-10.13,0-18.06-8.72-17.11-18.8l8.79-93.24c0.83-8.83,8.24-15.58,17.11-15.58H709.8
	c8.87,0,16.28,6.75,17.11,15.58l8.79,93.24C736.65,744.35,728.71,753.06,718.58,753.06z"/>
<path class="st1" d="M567.7,949.76h-56.75v-53.99c0-6.82,5.53-12.36,12.36-12.36h32.04c6.82,0,12.36,5.53,12.36,12.36L567.7,949.76
	L567.7,949.76z"/>
<g>
	<path class="st22" d="M530.52,527c1.13-5.99,1.01-12.15,1.51-15.92c0,0,15.47-0.28,15.49-0.12c0.23,2,1.27,14.48,1.37,15.96
		C549.3,532.55,529.33,533.31,530.52,527z"/>
	<path class="st19" d="M559.39,481.14c-2.02-1.87-13.51-2.88-18.98-2.88c-2.25,0-5.88-2.06-9.09-1.73
		c-4.59,0.47-8.69,3.51-9.88,4.61c-2.02,1.87-0.14,22.46,1.01,26.35s6.71,13.96,17.97,13.96c11.26,0,16.82-10.08,17.97-13.96
		C559.53,503.6,561.4,483.01,559.39,481.14z"/>
	<path class="st23" d="M560.28,479.12c1.69-0.88,4.21-9.47-4.37-10.74c0,0,2.53-7.96-6.95-7.7c-9.47,0.25-26.39,5.49-28.41,19.98
		c-2.02,14.5,0.31,26.26,2.25,32.22c0.96,2.97,6.25,11.7,17.55,11.7s15.9-8.85,16.86-11.81c1.57-4.83,4.74-13.42,3.83-24.22
		c0.62-0.1,1.23-0.29,1.82-0.59C569.29,484.68,558.59,480,560.28,479.12z M550.71,510.9c-4.38-1.98-6.06-2.92-10.44-2.92
		s-5.8,0.42-10.18,2.4c-4.88,2.21-9.57-16.98-5.51-22.6c4.05-5.62,5.43-5.89,6.72-10.22c0,0,7.18,6.36,14.64,5.62
		c0,0,2.39-0.46,2.12-3.5c0,0,2.7,4.27,8.07,8.1C559.25,490.02,555.59,513.11,550.71,510.9z"/>
</g>
</svg>
