<svg width="32" height="32" viewBox="0 0 32 32" fill="none" xmlns="http://www.w3.org/2000/svg">
<path d="M22.0918 27.711C21.9771 27.711 21.8671 27.6654 21.786 27.5843C21.7049 27.5032 21.6593 27.3933 21.6593 27.2786V4.30689L16.1787 2.00765L11.5763 3.81824V27.2786C11.5763 27.3933 11.5307 27.5032 11.4496 27.5843C11.3685 27.6654 11.2585 27.711 11.1439 27.711C11.0292 27.711 10.9192 27.6654 10.8381 27.5843C10.757 27.5032 10.7114 27.3933 10.7114 27.2786V3.52332C10.7114 3.43644 10.7375 3.35157 10.7864 3.27975C10.8353 3.20794 10.9047 3.15253 10.9856 3.12073L16.0256 1.13803C16.1304 1.09671 16.2473 1.09795 16.3512 1.14149L22.2591 3.62062C22.3376 3.65358 22.4047 3.70901 22.4519 3.77994C22.499 3.85087 22.5242 3.93415 22.5242 4.01932V27.2786C22.5242 27.3933 22.4786 27.5032 22.3975 27.5843C22.3164 27.6654 22.2064 27.711 22.0918 27.711Z" fill="#034C82"/>
<path d="M16.1839 27.7112C16.0692 27.7112 15.9592 27.6657 15.8781 27.5846C15.797 27.5035 15.7515 27.3935 15.7515 27.2788V1.54083C15.7515 1.42614 15.797 1.31615 15.8781 1.23505C15.9592 1.15396 16.0692 1.1084 16.1839 1.1084C16.2986 1.1084 16.4086 1.15396 16.4897 1.23505C16.5708 1.31615 16.6163 1.42614 16.6163 1.54083V27.2788C16.6163 27.3935 16.5708 27.5035 16.4897 27.5846C16.4086 27.6657 16.2986 27.7112 16.1839 27.7112Z" fill="#034C82"/>
<path d="M29.0732 27.7111C28.9585 27.7111 28.8486 27.6655 28.7675 27.5844C28.6864 27.5033 28.6408 27.3933 28.6408 27.2786V13.6873L24.4125 11.2272H22.0916C21.9769 11.2272 21.8669 11.1816 21.7858 11.1005C21.7047 11.0194 21.6592 10.9094 21.6592 10.7947C21.6592 10.68 21.7047 10.5701 21.7858 10.489C21.8669 10.4079 21.9769 10.3623 22.0916 10.3623H24.5292C24.6052 10.3626 24.6798 10.3829 24.7454 10.4211L29.2899 13.065C29.3555 13.1029 29.41 13.1573 29.4479 13.2229C29.4859 13.2885 29.5059 13.3629 29.5061 13.4386V27.2765C29.5064 27.3335 29.4954 27.39 29.4738 27.4427C29.4521 27.4955 29.4203 27.5434 29.3801 27.5838C29.3398 27.6242 29.292 27.6562 29.2394 27.6781C29.1867 27.6999 29.1302 27.7111 29.0732 27.7111Z" fill="#034C82"/>
<path d="M24.5291 27.7111C24.4144 27.7111 24.3044 27.6655 24.2233 27.5844C24.1422 27.5033 24.0967 27.3933 24.0967 27.2786V10.7947C24.0967 10.68 24.1422 10.5701 24.2233 10.489C24.3044 10.4079 24.4144 10.3623 24.5291 10.3623C24.6438 10.3623 24.7538 10.4079 24.8349 10.489C24.916 10.5701 24.9615 10.68 24.9615 10.7947V27.2786C24.9615 27.3933 24.916 27.5033 24.8349 27.5844C24.7538 27.6655 24.6438 27.7111 24.5291 27.7111Z" fill="#034C82"/>
<path d="M2.26105 27.7109C2.14636 27.7109 2.03637 27.6653 1.95527 27.5842C1.87417 27.5031 1.82861 27.3932 1.82861 27.2785V13.8104C1.82861 13.6957 1.87417 13.5857 1.95527 13.5046C2.03637 13.4235 2.14636 13.3779 2.26105 13.3779H11.1436C11.2583 13.3779 11.3683 13.4235 11.4494 13.5046C11.5305 13.5857 11.5761 13.6957 11.5761 13.8104C11.5761 13.9251 11.5305 14.035 11.4494 14.1161C11.3683 14.1972 11.2583 14.2428 11.1436 14.2428H2.69348V27.2785C2.69348 27.3932 2.64792 27.5031 2.56682 27.5842C2.48572 27.6653 2.37573 27.7109 2.26105 27.7109Z" fill="#034C82"/>
<path d="M4.64188 15.9039H3.72296C3.60827 15.9039 3.49828 15.8584 3.41718 15.7773C3.33609 15.6962 3.29053 15.5862 3.29053 15.4715C3.29053 15.3568 3.33609 15.2468 3.41718 15.1657C3.49828 15.0846 3.60827 15.0391 3.72296 15.0391H4.64188C4.75657 15.0391 4.86656 15.0846 4.94765 15.1657C5.02875 15.2468 5.07431 15.3568 5.07431 15.4715C5.07431 15.5862 5.02875 15.6962 4.94765 15.7773C4.86656 15.8584 4.75657 15.9039 4.64188 15.9039Z" fill="#034C82"/>
<path d="M7.16233 15.9039H6.24298C6.12829 15.9039 6.0183 15.8584 5.9372 15.7773C5.85611 15.6962 5.81055 15.5862 5.81055 15.4715C5.81055 15.3568 5.85611 15.2468 5.9372 15.1657C6.0183 15.0846 6.12829 15.0391 6.24298 15.0391H7.16233C7.27702 15.0391 7.38701 15.0846 7.46811 15.1657C7.5492 15.2468 7.59476 15.3568 7.59476 15.4715C7.59476 15.5862 7.5492 15.6962 7.46811 15.7773C7.38701 15.8584 7.27702 15.9039 7.16233 15.9039Z" fill="#034C82"/>
<path d="M9.68241 15.9039H8.76349C8.6488 15.9039 8.53881 15.8584 8.45771 15.7773C8.37661 15.6962 8.33105 15.5862 8.33105 15.4715C8.33105 15.3568 8.37661 15.2468 8.45771 15.1657C8.53881 15.0846 8.6488 15.0391 8.76349 15.0391H9.68241C9.79709 15.0391 9.90709 15.0846 9.98818 15.1657C10.0693 15.2468 10.1148 15.3568 10.1148 15.4715C10.1148 15.5862 10.0693 15.6962 9.98818 15.7773C9.90709 15.8584 9.79709 15.9039 9.68241 15.9039Z" fill="#034C82"/>
<path d="M4.64188 17.9332H3.72296C3.60827 17.9332 3.49828 17.8877 3.41718 17.8066C3.33609 17.7255 3.29053 17.6155 3.29053 17.5008C3.29053 17.3861 3.33609 17.2761 3.41718 17.195C3.49828 17.1139 3.60827 17.0684 3.72296 17.0684H4.64188C4.75657 17.0684 4.86656 17.1139 4.94765 17.195C5.02875 17.2761 5.07431 17.3861 5.07431 17.5008C5.07431 17.6155 5.02875 17.7255 4.94765 17.8066C4.86656 17.8877 4.75657 17.9332 4.64188 17.9332Z" fill="#034C82"/>
<path d="M7.16233 17.9332H6.24298C6.12829 17.9332 6.0183 17.8877 5.9372 17.8066C5.85611 17.7255 5.81055 17.6155 5.81055 17.5008C5.81055 17.3861 5.85611 17.2761 5.9372 17.195C6.0183 17.1139 6.12829 17.0684 6.24298 17.0684H7.16233C7.27702 17.0684 7.38701 17.1139 7.46811 17.195C7.5492 17.2761 7.59476 17.3861 7.59476 17.5008C7.59476 17.6155 7.5492 17.7255 7.46811 17.8066C7.38701 17.8877 7.27702 17.9332 7.16233 17.9332Z" fill="#034C82"/>
<path d="M9.68241 17.9332H8.76349C8.6488 17.9332 8.53881 17.8877 8.45771 17.8066C8.37661 17.7255 8.33105 17.6155 8.33105 17.5008C8.33105 17.3861 8.37661 17.2761 8.45771 17.195C8.53881 17.1139 8.6488 17.0684 8.76349 17.0684H9.68241C9.79709 17.0684 9.90709 17.1139 9.98818 17.195C10.0693 17.2761 10.1148 17.3861 10.1148 17.5008C10.1148 17.6155 10.0693 17.7255 9.98818 17.8066C9.90709 17.8877 9.79709 17.9332 9.68241 17.9332Z" fill="#034C82"/>
<path d="M4.64188 19.9625H3.72296C3.60827 19.9625 3.49828 19.917 3.41718 19.8359C3.33609 19.7548 3.29053 19.6448 3.29053 19.5301C3.29053 19.4154 3.33609 19.3054 3.41718 19.2243C3.49828 19.1432 3.60827 19.0977 3.72296 19.0977H4.64188C4.75657 19.0977 4.86656 19.1432 4.94765 19.2243C5.02875 19.3054 5.07431 19.4154 5.07431 19.5301C5.07431 19.6448 5.02875 19.7548 4.94765 19.8359C4.86656 19.917 4.75657 19.9625 4.64188 19.9625Z" fill="#034C82"/>
<path d="M7.16233 19.9625H6.24298C6.12829 19.9625 6.0183 19.917 5.9372 19.8359C5.85611 19.7548 5.81055 19.6448 5.81055 19.5301C5.81055 19.4154 5.85611 19.3054 5.9372 19.2243C6.0183 19.1432 6.12829 19.0977 6.24298 19.0977H7.16233C7.27702 19.0977 7.38701 19.1432 7.46811 19.2243C7.5492 19.3054 7.59476 19.4154 7.59476 19.5301C7.59476 19.6448 7.5492 19.7548 7.46811 19.8359C7.38701 19.917 7.27702 19.9625 7.16233 19.9625Z" fill="#034C82"/>
<path d="M9.68241 19.9625H8.76349C8.6488 19.9625 8.53881 19.917 8.45771 19.8359C8.37661 19.7548 8.33105 19.6448 8.33105 19.5301C8.33105 19.4154 8.37661 19.3054 8.45771 19.2243C8.53881 19.1432 8.6488 19.0977 8.76349 19.0977H9.68241C9.79709 19.0977 9.90709 19.1432 9.98818 19.2243C10.0693 19.3054 10.1148 19.4154 10.1148 19.5301C10.1148 19.6448 10.0693 19.7548 9.98818 19.8359C9.90709 19.917 9.79709 19.9625 9.68241 19.9625Z" fill="#034C82"/>
<path d="M4.64188 21.9918H3.72296C3.60827 21.9918 3.49828 21.9463 3.41718 21.8652C3.33609 21.7841 3.29053 21.6741 3.29053 21.5594C3.29053 21.4447 3.33609 21.3347 3.41718 21.2536C3.49828 21.1725 3.60827 21.127 3.72296 21.127H4.64188C4.75657 21.127 4.86656 21.1725 4.94765 21.2536C5.02875 21.3347 5.07431 21.4447 5.07431 21.5594C5.07431 21.6741 5.02875 21.7841 4.94765 21.8652C4.86656 21.9463 4.75657 21.9918 4.64188 21.9918Z" fill="#034C82"/>
<path d="M7.16233 21.9918H6.24298C6.12829 21.9918 6.0183 21.9463 5.9372 21.8652C5.85611 21.7841 5.81055 21.6741 5.81055 21.5594C5.81055 21.4447 5.85611 21.3347 5.9372 21.2536C6.0183 21.1725 6.12829 21.127 6.24298 21.127H7.16233C7.27702 21.127 7.38701 21.1725 7.46811 21.2536C7.5492 21.3347 7.59476 21.4447 7.59476 21.5594C7.59476 21.6741 7.5492 21.7841 7.46811 21.8652C7.38701 21.9463 7.27702 21.9918 7.16233 21.9918Z" fill="#034C82"/>
<path d="M9.68241 21.9918H8.76349C8.6488 21.9918 8.53881 21.9463 8.45771 21.8652C8.37661 21.7841 8.33105 21.6741 8.33105 21.5594C8.33105 21.4447 8.37661 21.3347 8.45771 21.2536C8.53881 21.1725 8.6488 21.127 8.76349 21.127H9.68241C9.79709 21.127 9.90709 21.1725 9.98818 21.2536C10.0693 21.3347 10.1148 21.4447 10.1148 21.5594C10.1148 21.6741 10.0693 21.7841 9.98818 21.8652C9.90709 21.9463 9.79709 21.9918 9.68241 21.9918Z" fill="#034C82"/>
<path d="M4.64188 24.0211H3.72296C3.60827 24.0211 3.49828 23.9756 3.41718 23.8945C3.33609 23.8134 3.29053 23.7034 3.29053 23.5887C3.29053 23.474 3.33609 23.364 3.41718 23.2829C3.49828 23.2018 3.60827 23.1562 3.72296 23.1562H4.64188C4.75657 23.1562 4.86656 23.2018 4.94765 23.2829C5.02875 23.364 5.07431 23.474 5.07431 23.5887C5.07431 23.7034 5.02875 23.8134 4.94765 23.8945C4.86656 23.9756 4.75657 24.0211 4.64188 24.0211Z" fill="#034C82"/>
<path d="M7.16233 24.0211H6.24298C6.12829 24.0211 6.0183 23.9756 5.9372 23.8945C5.85611 23.8134 5.81055 23.7034 5.81055 23.5887C5.81055 23.474 5.85611 23.364 5.9372 23.2829C6.0183 23.2018 6.12829 23.1562 6.24298 23.1562H7.16233C7.27702 23.1562 7.38701 23.2018 7.46811 23.2829C7.5492 23.364 7.59476 23.474 7.59476 23.5887C7.59476 23.7034 7.5492 23.8134 7.46811 23.8945C7.38701 23.9756 7.27702 24.0211 7.16233 24.0211Z" fill="#034C82"/>
<path d="M9.68241 24.0211H8.76349C8.6488 24.0211 8.53881 23.9756 8.45771 23.8945C8.37661 23.8134 8.33105 23.7034 8.33105 23.5887C8.33105 23.474 8.37661 23.364 8.45771 23.2829C8.53881 23.2018 8.6488 23.1562 8.76349 23.1562H9.68241C9.79709 23.1562 9.90709 23.2018 9.98818 23.2829C10.0693 23.364 10.1148 23.474 10.1148 23.5887C10.1148 23.7034 10.0693 23.8134 9.98818 23.8945C9.90709 23.9756 9.79709 24.0211 9.68241 24.0211Z" fill="#034C82"/>
<path d="M4.64188 26.0504H3.72296C3.60827 26.0504 3.49828 26.0049 3.41718 25.9238C3.33609 25.8427 3.29053 25.7327 3.29053 25.618C3.29053 25.5033 3.33609 25.3933 3.41718 25.3122C3.49828 25.2311 3.60827 25.1855 3.72296 25.1855H4.64188C4.75657 25.1855 4.86656 25.2311 4.94765 25.3122C5.02875 25.3933 5.07431 25.5033 5.07431 25.618C5.07431 25.7327 5.02875 25.8427 4.94765 25.9238C4.86656 26.0049 4.75657 26.0504 4.64188 26.0504Z" fill="#034C82"/>
<path d="M7.16233 26.0504H6.24298C6.12829 26.0504 6.0183 26.0049 5.9372 25.9238C5.85611 25.8427 5.81055 25.7327 5.81055 25.618C5.81055 25.5033 5.85611 25.3933 5.9372 25.3122C6.0183 25.2311 6.12829 25.1855 6.24298 25.1855H7.16233C7.27702 25.1855 7.38701 25.2311 7.46811 25.3122C7.5492 25.3933 7.59476 25.5033 7.59476 25.618C7.59476 25.7327 7.5492 25.8427 7.46811 25.9238C7.38701 26.0049 7.27702 26.0504 7.16233 26.0504Z" fill="#034C82"/>
<path d="M9.68241 26.0504H8.76349C8.6488 26.0504 8.53881 26.0049 8.45771 25.9238C8.37661 25.8427 8.33105 25.7327 8.33105 25.618C8.33105 25.5033 8.37661 25.3933 8.45771 25.3122C8.53881 25.2311 8.6488 25.1855 8.76349 25.1855H9.68241C9.79709 25.1855 9.90709 25.2311 9.98818 25.3122C10.0693 25.3933 10.1148 25.5033 10.1148 25.618C10.1148 25.7327 10.0693 25.8427 9.98818 25.9238C9.90709 26.0049 9.79709 26.0504 9.68241 26.0504Z" fill="#034C82"/>
<path d="M14.6595 5.77364C14.5448 5.77364 14.4348 5.72808 14.3537 5.64698C14.2726 5.56588 14.2271 5.45589 14.2271 5.34121V4.52521C14.2271 4.41052 14.2726 4.30053 14.3537 4.21943C14.4348 4.13833 14.5448 4.09277 14.6595 4.09277C14.7742 4.09277 14.8842 4.13833 14.9653 4.21943C15.0464 4.30053 15.0919 4.41052 15.0919 4.52521V5.34121C15.0919 5.45589 15.0464 5.56588 14.9653 5.64698C14.8842 5.72808 14.7742 5.77364 14.6595 5.77364Z" fill="#034C82"/>
<path d="M12.6878 6.27657C12.5731 6.27657 12.4631 6.23101 12.382 6.14991C12.3009 6.06881 12.2554 5.95882 12.2554 5.84414V5.02814C12.2554 4.91345 12.3009 4.80346 12.382 4.72236C12.4631 4.64126 12.5731 4.5957 12.6878 4.5957C12.8025 4.5957 12.9125 4.64126 12.9936 4.72236C13.0747 4.80346 13.1202 4.91345 13.1202 5.02814V5.84414C13.1202 5.95882 13.0747 6.06881 12.9936 6.14991C12.9125 6.23101 12.8025 6.27657 12.6878 6.27657Z" fill="#034C82"/>
<path d="M14.6595 9.02657C14.5448 9.02657 14.4348 8.98101 14.3537 8.89991C14.2726 8.81881 14.2271 8.70882 14.2271 8.59414V7.77814C14.2271 7.66345 14.2726 7.55346 14.3537 7.47236C14.4348 7.39126 14.5448 7.3457 14.6595 7.3457C14.7742 7.3457 14.8842 7.39126 14.9653 7.47236C15.0464 7.55346 15.0919 7.66345 15.0919 7.77814V8.59414C15.0919 8.70882 15.0464 8.81881 14.9653 8.89991C14.8842 8.98101 14.7742 9.02657 14.6595 9.02657Z" fill="#034C82"/>
<path d="M12.6878 9.5295C12.5731 9.5295 12.4631 9.48394 12.382 9.40284C12.3009 9.32174 12.2554 9.21175 12.2554 9.09707V8.28107C12.2554 8.16638 12.3009 8.05639 12.382 7.97529C12.4631 7.89419 12.5731 7.84863 12.6878 7.84863C12.8025 7.84863 12.9125 7.89419 12.9936 7.97529C13.0747 8.05639 13.1202 8.16638 13.1202 8.28107V9.09707C13.1202 9.21175 13.0747 9.32174 12.9936 9.40284C12.9125 9.48394 12.8025 9.5295 12.6878 9.5295Z" fill="#034C82"/>
<path d="M14.6595 12.2812C14.5448 12.2812 14.4348 12.2357 14.3537 12.1546C14.2726 12.0735 14.2271 11.9635 14.2271 11.8488V11.0311C14.2271 10.9164 14.2726 10.8064 14.3537 10.7253C14.4348 10.6442 14.5448 10.5986 14.6595 10.5986C14.7742 10.5986 14.8842 10.6442 14.9653 10.7253C15.0464 10.8064 15.0919 10.9164 15.0919 11.0311V11.8488C15.0919 11.9635 15.0464 12.0735 14.9653 12.1546C14.8842 12.2357 14.7742 12.2812 14.6595 12.2812Z" fill="#034C82"/>
<path d="M12.6878 12.7824C12.5731 12.7824 12.4631 12.7369 12.382 12.6558C12.3009 12.5747 12.2554 12.4647 12.2554 12.35V11.534C12.2554 11.4193 12.3009 11.3093 12.382 11.2282C12.4631 11.1471 12.5731 11.1016 12.6878 11.1016C12.8025 11.1016 12.9125 11.1471 12.9936 11.2282C13.0747 11.3093 13.1202 11.4193 13.1202 11.534V12.35C13.1202 12.4647 13.0747 12.5747 12.9936 12.6558C12.9125 12.7369 12.8025 12.7824 12.6878 12.7824Z" fill="#034C82"/>
<path d="M14.6595 15.5315C14.5448 15.5315 14.4348 15.4859 14.3537 15.4048C14.2726 15.3237 14.2271 15.2137 14.2271 15.099V14.283C14.2271 14.1683 14.2726 14.0583 14.3537 13.9772C14.4348 13.8961 14.5448 13.8506 14.6595 13.8506C14.7742 13.8506 14.8842 13.8961 14.9653 13.9772C15.0464 14.0583 15.0919 14.1683 15.0919 14.283V15.099C15.0919 15.2137 15.0464 15.3237 14.9653 15.4048C14.8842 15.4859 14.7742 15.5315 14.6595 15.5315Z" fill="#034C82"/>
<path d="M12.6878 16.0344C12.5731 16.0344 12.4631 15.9888 12.382 15.9077C12.3009 15.8266 12.2554 15.7166 12.2554 15.6019V14.7859C12.2554 14.6713 12.3009 14.5613 12.382 14.4802C12.4631 14.3991 12.5731 14.3535 12.6878 14.3535C12.8025 14.3535 12.9125 14.3991 12.9936 14.4802C13.0747 14.5613 13.1202 14.6713 13.1202 14.7859V15.6019C13.1202 15.7166 13.0747 15.8266 12.9936 15.9077C12.9125 15.9888 12.8025 16.0344 12.6878 16.0344Z" fill="#034C82"/>
<path d="M14.6595 18.7844C14.5448 18.7844 14.4348 18.7388 14.3537 18.6577C14.2726 18.5766 14.2271 18.4666 14.2271 18.3519V17.5359C14.2271 17.4213 14.2726 17.3113 14.3537 17.2302C14.4348 17.1491 14.5448 17.1035 14.6595 17.1035C14.7742 17.1035 14.8842 17.1491 14.9653 17.2302C15.0464 17.3113 15.0919 17.4213 15.0919 17.5359V18.3519C15.0919 18.4666 15.0464 18.5766 14.9653 18.6577C14.8842 18.7388 14.7742 18.7844 14.6595 18.7844Z" fill="#034C82"/>
<path d="M12.6878 19.2864C12.5731 19.2864 12.4631 19.2409 12.382 19.1598C12.3009 19.0787 12.2554 18.9687 12.2554 18.854V18.0389C12.2554 17.9242 12.3009 17.8142 12.382 17.7331C12.4631 17.652 12.5731 17.6064 12.6878 17.6064C12.8025 17.6064 12.9125 17.652 12.9936 17.7331C13.0747 17.8142 13.1202 17.9242 13.1202 18.0389V18.854C13.1202 18.9687 13.0747 19.0787 12.9936 19.1598C12.9125 19.2409 12.8025 19.2864 12.6878 19.2864Z" fill="#034C82"/>
<path d="M14.6595 22.0373C14.5448 22.0373 14.4348 21.9917 14.3537 21.9107C14.2726 21.8296 14.2271 21.7196 14.2271 21.6049V20.7889C14.2271 20.6742 14.2726 20.5642 14.3537 20.4831C14.4348 20.402 14.5448 20.3564 14.6595 20.3564C14.7742 20.3564 14.8842 20.402 14.9653 20.4831C15.0464 20.5642 15.0919 20.6742 15.0919 20.7889V21.6049C15.0919 21.7196 15.0464 21.8296 14.9653 21.9107C14.8842 21.9917 14.7742 22.0373 14.6595 22.0373Z" fill="#034C82"/>
<path d="M12.6878 22.5402C12.5731 22.5402 12.4631 22.4947 12.382 22.4136C12.3009 22.3325 12.2554 22.2225 12.2554 22.1078V21.2918C12.2554 21.1771 12.3009 21.0671 12.382 20.986C12.4631 20.9049 12.5731 20.8594 12.6878 20.8594C12.8025 20.8594 12.9125 20.9049 12.9936 20.986C13.0747 21.0671 13.1202 21.1771 13.1202 21.2918V22.1078C13.1202 22.2225 13.0747 22.3325 12.9936 22.4136C12.9125 22.4947 12.8025 22.5402 12.6878 22.5402Z" fill="#034C82"/>
<path d="M14.6595 25.2895C14.5448 25.2895 14.4348 25.244 14.3537 25.1629C14.2726 25.0818 14.2271 24.9718 14.2271 24.8571V24.0433C14.2271 23.9286 14.2726 23.8186 14.3537 23.7375C14.4348 23.6564 14.5448 23.6108 14.6595 23.6108C14.7742 23.6108 14.8842 23.6564 14.9653 23.7375C15.0464 23.8186 15.0919 23.9286 15.0919 24.0433V24.8593C15.0913 24.9736 15.0455 25.083 14.9645 25.1637C14.8835 25.2443 14.7738 25.2895 14.6595 25.2895Z" fill="#034C82"/>
<path d="M12.6878 25.7926C12.5731 25.7926 12.4631 25.7471 12.382 25.666C12.3009 25.5849 12.2554 25.4749 12.2554 25.3602V24.5438C12.2554 24.4291 12.3009 24.3191 12.382 24.238C12.4631 24.1569 12.5731 24.1113 12.6878 24.1113C12.8025 24.1113 12.9125 24.1569 12.9936 24.238C13.0747 24.3191 13.1202 24.4291 13.1202 24.5438V25.3598C13.1203 25.4166 13.1091 25.4729 13.0874 25.5254C13.0657 25.5779 13.0339 25.6256 12.9937 25.6658C12.9536 25.706 12.9059 25.7379 12.8534 25.7597C12.8009 25.7814 12.7446 25.7926 12.6878 25.7926Z" fill="#034C82"/>
<path d="M17.6434 5.36213C17.5287 5.36213 17.4187 5.31657 17.3376 5.23547C17.2565 5.15438 17.2109 5.04438 17.2109 4.9297V4.11456C17.2109 3.99987 17.2565 3.88988 17.3376 3.80879C17.4187 3.72769 17.5287 3.68213 17.6434 3.68213C17.7581 3.68213 17.868 3.72769 17.9491 3.80879C18.0302 3.88988 18.0758 3.99987 18.0758 4.11456V4.9297C18.0758 5.04438 18.0302 5.15438 17.9491 5.23547C17.868 5.31657 17.7581 5.36213 17.6434 5.36213Z" fill="#034C82"/>
<path d="M19.1033 5.91334C18.9886 5.91334 18.8787 5.86778 18.7976 5.78669C18.7165 5.70559 18.6709 5.5956 18.6709 5.48091V4.66534C18.6709 4.55065 18.7165 4.44066 18.7976 4.35957C18.8787 4.27847 18.9886 4.23291 19.1033 4.23291C19.218 4.23291 19.328 4.27847 19.4091 4.35957C19.4902 4.44066 19.5358 4.55065 19.5358 4.66534V5.48134C19.5356 5.59596 19.49 5.70584 19.409 5.78684C19.3279 5.86784 19.2179 5.91334 19.1033 5.91334Z" fill="#034C82"/>
<path d="M20.5628 6.46461C20.4481 6.46461 20.3381 6.41905 20.257 6.33796C20.1759 6.25686 20.1304 6.14687 20.1304 6.03218V5.21661C20.1304 5.10192 20.1759 4.99193 20.257 4.91084C20.3381 4.82974 20.4481 4.78418 20.5628 4.78418C20.6775 4.78418 20.7875 4.82974 20.8686 4.91084C20.9497 4.99193 20.9952 5.10192 20.9952 5.21661V6.03261C20.9951 6.14723 20.9495 6.25711 20.8684 6.33811C20.7873 6.41911 20.6774 6.46461 20.5628 6.46461Z" fill="#034C82"/>
<path d="M17.6434 8.6055C17.5287 8.6055 17.4187 8.55994 17.3376 8.47885C17.2565 8.39775 17.2109 8.28776 17.2109 8.17307V7.35577C17.2109 7.24108 17.2565 7.13109 17.3376 7.05C17.4187 6.9689 17.5287 6.92334 17.6434 6.92334C17.7581 6.92334 17.868 6.9689 17.9491 7.05C18.0302 7.13109 18.0758 7.24108 18.0758 7.35577V8.17307C18.0758 8.28776 18.0302 8.39775 17.9491 8.47885C17.868 8.55994 17.7581 8.6055 17.6434 8.6055Z" fill="#034C82"/>
<path d="M19.1033 9.15455C18.9886 9.15455 18.8787 9.10899 18.7976 9.0279C18.7165 8.9468 18.6709 8.83681 18.6709 8.72212V7.90655C18.6709 7.79187 18.7165 7.68187 18.7976 7.60078C18.8787 7.51968 18.9886 7.47412 19.1033 7.47412C19.218 7.47412 19.328 7.51968 19.4091 7.60078C19.4902 7.68187 19.5358 7.79187 19.5358 7.90655V8.72212C19.5358 8.83681 19.4902 8.9468 19.4091 9.0279C19.328 9.10899 19.218 9.15455 19.1033 9.15455Z" fill="#034C82"/>
<path d="M20.5628 9.70533C20.4481 9.70533 20.3381 9.65977 20.257 9.57868C20.1759 9.49758 20.1304 9.38759 20.1304 9.2729V8.45733C20.1304 8.34265 20.1759 8.23266 20.257 8.15156C20.3381 8.07046 20.4481 8.0249 20.5628 8.0249C20.6775 8.0249 20.7875 8.07046 20.8686 8.15156C20.9497 8.23266 20.9952 8.34265 20.9952 8.45733V9.27333C20.9951 9.38795 20.9495 9.49783 20.8684 9.57883C20.7873 9.65983 20.6774 9.70533 20.5628 9.70533Z" fill="#034C82"/>
<path d="M17.6434 11.8451C17.5287 11.8451 17.4187 11.7996 17.3376 11.7185C17.2565 11.6374 17.2109 11.5274 17.2109 11.4127V10.5945C17.2109 10.4799 17.2565 10.3699 17.3376 10.2888C17.4187 10.2077 17.5287 10.1621 17.6434 10.1621C17.7581 10.1621 17.868 10.2077 17.9491 10.2888C18.0302 10.3699 18.0758 10.4799 18.0758 10.5945V11.4105C18.0761 11.4675 18.0651 11.524 18.0435 11.5767C18.0219 11.6294 17.9901 11.6773 17.9499 11.7177C17.9097 11.7581 17.862 11.7901 17.8094 11.812C17.7567 11.8339 17.7003 11.8451 17.6434 11.8451Z" fill="#034C82"/>
<path d="M19.1033 12.3962C18.9886 12.3962 18.8787 12.3506 18.7976 12.2695C18.7165 12.1884 18.6709 12.0785 18.6709 11.9638V11.1478C18.6709 11.0331 18.7165 10.9231 18.7976 10.842C18.8787 10.7609 18.9886 10.7153 19.1033 10.7153C19.218 10.7153 19.328 10.7609 19.4091 10.842C19.4902 10.9231 19.5358 11.0331 19.5358 11.1478V11.9638C19.5358 12.0785 19.4902 12.1884 19.4091 12.2695C19.328 12.3506 19.218 12.3962 19.1033 12.3962Z" fill="#034C82"/>
<path d="M20.5628 12.9465C20.4481 12.9465 20.3381 12.901 20.257 12.8199C20.1759 12.7388 20.1304 12.6288 20.1304 12.5141V11.6985C20.1304 11.5839 20.1759 11.4739 20.257 11.3928C20.3381 11.3117 20.4481 11.2661 20.5628 11.2661C20.6775 11.2661 20.7875 11.3117 20.8686 11.3928C20.9497 11.4739 20.9952 11.5839 20.9952 11.6985V12.5145C20.9951 12.6292 20.9495 12.739 20.8684 12.82C20.7873 12.901 20.6774 12.9465 20.5628 12.9465Z" fill="#034C82"/>
<path d="M17.6434 15.0861C17.5287 15.0861 17.4187 15.0406 17.3376 14.9595C17.2565 14.8784 17.2109 14.7684 17.2109 14.6537V13.8377C17.2109 13.723 17.2565 13.613 17.3376 13.5319C17.4187 13.4508 17.5287 13.4053 17.6434 13.4053C17.7581 13.4053 17.868 13.4508 17.9491 13.5319C18.0302 13.613 18.0758 13.723 18.0758 13.8377V14.6537C18.0758 14.7684 18.0302 14.8784 17.9491 14.9595C17.868 15.0406 17.7581 15.0861 17.6434 15.0861Z" fill="#034C82"/>
<path d="M19.1033 15.6374C18.9886 15.6374 18.8787 15.5918 18.7976 15.5108C18.7165 15.4297 18.6709 15.3197 18.6709 15.205V14.389C18.6709 14.2743 18.7165 14.1643 18.7976 14.0832C18.8787 14.0021 18.9886 13.9565 19.1033 13.9565C19.218 13.9565 19.328 14.0021 19.4091 14.0832C19.4902 14.1643 19.5358 14.2743 19.5358 14.389V15.205C19.5358 15.3197 19.4902 15.4297 19.4091 15.5108C19.328 15.5918 19.218 15.6374 19.1033 15.6374Z" fill="#034C82"/>
<path d="M20.5628 16.1882C20.4481 16.1882 20.3381 16.1426 20.257 16.0615C20.1759 15.9804 20.1304 15.8704 20.1304 15.7558V14.9398C20.1304 14.8251 20.1759 14.7151 20.257 14.634C20.3381 14.5529 20.4481 14.5073 20.5628 14.5073C20.6775 14.5073 20.7875 14.5529 20.8686 14.634C20.9497 14.7151 20.9952 14.8251 20.9952 14.9398V15.7558C20.9952 15.8704 20.9497 15.9804 20.8686 16.0615C20.7875 16.1426 20.6775 16.1882 20.5628 16.1882Z" fill="#034C82"/>
<path d="M17.6434 18.3271C17.5287 18.3271 17.4187 18.2816 17.3376 18.2005C17.2565 18.1194 17.2109 18.0094 17.2109 17.8947V17.0809C17.2109 16.9662 17.2565 16.8562 17.3376 16.7751C17.4187 16.694 17.5287 16.6484 17.6434 16.6484C17.7581 16.6484 17.868 16.694 17.9491 16.7751C18.0302 16.8562 18.0758 16.9662 18.0758 17.0809V17.8969C18.0752 18.0112 18.0294 18.1206 17.9484 18.2012C17.8673 18.2819 17.7577 18.3271 17.6434 18.3271Z" fill="#034C82"/>
<path d="M19.1033 18.8781C18.9886 18.8781 18.8787 18.8326 18.7976 18.7515C18.7165 18.6704 18.6709 18.5604 18.6709 18.4457V17.6297C18.6709 17.515 18.7165 17.405 18.7976 17.3239C18.8787 17.2428 18.9886 17.1973 19.1033 17.1973C19.218 17.1973 19.328 17.2428 19.4091 17.3239C19.4902 17.405 19.5358 17.515 19.5358 17.6297V18.4457C19.5358 18.5604 19.4902 18.6704 19.4091 18.7515C19.328 18.8326 19.218 18.8781 19.1033 18.8781Z" fill="#034C82"/>
<path d="M20.5628 19.4294C20.4481 19.4294 20.3381 19.3838 20.257 19.3027C20.1759 19.2216 20.1304 19.1117 20.1304 18.997V18.181C20.1304 18.0663 20.1759 17.9563 20.257 17.8752C20.3381 17.7941 20.4481 17.7485 20.5628 17.7485C20.6775 17.7485 20.7875 17.7941 20.8686 17.8752C20.9497 17.9563 20.9952 18.0663 20.9952 18.181V18.997C20.9952 19.1117 20.9497 19.2216 20.8686 19.3027C20.7875 19.3838 20.6775 19.4294 20.5628 19.4294Z" fill="#034C82"/>
<path d="M17.6434 21.5686C17.5287 21.5686 17.4187 21.523 17.3376 21.4419C17.2565 21.3608 17.2109 21.2508 17.2109 21.1361V20.3201C17.2109 20.2054 17.2565 20.0954 17.3376 20.0144C17.4187 19.9333 17.5287 19.8877 17.6434 19.8877C17.7581 19.8877 17.868 19.9333 17.9491 20.0144C18.0302 20.0954 18.0758 20.2054 18.0758 20.3201V21.1361C18.0758 21.2508 18.0302 21.3608 17.9491 21.4419C17.868 21.523 17.7581 21.5686 17.6434 21.5686Z" fill="#034C82"/>
<path d="M19.1033 22.1193C18.9886 22.1193 18.8787 22.0738 18.7976 21.9927C18.7165 21.9116 18.6709 21.8016 18.6709 21.6869V20.8709C18.6709 20.7562 18.7165 20.6462 18.7976 20.5651C18.8787 20.484 18.9886 20.4385 19.1033 20.4385C19.218 20.4385 19.328 20.484 19.4091 20.5651C19.4902 20.6462 19.5358 20.7562 19.5358 20.8709V21.6869C19.5358 21.8016 19.4902 21.9116 19.4091 21.9927C19.328 22.0738 19.218 22.1193 19.1033 22.1193Z" fill="#034C82"/>
<path d="M20.5628 22.6701C20.4481 22.6701 20.3381 22.6246 20.257 22.5435C20.1759 22.4624 20.1304 22.3524 20.1304 22.2377V21.4217C20.1304 21.307 20.1759 21.197 20.257 21.1159C20.3381 21.0348 20.4481 20.9893 20.5628 20.9893C20.6775 20.9893 20.7875 21.0348 20.8686 21.1159C20.9497 21.197 20.9952 21.307 20.9952 21.4217V22.2377C20.9952 22.3524 20.9497 22.4624 20.8686 22.5435C20.7875 22.6246 20.6775 22.6701 20.5628 22.6701Z" fill="#034C82"/>
<path d="M17.6434 24.8093C17.5287 24.8093 17.4187 24.7637 17.3376 24.6826C17.2565 24.6015 17.2109 24.4915 17.2109 24.3769V23.5609C17.2109 23.4462 17.2565 23.3362 17.3376 23.2551C17.4187 23.174 17.5287 23.1284 17.6434 23.1284C17.7581 23.1284 17.868 23.174 17.9491 23.2551C18.0302 23.3362 18.0758 23.4462 18.0758 23.5609V24.3769C18.0758 24.4915 18.0302 24.6015 17.9491 24.6826C17.868 24.7637 17.7581 24.8093 17.6434 24.8093Z" fill="#034C82"/>
<path d="M19.1033 25.3606C18.9886 25.3606 18.8787 25.315 18.7976 25.2339C18.7165 25.1528 18.6709 25.0428 18.6709 24.9281V24.1121C18.6709 23.9974 18.7165 23.8874 18.7976 23.8063C18.8787 23.7252 18.9886 23.6797 19.1033 23.6797C19.218 23.6797 19.328 23.7252 19.4091 23.8063C19.4902 23.8874 19.5358 23.9974 19.5358 24.1121V24.9281C19.5358 25.0428 19.4902 25.1528 19.4091 25.2339C19.328 25.315 19.218 25.3606 19.1033 25.3606Z" fill="#034C82"/>
<path d="M20.5628 25.9113C20.4481 25.9113 20.3381 25.8658 20.257 25.7847C20.1759 25.7036 20.1304 25.5936 20.1304 25.4789V24.6629C20.1304 24.5482 20.1759 24.4382 20.257 24.3571C20.3381 24.276 20.4481 24.2305 20.5628 24.2305C20.6775 24.2305 20.7875 24.276 20.8686 24.3571C20.9497 24.4382 20.9952 24.5482 20.9952 24.6629V25.4789C20.9952 25.5936 20.9497 25.7036 20.8686 25.7847C20.7875 25.8658 20.6775 25.9113 20.5628 25.9113Z" fill="#034C82"/>
<path d="M26.0325 14.5516C25.9178 14.5516 25.8079 14.506 25.7268 14.4249C25.6457 14.3438 25.6001 14.2338 25.6001 14.1191V13.6819C25.6001 13.5673 25.6457 13.4573 25.7268 13.3762C25.8079 13.2951 25.9178 13.2495 26.0325 13.2495C26.1472 13.2495 26.2572 13.2951 26.3383 13.3762C26.4194 13.4573 26.465 13.5673 26.465 13.6819V14.1191C26.465 14.2338 26.4194 14.3438 26.3383 14.4249C26.2572 14.506 26.1472 14.5516 26.0325 14.5516Z" fill="#034C82"/>
<path d="M27.4896 15.4671C27.3749 15.4671 27.2649 15.4215 27.1838 15.3404C27.1027 15.2593 27.0571 15.1493 27.0571 15.0347V14.5975C27.0571 14.4828 27.1027 14.3728 27.1838 14.2917C27.2649 14.2106 27.3749 14.165 27.4896 14.165C27.6042 14.165 27.7142 14.2106 27.7953 14.2917C27.8764 14.3728 27.922 14.4828 27.922 14.5975V15.0347C27.922 15.1493 27.8764 15.2593 27.7953 15.3404C27.7142 15.4215 27.6042 15.4671 27.4896 15.4671Z" fill="#034C82"/>
<path d="M26.0325 16.6869C25.9178 16.6869 25.8079 16.6413 25.7268 16.5602C25.6457 16.4791 25.6001 16.3691 25.6001 16.2544V15.8177C25.6001 15.703 25.6457 15.593 25.7268 15.5119C25.8079 15.4308 25.9178 15.3853 26.0325 15.3853C26.1472 15.3853 26.2572 15.4308 26.3383 15.5119C26.4194 15.593 26.465 15.703 26.465 15.8177V16.2549C26.4648 16.3695 26.4192 16.4794 26.3382 16.5604C26.2571 16.6414 26.1471 16.6869 26.0325 16.6869Z" fill="#034C82"/>
<path d="M27.4896 17.6026C27.3749 17.6026 27.2649 17.5571 27.1838 17.476C27.1027 17.3949 27.0571 17.2849 27.0571 17.1702V16.7352C27.0571 16.6205 27.1027 16.5105 27.1838 16.4294C27.2649 16.3483 27.3749 16.3027 27.4896 16.3027C27.6042 16.3027 27.7142 16.3483 27.7953 16.4294C27.8764 16.5105 27.922 16.6205 27.922 16.7352V17.1724C27.9214 17.2867 27.8756 17.3961 27.7946 17.4767C27.7135 17.5574 27.6039 17.6026 27.4896 17.6026Z" fill="#034C82"/>
<path d="M26.0325 18.8226C25.9178 18.8226 25.8079 18.777 25.7268 18.6959C25.6457 18.6148 25.6001 18.5048 25.6001 18.3901V17.9529C25.6001 17.8383 25.6457 17.7283 25.7268 17.6472C25.8079 17.5661 25.9178 17.5205 26.0325 17.5205C26.1472 17.5205 26.2572 17.5661 26.3383 17.6472C26.4194 17.7283 26.465 17.8383 26.465 17.9529V18.3901C26.465 18.5048 26.4194 18.6148 26.3383 18.6959C26.2572 18.777 26.1472 18.8226 26.0325 18.8226Z" fill="#034C82"/>
<path d="M27.4896 19.7386C27.3749 19.7386 27.2649 19.693 27.1838 19.6119C27.1027 19.5308 27.0571 19.4208 27.0571 19.3061V18.869C27.0571 18.7543 27.1027 18.6443 27.1838 18.5632C27.2649 18.4821 27.3749 18.4365 27.4896 18.4365C27.6042 18.4365 27.7142 18.4821 27.7953 18.5632C27.8764 18.6443 27.922 18.7543 27.922 18.869V19.3061C27.922 19.4208 27.8764 19.5308 27.7953 19.6119C27.7142 19.693 27.6042 19.7386 27.4896 19.7386Z" fill="#034C82"/>
<path d="M26.0325 20.9583C25.9178 20.9583 25.8079 20.9127 25.7268 20.8316C25.6457 20.7506 25.6001 20.6406 25.6001 20.5259V20.0887C25.6001 19.974 25.6457 19.864 25.7268 19.7829C25.8079 19.7018 25.9178 19.6562 26.0325 19.6562C26.1472 19.6562 26.2572 19.7018 26.3383 19.7829C26.4194 19.864 26.465 19.974 26.465 20.0887V20.5259C26.465 20.6406 26.4194 20.7506 26.3383 20.8316C26.2572 20.9127 26.1472 20.9583 26.0325 20.9583Z" fill="#034C82"/>
<path d="M27.4896 21.8738C27.3749 21.8738 27.2649 21.8283 27.1838 21.7472C27.1027 21.6661 27.0571 21.5561 27.0571 21.4414V21.0042C27.0571 20.8895 27.1027 20.7795 27.1838 20.6984C27.2649 20.6173 27.3749 20.5718 27.4896 20.5718C27.6042 20.5718 27.7142 20.6173 27.7953 20.6984C27.8764 20.7795 27.922 20.8895 27.922 21.0042V21.4414C27.922 21.5561 27.8764 21.6661 27.7953 21.7472C27.7142 21.8283 27.6042 21.8738 27.4896 21.8738Z" fill="#034C82"/>
<path d="M26.0325 23.0918C25.9178 23.0918 25.8079 23.0463 25.7268 22.9652C25.6457 22.8841 25.6001 22.7741 25.6001 22.6594V22.2239C25.6001 22.1092 25.6457 21.9993 25.7268 21.9182C25.8079 21.8371 25.9178 21.7915 26.0325 21.7915C26.1472 21.7915 26.2572 21.8371 26.3383 21.9182C26.4194 21.9993 26.465 22.1092 26.465 22.2239V22.6594C26.465 22.7741 26.4194 22.8841 26.3383 22.9652C26.2572 23.0463 26.1472 23.0918 26.0325 23.0918Z" fill="#034C82"/>
<path d="M27.4896 24.0096C27.3749 24.0096 27.2649 23.964 27.1838 23.8829C27.1027 23.8018 27.0571 23.6918 27.0571 23.5771V23.14C27.0571 23.0253 27.1027 22.9153 27.1838 22.8342C27.2649 22.7531 27.3749 22.7075 27.4896 22.7075C27.6042 22.7075 27.7142 22.7531 27.7953 22.8342C27.8764 22.9153 27.922 23.0253 27.922 23.14V23.5771C27.922 23.6918 27.8764 23.8018 27.7953 23.8829C27.7142 23.964 27.6042 24.0096 27.4896 24.0096Z" fill="#034C82"/>
<path d="M26.0325 25.2293C25.9178 25.2293 25.8079 25.1837 25.7268 25.1026C25.6457 25.0215 25.6001 24.9116 25.6001 24.7969V24.3597C25.6001 24.245 25.6457 24.135 25.7268 24.0539C25.8079 23.9728 25.9178 23.9272 26.0325 23.9272C26.1472 23.9272 26.2572 23.9728 26.3383 24.0539C26.4194 24.135 26.465 24.245 26.465 24.3597V24.7969C26.465 24.9116 26.4194 25.0215 26.3383 25.1026C26.2572 25.1837 26.1472 25.2293 26.0325 25.2293Z" fill="#034C82"/>
<path d="M27.4896 26.1448C27.3749 26.1448 27.2649 26.0993 27.1838 26.0182C27.1027 25.9371 27.0571 25.8271 27.0571 25.7124V25.2752C27.0571 25.1605 27.1027 25.0505 27.1838 24.9694C27.2649 24.8883 27.3749 24.8428 27.4896 24.8428C27.6042 24.8428 27.7142 24.8883 27.7953 24.9694C27.8764 25.0505 27.922 25.1605 27.922 25.2752V25.7124C27.922 25.8271 27.8764 25.9371 27.7953 26.0182C27.7142 26.0993 27.6042 26.1448 27.4896 26.1448Z" fill="#034C82"/>
<path d="M30.3701 27.7042H0.964659C0.849971 27.7042 0.73998 27.6587 0.658883 27.5776C0.577786 27.4965 0.532227 27.3865 0.532227 27.2718C0.532227 27.1571 0.577786 27.0471 0.658883 26.966C0.73998 26.8849 0.849971 26.8394 0.964659 26.8394H30.3701C30.4848 26.8394 30.5947 26.8849 30.6758 26.966C30.7569 27.0471 30.8025 27.1571 30.8025 27.2718C30.8025 27.3865 30.7569 27.4965 30.6758 27.5776C30.5947 27.6587 30.4848 27.7042 30.3701 27.7042Z" fill="#034C82"/>
</svg>
