<svg width="50" height="40" viewBox="0 0 50 40" fill="none" xmlns="http://www.w3.org/2000/svg">
<rect x="0.599609" width="49.2" height="40" rx="8" fill="#034C82"/>
<path d="M29.1992 10C28.4036 10 27.6405 10.3161 27.0779 10.8787C26.5153 11.4413 26.1992 12.2044 26.1992 13V27C26.1992 27.7956 26.5153 28.5587 27.0779 29.1213C27.6405 29.6839 28.4036 30 29.1992 30C29.9949 30 30.7579 29.6839 31.3205 29.1213C31.8831 28.5587 32.1992 27.7956 32.1992 27V13C32.1992 12.2044 31.8831 11.4413 31.3205 10.8787C30.7579 10.3161 29.9949 10 29.1992 10ZM30.1992 27C30.1992 27.2652 30.0939 27.5196 29.9063 27.7071C29.7188 27.8946 29.4644 28 29.1992 28C28.934 28 28.6796 27.8946 28.4921 27.7071C28.3046 27.5196 28.1992 27.2652 28.1992 27V13C28.1992 12.7348 28.3046 12.4804 28.4921 12.2929C28.6796 12.1054 28.934 12 29.1992 12C29.4644 12 29.7188 12.1054 29.9063 12.2929C30.0939 12.4804 30.1992 12.7348 30.1992 13V27ZM21.1992 10C20.4036 10 19.6405 10.3161 19.0779 10.8787C18.5153 11.4413 18.1992 12.2044 18.1992 13V27C18.1992 27.7956 18.5153 28.5587 19.0779 29.1213C19.6405 29.6839 20.4036 30 21.1992 30C21.9949 30 22.7579 29.6839 23.3205 29.1213C23.8831 28.5587 24.1992 27.7956 24.1992 27V13C24.1992 12.2044 23.8831 11.4413 23.3205 10.8787C22.7579 10.3161 21.9949 10 21.1992 10ZM22.1992 27C22.1992 27.2652 22.0939 27.5196 21.9063 27.7071C21.7188 27.8946 21.4644 28 21.1992 28C20.934 28 20.6796 27.8946 20.4921 27.7071C20.3046 27.5196 20.1992 27.2652 20.1992 27V13C20.1992 12.7348 20.3046 12.4804 20.4921 12.2929C20.6796 12.1054 20.934 12 21.1992 12C21.4644 12 21.7188 12.1054 21.9063 12.2929C22.0939 12.4804 22.1992 12.7348 22.1992 13V27Z" fill="white"/>
</svg>
