<svg width="50" height="40" viewBox="0 0 50 40" fill="none" xmlns="http://www.w3.org/2000/svg">
<rect x="0.400391" width="49.2" height="40" rx="8" fill="#999CA0"/>
<path d="M31.5402 16.9998L21.8802 11.4598C21.3575 11.1579 20.7642 10.9998 20.1606 11.0015C19.557 11.0031 18.9646 11.1645 18.4435 11.4692C17.9225 11.7739 17.4914 12.2111 17.194 12.7364C16.8966 13.2616 16.7435 13.8562 16.7502 14.4598V25.5798C16.7502 26.4868 17.1105 27.3567 17.7519 27.9981C18.3933 28.6395 19.2632 28.9998 20.1702 28.9998C20.7707 28.9988 21.3603 28.8401 21.8802 28.5398L31.5402 22.9998C32.0593 22.6994 32.4902 22.2678 32.7898 21.7482C33.0894 21.2287 33.2471 20.6395 33.2471 20.0398C33.2471 19.4401 33.0894 18.8509 32.7898 18.3313C32.4902 17.8118 32.0593 17.3802 31.5402 17.0798V16.9998ZM30.5402 21.1898L20.8802 26.8098C20.6637 26.9325 20.4191 26.997 20.1702 26.997C19.9213 26.997 19.6767 26.9325 19.4602 26.8098C19.2443 26.6851 19.065 26.5058 18.9404 26.2899C18.8158 26.074 18.7502 25.8291 18.7502 25.5798V14.4198C18.7502 14.1705 18.8158 13.9256 18.9404 13.7096C19.065 13.4937 19.2443 13.3144 19.4602 13.1898C19.6776 13.0689 19.9215 13.0037 20.1702 12.9998C20.4187 13.0049 20.6624 13.0701 20.8802 13.1898L30.5402 18.7698C30.7562 18.8944 30.9356 19.0737 31.0603 19.2896C31.185 19.5055 31.2506 19.7504 31.2506 19.9998C31.2506 20.2491 31.185 20.4941 31.0603 20.71C30.9356 20.9259 30.7562 21.1052 30.5402 21.2298V21.1898Z" fill="white"/>
</svg>
