<svg width="16" height="18" viewBox="0 0 16 18" fill="none" xmlns="http://www.w3.org/2000/svg">
<g clip-path="url(#clip0_221_36235)">
<path d="M11.2397 9.56445C8.61094 9.56445 6.47937 11.453 6.47937 13.7821C6.47937 16.1112 8.61094 17.9998 11.2397 17.9998C13.8685 17.9998 16 16.1112 16 13.7821C16 11.453 13.8685 9.56445 11.2397 9.56445V9.56445ZM11.007 13.037L12.0807 13.529C12.7207 13.8196 13.0645 14.4241 12.9481 15.0615C12.8582 15.5582 12.5091 15.9472 12.0172 16.1393V16.2658C12.0172 16.5892 11.721 16.8516 11.3561 16.8516C10.9911 16.8516 10.6949 16.5892 10.6949 16.2658V16.1768C10.1766 16.0268 9.74284 15.6847 9.5154 15.2255C9.3673 14.9302 9.52598 14.5835 9.8592 14.4569C10.1924 14.3304 10.5838 14.4663 10.7266 14.7615C10.8377 14.9865 11.0916 15.1177 11.3666 15.099C11.5729 15.0708 11.6258 14.9677 11.6417 14.8834C11.6523 14.8318 11.6628 14.6678 11.4724 14.5788L10.3987 14.0867C9.74813 13.7915 9.40433 13.1635 9.54185 12.5262C9.65821 11.9685 10.1025 11.5467 10.6949 11.4062V11.3171C10.6949 10.9938 10.9911 10.7313 11.3561 10.7313C11.721 10.7313 12.0172 10.9938 12.0172 11.3171V11.5327C12.4298 11.7108 12.7683 12.006 12.9587 12.395C13.1068 12.6902 12.9534 13.037 12.6149 13.1682C12.2764 13.2994 11.8903 13.1635 11.7422 12.8636C11.6311 12.6387 11.3772 12.5074 11.1022 12.5262C10.9012 12.5449 10.8483 12.6715 10.8324 12.7418C10.8166 12.8027 10.8113 12.962 10.9964 13.0464L11.007 13.037Z" fill="#034C82"/>
<path d="M12.4403 0.313981L11.2661 0.881021C11.1074 0.956001 10.917 0.956001 10.7583 0.881021L9.0605 0.0562354C8.90182 -0.0187451 8.7114 -0.0187451 8.55273 0.0562354L6.85488 0.876334C6.6962 0.951315 6.50578 0.951315 6.34711 0.876334L4.65455 0.0562354C4.49587 -0.0187451 4.30545 -0.0187451 4.14678 0.0562354L2.44893 0.876334C2.29025 0.951315 2.09983 0.951315 1.94116 0.876334L0.78281 0.313981C0.42843 0.145275 0 0.370216 0 0.726373V15.7412C0 16.0974 0.42843 16.3223 0.78281 16.1536L1.95702 15.5866C2.1157 15.5116 2.30612 15.5116 2.46479 15.5866L4.16793 16.4067C4.32661 16.4816 4.51702 16.4816 4.6757 16.4067L5.67008 15.924C5.34744 15.2632 5.16231 14.5415 5.16231 13.7777C5.16231 10.8066 7.89157 8.38844 11.245 8.38844C11.9379 8.38844 12.6043 8.49623 13.2284 8.68836V0.726373C13.2284 0.370216 12.8 0.145275 12.4456 0.313981H12.4403ZM3.43802 11.6923H2.64463C2.27967 11.6923 1.98347 11.4298 1.98347 11.1065C1.98347 10.7831 2.27967 10.5207 2.64463 10.5207H3.43802C3.80298 10.5207 4.09917 10.7831 4.09917 11.1065C4.09917 11.4298 3.80298 11.6923 3.43802 11.6923ZM4.98777 9.34913H2.64463C2.27967 9.34913 1.98347 9.0867 1.98347 8.76334C1.98347 8.43999 2.27967 8.17756 2.64463 8.17756H4.98777C5.35273 8.17756 5.64893 8.43999 5.64893 8.76334C5.64893 9.0867 5.35273 9.34913 4.98777 9.34913ZM10.4516 7.00599H2.64463C2.27967 7.00599 1.98347 6.74356 1.98347 6.4202C1.98347 6.09685 2.27967 5.83442 2.64463 5.83442H10.4516C10.8165 5.83442 11.1127 6.09685 11.1127 6.4202C11.1127 6.74356 10.8165 7.00599 10.4516 7.00599ZM10.4516 4.66285H2.64463C2.27967 4.66285 1.98347 4.40042 1.98347 4.07706C1.98347 3.75371 2.27967 3.49128 2.64463 3.49128H10.4516C10.8165 3.49128 11.1127 3.75371 11.1127 4.07706C11.1127 4.40042 10.8165 4.66285 10.4516 4.66285Z" fill="#034C82"/>
</g>
<defs>
<clipPath id="clip0_221_36235">
<rect width="16" height="18" fill="white"/>
</clipPath>
</defs>
</svg>
