<svg width="25" height="24" viewBox="0 0 25 24" fill="none" xmlns="http://www.w3.org/2000/svg">
<path d="M20.785 5.00017C19.725 3.93737 18.3198 3.28871 16.8234 3.17134C15.3269 3.05397 13.8378 3.47563 12.625 4.36017C11.3527 3.4138 9.76902 2.98468 8.19295 3.1592C6.61688 3.33373 5.16547 4.09894 4.131 5.30075C3.09654 6.50256 2.55585 8.05169 2.61783 9.63618C2.67981 11.2207 3.33985 12.7228 4.46503 13.8402L10.675 20.0602C11.195 20.5719 11.8954 20.8588 12.625 20.8588C13.3546 20.8588 14.055 20.5719 14.575 20.0602L20.785 13.8402C21.9526 12.6654 22.608 11.0764 22.608 9.42017C22.608 7.76389 21.9526 6.1749 20.785 5.00017V5.00017ZM19.375 12.4602L13.165 18.6702C13.0944 18.7415 13.0103 18.7982 12.9176 18.8368C12.8249 18.8755 12.7255 18.8954 12.625 18.8954C12.5246 18.8954 12.4252 18.8755 12.3325 18.8368C12.2398 18.7982 12.1557 18.7415 12.085 18.6702L5.87503 12.4302C5.09079 11.6285 4.65164 10.5516 4.65164 9.43017C4.65164 8.3087 5.09079 7.23182 5.87503 6.43017C6.67419 5.64115 7.752 5.19873 8.87503 5.19873C9.99806 5.19873 11.0759 5.64115 11.875 6.43017C11.968 6.52389 12.0786 6.59829 12.2005 6.64906C12.3223 6.69983 12.453 6.72596 12.585 6.72596C12.717 6.72596 12.8477 6.69983 12.9696 6.64906C13.0915 6.59829 13.2021 6.52389 13.295 6.43017C14.0942 5.64115 15.172 5.19873 16.295 5.19873C17.4181 5.19873 18.4959 5.64115 19.295 6.43017C20.0901 7.22132 20.5436 8.29236 20.5586 9.41385C20.5735 10.5353 20.1487 11.6181 19.375 12.4302V12.4602Z" fill="#034C82"/>
</svg>
