<svg width="25" height="24" viewBox="0 0 25 24" fill="none" xmlns="http://www.w3.org/2000/svg">
<path d="M9.875 10H10.875C11.1402 10 11.3946 9.89464 11.5821 9.70711C11.7696 9.51957 11.875 9.26522 11.875 9C11.875 8.73478 11.7696 8.48043 11.5821 8.29289C11.3946 8.10536 11.1402 8 10.875 8H9.875C9.60978 8 9.35543 8.10536 9.16789 8.29289C8.98036 8.48043 8.875 8.73478 8.875 9C8.875 9.26522 8.98036 9.51957 9.16789 9.70711C9.35543 9.89464 9.60978 10 9.875 10V10ZM9.875 12C9.60978 12 9.35543 12.1054 9.16789 12.2929C8.98036 12.4804 8.875 12.7348 8.875 13C8.875 13.2652 8.98036 13.5196 9.16789 13.7071C9.35543 13.8946 9.60978 14 9.875 14H15.875C16.1402 14 16.3946 13.8946 16.5821 13.7071C16.7696 13.5196 16.875 13.2652 16.875 13C16.875 12.7348 16.7696 12.4804 16.5821 12.2929C16.3946 12.1054 16.1402 12 15.875 12H9.875ZM20.875 8.94C20.8646 8.84813 20.8445 8.75763 20.815 8.67V8.58C20.7669 8.47718 20.7028 8.38267 20.625 8.3V8.3L14.625 2.3C14.5423 2.22222 14.4478 2.15808 14.345 2.11C14.3152 2.10576 14.2849 2.10576 14.255 2.11C14.1534 2.05174 14.0412 2.01434 13.925 2H7.875C7.07935 2 6.31629 2.31607 5.75368 2.87868C5.19107 3.44129 4.875 4.20435 4.875 5V19C4.875 19.7956 5.19107 20.5587 5.75368 21.1213C6.31629 21.6839 7.07935 22 7.875 22H17.875C18.6706 22 19.4337 21.6839 19.9963 21.1213C20.5589 20.5587 20.875 19.7956 20.875 19V9C20.875 9 20.875 9 20.875 8.94ZM14.875 5.41L17.465 8H15.875C15.6098 8 15.3554 7.89464 15.1679 7.70711C14.9804 7.51957 14.875 7.26522 14.875 7V5.41ZM18.875 19C18.875 19.2652 18.7696 19.5196 18.5821 19.7071C18.3946 19.8946 18.1402 20 17.875 20H7.875C7.60978 20 7.35543 19.8946 7.16789 19.7071C6.98036 19.5196 6.875 19.2652 6.875 19V5C6.875 4.73478 6.98036 4.48043 7.16789 4.29289C7.35543 4.10536 7.60978 4 7.875 4H12.875V7C12.875 7.79565 13.1911 8.55871 13.7537 9.12132C14.3163 9.68393 15.0794 10 15.875 10H18.875V19ZM15.875 16H9.875C9.60978 16 9.35543 16.1054 9.16789 16.2929C8.98036 16.4804 8.875 16.7348 8.875 17C8.875 17.2652 8.98036 17.5196 9.16789 17.7071C9.35543 17.8946 9.60978 18 9.875 18H15.875C16.1402 18 16.3946 17.8946 16.5821 17.7071C16.7696 17.5196 16.875 17.2652 16.875 17C16.875 16.7348 16.7696 16.4804 16.5821 16.2929C16.3946 16.1054 16.1402 16 15.875 16Z" fill="#034C82"/>
</svg>
