<svg width="32" height="32" viewBox="0 0 32 32" fill="none" xmlns="http://www.w3.org/2000/svg">
<g clip-path="url(#clip0_31174_34468)">
<path d="M6.5 7C6.63261 7 6.75979 7.05268 6.85355 7.14645C6.94732 7.24022 7 7.36739 7 7.5H8C8 7.20333 7.91203 6.91332 7.74721 6.66665C7.58238 6.41997 7.34811 6.22771 7.07403 6.11418C6.79994 6.00065 6.49834 5.97094 6.20737 6.02882C5.91639 6.0867 5.64912 6.22956 5.43934 6.43934C5.22956 6.64912 5.0867 6.91639 5.02882 7.20737C4.97094 7.49834 5.00065 7.79994 5.11418 8.07403C5.22771 8.34811 5.41997 8.58238 5.66665 8.74721C5.91332 8.91203 6.20333 9 6.5 9C6.59889 9 6.69556 9.02932 6.77779 9.08427C6.86001 9.13921 6.9241 9.2173 6.96194 9.30866C6.99978 9.40002 7.00969 9.50056 6.99039 9.59755C6.9711 9.69454 6.92348 9.78363 6.85355 9.85355C6.78363 9.92348 6.69454 9.9711 6.59755 9.99039C6.50056 10.0097 6.40002 9.99978 6.30866 9.96194C6.2173 9.9241 6.13921 9.86001 6.08427 9.77779C6.02933 9.69556 6 9.59889 6 9.5H5C5 9.79667 5.08797 10.0867 5.2528 10.3334C5.41762 10.58 5.65189 10.7723 5.92598 10.8858C6.20006 10.9994 6.50166 11.0291 6.79264 10.9712C7.08361 10.9133 7.35088 10.7704 7.56066 10.5607C7.77044 10.3509 7.9133 10.0836 7.97118 9.79264C8.02906 9.50167 7.99935 9.20006 7.88582 8.92598C7.77229 8.65189 7.58003 8.41762 7.33336 8.2528C7.08668 8.08797 6.79667 8 6.5 8C6.36739 8 6.24022 7.94732 6.14645 7.85355C6.05268 7.75979 6 7.63261 6 7.5C6 7.36739 6.05268 7.24022 6.14645 7.14645C6.24022 7.05268 6.36739 7 6.5 7Z" fill="#034C82"/>
<path d="M10.5 8H9.5V6H8.5V11H9.5V9H10.5V11H11.5V6H10.5V8Z" fill="#034C82"/>
<path d="M13.75 6C13.2859 6 12.8408 6.18437 12.5126 6.51256C12.1844 6.84075 12 7.28587 12 7.75V9.25C12 9.71413 12.1844 10.1592 12.5126 10.4874C12.8408 10.8156 13.2859 11 13.75 11C14.2141 11 14.6592 10.8156 14.9874 10.4874C15.3156 10.1592 15.5 9.71413 15.5 9.25V7.75C15.5 7.28587 15.3156 6.84075 14.9874 6.51256C14.6592 6.18437 14.2141 6 13.75 6ZM14.5 9.25C14.5 9.44891 14.421 9.63968 14.2803 9.78033C14.1397 9.92098 13.9489 10 13.75 10C13.5511 10 13.3603 9.92098 13.2197 9.78033C13.079 9.63968 13 9.44891 13 9.25V7.75C13 7.55109 13.079 7.36032 13.2197 7.21967C13.3603 7.07902 13.5511 7 13.75 7C13.9489 7 14.1397 7.07902 14.2803 7.21967C14.421 7.36032 14.5 7.55109 14.5 7.75V9.25Z" fill="#034C82"/>
<path d="M17.25 6H16.5C16.3674 6 16.2402 6.05268 16.1464 6.14645C16.0527 6.24021 16 6.36739 16 6.5V11H17V9.5H17.25C17.7141 9.5 18.1592 9.31563 18.4874 8.98744C18.8156 8.65925 19 8.21413 19 7.75C19 7.28587 18.8156 6.84075 18.4874 6.51256C18.1592 6.18437 17.7141 6 17.25 6ZM17.25 8.5H17V7H17.25C17.4489 7 17.6397 7.07902 17.7803 7.21967C17.921 7.36032 18 7.55109 18 7.75C18 7.94891 17.921 8.13968 17.7803 8.28033C17.6397 8.42098 17.4489 8.5 17.25 8.5Z" fill="#034C82"/>
<path d="M30.7765 21.95C30.8529 21.9882 30.9379 22.0062 31.0232 22.0022C31.1086 21.9982 31.1915 21.9724 31.2641 21.9273C31.3366 21.8822 31.3964 21.8192 31.4377 21.7444C31.479 21.6696 31.5005 21.5854 31.5 21.5V19.5C31.5005 19.4067 31.4749 19.315 31.426 19.2355C31.3771 19.156 31.307 19.0917 31.2235 19.05L22.5 14.691V3.5H23C23.1326 3.5 23.2598 3.44732 23.3536 3.35355C23.4473 3.25979 23.5 3.13261 23.5 3V1C23.5 0.867392 23.4473 0.740215 23.3536 0.646447C23.2598 0.552678 23.1326 0.5 23 0.5H1C0.867392 0.5 0.740215 0.552678 0.646447 0.646447C0.552678 0.740215 0.5 0.867392 0.5 1V3C0.5 3.13261 0.552678 3.25979 0.646447 3.35355C0.740215 3.44732 0.867392 3.5 1 3.5H1.5V28.5H1C0.867392 28.5 0.740215 28.5527 0.646447 28.6464C0.552678 28.7402 0.5 28.8674 0.5 29V31C0.5 31.1326 0.552678 31.2598 0.646447 31.3536C0.740215 31.4473 0.867392 31.5 1 31.5H31C31.1326 31.5 31.2598 31.4473 31.3536 31.3536C31.4473 31.2598 31.5 31.1326 31.5 31V29C31.5 28.8674 31.4473 28.7402 31.3536 28.6464C31.2598 28.5527 31.1326 28.5 31 28.5H30.5V21.809L30.7765 21.95ZM30.5 19.809V20.691L22.5 16.691V15.809L30.5 19.809ZM17 28.5V27.5H21.5V28.5H17ZM2.5 5.5H21.5V11.5H2.5V5.5ZM11.5 12.5V16.5H7.5V12.5H11.5ZM12.5 12.5H16.5V16.5H12.5V12.5ZM17.5 12.5H21.5V16.5H17.5V12.5ZM2.5 12.5H6.5V16.5H2.5V12.5ZM2.5 17.5H21.5V23.5H17V22.5H17.5C17.6326 22.5 17.7598 22.4473 17.8536 22.3536C17.9473 22.2598 18 22.1326 18 22V20C18 19.8674 17.9473 19.7402 17.8536 19.6464C17.7598 19.5527 17.6326 19.5 17.5 19.5H6.5C6.36739 19.5 6.24021 19.5527 6.14645 19.6464C6.05268 19.7402 6 19.8674 6 20V22C6 22.1326 6.05268 22.2598 6.14645 22.3536C6.24021 22.4473 6.36739 22.5 6.5 22.5H7V23.5H2.5V17.5ZM21.5 26.5H17V24.5H21.5V26.5ZM7 21.5V20.5H17V21.5H7ZM2.5 24.5H7V26.5H2.5V24.5ZM8 22.5H11.5V28.5H8V22.5ZM12.5 22.5H16V28.5H12.5V22.5ZM1.5 1.5H22.5V2.5H1.5V1.5ZM21.5 3.5V4.5H2.5V3.5H21.5ZM2.5 27.5H7V28.5H2.5V27.5ZM30.5 30.5H1.5V29.5H30.5V30.5ZM29.5 28.5H22.5V17.809L29.5 21.309V28.5Z" fill="#034C82"/>
<path d="M24 27.4998H28C28.1326 27.4998 28.2598 27.4471 28.3536 27.3534C28.4473 27.2596 28.5 27.1324 28.5 26.9998V21.9998C28.5005 21.9065 28.4749 21.8148 28.426 21.7353C28.3772 21.6558 28.307 21.5915 28.2235 21.5498L24.2235 19.5498C24.1471 19.5116 24.0621 19.4936 23.9768 19.4976C23.8914 19.5016 23.8085 19.5274 23.7359 19.5725C23.6634 19.6176 23.6036 19.6806 23.5623 19.7554C23.521 19.8302 23.4995 19.9144 23.5 19.9998V26.9998C23.5 27.1324 23.5527 27.2596 23.6465 27.3534C23.7402 27.4471 23.8674 27.4998 24 27.4998ZM27.5 26.4998H26.5V21.8088L27.5 22.3088V26.4998ZM24.5 20.8088L25.5 21.3088V26.4998H24.5V20.8088Z" fill="#034C82"/>
</g>
<defs>
<clipPath id="clip0_31174_34468">
<rect width="32" height="32" fill="white"/>
</clipPath>
</defs>
</svg>
